<?xml version="1.0" encoding="UTF-8" standalone="no"?>
<!DOCTYPE svg PUBLIC "-//W3C//DTD SVG 1.1//EN"
 "http://www.w3.org/Graphics/SVG/1.1/DTD/svg11.dtd">
<!-- Generated by graphviz version 2.42.4 (0)
 -->
<!-- Title: src/main.cpp Pages: 1 -->
<svg width="699pt" height="357pt"
 viewBox="0.00 0.00 698.75 357.00" xmlns="http://www.w3.org/2000/svg" xmlns:xlink="http://www.w3.org/1999/xlink">
<g id="graph0" class="graph" transform="scale(1 1) rotate(0) translate(4 353)">
<title>src/main.cpp</title>
<!-- Node1 -->
<g id="Node000001" class="node">
<title>Node1</title>
<g id="a_Node000001"><a xlink:title=" ">
<polygon fill="#999999" stroke="#666666" points="250.25,-349 171.25,-349 171.25,-330 250.25,-330 250.25,-349"/>
<text text-anchor="middle" x="210.75" y="-337" font-family="Helvetica,sans-Serif" font-size="10.00">src/main.cpp</text>
</a>
</g>
</g>
<!-- Node2 -->
<g id="Node000002" class="node">
<title>Node2</title>
<g id="a_Node000002"><a xlink:title=" ">
<polygon fill="#e0e0e0" stroke="#999999" points="185.75,-294 125.75,-294 125.75,-275 185.75,-275 185.75,-294"/>
<text text-anchor="middle" x="155.75" y="-282" font-family="Helvetica,sans-Serif" font-size="10.00">iostream</text>
</a>
</g>
</g>
<!-- Node1&#45;&gt;Node2 -->
<g id="edge1_Node000001_Node000002" class="edge">
<title>Node1&#45;&gt;Node2</title>
<g id="a_edge1_Node000001_Node000002"><a xlink:title=" ">
<path fill="none" stroke="#63b8ff" d="M201.67,-329.75C193.66,-322.03 181.79,-310.6 172.13,-301.28"/>
<polygon fill="#63b8ff" stroke="#63b8ff" points="174.29,-298.51 164.66,-294.09 169.44,-303.55 174.29,-298.51"/>
</a>
</g>
</g>
<!-- Node3 -->
<g id="Node000003" class="node">
<title>Node3</title>
<g id="a_Node000003"><a xlink:href="../../dd/d48/BatchProcessor_8hpp.html" target="_top" xlink:title=" ">
<polygon fill="white" stroke="#666666" points="327.75,-294 203.75,-294 203.75,-275 327.75,-275 327.75,-294"/>
<text text-anchor="middle" x="265.75" y="-282" font-family="Helvetica,sans-Serif" font-size="10.00">io/BatchProcessor.hpp</text>
</a>
</g>
</g>
<!-- Node1&#45;&gt;Node3 -->
<g id="edge2_Node000001_Node000003" class="edge">
<title>Node1&#45;&gt;Node3</title>
<g id="a_edge2_Node000001_Node000003"><a xlink:title=" ">
<path fill="none" stroke="#63b8ff" d="M219.83,-329.75C227.84,-322.03 239.71,-310.6 249.37,-301.28"/>
<polygon fill="#63b8ff" stroke="#63b8ff" points="252.06,-303.55 256.84,-294.09 247.21,-298.51 252.06,-303.55"/>
</a>
</g>
</g>
<!-- Node4 -->
<g id="Node000004" class="node">
<title>Node4</title>
<g id="a_Node000004"><a xlink:title=" ">
<polygon fill="#e0e0e0" stroke="#999999" points="58.75,-184 14.75,-184 14.75,-165 58.75,-165 58.75,-184"/>
<text text-anchor="middle" x="36.75" y="-172" font-family="Helvetica,sans-Serif" font-size="10.00">string</text>
</a>
</g>
</g>
<!-- Node3&#45;&gt;Node4 -->
<g id="edge3_Node000003_Node000004" class="edge">
<title>Node3&#45;&gt;Node4</title>
<g id="a_edge3_Node000003_Node000004"><a xlink:title=" ">
<path fill="none" stroke="#63b8ff" d="M213.28,-274.97C155.85,-265.2 70.31,-249.23 58.75,-239 46.07,-227.77 40.69,-208.86 38.42,-194.58"/>
<polygon fill="#63b8ff" stroke="#63b8ff" points="41.86,-193.87 37.18,-184.37 34.91,-194.72 41.86,-193.87"/>
</a>
</g>
</g>
<!-- Node5 -->
<g id="Node000005" class="node">
<title>Node5</title>
<g id="a_Node000005"><a xlink:title=" ">
<polygon fill="#e0e0e0" stroke="#999999" points="96.75,-129 38.75,-129 38.75,-110 96.75,-110 96.75,-129"/>
<text text-anchor="middle" x="67.75" y="-117" font-family="Helvetica,sans-Serif" font-size="10.00">memory</text>
</a>
</g>
</g>
<!-- Node3&#45;&gt;Node5 -->
<g id="edge4_Node000003_Node000005" class="edge">
<title>Node3&#45;&gt;Node5</title>
<g id="a_edge4_Node000003_Node000005"><a xlink:title=" ">
<path fill="none" stroke="#63b8ff" d="M211.89,-274.96C150.47,-264.87 56.71,-248.3 42.75,-239 12.15,-218.61 -11.04,-197.71 5.75,-165 12.71,-151.44 25.94,-141.07 38.4,-133.78"/>
<polygon fill="#63b8ff" stroke="#63b8ff" points="40.1,-136.84 47.23,-129 36.77,-130.68 40.1,-136.84"/>
</a>
</g>
</g>
<!-- Node6 -->
<g id="Node000006" class="node">
<title>Node6</title>
<g id="a_Node000006"><a xlink:title=" ">
<polygon fill="#e0e0e0" stroke="#999999" points="532.75,-239 476.75,-239 476.75,-220 532.75,-220 532.75,-239"/>
<text text-anchor="middle" x="504.75" y="-227" font-family="Helvetica,sans-Serif" font-size="10.00">sstream</text>
</a>
</g>
</g>
<!-- Node3&#45;&gt;Node6 -->
<g id="edge5_Node000003_Node000006" class="edge">
<title>Node3&#45;&gt;Node6</title>
<g id="a_edge5_Node000003_Node000006"><a xlink:title=" ">
<path fill="none" stroke="#63b8ff" d="M304.15,-274.98C348.83,-265.08 422.16,-248.82 466.69,-238.94"/>
<polygon fill="#63b8ff" stroke="#63b8ff" points="467.54,-242.34 476.55,-236.75 466.03,-235.5 467.54,-242.34"/>
</a>
</g>
</g>
<!-- Node7 -->
<g id="Node000007" class="node">
<title>Node7</title>
<g id="a_Node000007"><a xlink:href="../../d9/dd4/IImageHandler_8hpp.html" target="_top" xlink:title=" ">
<polygon fill="white" stroke="#666666" points="177.25,-239 68.25,-239 68.25,-220 177.25,-220 177.25,-239"/>
<text text-anchor="middle" x="122.75" y="-227" font-family="Helvetica,sans-Serif" font-size="10.00">IImageHandler.hpp</text>
</a>
</g>
</g>
<!-- Node3&#45;&gt;Node7 -->
<g id="edge6_Node000003_Node000007" class="edge">
<title>Node3&#45;&gt;Node7</title>
<g id="a_edge6_Node000003_Node000007"><a xlink:title=" ">
<path fill="none" stroke="#63b8ff" d="M242.77,-274.98C219.25,-266.27 182.46,-252.63 155.81,-242.75"/>
<polygon fill="#63b8ff" stroke="#63b8ff" points="156.74,-239.36 146.14,-239.17 154.3,-245.93 156.74,-239.36"/>
</a>
</g>
</g>
<!-- Node8 -->
<g id="Node000008" class="node">
<title>Node8</title>
<g id="a_Node000008"><a xlink:href="../../d8/dde/Image_8hpp.html" target="_top" xlink:title=" ">
<polygon fill="white" stroke="#666666" points="307.75,-74 209.75,-74 209.75,-55 307.75,-55 307.75,-74"/>
<text text-anchor="middle" x="258.75" y="-62" font-family="Helvetica,sans-Serif" font-size="10.00">types/Image.hpp</text>
</a>
</g>
</g>
<!-- Node3&#45;&gt;Node8 -->
<g id="edge19_Node000003_Node000008" class="edge">
<title>Node3&#45;&gt;Node8</title>
<g id="a_edge19_Node000003_Node000008"><a xlink:title=" ">
<path fill="none" stroke="#63b8ff" d="M302,-274.96C358.79,-259.62 459.36,-223.44 429.75,-165 405.32,-116.78 346.29,-90.24 304.45,-76.95"/>
<polygon fill="#63b8ff" stroke="#63b8ff" points="305.33,-73.56 294.74,-74.01 303.3,-80.26 305.33,-73.56"/>
</a>
</g>
</g>
<!-- Node12 -->
<g id="Node000012" class="node">
<title>Node12</title>
<g id="a_Node000012"><a xlink:href="../../d1/d64/FilterPipeline_8hpp.html" target="_top" xlink:title=" ">
<polygon fill="white" stroke="#666666" points="286.75,-184 152.75,-184 152.75,-165 286.75,-165 286.75,-184"/>
<text text-anchor="middle" x="219.75" y="-172" font-family="Helvetica,sans-Serif" font-size="10.00">filt_op/FilterPipeline.hpp</text>
</a>
</g>
</g>
<!-- Node3&#45;&gt;Node12 -->
<g id="edge13_Node000003_Node000012" class="edge">
<title>Node3&#45;&gt;Node12</title>
<g id="a_edge13_Node000003_Node000012"><a xlink:title=" ">
<path fill="none" stroke="#63b8ff" d="M259.68,-274.99C253.7,-266.29 244.62,-252.21 238.75,-239 232.32,-224.52 227.31,-207.25 224.05,-194.38"/>
<polygon fill="#63b8ff" stroke="#63b8ff" points="227.39,-193.29 221.65,-184.38 220.58,-194.92 227.39,-193.29"/>
</a>
</g>
</g>
<!-- Node14 -->
<g id="Node000014" class="node">
<title>Node14</title>
<g id="a_Node000014"><a xlink:href="../../d9/d72/FilterFactory_8hpp.html" target="_top" xlink:title=" ">
<polygon fill="white" stroke="#666666" points="377.25,-239 248.25,-239 248.25,-220 377.25,-220 377.25,-239"/>
<text text-anchor="middle" x="312.75" y="-227" font-family="Helvetica,sans-Serif" font-size="10.00">filt_op/FilterFactory.hpp</text>
</a>
</g>
</g>
<!-- Node3&#45;&gt;Node14 -->
<g id="edge20_Node000003_Node000014" class="edge">
<title>Node3&#45;&gt;Node14</title>
<g id="a_edge20_Node000003_Node000014"><a xlink:title=" ">
<path fill="none" stroke="#63b8ff" d="M273.51,-274.75C280.22,-267.18 290.09,-256.05 298.26,-246.84"/>
<polygon fill="#63b8ff" stroke="#63b8ff" points="301.12,-248.89 305.13,-239.09 295.88,-244.25 301.12,-248.89"/>
</a>
</g>
</g>
<!-- Node16 -->
<g id="Node000016" class="node">
<title>Node16</title>
<g id="a_Node000016"><a xlink:href="../../d2/d11/CommandType_8hpp.html" target="_top" xlink:title=" ">
<polygon fill="white" stroke="#666666" points="690.75,-239 550.75,-239 550.75,-220 690.75,-220 690.75,-239"/>
<text text-anchor="middle" x="620.75" y="-227" font-family="Helvetica,sans-Serif" font-size="10.00">types/CommandType.hpp</text>
</a>
</g>
</g>
<!-- Node3&#45;&gt;Node16 -->
<g id="edge23_Node000003_Node000016" class="edge">
<title>Node3&#45;&gt;Node16</title>
<g id="a_edge23_Node000003_Node000016"><a xlink:title=" ">
<path fill="none" stroke="#63b8ff" d="M322.79,-274.98C385.71,-265.59 486.86,-250.49 553.57,-240.53"/>
<polygon fill="#63b8ff" stroke="#63b8ff" points="554.19,-243.98 563.56,-239.04 553.15,-237.05 554.19,-243.98"/>
</a>
</g>
</g>
<!-- Node7&#45;&gt;Node4 -->
<g id="edge11_Node000007_Node000004" class="edge">
<title>Node7&#45;&gt;Node4</title>
<g id="a_edge11_Node000007_Node000004"><a xlink:title=" ">
<path fill="none" stroke="#63b8ff" d="M108.93,-219.98C95.6,-211.77 75.17,-199.18 59.44,-189.49"/>
<polygon fill="#63b8ff" stroke="#63b8ff" points="61.17,-186.44 50.82,-184.17 57.5,-192.4 61.17,-186.44"/>
</a>
</g>
</g>
<!-- Node7&#45;&gt;Node5 -->
<g id="edge12_Node000007_Node000005" class="edge">
<title>Node7&#45;&gt;Node5</title>
<g id="a_edge12_Node000007_Node000005"><a xlink:title=" ">
<path fill="none" stroke="#63b8ff" d="M118.25,-219.66C109.22,-201.93 88.75,-161.73 76.82,-138.32"/>
<polygon fill="#63b8ff" stroke="#63b8ff" points="79.82,-136.48 72.16,-129.16 73.58,-139.66 79.82,-136.48"/>
</a>
</g>
</g>
<!-- Node7&#45;&gt;Node8 -->
<g id="edge7_Node000007_Node000008" class="edge">
<title>Node7&#45;&gt;Node8</title>
<g id="a_edge7_Node000007_Node000008"><a xlink:title=" ">
<path fill="none" stroke="#63b8ff" d="M124.14,-219.63C126.48,-206.72 132.15,-182.39 143.75,-165 168.4,-128.07 210.29,-96.72 236.13,-79.56"/>
<polygon fill="#63b8ff" stroke="#63b8ff" points="238.07,-82.47 244.55,-74.09 234.26,-76.6 238.07,-82.47"/>
</a>
</g>
</g>
<!-- Node9 -->
<g id="Node000009" class="node">
<title>Node9</title>
<g id="a_Node000009"><a xlink:title=" ">
<polygon fill="#e0e0e0" stroke="#999999" points="207.25,-19 160.25,-19 160.25,0 207.25,0 207.25,-19"/>
<text text-anchor="middle" x="183.75" y="-7" font-family="Helvetica,sans-Serif" font-size="10.00">vector</text>
</a>
</g>
</g>
<!-- Node8&#45;&gt;Node9 -->
<g id="edge8_Node000008_Node000009" class="edge">
<title>Node8&#45;&gt;Node9</title>
<g id="a_edge8_Node000008_Node000009"><a xlink:title=" ">
<path fill="none" stroke="#63b8ff" d="M246.7,-54.98C235.29,-46.92 217.92,-34.65 204.32,-25.03"/>
<polygon fill="#63b8ff" stroke="#63b8ff" points="206.21,-22.08 196.02,-19.17 202.17,-27.8 206.21,-22.08"/>
</a>
</g>
</g>
<!-- Node10 -->
<g id="Node000010" class="node">
<title>Node10</title>
<g id="a_Node000010"><a xlink:title=" ">
<polygon fill="#e0e0e0" stroke="#999999" points="370.25,-19 305.25,-19 305.25,0 370.25,0 370.25,-19"/>
<text text-anchor="middle" x="337.75" y="-7" font-family="Helvetica,sans-Serif" font-size="10.00">stdexcept</text>
</a>
</g>
</g>
<!-- Node8&#45;&gt;Node10 -->
<g id="edge9_Node000008_Node000010" class="edge">
<title>Node8&#45;&gt;Node10</title>
<g id="a_edge9_Node000008_Node000010"><a xlink:title=" ">
<path fill="none" stroke="#63b8ff" d="M271.44,-54.98C283.58,-46.84 302.11,-34.41 316.5,-24.76"/>
<polygon fill="#63b8ff" stroke="#63b8ff" points="318.47,-27.65 324.83,-19.17 314.57,-21.84 318.47,-27.65"/>
</a>
</g>
</g>
<!-- Node11 -->
<g id="Node000011" class="node">
<title>Node11</title>
<g id="a_Node000011"><a xlink:href="../../d4/d0a/Pixel_8hpp.html" target="_top" xlink:title=" ">
<polygon fill="white" stroke="#666666" points="287.25,-19 226.25,-19 226.25,0 287.25,0 287.25,-19"/>
<text text-anchor="middle" x="256.75" y="-7" font-family="Helvetica,sans-Serif" font-size="10.00">Pixel.hpp</text>
</a>
</g>
</g>
<!-- Node8&#45;&gt;Node11 -->
<g id="edge10_Node000008_Node000011" class="edge">
<title>Node8&#45;&gt;Node11</title>
<g id="a_edge10_Node000008_Node000011"><a xlink:title=" ">
<path fill="none" stroke="#63b8ff" d="M258.42,-54.75C258.16,-47.8 257.78,-37.85 257.45,-29.13"/>
<polygon fill="#63b8ff" stroke="#63b8ff" points="260.95,-28.95 257.07,-19.09 253.95,-29.21 260.95,-28.95"/>
</a>
</g>
</g>
<!-- Node12&#45;&gt;Node5 -->
<g id="edge15_Node000012_Node000005" class="edge">
<title>Node12&#45;&gt;Node5</title>
<g id="a_edge15_Node000012_Node000005"><a xlink:title=" ">
<path fill="none" stroke="#63b8ff" d="M195.33,-164.98C170.03,-156.16 130.3,-142.31 101.89,-132.41"/>
<polygon fill="#63b8ff" stroke="#63b8ff" points="102.96,-129.07 92.36,-129.08 100.65,-135.68 102.96,-129.07"/>
</a>
</g>
</g>
<!-- Node12&#45;&gt;Node8 -->
<g id="edge16_Node000012_Node000008" class="edge">
<title>Node12&#45;&gt;Node8</title>
<g id="a_edge16_Node000012_Node000008"><a xlink:title=" ">
<path fill="none" stroke="#63b8ff" d="M221.98,-164.75C225.21,-152.4 231.6,-129.19 238.75,-110 242.08,-101.07 246.34,-91.4 250.08,-83.35"/>
<polygon fill="#63b8ff" stroke="#63b8ff" points="253.29,-84.76 254.42,-74.22 246.96,-81.75 253.29,-84.76"/>
</a>
</g>
</g>
<!-- Node12&#45;&gt;Node9 -->
<g id="edge14_Node000012_Node000009" class="edge">
<title>Node12&#45;&gt;Node9</title>
<g id="a_edge14_Node000012_Node000009"><a xlink:title=" ">
<path fill="none" stroke="#63b8ff" d="M217.81,-164.74C212.17,-139.2 195.66,-64.43 187.89,-29.23"/>
<polygon fill="#63b8ff" stroke="#63b8ff" points="191.27,-28.32 185.7,-19.31 184.43,-29.83 191.27,-28.32"/>
</a>
</g>
</g>
<!-- Node13 -->
<g id="Node000013" class="node">
<title>Node13</title>
<g id="a_Node000013"><a xlink:href="../../d0/da6/IFilter_8hpp.html" target="_top" xlink:title=" ">
<polygon fill="white" stroke="#666666" points="345.75,-129 247.75,-129 247.75,-110 345.75,-110 345.75,-129"/>
<text text-anchor="middle" x="296.75" y="-117" font-family="Helvetica,sans-Serif" font-size="10.00">filt_op/IFilter.hpp</text>
</a>
</g>
</g>
<!-- Node12&#45;&gt;Node13 -->
<g id="edge17_Node000012_Node000013" class="edge">
<title>Node12&#45;&gt;Node13</title>
<g id="a_edge17_Node000012_Node000013"><a xlink:title=" ">
<path fill="none" stroke="#63b8ff" d="M232.12,-164.98C243.84,-156.92 261.67,-144.65 275.64,-135.03"/>
<polygon fill="#63b8ff" stroke="#63b8ff" points="277.9,-137.72 284.15,-129.17 273.93,-131.96 277.9,-137.72"/>
</a>
</g>
</g>
<!-- Node13&#45;&gt;Node8 -->
<g id="edge18_Node000013_Node000008" class="edge">
<title>Node13&#45;&gt;Node8</title>
<g id="a_edge18_Node000013_Node000008"><a xlink:title=" ">
<path fill="none" stroke="#63b8ff" d="M290.48,-109.75C285.16,-102.34 277.39,-91.5 270.87,-82.41"/>
<polygon fill="#63b8ff" stroke="#63b8ff" points="273.58,-80.18 264.91,-74.09 267.89,-84.26 273.58,-80.18"/>
</a>
</g>
</g>
<!-- Node14&#45;&gt;Node12 -->
<g id="edge21_Node000014_Node000012" class="edge">
<title>Node14&#45;&gt;Node12</title>
<g id="a_edge21_Node000014_Node000012"><a xlink:title=" ">
<path fill="none" stroke="#63b8ff" d="M297.81,-219.98C283.25,-211.69 260.88,-198.94 243.82,-189.22"/>
<polygon fill="#63b8ff" stroke="#63b8ff" points="245.39,-186.08 234.96,-184.17 241.92,-192.16 245.39,-186.08"/>
</a>
</g>
</g>
<!-- Node15 -->
<g id="Node000015" class="node">
<title>Node15</title>
<g id="a_Node000015"><a xlink:href="../../d6/d0d/FilterSpec_8hpp.html" target="_top" xlink:title=" ">
<polygon fill="white" stroke="#666666" points="420.75,-184 304.75,-184 304.75,-165 420.75,-165 420.75,-184"/>
<text text-anchor="middle" x="362.75" y="-172" font-family="Helvetica,sans-Serif" font-size="10.00">types/FilterSpec.hpp</text>
</a>
</g>
</g>
<!-- Node14&#45;&gt;Node15 -->
<g id="edge22_Node000014_Node000015" class="edge">
<title>Node14&#45;&gt;Node15</title>
<g id="a_edge22_Node000014_Node000015"><a xlink:title=" ">
<path fill="none" stroke="#63b8ff" d="M321.01,-219.75C328.21,-212.11 338.86,-200.82 347.6,-191.56"/>
<polygon fill="#63b8ff" stroke="#63b8ff" points="350.33,-193.76 354.65,-184.09 345.24,-188.96 350.33,-193.76"/>
</a>
</g>
</g>
</g>
</svg>
