<?xml version="1.0" encoding="UTF-8" standalone="no"?>
<!DOCTYPE svg PUBLIC "-//W3C//DTD SVG 1.1//EN"
 "http://www.w3.org/Graphics/SVG/1.1/DTD/svg11.dtd">
<!-- Generated by graphviz version 2.42.4 (0)
 -->
<!-- Title: include/io/IImageHandler.hpp Pages: 1 -->
<svg width="442pt" height="137pt"
 viewBox="0.00 0.00 442.00 137.00" xmlns="http://www.w3.org/2000/svg" xmlns:xlink="http://www.w3.org/1999/xlink">

<svg id="main" version="1.1" xmlns="http://www.w3.org/2000/svg" xmlns:xlink="http://www.w3.org/1999/xlink" xml:space="preserve" onload="init(evt)">
<style type="text/css"><![CDATA[
.node, .edge {opacity: 0.7;}
.node.selected, .edge.selected {opacity: 1;}
.edge:hover path { stroke: red; }
.edge:hover polygon { stroke: red; fill: red; }
]]></style>
<script type="application/ecmascript" xlink:href="../../svg.min.js"/>
<svg id="graph" class="graph">
<g id="graph0" class="graph" transform="scale(1 1) rotate(0) translate(4 133)">
<title>include/io/IImageHandler.hpp</title>
<!-- Node1 -->
<g id="Node000001" class="node">
<title>Node1</title>
<g id="a_Node000001"><a xlink:title=" ">
<polygon fill="#999999" stroke="#666666" points="323.5,-129 164.5,-129 164.5,-110 323.5,-110 323.5,-129"/>
<text text-anchor="middle" x="244" y="-117" font-family="Helvetica,sans-Serif" font-size="10.00">include/io/IImageHandler.hpp</text>
</a>
</g>
</g>
<!-- Node2 -->
<g id="Node000002" class="node">
<title>Node2</title>
<g id="a_Node000002"><a xlink:href="../../d7/def/BMPImageHandler_8hpp.html" target="_top" xlink:title=" ">
<polygon fill="white" stroke="#666666" points="216,-74 38,-74 38,-55 216,-55 216,-74"/>
<text text-anchor="middle" x="127" y="-62" font-family="Helvetica,sans-Serif" font-size="10.00">include/io/BMPImageHandler.hpp</text>
</a>
</g>
</g>
<!-- Node1&#45;&gt;Node2 -->
<g id="edge1_Node000001_Node000002" class="edge">
<title>Node1&#45;&gt;Node2</title>
<g id="a_edge1_Node000001_Node000002"><a xlink:title=" ">
<path fill="none" stroke="#63b8ff" d="M215.89,-105.77C194.31,-95.99 165.09,-82.75 146.14,-74.17"/>
<polygon fill="#63b8ff" stroke="#63b8ff" points="214.65,-109.05 225.2,-109.98 217.54,-102.67 214.65,-109.05"/>
</a>
</g>
</g>
<!-- Node4 -->
<g id="Node000004" class="node">
<title>Node4</title>
<g id="a_Node000004"><a xlink:href="../../d2/d82/BatchProcessor_8cpp.html" target="_top" xlink:title=" ">
<polygon fill="white" stroke="#666666" points="314,-19 174,-19 174,0 314,0 314,-19"/>
<text text-anchor="middle" x="244" y="-7" font-family="Helvetica,sans-Serif" font-size="10.00">src/io/BatchProcessor.cpp</text>
</a>
</g>
</g>
<!-- Node1&#45;&gt;Node4 -->
<g id="edge7_Node000001_Node000004" class="edge">
<title>Node1&#45;&gt;Node4</title>
<g id="a_edge7_Node000001_Node000004"><a xlink:title=" ">
<path fill="none" stroke="#63b8ff" d="M244,-99.48C244,-75.84 244,-36.5 244,-19.16"/>
<polygon fill="#63b8ff" stroke="#63b8ff" points="240.5,-99.66 244,-109.66 247.5,-99.66 240.5,-99.66"/>
</a>
</g>
</g>
<!-- Node5 -->
<g id="Node000005" class="node">
<title>Node5</title>
<g id="a_Node000005"><a xlink:href="../../dd/d48/BatchProcessor_8hpp.html" target="_top" xlink:title=" ">
<polygon fill="white" stroke="#666666" points="434,-74 272,-74 272,-55 434,-55 434,-74"/>
<text text-anchor="middle" x="353" y="-62" font-family="Helvetica,sans-Serif" font-size="10.00">include/io/BatchProcessor.hpp</text>
</a>
</g>
</g>
<!-- Node1&#45;&gt;Node5 -->
<g id="edge4_Node000001_Node000005" class="edge">
<title>Node1&#45;&gt;Node5</title>
<g id="a_edge4_Node000001_Node000005"><a xlink:title=" ">
<path fill="none" stroke="#63b8ff" d="M270.73,-105.5C290.79,-95.75 317.68,-82.68 335.17,-74.17"/>
<polygon fill="#63b8ff" stroke="#63b8ff" points="268.98,-102.46 261.51,-109.98 272.04,-108.76 268.98,-102.46"/>
</a>
</g>
</g>
<!-- Node3 -->
<g id="Node000003" class="node">
<title>Node3</title>
<g id="a_Node000003"><a xlink:href="../../d6/d83/BMPImageHandler_8cpp.html" target="_top" xlink:title=" ">
<polygon fill="white" stroke="#666666" points="156,-19 0,-19 0,0 156,0 156,-19"/>
<text text-anchor="middle" x="78" y="-7" font-family="Helvetica,sans-Serif" font-size="10.00">src/io/BMPImageHandler.cpp</text>
</a>
</g>
</g>
<!-- Node2&#45;&gt;Node3 -->
<g id="edge2_Node000002_Node000003" class="edge">
<title>Node2&#45;&gt;Node3</title>
<g id="a_edge2_Node000002_Node000003"><a xlink:title=" ">
<path fill="none" stroke="#63b8ff" d="M111.97,-47.24C103.38,-37.95 92.96,-26.68 85.94,-19.09"/>
<polygon fill="#63b8ff" stroke="#63b8ff" points="109.55,-49.78 118.91,-54.75 114.69,-45.03 109.55,-49.78"/>
</a>
</g>
</g>
<!-- Node2&#45;&gt;Node4 -->
<g id="edge3_Node000002_Node000004" class="edge">
<title>Node2&#45;&gt;Node4</title>
<g id="a_edge3_Node000002_Node000004"><a xlink:title=" ">
<path fill="none" stroke="#63b8ff" d="M155.11,-50.77C176.69,-40.99 205.91,-27.75 224.86,-19.17"/>
<polygon fill="#63b8ff" stroke="#63b8ff" points="153.46,-47.67 145.8,-54.98 156.35,-54.05 153.46,-47.67"/>
</a>
</g>
</g>
<!-- Node5&#45;&gt;Node4 -->
<g id="edge5_Node000005_Node000004" class="edge">
<title>Node5&#45;&gt;Node4</title>
<g id="a_edge5_Node000005_Node000004"><a xlink:title=" ">
<path fill="none" stroke="#63b8ff" d="M326.27,-50.5C306.21,-40.75 279.32,-27.68 261.83,-19.17"/>
<polygon fill="#63b8ff" stroke="#63b8ff" points="324.96,-53.76 335.49,-54.98 328.02,-47.46 324.96,-53.76"/>
</a>
</g>
</g>
<!-- Node6 -->
<g id="Node000006" class="node">
<title>Node6</title>
<g id="a_Node000006"><a xlink:href="../../df/d0a/main_8cpp.html" target="_top" xlink:title=" ">
<polygon fill="white" stroke="#666666" points="411.5,-19 332.5,-19 332.5,0 411.5,0 411.5,-19"/>
<text text-anchor="middle" x="372" y="-7" font-family="Helvetica,sans-Serif" font-size="10.00">src/main.cpp</text>
</a>
</g>
</g>
<!-- Node5&#45;&gt;Node6 -->
<g id="edge6_Node000005_Node000006" class="edge">
<title>Node5&#45;&gt;Node6</title>
<g id="a_edge6_Node000005_Node000006"><a xlink:title=" ">
<path fill="none" stroke="#63b8ff" d="M359.55,-45.24C362.72,-36.37 366.39,-26.14 368.92,-19.09"/>
<polygon fill="#63b8ff" stroke="#63b8ff" points="356.22,-44.15 356.14,-54.75 362.81,-46.52 356.22,-44.15"/>
</a>
</g>
</g>
</g>
</svg>
</svg>

<style type='text/css'>
<![CDATA[
[data-mouse-over-selected='false'] { opacity: 0.7; }
[data-mouse-over-selected='true']  { opacity: 1.0; }
]]>
</style>
<script type="application/ecmascript"><![CDATA[
document.addEventListener('DOMContentLoaded', (event) => {
  highlightEdges();
  highlightAdjacentNodes();
});
]]></script>
</svg>
