<?xml version="1.0" encoding="UTF-8" standalone="no"?>
<!DOCTYPE svg PUBLIC "-//W3C//DTD SVG 1.1//EN"
 "http://www.w3.org/Graphics/SVG/1.1/DTD/svg11.dtd">
<!-- Generated by graphviz version 2.42.4 (0)
 -->
<!-- Title: src/filt_op/kernelGenerators.cpp Pages: 1 -->
<svg width="293pt" height="137pt"
 viewBox="0.00 0.00 292.50 137.00" xmlns="http://www.w3.org/2000/svg" xmlns:xlink="http://www.w3.org/1999/xlink">

<svg id="main" version="1.1" xmlns="http://www.w3.org/2000/svg" xmlns:xlink="http://www.w3.org/1999/xlink" xml:space="preserve" onload="init(evt)">
<style type="text/css"><![CDATA[
.node, .edge {opacity: 0.7;}
.node.selected, .edge.selected {opacity: 1;}
.edge:hover path { stroke: red; }
.edge:hover polygon { stroke: red; fill: red; }
]]></style>
<script type="application/ecmascript" xlink:href="../../svg.min.js"/>
<svg id="graph" class="graph">
<g id="graph0" class="graph" transform="scale(1 1) rotate(0) translate(4 133)">
<title>src/filt_op/kernelGenerators.cpp</title>
<!-- Node1 -->
<g id="Node000001" class="node">
<title>Node1</title>
<g id="a_Node000001"><a xlink:title=" ">
<polygon fill="#999999" stroke="#666666" points="237.5,-129 66.5,-129 66.5,-110 237.5,-110 237.5,-129"/>
<text text-anchor="middle" x="152" y="-117" font-family="Helvetica,sans-Serif" font-size="10.00">src/filt_op/kernelGenerators.cpp</text>
</a>
</g>
</g>
<!-- Node2 -->
<g id="Node000002" class="node">
<title>Node2</title>
<g id="a_Node000002"><a xlink:href="../../d8/d46/Kernel_8hpp.html" target="_top" xlink:title=" ">
<polygon fill="white" stroke="#666666" points="98,-74 0,-74 0,-55 98,-55 98,-74"/>
<text text-anchor="middle" x="49" y="-62" font-family="Helvetica,sans-Serif" font-size="10.00">types/Kernel.hpp</text>
</a>
</g>
</g>
<!-- Node1&#45;&gt;Node2 -->
<g id="edge1_Node000001_Node000002" class="edge">
<title>Node1&#45;&gt;Node2</title>
<g id="a_edge1_Node000001_Node000002"><a xlink:title=" ">
<path fill="none" stroke="#63b8ff" d="M135.45,-109.98C119.11,-101.57 93.87,-88.59 74.87,-78.81"/>
<polygon fill="#63b8ff" stroke="#63b8ff" points="76.34,-75.63 65.85,-74.17 73.14,-81.86 76.34,-75.63"/>
</a>
</g>
</g>
<!-- Node3 -->
<g id="Node000003" class="node">
<title>Node3</title>
<g id="a_Node000003"><a xlink:title=" ">
<polygon fill="#e0e0e0" stroke="#999999" points="110.5,-19 63.5,-19 63.5,0 110.5,0 110.5,-19"/>
<text text-anchor="middle" x="87" y="-7" font-family="Helvetica,sans-Serif" font-size="10.00">vector</text>
</a>
</g>
</g>
<!-- Node1&#45;&gt;Node3 -->
<g id="edge5_Node000001_Node000003" class="edge">
<title>Node1&#45;&gt;Node3</title>
<g id="a_edge5_Node000001_Node000003"><a xlink:title=" ">
<path fill="none" stroke="#63b8ff" d="M146.68,-109.66C135.96,-91.85 111.6,-51.37 97.54,-28.01"/>
<polygon fill="#63b8ff" stroke="#63b8ff" points="100.37,-25.92 92.21,-19.16 94.37,-29.53 100.37,-25.92"/>
</a>
</g>
</g>
<!-- Node4 -->
<g id="Node000004" class="node">
<title>Node4</title>
<g id="a_Node000004"><a xlink:title=" ">
<polygon fill="#e0e0e0" stroke="#999999" points="201.5,-74 154.5,-74 154.5,-55 201.5,-55 201.5,-74"/>
<text text-anchor="middle" x="178" y="-62" font-family="Helvetica,sans-Serif" font-size="10.00">cmath</text>
</a>
</g>
</g>
<!-- Node1&#45;&gt;Node4 -->
<g id="edge3_Node000001_Node000004" class="edge">
<title>Node1&#45;&gt;Node4</title>
<g id="a_edge3_Node000001_Node000004"><a xlink:title=" ">
<path fill="none" stroke="#63b8ff" d="M156.29,-109.75C159.81,-102.57 164.91,-92.18 169.28,-83.27"/>
<polygon fill="#63b8ff" stroke="#63b8ff" points="172.52,-84.61 173.79,-74.09 166.24,-81.53 172.52,-84.61"/>
</a>
</g>
</g>
<!-- Node5 -->
<g id="Node000005" class="node">
<title>Node5</title>
<g id="a_Node000005"><a xlink:title=" ">
<polygon fill="#e0e0e0" stroke="#999999" points="284.5,-74 219.5,-74 219.5,-55 284.5,-55 284.5,-74"/>
<text text-anchor="middle" x="252" y="-62" font-family="Helvetica,sans-Serif" font-size="10.00">stdexcept</text>
</a>
</g>
</g>
<!-- Node1&#45;&gt;Node5 -->
<g id="edge4_Node000001_Node000005" class="edge">
<title>Node1&#45;&gt;Node5</title>
<g id="a_edge4_Node000001_Node000005"><a xlink:title=" ">
<path fill="none" stroke="#63b8ff" d="M168.07,-109.98C183.86,-101.61 208.22,-88.7 226.63,-78.95"/>
<polygon fill="#63b8ff" stroke="#63b8ff" points="228.44,-81.95 235.64,-74.17 225.17,-75.76 228.44,-81.95"/>
</a>
</g>
</g>
<!-- Node2&#45;&gt;Node3 -->
<g id="edge2_Node000002_Node000003" class="edge">
<title>Node2&#45;&gt;Node3</title>
<g id="a_edge2_Node000002_Node000003"><a xlink:title=" ">
<path fill="none" stroke="#63b8ff" d="M55.27,-54.75C60.59,-47.34 68.36,-36.5 74.88,-27.41"/>
<polygon fill="#63b8ff" stroke="#63b8ff" points="77.86,-29.26 80.84,-19.09 72.17,-25.18 77.86,-29.26"/>
</a>
</g>
</g>
</g>
</svg>
</svg>

<style type='text/css'>
<![CDATA[
[data-mouse-over-selected='false'] { opacity: 0.7; }
[data-mouse-over-selected='true']  { opacity: 1.0; }
]]>
</style>
<script type="application/ecmascript"><![CDATA[
document.addEventListener('DOMContentLoaded', (event) => {
  highlightEdges();
  highlightAdjacentNodes();
});
]]></script>
</svg>
