<?xml version="1.0" encoding="UTF-8" standalone="no"?>
<!DOCTYPE svg PUBLIC "-//W3C//DTD SVG 1.1//EN"
 "http://www.w3.org/Graphics/SVG/1.1/DTD/svg11.dtd">
<!-- Generated by graphviz version 2.42.4 (0)
 -->
<!-- Title: Image::getWidth Pages: 1 -->
<svg width="279pt" height="198pt"
 viewBox="0.00 0.00 279.00 197.50" xmlns="http://www.w3.org/2000/svg" xmlns:xlink="http://www.w3.org/1999/xlink">
<g id="graph0" class="graph" transform="scale(1 1) rotate(0) translate(4 193.5)">
<title>Image::getWidth</title>
<!-- Node1 -->
<g id="Node000001" class="node">
<title>Node1</title>
<g id="a_Node000001"><a xlink:title=" ">
<polygon fill="#999999" stroke="#666666" points="271,-93 173,-93 173,-74 271,-74 271,-93"/>
<text text-anchor="middle" x="222" y="-81" font-family="Helvetica,sans-Serif" font-size="10.00">Image::getWidth</text>
</a>
</g>
</g>
<!-- Node2 -->
<g id="Node000002" class="node">
<title>Node2</title>
<g id="a_Node000002"><a xlink:href="../../d6/d96/classContrastBrightnessFilter.html#a7a7b7853de9bead54be40d88148d14d8" target="_top" xlink:title=" ">
<polygon fill="white" stroke="#666666" points="135.5,-189.5 1.5,-189.5 1.5,-159.5 135.5,-159.5 135.5,-189.5"/>
<text text-anchor="start" x="9.5" y="-177.5" font-family="Helvetica,sans-Serif" font-size="10.00">ContrastBrightnessFilter</text>
<text text-anchor="middle" x="68.5" y="-166.5" font-family="Helvetica,sans-Serif" font-size="10.00">::apply</text>
</a>
</g>
</g>
<!-- Node1&#45;&gt;Node2 -->
<g id="edge1_Node000001_Node000002" class="edge">
<title>Node1&#45;&gt;Node2</title>
<g id="a_edge1_Node000001_Node000002"><a xlink:title=" ">
<path fill="none" stroke="#63b8ff" d="M203.35,-100.49C187.17,-115.33 161.99,-136.61 137,-150.5 131.02,-153.82 124.5,-156.83 117.93,-159.5"/>
<polygon fill="#63b8ff" stroke="#63b8ff" points="206.03,-102.78 210.95,-93.39 201.25,-97.67 206.03,-102.78"/>
</a>
</g>
</g>
<!-- Node3 -->
<g id="Node000003" class="node">
<title>Node3</title>
<g id="a_Node000003"><a xlink:href="../../de/d8c/classConvolutionFilter.html#aa5e82ddd0f363421028aa50769eee970" target="_top" xlink:title=" ">
<polygon fill="white" stroke="#666666" points="121.5,-141.5 15.5,-141.5 15.5,-111.5 121.5,-111.5 121.5,-141.5"/>
<text text-anchor="start" x="23.5" y="-129.5" font-family="Helvetica,sans-Serif" font-size="10.00">ConvolutionFilter::</text>
<text text-anchor="middle" x="68.5" y="-118.5" font-family="Helvetica,sans-Serif" font-size="10.00">apply</text>
</a>
</g>
</g>
<!-- Node1&#45;&gt;Node3 -->
<g id="edge2_Node000001_Node000003" class="edge">
<title>Node1&#45;&gt;Node3</title>
<g id="a_edge2_Node000001_Node000003"><a xlink:title=" ">
<path fill="none" stroke="#63b8ff" d="M177.5,-95.85C160.12,-100.78 139.95,-106.5 121.78,-111.66"/>
<polygon fill="#63b8ff" stroke="#63b8ff" points="178.71,-99.14 187.38,-93.04 176.8,-92.41 178.71,-99.14"/>
</a>
</g>
</g>
<!-- Node4 -->
<g id="Node000004" class="node">
<title>Node4</title>
<g id="a_Node000004"><a xlink:href="../../d6/d25/classMedianFilter.html#aaaee0ebe39188c78166727087ad4ca62" target="_top" xlink:title=" ">
<polygon fill="white" stroke="#666666" points="123.5,-93 13.5,-93 13.5,-74 123.5,-74 123.5,-93"/>
<text text-anchor="middle" x="68.5" y="-81" font-family="Helvetica,sans-Serif" font-size="10.00">MedianFilter::apply</text>
</a>
</g>
</g>
<!-- Node1&#45;&gt;Node4 -->
<g id="edge3_Node000001_Node000004" class="edge">
<title>Node1&#45;&gt;Node4</title>
<g id="a_edge3_Node000001_Node000004"><a xlink:title=" ">
<path fill="none" stroke="#63b8ff" d="M162.58,-83.5C149.79,-83.5 136.31,-83.5 123.7,-83.5"/>
<polygon fill="#63b8ff" stroke="#63b8ff" points="162.65,-87 172.65,-83.5 162.65,-80 162.65,-87"/>
</a>
</g>
</g>
<!-- Node5 -->
<g id="Node000005" class="node">
<title>Node5</title>
<g id="a_Node000005"><a xlink:href="../../d3/dcf/classRGBOffsetFilter.html#a16bd26af94e728b3d0b27def0bedc061" target="_top" xlink:title=" ">
<polygon fill="white" stroke="#666666" points="131,-56 6,-56 6,-37 131,-37 131,-56"/>
<text text-anchor="middle" x="68.5" y="-44" font-family="Helvetica,sans-Serif" font-size="10.00">RGBOffsetFilter::apply</text>
</a>
</g>
</g>
<!-- Node1&#45;&gt;Node5 -->
<g id="edge4_Node000001_Node000005" class="edge">
<title>Node1&#45;&gt;Node5</title>
<g id="a_edge4_Node000001_Node000005"><a xlink:title=" ">
<path fill="none" stroke="#63b8ff" d="M172.17,-71.57C151.62,-66.56 128.03,-60.79 108.65,-56.06"/>
<polygon fill="#63b8ff" stroke="#63b8ff" points="171.44,-75 181.98,-73.97 173.1,-68.2 171.44,-75"/>
</a>
</g>
</g>
<!-- Node6 -->
<g id="Node000006" class="node">
<title>Node6</title>
<g id="a_Node000006"><a xlink:href="../../dc/d2a/classBMPImageHandler.html#a9bd8edfe64dd9ac58db32c32c2521fb1" target="_top" xlink:title=" ">
<polygon fill="white" stroke="#666666" points="137,-19 0,-19 0,0 137,0 137,-19"/>
<text text-anchor="middle" x="68.5" y="-7" font-family="Helvetica,sans-Serif" font-size="10.00">BMPImageHandler::save</text>
</a>
</g>
</g>
<!-- Node1&#45;&gt;Node6 -->
<g id="edge5_Node000001_Node000006" class="edge">
<title>Node1&#45;&gt;Node6</title>
<g id="a_edge5_Node000001_Node000006"><a xlink:title=" ">
<path fill="none" stroke="#63b8ff" d="M200.62,-67.59C184.22,-55.44 160.16,-39.04 137,-28.5 128.91,-24.82 119.95,-21.69 111.26,-19.1"/>
<polygon fill="#63b8ff" stroke="#63b8ff" points="198.8,-70.61 208.89,-73.84 203.02,-65.02 198.8,-70.61"/>
</a>
</g>
</g>
</g>
</svg>
