<?xml version="1.0" encoding="UTF-8" standalone="no"?>
<!DOCTYPE svg PUBLIC "-//W3C//DTD SVG 1.1//EN"
 "http://www.w3.org/Graphics/SVG/1.1/DTD/svg11.dtd">
<!-- Generated by graphviz version 2.42.4 (0)
 -->
<!-- Title: Image::at Pages: 1 -->
<svg width="442pt" height="235pt"
 viewBox="0.00 0.00 442.00 234.50" xmlns="http://www.w3.org/2000/svg" xmlns:xlink="http://www.w3.org/1999/xlink">
<g id="graph0" class="graph" transform="scale(1 1) rotate(0) translate(4 230.5)">
<title>Image::at</title>
<!-- Node1 -->
<g id="Node000001" class="node">
<title>Node1</title>
<g id="a_Node000001"><a xlink:title=" ">
<polygon fill="#999999" stroke="#666666" points="434,-111 371,-111 371,-92 434,-92 434,-111"/>
<text text-anchor="middle" x="402.5" y="-99" font-family="Helvetica,sans-Serif" font-size="10.00">Image::at</text>
</a>
</g>
</g>
<!-- Node2 -->
<g id="Node000002" class="node">
<title>Node2</title>
<g id="a_Node000002"><a xlink:href="../../d6/d96/classContrastBrightnessFilter.html#a7a7b7853de9bead54be40d88148d14d8" target="_top" xlink:title=" ">
<polygon fill="white" stroke="#666666" points="319.5,-226.5 185.5,-226.5 185.5,-196.5 319.5,-196.5 319.5,-226.5"/>
<text text-anchor="start" x="193.5" y="-214.5" font-family="Helvetica,sans-Serif" font-size="10.00">ContrastBrightnessFilter</text>
<text text-anchor="middle" x="252.5" y="-203.5" font-family="Helvetica,sans-Serif" font-size="10.00">::apply</text>
</a>
</g>
</g>
<!-- Node1&#45;&gt;Node2 -->
<g id="edge1_Node000001_Node000002" class="edge">
<title>Node1&#45;&gt;Node2</title>
<g id="a_edge1_Node000001_Node000002"><a xlink:title=" ">
<path fill="none" stroke="#63b8ff" d="M391.86,-119.98C380.72,-139.56 360.59,-170.01 335,-187.5 330.01,-190.91 324.52,-193.85 318.83,-196.37"/>
<polygon fill="#63b8ff" stroke="#63b8ff" points="394.99,-121.56 396.72,-111.1 388.85,-118.2 394.99,-121.56"/>
</a>
</g>
</g>
<!-- Node3 -->
<g id="Node000003" class="node">
<title>Node3</title>
<g id="a_Node000003"><a xlink:href="../../de/d8c/classConvolutionFilter.html#aa5e82ddd0f363421028aa50769eee970" target="_top" xlink:title=" ">
<polygon fill="white" stroke="#666666" points="305.5,-178.5 199.5,-178.5 199.5,-148.5 305.5,-148.5 305.5,-178.5"/>
<text text-anchor="start" x="207.5" y="-166.5" font-family="Helvetica,sans-Serif" font-size="10.00">ConvolutionFilter::</text>
<text text-anchor="middle" x="252.5" y="-155.5" font-family="Helvetica,sans-Serif" font-size="10.00">apply</text>
</a>
</g>
</g>
<!-- Node1&#45;&gt;Node3 -->
<g id="edge2_Node000001_Node000003" class="edge">
<title>Node1&#45;&gt;Node3</title>
<g id="a_edge2_Node000001_Node000003"><a xlink:title=" ">
<path fill="none" stroke="#63b8ff" d="M378.16,-116.62C365.71,-124.22 349.91,-133.15 335,-139.5 325.77,-143.43 315.7,-146.97 305.87,-150.04"/>
<polygon fill="#63b8ff" stroke="#63b8ff" points="380.33,-119.4 386.96,-111.13 376.62,-113.46 380.33,-119.4"/>
</a>
</g>
</g>
<!-- Node4 -->
<g id="Node000004" class="node">
<title>Node4</title>
<g id="a_Node000004"><a xlink:href="../../d6/d25/classMedianFilter.html#aaaee0ebe39188c78166727087ad4ca62" target="_top" xlink:title=" ">
<polygon fill="white" stroke="#666666" points="307.5,-130 197.5,-130 197.5,-111 307.5,-111 307.5,-130"/>
<text text-anchor="middle" x="252.5" y="-118" font-family="Helvetica,sans-Serif" font-size="10.00">MedianFilter::apply</text>
</a>
</g>
</g>
<!-- Node1&#45;&gt;Node4 -->
<g id="edge3_Node000001_Node000004" class="edge">
<title>Node1&#45;&gt;Node4</title>
<g id="a_edge3_Node000001_Node000004"><a xlink:title=" ">
<path fill="none" stroke="#63b8ff" d="M360.54,-106.76C344.22,-108.85 325.2,-111.29 307.76,-113.53"/>
<polygon fill="#63b8ff" stroke="#63b8ff" points="361.36,-110.18 370.83,-105.44 360.47,-103.24 361.36,-110.18"/>
</a>
</g>
</g>
<!-- Node5 -->
<g id="Node000005" class="node">
<title>Node5</title>
<g id="a_Node000005"><a xlink:href="../../d3/dcf/classRGBOffsetFilter.html#a16bd26af94e728b3d0b27def0bedc061" target="_top" xlink:title=" ">
<polygon fill="white" stroke="#666666" points="315,-93 190,-93 190,-74 315,-74 315,-93"/>
<text text-anchor="middle" x="252.5" y="-81" font-family="Helvetica,sans-Serif" font-size="10.00">RGBOffsetFilter::apply</text>
</a>
</g>
</g>
<!-- Node1&#45;&gt;Node5 -->
<g id="edge4_Node000001_Node000005" class="edge">
<title>Node1&#45;&gt;Node5</title>
<g id="a_edge4_Node000001_Node000005"><a xlink:title=" ">
<path fill="none" stroke="#63b8ff" d="M360.55,-96.52C346.54,-94.82 330.55,-92.87 315.26,-91.01"/>
<polygon fill="#63b8ff" stroke="#63b8ff" points="360.48,-100.04 370.83,-97.77 361.33,-93.09 360.48,-100.04"/>
</a>
</g>
</g>
<!-- Node6 -->
<g id="Node000006" class="node">
<title>Node6</title>
<g id="a_Node000006"><a xlink:href="../../dc/d2a/classBMPImageHandler.html#a169e4989e88e27a2c1744b1a839001e7" target="_top" xlink:title=" ">
<polygon fill="white" stroke="#666666" points="335,-56 170,-56 170,-37 335,-37 335,-56"/>
<text text-anchor="middle" x="252.5" y="-44" font-family="Helvetica,sans-Serif" font-size="10.00">BMPImageHandler::flipVertical</text>
</a>
</g>
</g>
<!-- Node1&#45;&gt;Node6 -->
<g id="edge5_Node000001_Node000006" class="edge">
<title>Node1&#45;&gt;Node6</title>
<g id="a_edge5_Node000001_Node000006"><a xlink:title=" ">
<path fill="none" stroke="#63b8ff" d="M377.71,-86.61C365.35,-79.39 349.77,-71.1 335,-65.5 325.22,-61.79 314.49,-58.66 304.13,-56.09"/>
<polygon fill="#63b8ff" stroke="#63b8ff" points="376.09,-89.72 386.47,-91.85 379.69,-83.71 376.09,-89.72"/>
</a>
</g>
</g>
<!-- Node8 -->
<g id="Node000008" class="node">
<title>Node8</title>
<g id="a_Node000008"><a xlink:href="../../dc/d2a/classBMPImageHandler.html#a9bd8edfe64dd9ac58db32c32c2521fb1" target="_top" xlink:title=" ">
<polygon fill="white" stroke="#666666" points="321,-19 184,-19 184,0 321,0 321,-19"/>
<text text-anchor="middle" x="252.5" y="-7" font-family="Helvetica,sans-Serif" font-size="10.00">BMPImageHandler::save</text>
</a>
</g>
</g>
<!-- Node1&#45;&gt;Node8 -->
<g id="edge7_Node000001_Node000008" class="edge">
<title>Node1&#45;&gt;Node8</title>
<g id="a_edge7_Node000001_Node000008"><a xlink:title=" ">
<path fill="none" stroke="#63b8ff" d="M389.95,-83.55C378.16,-66.73 358.33,-42.19 335,-28.5 328.36,-24.6 320.97,-21.51 313.44,-19.04"/>
<polygon fill="#63b8ff" stroke="#63b8ff" points="387.14,-85.65 395.64,-91.98 392.95,-81.74 387.14,-85.65"/>
</a>
</g>
</g>
<!-- Node7 -->
<g id="Node000007" class="node">
<title>Node7</title>
<g id="a_Node000007"><a xlink:href="../../dc/d2a/classBMPImageHandler.html#a33d2951602dce19376fad1ce3e416d66" target="_top" xlink:title=" ">
<polygon fill="white" stroke="#666666" points="134,-56 0,-56 0,-37 134,-37 134,-56"/>
<text text-anchor="middle" x="67" y="-44" font-family="Helvetica,sans-Serif" font-size="10.00">BMPImageHandler::load</text>
</a>
</g>
</g>
<!-- Node6&#45;&gt;Node7 -->
<g id="edge6_Node000006_Node000007" class="edge">
<title>Node6&#45;&gt;Node7</title>
<g id="a_edge6_Node000006_Node000007"><a xlink:title=" ">
<path fill="none" stroke="#63b8ff" d="M159.81,-46.5C151.17,-46.5 142.52,-46.5 134.18,-46.5"/>
<polygon fill="#63b8ff" stroke="#63b8ff" points="159.95,-50 169.95,-46.5 159.95,-43 159.95,-50"/>
</a>
</g>
</g>
</g>
</svg>
