<?xml version="1.0" encoding="UTF-8" standalone="no"?>
<!DOCTYPE svg PUBLIC "-//W3C//DTD SVG 1.1//EN"
 "http://www.w3.org/Graphics/SVG/1.1/DTD/svg11.dtd">
<!-- Generated by graphviz version 2.42.4 (0)
 -->
<!-- Title: Image::getHeight Pages: 1 -->
<svg width="282pt" height="198pt"
 viewBox="0.00 0.00 282.00 197.50" xmlns="http://www.w3.org/2000/svg" xmlns:xlink="http://www.w3.org/1999/xlink">

<svg id="main" version="1.1" xmlns="http://www.w3.org/2000/svg" xmlns:xlink="http://www.w3.org/1999/xlink" xml:space="preserve" onload="init(evt)">
<style type="text/css"><![CDATA[
.node, .edge {opacity: 0.7;}
.node.selected, .edge.selected {opacity: 1;}
.edge:hover path { stroke: red; }
.edge:hover polygon { stroke: red; fill: red; }
]]></style>
<script type="application/ecmascript" xlink:href="../../svg.min.js"/>
<svg id="graph" class="graph">
<g id="graph0" class="graph" transform="scale(1 1) rotate(0) translate(4 193.5)">
<title>Image::getHeight</title>
<!-- Node1 -->
<g id="Node000001" class="node">
<title>Node1</title>
<g id="a_Node000001"><a xlink:title=" ">
<polygon fill="#999999" stroke="#666666" points="274,-93 173,-93 173,-74 274,-74 274,-93"/>
<text text-anchor="middle" x="223.5" y="-81" font-family="Helvetica,sans-Serif" font-size="10.00">Image::getHeight</text>
</a>
</g>
</g>
<!-- Node2 -->
<g id="Node000002" class="node">
<title>Node2</title>
<g id="a_Node000002"><a xlink:href="../../d6/d96/classContrastBrightnessFilter.html#a7a7b7853de9bead54be40d88148d14d8" target="_top" xlink:title=" ">
<polygon fill="white" stroke="#666666" points="135.5,-189.5 1.5,-189.5 1.5,-159.5 135.5,-159.5 135.5,-189.5"/>
<text text-anchor="start" x="9.5" y="-177.5" font-family="Helvetica,sans-Serif" font-size="10.00">ContrastBrightnessFilter</text>
<text text-anchor="middle" x="68.5" y="-166.5" font-family="Helvetica,sans-Serif" font-size="10.00">::apply</text>
</a>
</g>
</g>
<!-- Node1&#45;&gt;Node2 -->
<g id="edge1_Node000001_Node000002" class="edge">
<title>Node1&#45;&gt;Node2</title>
<g id="a_edge1_Node000001_Node000002"><a xlink:title=" ">
<path fill="none" stroke="#63b8ff" d="M204.76,-100.23C188.26,-115.06 162.46,-136.48 137,-150.5 131.01,-153.8 124.47,-156.79 117.91,-159.45"/>
<polygon fill="#63b8ff" stroke="#63b8ff" points="207.48,-102.48 212.48,-93.14 202.75,-97.32 207.48,-102.48"/>
</a>
</g>
</g>
<!-- Node3 -->
<g id="Node000003" class="node">
<title>Node3</title>
<g id="a_Node000003"><a xlink:href="../../de/d8c/classConvolutionFilter.html#aa5e82ddd0f363421028aa50769eee970" target="_top" xlink:title=" ">
<polygon fill="white" stroke="#666666" points="121.5,-141.5 15.5,-141.5 15.5,-111.5 121.5,-111.5 121.5,-141.5"/>
<text text-anchor="start" x="23.5" y="-129.5" font-family="Helvetica,sans-Serif" font-size="10.00">ConvolutionFilter::</text>
<text text-anchor="middle" x="68.5" y="-118.5" font-family="Helvetica,sans-Serif" font-size="10.00">apply</text>
</a>
</g>
</g>
<!-- Node1&#45;&gt;Node3 -->
<g id="edge2_Node000001_Node000003" class="edge">
<title>Node1&#45;&gt;Node3</title>
<g id="a_edge2_Node000001_Node000003"><a xlink:title=" ">
<path fill="none" stroke="#63b8ff" d="M178.48,-95.87C160.75,-100.85 140.17,-106.64 121.7,-111.83"/>
<polygon fill="#63b8ff" stroke="#63b8ff" points="179.86,-99.12 188.54,-93.04 177.97,-92.38 179.86,-99.12"/>
</a>
</g>
</g>
<!-- Node4 -->
<g id="Node000004" class="node">
<title>Node4</title>
<g id="a_Node000004"><a xlink:href="../../d6/d25/classMedianFilter.html#aaaee0ebe39188c78166727087ad4ca62" target="_top" xlink:title=" ">
<polygon fill="white" stroke="#666666" points="123.5,-93 13.5,-93 13.5,-74 123.5,-74 123.5,-93"/>
<text text-anchor="middle" x="68.5" y="-81" font-family="Helvetica,sans-Serif" font-size="10.00">MedianFilter::apply</text>
</a>
</g>
</g>
<!-- Node1&#45;&gt;Node4 -->
<g id="edge3_Node000001_Node000004" class="edge">
<title>Node1&#45;&gt;Node4</title>
<g id="a_edge3_Node000001_Node000004"><a xlink:title=" ">
<path fill="none" stroke="#63b8ff" d="M162.69,-83.5C149.83,-83.5 136.31,-83.5 123.68,-83.5"/>
<polygon fill="#63b8ff" stroke="#63b8ff" points="162.83,-87 172.83,-83.5 162.83,-80 162.83,-87"/>
</a>
</g>
</g>
<!-- Node5 -->
<g id="Node000005" class="node">
<title>Node5</title>
<g id="a_Node000005"><a xlink:href="../../d3/dcf/classRGBOffsetFilter.html#a16bd26af94e728b3d0b27def0bedc061" target="_top" xlink:title=" ">
<polygon fill="white" stroke="#666666" points="131,-56 6,-56 6,-37 131,-37 131,-56"/>
<text text-anchor="middle" x="68.5" y="-44" font-family="Helvetica,sans-Serif" font-size="10.00">RGBOffsetFilter::apply</text>
</a>
</g>
</g>
<!-- Node1&#45;&gt;Node5 -->
<g id="edge4_Node000001_Node000005" class="edge">
<title>Node1&#45;&gt;Node5</title>
<g id="a_edge4_Node000001_Node000005"><a xlink:title=" ">
<path fill="none" stroke="#63b8ff" d="M173.19,-71.57C152.43,-66.56 128.61,-60.79 109.03,-56.06"/>
<polygon fill="#63b8ff" stroke="#63b8ff" points="172.56,-75.02 183.1,-73.97 174.2,-68.22 172.56,-75.02"/>
</a>
</g>
</g>
<!-- Node6 -->
<g id="Node000006" class="node">
<title>Node6</title>
<g id="a_Node000006"><a xlink:href="../../dc/d2a/classBMPImageHandler.html#a9bd8edfe64dd9ac58db32c32c2521fb1" target="_top" xlink:title=" ">
<polygon fill="white" stroke="#666666" points="137,-19 0,-19 0,0 137,0 137,-19"/>
<text text-anchor="middle" x="68.5" y="-7" font-family="Helvetica,sans-Serif" font-size="10.00">BMPImageHandler::save</text>
</a>
</g>
</g>
<!-- Node1&#45;&gt;Node6 -->
<g id="edge5_Node000001_Node000006" class="edge">
<title>Node1&#45;&gt;Node6</title>
<g id="a_edge5_Node000001_Node000006"><a xlink:title=" ">
<path fill="none" stroke="#63b8ff" d="M201.71,-67.61C184.99,-55.47 160.49,-39.08 137,-28.5 128.79,-24.8 119.68,-21.65 110.88,-19.05"/>
<polygon fill="#63b8ff" stroke="#63b8ff" points="200.03,-70.72 210.15,-73.86 204.19,-65.09 200.03,-70.72"/>
</a>
</g>
</g>
</g>
</svg>
</svg>

<style type='text/css'>
<![CDATA[
[data-mouse-over-selected='false'] { opacity: 0.7; }
[data-mouse-over-selected='true']  { opacity: 1.0; }
]]>
</style>
<script type="application/ecmascript"><![CDATA[
document.addEventListener('DOMContentLoaded', (event) => {
  highlightEdges();
  highlightAdjacentNodes();
});
]]></script>
</svg>
