<?xml version="1.0" encoding="UTF-8" standalone="no"?>
<!DOCTYPE svg PUBLIC "-//W3C//DTD SVG 1.1//EN"
 "http://www.w3.org/Graphics/SVG/1.1/DTD/svg11.dtd">
<!-- Generated by graphviz version 2.42.4 (0)
 -->
<!-- Title: include/filt_op/IFilter.hpp Pages: 1 -->
<!--zoomable 269 -->

<svg id="main" version="1.1" xmlns="http://www.w3.org/2000/svg" xmlns:xlink="http://www.w3.org/1999/xlink" xml:space="preserve" onload="init(evt)">
<style type="text/css"><![CDATA[
.node, .edge {opacity: 0.7;}
.node.selected, .edge.selected {opacity: 1;}
.edge:hover path { stroke: red; }
.edge:hover polygon { stroke: red; fill: red; }
]]></style>

<defs>
  <circle id="rim" cx="0" cy="0" r="7"/>
  <circle id="rim2" cx="0" cy="0" r="3.5"/>
  <g id="zoomPlus">
    <use xlink:href="#rim" fill="#404040"><set attributeName="fill" to="#808080" begin="zoomplus.mouseover" end="zoomplus.mouseout"/></use>
    <path d="M-4,0h8M0,-4v8" fill="none" stroke="white" stroke-width="1.5" pointer-events="none"/>
  </g>
  <g id="zoomMin">
    <use xlink:href="#rim" fill="#404040"><set attributeName="fill" to="#808080" begin="zoomminus.mouseover" end="zoomminus.mouseout"/></use>
    <path d="M-4,0h8" fill="none" stroke="white" stroke-width="1.5" pointer-events="none"/>
  </g>
  <g id="arrowUp" transform="translate(30 24)">
    <use xlink:href="#rim"/>
    <path pointer-events="none" fill="none" stroke="white" stroke-width="1.5" d="M0,-3.0v7 M-2.5,-0.5L0,-3.0L2.5,-0.5"/>
  </g>
  <g id="arrowRight" transform="rotate(90) translate(36 -43)">
    <use xlink:href="#rim"/>
    <path pointer-events="none" fill="none" stroke="white" stroke-width="1.5" d="M0,-3.0v7 M-2.5,-0.5L0,-3.0L2.5,-0.5"/>
  </g>
  <g id="arrowDown" transform="rotate(180) translate(-30 -48)">
    <use xlink:href="#rim"/>
    <path pointer-events="none" fill="none" stroke="white" stroke-width="1.5" d="M0,-3.0v7 M-2.5,-0.5L0,-3.0L2.5,-0.5"/>
  </g>
  <g id="arrowLeft" transform="rotate(270) translate(-36 17)">
    <use xlink:href="#rim"/>
    <path pointer-events="none" fill="none" stroke="white" stroke-width="1.5" d="M0,-3.0v7 M-2.5,-0.5L0,-3.0L2.5,-0.5"/>
  </g>
  <g id="resetDef">
    <use xlink:href="#rim2" fill="#404040"><set attributeName="fill" to="#808080" begin="reset.mouseover" end="reset.mouseout"/></use>
  </g>
</defs>
<script type="application/ecmascript">
var viewWidth = 1415;
var viewHeight = 269;
var sectionId = 'dynsection-1';
</script>
<script type="application/ecmascript" xlink:href="../../svg.min.js"/>
<svg id="graph" class="graph">
<g id="viewport">
<title>include/filt_op/IFilter.hpp</title>
<!-- Node1 -->
<g id="Node000001" class="node">
<title>Node1</title>
<g id="a_Node000001"><a xlink:title=" ">
<polygon fill="#999999" stroke="#666666" points="996,-261 860,-261 860,-242 996,-242 996,-261"/>
<text text-anchor="middle" x="928" y="-249" font-family="Helvetica,sans-Serif" font-size="10.00">include/filt_op/IFilter.hpp</text>
</a>
</g>
</g>
<!-- Node2 -->
<g id="Node000002" class="node">
<title>Node2</title>
<g id="a_Node000002"><a xlink:href="../../d1/d64/FilterPipeline_8hpp.html" target="_top" xlink:title=" ">
<polygon fill="white" stroke="#666666" points="387.5,-200.5 214.5,-200.5 214.5,-181.5 387.5,-181.5 387.5,-200.5"/>
<text text-anchor="middle" x="301" y="-188.5" font-family="Helvetica,sans-Serif" font-size="10.00">include/filt_op/FilterPipeline.hpp</text>
</a>
</g>
</g>
<!-- Node1&#45;&gt;Node2 -->
<g id="edge1_Node000001_Node000002" class="edge">
<title>Node1&#45;&gt;Node2</title>
<g id="a_edge1_Node000001_Node000002"><a xlink:title=" ">
<path fill="none" stroke="#63b8ff" d="M849.68,-243.19C731.96,-232.21 510.16,-211.52 387.7,-200.09"/>
<polygon fill="#63b8ff" stroke="#63b8ff" points="849.42,-246.68 859.71,-244.13 850.07,-239.71 849.42,-246.68"/>
</a>
</g>
</g>
<!-- Node9 -->
<g id="Node000009" class="node">
<title>Node9</title>
<g id="a_Node000009"><a xlink:href="../../da/d5d/ContrastBrightnessFilter_8hpp.html" target="_top" xlink:title=" ">
<polygon fill="white" stroke="#666666" points="750.5,-206 623.5,-206 623.5,-176 750.5,-176 750.5,-206"/>
<text text-anchor="start" x="631.5" y="-194" font-family="Helvetica,sans-Serif" font-size="10.00">include/filters/Contrast</text>
<text text-anchor="middle" x="687" y="-183" font-family="Helvetica,sans-Serif" font-size="10.00">BrightnessFilter.hpp</text>
</a>
</g>
</g>
<!-- Node1&#45;&gt;Node9 -->
<g id="edge11_Node000001_Node000009" class="edge">
<title>Node1&#45;&gt;Node9</title>
<g id="a_edge11_Node000001_Node000009"><a xlink:title=" ">
<path fill="none" stroke="#63b8ff" d="M882.95,-239.56C843.95,-230.1 787.31,-216.35 744.94,-206.06"/>
<polygon fill="#63b8ff" stroke="#63b8ff" points="882.41,-243.04 892.96,-241.99 884.06,-236.23 882.41,-243.04"/>
</a>
</g>
</g>
<!-- Node11 -->
<g id="Node000011" class="node">
<title>Node11</title>
<g id="a_Node000011"><a xlink:href="../../d1/d04/ConvolutionFilter_8hpp.html" target="_top" xlink:title=" ">
<polygon fill="white" stroke="#666666" points="913,-206 769,-206 769,-176 913,-176 913,-206"/>
<text text-anchor="start" x="777" y="-194" font-family="Helvetica,sans-Serif" font-size="10.00">include/filters/Convolution</text>
<text text-anchor="middle" x="841" y="-183" font-family="Helvetica,sans-Serif" font-size="10.00">Filter.hpp</text>
</a>
</g>
</g>
<!-- Node1&#45;&gt;Node11 -->
<g id="edge14_Node000001_Node000011" class="edge">
<title>Node1&#45;&gt;Node11</title>
<g id="a_edge14_Node000001_Node000011"><a xlink:title=" ">
<path fill="none" stroke="#63b8ff" d="M906.48,-236.03C892.91,-226.9 875.46,-215.17 861.99,-206.11"/>
<polygon fill="#63b8ff" stroke="#63b8ff" points="904.91,-239.19 915.16,-241.87 908.82,-233.38 904.91,-239.19"/>
</a>
</g>
</g>
<!-- Node13 -->
<g id="Node000013" class="node">
<title>Node13</title>
<g id="a_Node000013"><a xlink:href="../../df/daa/MedianFilter_8hpp.html" target="_top" xlink:title=" ">
<polygon fill="white" stroke="#666666" points="1098.5,-200.5 931.5,-200.5 931.5,-181.5 1098.5,-181.5 1098.5,-200.5"/>
<text text-anchor="middle" x="1015" y="-188.5" font-family="Helvetica,sans-Serif" font-size="10.00">include/filters/MedianFilter.hpp</text>
</a>
</g>
</g>
<!-- Node1&#45;&gt;Node13 -->
<g id="edge17_Node000001_Node000013" class="edge">
<title>Node1&#45;&gt;Node13</title>
<g id="a_edge17_Node000001_Node000013"><a xlink:title=" ">
<path fill="none" stroke="#63b8ff" d="M949.33,-236.16C965.86,-225.05 988.21,-210.01 1002.11,-200.67"/>
<polygon fill="#63b8ff" stroke="#63b8ff" points="947.18,-233.38 940.84,-241.87 951.09,-239.19 947.18,-233.38"/>
</a>
</g>
</g>
<!-- Node14 -->
<g id="Node000014" class="node">
<title>Node14</title>
<g id="a_Node000014"><a xlink:href="../../df/db2/MedianFilter_8cpp.html" target="_top" xlink:title=" ">
<polygon fill="white" stroke="#666666" points="1191.5,-134.5 1046.5,-134.5 1046.5,-115.5 1191.5,-115.5 1191.5,-134.5"/>
<text text-anchor="middle" x="1119" y="-122.5" font-family="Helvetica,sans-Serif" font-size="10.00">src/filters/MedianFilter.cpp</text>
</a>
</g>
</g>
<!-- Node1&#45;&gt;Node14 -->
<g id="edge23_Node000001_Node000014" class="edge">
<title>Node1&#45;&gt;Node14</title>
<g id="a_edge23_Node000001_Node000014"><a xlink:title=" ">
<path fill="none" stroke="#63b8ff" d="M1003.37,-240.29C1045.69,-232.97 1092.79,-221.63 1107,-206 1125.14,-186.05 1122.82,-151.03 1120.53,-134.76"/>
<polygon fill="#63b8ff" stroke="#63b8ff" points="1002.59,-236.87 993.3,-241.97 1003.74,-243.77 1002.59,-236.87"/>
</a>
</g>
</g>
<!-- Node15 -->
<g id="Node000015" class="node">
<title>Node15</title>
<g id="a_Node000015"><a xlink:href="../../df/dad/RGBOffsetFilter_8hpp.html" target="_top" xlink:title=" ">
<polygon fill="white" stroke="#666666" points="1290,-206 1154,-206 1154,-176 1290,-176 1290,-206"/>
<text text-anchor="start" x="1162" y="-194" font-family="Helvetica,sans-Serif" font-size="10.00">include/filters/RGBOffset</text>
<text text-anchor="middle" x="1222" y="-183" font-family="Helvetica,sans-Serif" font-size="10.00">Filter.hpp</text>
</a>
</g>
</g>
<!-- Node1&#45;&gt;Node15 -->
<g id="edge20_Node000001_Node000015" class="edge">
<title>Node1&#45;&gt;Node15</title>
<g id="a_edge20_Node000001_Node000015"><a xlink:title=" ">
<path fill="none" stroke="#63b8ff" d="M980.7,-240.01C1029.11,-230.38 1101.11,-216.05 1153.86,-205.56"/>
<polygon fill="#63b8ff" stroke="#63b8ff" points="979.87,-236.61 970.75,-241.99 981.24,-243.47 979.87,-236.61"/>
</a>
</g>
</g>
<!-- Node3 -->
<g id="Node000003" class="node">
<title>Node3</title>
<g id="a_Node000003"><a xlink:href="../../d9/d72/FilterFactory_8hpp.html" target="_top" xlink:title=" ">
<polygon fill="white" stroke="#666666" points="384.5,-134.5 217.5,-134.5 217.5,-115.5 384.5,-115.5 384.5,-134.5"/>
<text text-anchor="middle" x="301" y="-122.5" font-family="Helvetica,sans-Serif" font-size="10.00">include/filt_op/FilterFactory.hpp</text>
</a>
</g>
</g>
<!-- Node2&#45;&gt;Node3 -->
<g id="edge2_Node000002_Node000003" class="edge">
<title>Node2&#45;&gt;Node3</title>
<g id="a_edge2_Node000002_Node000003"><a xlink:title=" ">
<path fill="none" stroke="#63b8ff" d="M301,-171.08C301,-159.13 301,-144.22 301,-134.91"/>
<polygon fill="#63b8ff" stroke="#63b8ff" points="297.5,-171.37 301,-181.37 304.5,-171.37 297.5,-171.37"/>
</a>
</g>
</g>
<!-- Node4 -->
<g id="Node000004" class="node">
<title>Node4</title>
<g id="a_Node000004"><a xlink:href="../../dd/d48/BatchProcessor_8hpp.html" target="_top" xlink:title=" ">
<polygon fill="white" stroke="#666666" points="162,-74 0,-74 0,-55 162,-55 162,-74"/>
<text text-anchor="middle" x="81" y="-62" font-family="Helvetica,sans-Serif" font-size="10.00">include/io/BatchProcessor.hpp</text>
</a>
</g>
</g>
<!-- Node2&#45;&gt;Node4 -->
<g id="edge8_Node000002_Node000004" class="edge">
<title>Node2&#45;&gt;Node4</title>
<g id="a_edge8_Node000002_Node000004"><a xlink:title=" ">
<path fill="none" stroke="#63b8ff" d="M263.47,-178.13C237.95,-169.32 203.89,-156.07 176,-140 141.68,-120.22 106.25,-89.04 90.06,-74.07"/>
<polygon fill="#63b8ff" stroke="#63b8ff" points="262.55,-181.52 273.14,-181.41 264.79,-174.89 262.55,-181.52"/>
</a>
</g>
</g>
<!-- Node5 -->
<g id="Node000005" class="node">
<title>Node5</title>
<g id="a_Node000005"><a xlink:href="../../d2/d82/BatchProcessor_8cpp.html" target="_top" xlink:title=" ">
<polygon fill="white" stroke="#666666" points="270,-19 130,-19 130,0 270,0 270,-19"/>
<text text-anchor="middle" x="200" y="-7" font-family="Helvetica,sans-Serif" font-size="10.00">src/io/BatchProcessor.cpp</text>
</a>
</g>
</g>
<!-- Node2&#45;&gt;Node5 -->
<g id="edge10_Node000002_Node000005" class="edge">
<title>Node2&#45;&gt;Node5</title>
<g id="a_edge10_Node000002_Node000005"><a xlink:title=" ">
<path fill="none" stroke="#63b8ff" d="M258.59,-177.69C239.87,-169.99 219.53,-158.01 208,-140 183.1,-101.11 192.95,-41.46 197.86,-19.24"/>
<polygon fill="#63b8ff" stroke="#63b8ff" points="257.58,-181.06 268.18,-181.34 260.07,-174.51 257.58,-181.06"/>
</a>
</g>
</g>
<!-- Node8 -->
<g id="Node000008" class="node">
<title>Node8</title>
<g id="a_Node000008"><a xlink:href="../../df/d34/FilterPipeline_8cpp.html" target="_top" xlink:title=" ">
<polygon fill="white" stroke="#666666" points="553.5,-134.5 402.5,-134.5 402.5,-115.5 553.5,-115.5 553.5,-134.5"/>
<text text-anchor="middle" x="478" y="-122.5" font-family="Helvetica,sans-Serif" font-size="10.00">src/filt_op/FilterPipeline.cpp</text>
</a>
</g>
</g>
<!-- Node2&#45;&gt;Node8 -->
<g id="edge9_Node000002_Node000008" class="edge">
<title>Node2&#45;&gt;Node8</title>
<g id="a_edge9_Node000002_Node000008"><a xlink:title=" ">
<path fill="none" stroke="#63b8ff" d="M334.63,-177.84C369.6,-165.2 423.44,-145.73 454.23,-134.6"/>
<polygon fill="#63b8ff" stroke="#63b8ff" points="333.08,-174.68 324.87,-181.37 335.47,-181.26 333.08,-174.68"/>
</a>
</g>
</g>
<!-- Node3&#45;&gt;Node4 -->
<g id="edge3_Node000003_Node000004" class="edge">
<title>Node3&#45;&gt;Node4</title>
<g id="a_edge3_Node000003_Node000004"><a xlink:title=" ">
<path fill="none" stroke="#63b8ff" d="M259.24,-112.9C216.7,-101.58 151.66,-84.29 113.03,-74.02"/>
<polygon fill="#63b8ff" stroke="#63b8ff" points="258.45,-116.31 269.01,-115.49 260.25,-109.54 258.45,-116.31"/>
</a>
</g>
</g>
<!-- Node3&#45;&gt;Node5 -->
<g id="edge7_Node000003_Node000005" class="edge">
<title>Node3&#45;&gt;Node5</title>
<g id="a_edge7_Node000003_Node000005"><a xlink:title=" ">
<path fill="none" stroke="#63b8ff" d="M286.57,-107.79C264.85,-83.38 224.51,-38.04 207.68,-19.13"/>
<polygon fill="#63b8ff" stroke="#63b8ff" points="284.15,-110.33 293.41,-115.47 289.38,-105.67 284.15,-110.33"/>
</a>
</g>
</g>
<!-- Node7 -->
<g id="Node000007" class="node">
<title>Node7</title>
<g id="a_Node000007"><a xlink:href="../../da/d58/FilterFactory_8cpp.html" target="_top" xlink:title=" ">
<polygon fill="white" stroke="#666666" points="869,-74 723,-74 723,-55 869,-55 869,-74"/>
<text text-anchor="middle" x="796" y="-62" font-family="Helvetica,sans-Serif" font-size="10.00">src/filt_op/FilterFactory.cpp</text>
</a>
</g>
</g>
<!-- Node3&#45;&gt;Node7 -->
<g id="edge6_Node000003_Node000007" class="edge">
<title>Node3&#45;&gt;Node7</title>
<g id="a_edge6_Node000003_Node000007"><a xlink:title=" ">
<path fill="none" stroke="#63b8ff" d="M364.35,-114.01C373.94,-112.6 383.73,-111.22 393,-110 507.98,-94.91 641.88,-80.81 722.72,-72.68"/>
<polygon fill="#63b8ff" stroke="#63b8ff" points="363.83,-110.55 354.46,-115.49 364.87,-117.47 363.83,-110.55"/>
</a>
</g>
</g>
<!-- Node4&#45;&gt;Node5 -->
<g id="edge4_Node000004_Node000005" class="edge">
<title>Node4&#45;&gt;Node5</title>
<g id="a_edge4_Node000004_Node000005"><a xlink:title=" ">
<path fill="none" stroke="#63b8ff" d="M109.3,-50.9C131.28,-41.11 161.18,-27.79 180.53,-19.17"/>
<polygon fill="#63b8ff" stroke="#63b8ff" points="107.83,-47.72 100.12,-54.98 110.68,-54.11 107.83,-47.72"/>
</a>
</g>
</g>
<!-- Node6 -->
<g id="Node000006" class="node">
<title>Node6</title>
<g id="a_Node000006"><a xlink:href="../../df/d0a/main_8cpp.html" target="_top" xlink:title=" ">
<polygon fill="white" stroke="#666666" points="111.5,-19 32.5,-19 32.5,0 111.5,0 111.5,-19"/>
<text text-anchor="middle" x="72" y="-7" font-family="Helvetica,sans-Serif" font-size="10.00">src/main.cpp</text>
</a>
</g>
</g>
<!-- Node4&#45;&gt;Node6 -->
<g id="edge5_Node000004_Node000006" class="edge">
<title>Node4&#45;&gt;Node6</title>
<g id="a_edge5_Node000004_Node000006"><a xlink:title=" ">
<path fill="none" stroke="#63b8ff" d="M77.8,-44.66C76.32,-35.93 74.63,-25.99 73.46,-19.09"/>
<polygon fill="#63b8ff" stroke="#63b8ff" points="74.39,-45.48 79.51,-54.75 81.29,-44.3 74.39,-45.48"/>
</a>
</g>
</g>
<!-- Node9&#45;&gt;Node7 -->
<g id="edge12_Node000009_Node000007" class="edge">
<title>Node9&#45;&gt;Node7</title>
<g id="a_edge12_Node000009_Node000007"><a xlink:title=" ">
<path fill="none" stroke="#63b8ff" d="M642.95,-171.39C613.17,-156.14 582.39,-133.33 601,-110 616.29,-90.83 674.07,-79.26 722.8,-72.75"/>
<polygon fill="#63b8ff" stroke="#63b8ff" points="641.58,-174.61 652.1,-175.87 644.66,-168.33 641.58,-174.61"/>
</a>
</g>
</g>
<!-- Node10 -->
<g id="Node000010" class="node">
<title>Node10</title>
<g id="a_Node000010"><a xlink:href="../../de/dba/ContrastBrightnessFilter_8cpp.html" target="_top" xlink:title=" ">
<polygon fill="white" stroke="#666666" points="768,-140 610,-140 610,-110 768,-110 768,-140"/>
<text text-anchor="start" x="618" y="-128" font-family="Helvetica,sans-Serif" font-size="10.00">src/filters/ContrastBrightness</text>
<text text-anchor="middle" x="689" y="-117" font-family="Helvetica,sans-Serif" font-size="10.00">Filter.cpp</text>
</a>
</g>
</g>
<!-- Node9&#45;&gt;Node10 -->
<g id="edge13_Node000009_Node000010" class="edge">
<title>Node9&#45;&gt;Node10</title>
<g id="a_edge13_Node000009_Node000010"><a xlink:title=" ">
<path fill="none" stroke="#63b8ff" d="M687.76,-165.54C688.03,-156.96 688.32,-147.61 688.56,-140.16"/>
<polygon fill="#63b8ff" stroke="#63b8ff" points="684.26,-165.69 687.44,-175.8 691.25,-165.91 684.26,-165.69"/>
</a>
</g>
</g>
<!-- Node11&#45;&gt;Node7 -->
<g id="edge15_Node000011_Node000007" class="edge">
<title>Node11&#45;&gt;Node7</title>
<g id="a_edge15_Node000011_Node000007"><a xlink:title=" ">
<path fill="none" stroke="#63b8ff" d="M826.91,-166.89C822.31,-158.63 817.49,-149.1 814,-140 805.24,-117.14 799.77,-88.65 797.39,-74.44"/>
<polygon fill="#63b8ff" stroke="#63b8ff" points="823.9,-168.68 831.93,-175.6 829.97,-165.19 823.9,-168.68"/>
</a>
</g>
</g>
<!-- Node12 -->
<g id="Node000012" class="node">
<title>Node12</title>
<g id="a_Node000012"><a xlink:href="../../da/d05/ConvolutionFilter_8cpp.html" target="_top" xlink:title=" ">
<polygon fill="white" stroke="#666666" points="990.5,-134.5 823.5,-134.5 823.5,-115.5 990.5,-115.5 990.5,-134.5"/>
<text text-anchor="middle" x="907" y="-122.5" font-family="Helvetica,sans-Serif" font-size="10.00">src/filters/ConvolutionFilter.cpp</text>
</a>
</g>
</g>
<!-- Node11&#45;&gt;Node12 -->
<g id="edge16_Node000011_Node000012" class="edge">
<title>Node11&#45;&gt;Node12</title>
<g id="a_edge16_Node000011_Node000012"><a xlink:title=" ">
<path fill="none" stroke="#63b8ff" d="M863.06,-168.6C874.93,-157.1 888.93,-143.52 897.88,-134.84"/>
<polygon fill="#63b8ff" stroke="#63b8ff" points="860.39,-166.32 855.65,-175.8 865.26,-171.35 860.39,-166.32"/>
</a>
</g>
</g>
<!-- Node13&#45;&gt;Node7 -->
<g id="edge18_Node000013_Node000007" class="edge">
<title>Node13&#45;&gt;Node7</title>
<g id="a_edge18_Node000013_Node000007"><a xlink:title=" ">
<path fill="none" stroke="#63b8ff" d="M1016.65,-170.91C1017.11,-152.78 1014.7,-125.99 999,-110 980.93,-91.59 919.7,-79.86 869.18,-73.1"/>
<polygon fill="#63b8ff" stroke="#63b8ff" points="1013.14,-170.96 1016.07,-181.14 1020.13,-171.35 1013.14,-170.96"/>
</a>
</g>
</g>
<!-- Node13&#45;&gt;Node14 -->
<g id="edge19_Node000013_Node000014" class="edge">
<title>Node13&#45;&gt;Node14</title>
<g id="a_edge19_Node000013_Node000014"><a xlink:title=" ">
<path fill="none" stroke="#63b8ff" d="M1037.72,-176.02C1058.17,-163.43 1087.6,-145.32 1104.86,-134.7"/>
<polygon fill="#63b8ff" stroke="#63b8ff" points="1035.71,-173.15 1029.03,-181.37 1039.38,-179.11 1035.71,-173.15"/>
</a>
</g>
</g>
<!-- Node15&#45;&gt;Node7 -->
<g id="edge21_Node000015_Node000007" class="edge">
<title>Node15&#45;&gt;Node7</title>
<g id="a_edge21_Node000015_Node000007"><a xlink:title=" ">
<path fill="none" stroke="#63b8ff" d="M1222.16,-165.79C1220.88,-147.62 1215.96,-123.61 1200,-110 1175.4,-89.02 979.01,-75.28 869.38,-69.16"/>
<polygon fill="#63b8ff" stroke="#63b8ff" points="1218.67,-166.09 1222.55,-175.95 1225.66,-165.83 1218.67,-166.09"/>
</a>
</g>
</g>
<!-- Node16 -->
<g id="Node000016" class="node">
<title>Node16</title>
<g id="a_Node000016"><a xlink:href="../../d9/de2/RGBOffsetFilter_8cpp.html" target="_top" xlink:title=" ">
<polygon fill="white" stroke="#666666" points="1406.5,-134.5 1247.5,-134.5 1247.5,-115.5 1406.5,-115.5 1406.5,-134.5"/>
<text text-anchor="middle" x="1327" y="-122.5" font-family="Helvetica,sans-Serif" font-size="10.00">src/filters/RGBOffsetFilter.cpp</text>
</a>
</g>
</g>
<!-- Node15&#45;&gt;Node16 -->
<g id="edge22_Node000015_Node000016" class="edge">
<title>Node15&#45;&gt;Node16</title>
<g id="a_edge22_Node000015_Node000016"><a xlink:title=" ">
<path fill="none" stroke="#63b8ff" d="M1253.75,-170.65C1273.52,-158.6 1297.97,-143.69 1313.03,-134.52"/>
<polygon fill="#63b8ff" stroke="#63b8ff" points="1251.76,-167.76 1245.04,-175.95 1255.4,-173.74 1251.76,-167.76"/>
</a>
</g>
</g>
</g>
</svg>

<g id="navigator" transform="translate(0 0)" fill="#404254">
  <rect fill="#f2f5e9" fill-opacity="0.5" stroke="#606060" stroke-width=".5" x="0" y="0" width="60" height="60"/>
  <use id="zoomplus" xlink:href="#zoomPlus" x="17" y="9" onmousedown="handleZoom(evt,'in')"/>
  <use id="zoomminus" xlink:href="#zoomMin" x="42" y="9" onmousedown="handleZoom(evt,'out')"/>
  <use id="reset" xlink:href="#resetDef" x="30" y="36" onmousedown="handleReset()"/>
   <use id="arrowup" xlink:href="#arrowUp" x="0" y="0" onmousedown="handlePan(0,-1)"/>
  <use id="arrowright" xlink:href="#arrowRight" x="0" y="0" onmousedown="handlePan(1,0)"/>
  <use id="arrowdown" xlink:href="#arrowDown" x="0" y="0" onmousedown="handlePan(0,1)"/>
  <use id="arrowleft" xlink:href="#arrowLeft" x="0" y="0" onmousedown="handlePan(-1,0)"/>
</g>
<svg viewBox="0 0 15 15" width="100%" height="30px" preserveAspectRatio="xMaxYMin meet">
 <g id="arrow_out" transform="scale(0.3 0.3)">
  <a xlink:href="IFilter_8hpp__dep__incl_org.svg" target="_base">
   <rect id="button" ry="5" rx="5" y="6" x="6" height="38" width="38"
        fill="#f2f5e9" fill-opacity="0.5" stroke="#606060" stroke-width="1.0"/>
   <path id="arrow"
     d="M 11.500037,31.436501 C 11.940474,20.09759 22.043105,11.32322 32.158766,21.979434 L 37.068811,17.246167 C 37.068811,17.246167 37.088388,32 37.088388,32 L 22.160133,31.978069 C 22.160133,31.978069 26.997745,27.140456 26.997745,27.140456 C 18.528582,18.264221 13.291696,25.230495 11.500037,31.436501 z"
     style="fill:#404040;"/>
  </a>
 </g>
</svg>

<style type='text/css'>
<![CDATA[
[data-mouse-over-selected='false'] { opacity: 0.7; }
[data-mouse-over-selected='true']  { opacity: 1.0; }
]]>
</style>
<script type="application/ecmascript"><![CDATA[
document.addEventListener('DOMContentLoaded', (event) => {
  highlightEdges();
  highlightAdjacentNodes();
});
]]></script>
</svg>
