<?xml version="1.0" encoding="UTF-8" standalone="no"?>
<!DOCTYPE svg PUBLIC "-//W3C//DTD SVG 1.1//EN"
 "http://www.w3.org/Graphics/SVG/1.1/DTD/svg11.dtd">
<!-- Generated by graphviz version 2.42.4 (0)
 -->
<!-- Title: kernelGenerators::createGaussianBlurKernel Pages: 1 -->
<svg width="506pt" height="77pt"
 viewBox="0.00 0.00 506.00 76.92" xmlns="http://www.w3.org/2000/svg" xmlns:xlink="http://www.w3.org/1999/xlink">
<g id="graph0" class="graph" transform="scale(1 1) rotate(0) translate(4 72.92)">
<title>kernelGenerators::createGaussianBlurKernel</title>
<!-- Node1 -->
<g id="Node000001" class="node">
<title>Node1</title>
<g id="a_Node000001"><a xlink:title=" ">
<polygon fill="#999999" stroke="#666666" points="137,-43.5 0,-43.5 0,-13.5 137,-13.5 137,-43.5"/>
<text text-anchor="start" x="8" y="-31.5" font-family="Helvetica,sans-Serif" font-size="10.00">kernelGenerators::create</text>
<text text-anchor="middle" x="68.5" y="-20.5" font-family="Helvetica,sans-Serif" font-size="10.00">GaussianBlurKernel</text>
</a>
</g>
</g>
<!-- Node2 -->
<g id="Node000002" class="node">
<title>Node2</title>
<g id="a_Node000002"><a xlink:href="../../d1/db8/classKernel.html#ad257d19cbde87a4d622d7ea5ef9d6536" target="_top" xlink:title=" ">
<polygon fill="white" stroke="#666666" points="275,-38 173,-38 173,-19 275,-19 275,-38"/>
<text text-anchor="middle" x="224" y="-26" font-family="Helvetica,sans-Serif" font-size="10.00">Kernel::normalize</text>
</a>
</g>
</g>
<!-- Node1&#45;&gt;Node2 -->
<g id="edge1_Node000001_Node000002" class="edge">
<title>Node1&#45;&gt;Node2</title>
<g id="a_edge1_Node000001_Node000002"><a xlink:title=" ">
<path fill="none" stroke="#63b8ff" d="M137.27,-28.5C145.63,-28.5 154.13,-28.5 162.38,-28.5"/>
<polygon fill="#63b8ff" stroke="#63b8ff" points="162.65,-32 172.65,-28.5 162.65,-25 162.65,-32"/>
</a>
</g>
</g>
<!-- Node3 -->
<g id="Node000003" class="node">
<title>Node3</title>
<g id="a_Node000003"><a xlink:href="../../d1/db8/classKernel.html#a5f94f2c43479665eded0abfbb163b233" target="_top" xlink:title=" ">
<polygon fill="white" stroke="#666666" points="496,-56 423,-56 423,-37 496,-37 496,-56"/>
<text text-anchor="middle" x="459.5" y="-44" font-family="Helvetica,sans-Serif" font-size="10.00">Kernel::cols</text>
</a>
</g>
</g>
<!-- Node2&#45;&gt;Node3 -->
<g id="edge2_Node000002_Node000003" class="edge">
<title>Node2&#45;&gt;Node3</title>
<g id="a_edge2_Node000002_Node000003"><a xlink:title=" ">
<path fill="none" stroke="#63b8ff" d="M241.78,-38.16C258.64,-47.28 285.69,-60.29 311,-65.5 347.19,-72.96 389.02,-66.14 418.87,-58.67"/>
<polygon fill="#63b8ff" stroke="#63b8ff" points="420.12,-61.96 428.9,-56.03 418.34,-55.19 420.12,-61.96"/>
</a>
</g>
</g>
<!-- Node4 -->
<g id="Node000004" class="node">
<title>Node4</title>
<g id="a_Node000004"><a xlink:href="../../d1/db8/classKernel.html#a5ed7513959e5398a48e0149fbf786209" target="_top" xlink:title=" ">
<polygon fill="white" stroke="#666666" points="498,-19 421,-19 421,0 498,0 498,-19"/>
<text text-anchor="middle" x="459.5" y="-7" font-family="Helvetica,sans-Serif" font-size="10.00">Kernel::rows</text>
</a>
</g>
</g>
<!-- Node2&#45;&gt;Node4 -->
<g id="edge3_Node000002_Node000004" class="edge">
<title>Node2&#45;&gt;Node4</title>
<g id="a_edge3_Node000002_Node000004"><a xlink:title=" ">
<path fill="none" stroke="#63b8ff" d="M259.86,-18.99C275.39,-15.23 293.98,-11.36 311,-9.5 344.1,-5.89 381.63,-5.94 410.55,-6.88"/>
<polygon fill="#63b8ff" stroke="#63b8ff" points="410.67,-10.38 420.79,-7.25 410.93,-3.39 410.67,-10.38"/>
</a>
</g>
</g>
<!-- Node5 -->
<g id="Node000005" class="node">
<title>Node5</title>
<g id="a_Node000005"><a xlink:href="../../d1/db8/classKernel.html#a41b59171bf5fbd2b4c493ead4fee53d6" target="_top" xlink:title=" ">
<polygon fill="white" stroke="#666666" points="385,-38 311,-38 311,-19 385,-19 385,-38"/>
<text text-anchor="middle" x="348" y="-26" font-family="Helvetica,sans-Serif" font-size="10.00">Kernel::sum</text>
</a>
</g>
</g>
<!-- Node2&#45;&gt;Node5 -->
<g id="edge4_Node000002_Node000005" class="edge">
<title>Node2&#45;&gt;Node5</title>
<g id="a_edge4_Node000002_Node000005"><a xlink:title=" ">
<path fill="none" stroke="#63b8ff" d="M275.33,-28.5C283.73,-28.5 292.4,-28.5 300.7,-28.5"/>
<polygon fill="#63b8ff" stroke="#63b8ff" points="300.95,-32 310.95,-28.5 300.95,-25 300.95,-32"/>
</a>
</g>
</g>
<!-- Node5&#45;&gt;Node3 -->
<g id="edge5_Node000005_Node000003" class="edge">
<title>Node5&#45;&gt;Node3</title>
<g id="a_edge5_Node000005_Node000003"><a xlink:title=" ">
<path fill="none" stroke="#63b8ff" d="M385.16,-34.44C393.94,-35.89 403.44,-37.45 412.61,-38.96"/>
<polygon fill="#63b8ff" stroke="#63b8ff" points="412.32,-42.46 422.75,-40.62 413.45,-35.55 412.32,-42.46"/>
</a>
</g>
</g>
<!-- Node5&#45;&gt;Node4 -->
<g id="edge6_Node000005_Node000004" class="edge">
<title>Node5&#45;&gt;Node4</title>
<g id="a_edge6_Node000005_Node000004"><a xlink:title=" ">
<path fill="none" stroke="#63b8ff" d="M385.16,-22.23C393.4,-20.8 402.27,-19.26 410.91,-17.76"/>
<polygon fill="#63b8ff" stroke="#63b8ff" points="411.62,-21.19 420.88,-16.03 410.43,-14.29 411.62,-21.19"/>
</a>
</g>
</g>
<!-- Node5&#45;&gt;Node5 -->
<g id="edge7_Node000005_Node000005" class="edge">
<title>Node5&#45;&gt;Node5</title>
<g id="a_edge7_Node000005_Node000005"><a xlink:title=" ">
<path fill="none" stroke="#63b8ff" d="M331.05,-38.08C322.8,-46.73 328.45,-56 348,-56 360.22,-56 367.01,-52.38 368.37,-47.55"/>
<polygon fill="#63b8ff" stroke="#63b8ff" points="371.64,-46.3 364.95,-38.08 365.05,-48.68 371.64,-46.3"/>
</a>
</g>
</g>
</g>
</svg>
