<?xml version="1.0" encoding="UTF-8" standalone="no"?>
<!DOCTYPE svg PUBLIC "-//W3C//DTD SVG 1.1//EN"
 "http://www.w3.org/Graphics/SVG/1.1/DTD/svg11.dtd">
<!-- Generated by graphviz version 2.42.4 (0)
 -->
<!-- Title: include/types/Image.hpp Pages: 1 -->
<svg width="1583pt" height="324pt"
 viewBox="0.00 0.00 1582.50 324.00" xmlns="http://www.w3.org/2000/svg" xmlns:xlink="http://www.w3.org/1999/xlink">
<g id="graph0" class="graph" transform="scale(1 1) rotate(0) translate(4 320)">
<title>include/types/Image.hpp</title>
<!-- Node1 -->
<g id="Node000001" class="node">
<title>Node1</title>
<g id="a_Node000001"><a xlink:title=" ">
<polygon fill="#999999" stroke="#666666" points="900.5,-316 763.5,-316 763.5,-297 900.5,-297 900.5,-316"/>
<text text-anchor="middle" x="832" y="-304" font-family="Helvetica,sans-Serif" font-size="10.00">include/types/Image.hpp</text>
</a>
</g>
</g>
<!-- Node2 -->
<g id="Node000002" class="node">
<title>Node2</title>
<g id="a_Node000002"><a xlink:href="../../d1/d64/FilterPipeline_8hpp.html" target="_top" xlink:title=" ">
<polygon fill="white" stroke="#666666" points="640.5,-200.5 467.5,-200.5 467.5,-181.5 640.5,-181.5 640.5,-200.5"/>
<text text-anchor="middle" x="554" y="-188.5" font-family="Helvetica,sans-Serif" font-size="10.00">include/filt_op/FilterPipeline.hpp</text>
</a>
</g>
</g>
<!-- Node1&#45;&gt;Node2 -->
<g id="edge1_Node000001_Node000002" class="edge">
<title>Node1&#45;&gt;Node2</title>
<g id="a_edge1_Node000001_Node000002"><a xlink:title=" ">
<path fill="none" stroke="#63b8ff" d="M801.6,-293.09C744.82,-269.9 623.98,-220.57 575.14,-200.63"/>
<polygon fill="#63b8ff" stroke="#63b8ff" points="800.52,-296.43 811.1,-296.97 803.17,-289.95 800.52,-296.43"/>
</a>
</g>
</g>
<!-- Node4 -->
<g id="Node000004" class="node">
<title>Node4</title>
<g id="a_Node000004"><a xlink:href="../../dd/d48/BatchProcessor_8hpp.html" target="_top" xlink:title=" ">
<polygon fill="white" stroke="#666666" points="472,-74 310,-74 310,-55 472,-55 472,-74"/>
<text text-anchor="middle" x="391" y="-62" font-family="Helvetica,sans-Serif" font-size="10.00">include/io/BatchProcessor.hpp</text>
</a>
</g>
</g>
<!-- Node1&#45;&gt;Node4 -->
<g id="edge33_Node000001_Node000004" class="edge">
<title>Node1&#45;&gt;Node4</title>
<g id="a_edge33_Node000001_Node000004"><a xlink:title=" ">
<path fill="none" stroke="#63b8ff" d="M765.27,-295.27C688.44,-281.81 559.75,-254.05 458,-206 412.5,-184.51 388.98,-184.77 366,-140 354.41,-117.42 372.86,-88.33 383.82,-74.1"/>
<polygon fill="#63b8ff" stroke="#63b8ff" points="764.85,-298.75 775.3,-297 766.04,-291.85 764.85,-298.75"/>
</a>
</g>
</g>
<!-- Node5 -->
<g id="Node000005" class="node">
<title>Node5</title>
<g id="a_Node000005"><a xlink:href="../../d2/d82/BatchProcessor_8cpp.html" target="_top" xlink:title=" ">
<polygon fill="white" stroke="#666666" points="329,-19 189,-19 189,0 329,0 329,-19"/>
<text text-anchor="middle" x="259" y="-7" font-family="Helvetica,sans-Serif" font-size="10.00">src/io/BatchProcessor.cpp</text>
</a>
</g>
</g>
<!-- Node1&#45;&gt;Node5 -->
<g id="edge41_Node000001_Node000005" class="edge">
<title>Node1&#45;&gt;Node5</title>
<g id="a_edge41_Node000001_Node000005"><a xlink:title=" ">
<path fill="none" stroke="#63b8ff" d="M753.12,-298.39C592.81,-282.88 244,-243.25 244,-192 244,-192 244,-192 244,-124 244,-84.65 252.97,-38.27 257.04,-19.28"/>
<polygon fill="#63b8ff" stroke="#63b8ff" points="753.11,-301.91 763.4,-299.38 753.78,-294.94 753.11,-301.91"/>
</a>
</g>
</g>
<!-- Node9 -->
<g id="Node000009" class="node">
<title>Node9</title>
<g id="a_Node000009"><a xlink:href="../../d0/da6/IFilter_8hpp.html" target="_top" xlink:title=" ">
<polygon fill="white" stroke="#666666" points="1126,-261 990,-261 990,-242 1126,-242 1126,-261"/>
<text text-anchor="middle" x="1058" y="-249" font-family="Helvetica,sans-Serif" font-size="10.00">include/filt_op/IFilter.hpp</text>
</a>
</g>
</g>
<!-- Node1&#45;&gt;Node9 -->
<g id="edge11_Node000001_Node000009" class="edge">
<title>Node1&#45;&gt;Node9</title>
<g id="a_edge11_Node000001_Node000009"><a xlink:title=" ">
<path fill="none" stroke="#63b8ff" d="M878.09,-294.69C920.44,-284.76 982.36,-270.24 1021.4,-261.08"/>
<polygon fill="#63b8ff" stroke="#63b8ff" points="877.25,-291.29 868.31,-296.98 878.85,-298.11 877.25,-291.29"/>
</a>
</g>
</g>
<!-- Node10 -->
<g id="Node000010" class="node">
<title>Node10</title>
<g id="a_Node000010"><a xlink:href="../../da/d5d/ContrastBrightnessFilter_8hpp.html" target="_top" xlink:title=" ">
<polygon fill="white" stroke="#666666" points="895.5,-206 768.5,-206 768.5,-176 895.5,-176 895.5,-206"/>
<text text-anchor="start" x="776.5" y="-194" font-family="Helvetica,sans-Serif" font-size="10.00">include/filters/Contrast</text>
<text text-anchor="middle" x="832" y="-183" font-family="Helvetica,sans-Serif" font-size="10.00">BrightnessFilter.hpp</text>
</a>
</g>
</g>
<!-- Node1&#45;&gt;Node10 -->
<g id="edge26_Node000001_Node000010" class="edge">
<title>Node1&#45;&gt;Node10</title>
<g id="a_edge26_Node000001_Node000010"><a xlink:title=" ">
<path fill="none" stroke="#63b8ff" d="M832,-286.96C832,-264.34 832,-226.61 832,-206.18"/>
<polygon fill="#63b8ff" stroke="#63b8ff" points="828.5,-286.97 832,-296.97 835.5,-286.97 828.5,-286.97"/>
</a>
</g>
</g>
<!-- Node11 -->
<g id="Node000011" class="node">
<title>Node11</title>
<g id="a_Node000011"><a xlink:href="../../de/dba/ContrastBrightnessFilter_8cpp.html" target="_top" xlink:title=" ">
<polygon fill="white" stroke="#666666" points="898,-140 740,-140 740,-110 898,-110 898,-140"/>
<text text-anchor="start" x="748" y="-128" font-family="Helvetica,sans-Serif" font-size="10.00">src/filters/ContrastBrightness</text>
<text text-anchor="middle" x="819" y="-117" font-family="Helvetica,sans-Serif" font-size="10.00">Filter.cpp</text>
</a>
</g>
</g>
<!-- Node1&#45;&gt;Node11 -->
<g id="edge38_Node000001_Node000011" class="edge">
<title>Node1&#45;&gt;Node11</title>
<g id="a_edge38_Node000001_Node000011"><a xlink:title=" ">
<path fill="none" stroke="#63b8ff" d="M814.98,-289.38C797.07,-271.13 769.99,-239.55 759,-206 754.85,-193.33 753.34,-188.07 759,-176 766.13,-160.77 780.43,-148.57 793.28,-140.03"/>
<polygon fill="#63b8ff" stroke="#63b8ff" points="812.9,-292.24 822.47,-296.78 817.82,-287.26 812.9,-292.24"/>
</a>
</g>
</g>
<!-- Node12 -->
<g id="Node000012" class="node">
<title>Node12</title>
<g id="a_Node000012"><a xlink:href="../../d1/d04/ConvolutionFilter_8hpp.html" target="_top" xlink:title=" ">
<polygon fill="white" stroke="#666666" points="1096,-206 952,-206 952,-176 1096,-176 1096,-206"/>
<text text-anchor="start" x="960" y="-194" font-family="Helvetica,sans-Serif" font-size="10.00">include/filters/Convolution</text>
<text text-anchor="middle" x="1024" y="-183" font-family="Helvetica,sans-Serif" font-size="10.00">Filter.hpp</text>
</a>
</g>
</g>
<!-- Node1&#45;&gt;Node12 -->
<g id="edge27_Node000001_Node000012" class="edge">
<title>Node1&#45;&gt;Node12</title>
<g id="a_edge27_Node000001_Node000012"><a xlink:title=" ">
<path fill="none" stroke="#63b8ff" d="M867.38,-293.48C888.57,-285.6 915.64,-274.31 938,-261 964.98,-244.95 992.68,-221.14 1009.11,-206.11"/>
<polygon fill="#63b8ff" stroke="#63b8ff" points="866,-290.26 857.8,-296.96 868.39,-296.84 866,-290.26"/>
</a>
</g>
</g>
<!-- Node13 -->
<g id="Node000013" class="node">
<title>Node13</title>
<g id="a_Node000013"><a xlink:href="../../da/d05/ConvolutionFilter_8cpp.html" target="_top" xlink:title=" ">
<polygon fill="white" stroke="#666666" points="1120.5,-134.5 953.5,-134.5 953.5,-115.5 1120.5,-115.5 1120.5,-134.5"/>
<text text-anchor="middle" x="1037" y="-122.5" font-family="Helvetica,sans-Serif" font-size="10.00">src/filters/ConvolutionFilter.cpp</text>
</a>
</g>
</g>
<!-- Node1&#45;&gt;Node13 -->
<g id="edge39_Node000001_Node000013" class="edge">
<title>Node1&#45;&gt;Node13</title>
<g id="a_edge39_Node000001_Node000013"><a xlink:title=" ">
<path fill="none" stroke="#63b8ff" d="M843.47,-288.39C861.96,-261.76 900.6,-209.97 943,-176 965.65,-157.85 995.87,-143.16 1015.86,-134.51"/>
<polygon fill="#63b8ff" stroke="#63b8ff" points="840.35,-286.74 837.6,-296.97 846.13,-290.69 840.35,-286.74"/>
</a>
</g>
</g>
<!-- Node14 -->
<g id="Node000014" class="node">
<title>Node14</title>
<g id="a_Node000014"><a xlink:href="../../df/daa/MedianFilter_8hpp.html" target="_top" xlink:title=" ">
<polygon fill="white" stroke="#666666" points="1356.5,-200.5 1189.5,-200.5 1189.5,-181.5 1356.5,-181.5 1356.5,-200.5"/>
<text text-anchor="middle" x="1273" y="-188.5" font-family="Helvetica,sans-Serif" font-size="10.00">include/filters/MedianFilter.hpp</text>
</a>
</g>
</g>
<!-- Node1&#45;&gt;Node14 -->
<g id="edge28_Node000001_Node000014" class="edge">
<title>Node1&#45;&gt;Node14</title>
<g id="a_edge28_Node000001_Node000014"><a xlink:title=" ">
<path fill="none" stroke="#63b8ff" d="M910.64,-299.77C996.85,-292.71 1129.15,-279.36 1176,-261 1212.56,-246.67 1248.28,-215.6 1264.27,-200.54"/>
<polygon fill="#63b8ff" stroke="#63b8ff" points="910.31,-296.29 900.63,-300.58 910.88,-303.27 910.31,-296.29"/>
</a>
</g>
</g>
<!-- Node15 -->
<g id="Node000015" class="node">
<title>Node15</title>
<g id="a_Node000015"><a xlink:href="../../df/db2/MedianFilter_8cpp.html" target="_top" xlink:title=" ">
<polygon fill="white" stroke="#666666" points="1321.5,-134.5 1176.5,-134.5 1176.5,-115.5 1321.5,-115.5 1321.5,-134.5"/>
<text text-anchor="middle" x="1249" y="-122.5" font-family="Helvetica,sans-Serif" font-size="10.00">src/filters/MedianFilter.cpp</text>
</a>
</g>
</g>
<!-- Node1&#45;&gt;Node15 -->
<g id="edge40_Node000001_Node000015" class="edge">
<title>Node1&#45;&gt;Node15</title>
<g id="a_edge40_Node000001_Node000015"><a xlink:title=" ">
<path fill="none" stroke="#63b8ff" d="M911,-301.84C988.44,-296.88 1099.82,-285.61 1135,-261 1170.2,-236.38 1152.79,-208.4 1181,-176 1196.3,-158.43 1218.83,-143.4 1233.7,-134.53"/>
<polygon fill="#63b8ff" stroke="#63b8ff" points="910.55,-298.36 900.79,-302.48 910.98,-305.35 910.55,-298.36"/>
</a>
</g>
</g>
<!-- Node16 -->
<g id="Node000016" class="node">
<title>Node16</title>
<g id="a_Node000016"><a xlink:href="../../df/dad/RGBOffsetFilter_8hpp.html" target="_top" xlink:title=" ">
<polygon fill="white" stroke="#666666" points="1511,-206 1375,-206 1375,-176 1511,-176 1511,-206"/>
<text text-anchor="start" x="1383" y="-194" font-family="Helvetica,sans-Serif" font-size="10.00">include/filters/RGBOffset</text>
<text text-anchor="middle" x="1443" y="-183" font-family="Helvetica,sans-Serif" font-size="10.00">Filter.hpp</text>
</a>
</g>
</g>
<!-- Node1&#45;&gt;Node16 -->
<g id="edge29_Node000001_Node000016" class="edge">
<title>Node1&#45;&gt;Node16</title>
<g id="a_edge29_Node000001_Node000016"><a xlink:title=" ">
<path fill="none" stroke="#63b8ff" d="M910.86,-300.04C987.37,-293.83 1106.46,-281.76 1208,-261 1277.57,-246.77 1356.38,-221.75 1402.77,-206.06"/>
<polygon fill="#63b8ff" stroke="#63b8ff" points="910.51,-296.55 900.82,-300.84 911.07,-303.53 910.51,-296.55"/>
</a>
</g>
</g>
<!-- Node18 -->
<g id="Node000018" class="node">
<title>Node18</title>
<g id="a_Node000018"><a xlink:href="../../d7/def/BMPImageHandler_8hpp.html" target="_top" xlink:title=" ">
<polygon fill="white" stroke="#666666" points="178,-74 0,-74 0,-55 178,-55 178,-74"/>
<text text-anchor="middle" x="89" y="-62" font-family="Helvetica,sans-Serif" font-size="10.00">include/io/BMPImageHandler.hpp</text>
</a>
</g>
</g>
<!-- Node1&#45;&gt;Node18 -->
<g id="edge30_Node000001_Node000018" class="edge">
<title>Node1&#45;&gt;Node18</title>
<g id="a_edge30_Node000001_Node000018"><a xlink:title=" ">
<path fill="none" stroke="#63b8ff" d="M752.99,-305.7C606.7,-305.11 299.56,-299.2 201,-261 120.16,-229.67 85.77,-218.03 48,-140 42.19,-128 43.15,-122.42 48,-110 53.81,-95.13 67.17,-82.23 77.07,-74.2"/>
<polygon fill="#63b8ff" stroke="#63b8ff" points="753.23,-309.2 763.24,-305.73 753.25,-302.2 753.23,-309.2"/>
</a>
</g>
</g>
<!-- Node20 -->
<g id="Node000020" class="node">
<title>Node20</title>
<g id="a_Node000020"><a xlink:href="../../d9/dd4/IImageHandler_8hpp.html" target="_top" xlink:title=" ">
<polygon fill="white" stroke="#666666" points="216.5,-134.5 57.5,-134.5 57.5,-115.5 216.5,-115.5 216.5,-134.5"/>
<text text-anchor="middle" x="137" y="-122.5" font-family="Helvetica,sans-Serif" font-size="10.00">include/io/IImageHandler.hpp</text>
</a>
</g>
</g>
<!-- Node1&#45;&gt;Node20 -->
<g id="edge34_Node000001_Node000020" class="edge">
<title>Node1&#45;&gt;Node20</title>
<g id="a_edge34_Node000001_Node000020"><a xlink:title=" ">
<path fill="none" stroke="#63b8ff" d="M753.05,-303.45C600.07,-298.92 274.3,-286.4 230,-261 178.15,-231.27 148.79,-159.47 139.91,-134.63"/>
<polygon fill="#63b8ff" stroke="#63b8ff" points="753.22,-306.95 763.32,-303.75 753.43,-299.96 753.22,-306.95"/>
</a>
</g>
</g>
<!-- Node3 -->
<g id="Node000003" class="node">
<title>Node3</title>
<g id="a_Node000003"><a xlink:href="../../d9/d72/FilterFactory_8hpp.html" target="_top" xlink:title=" ">
<polygon fill="white" stroke="#666666" points="552.5,-134.5 385.5,-134.5 385.5,-115.5 552.5,-115.5 552.5,-134.5"/>
<text text-anchor="middle" x="469" y="-122.5" font-family="Helvetica,sans-Serif" font-size="10.00">include/filt_op/FilterFactory.hpp</text>
</a>
</g>
</g>
<!-- Node2&#45;&gt;Node3 -->
<g id="edge2_Node000002_Node000003" class="edge">
<title>Node2&#45;&gt;Node3</title>
<g id="a_edge2_Node000002_Node000003"><a xlink:title=" ">
<path fill="none" stroke="#63b8ff" d="M534.52,-175.33C517.85,-162.78 494.41,-145.13 480.55,-134.7"/>
<polygon fill="#63b8ff" stroke="#63b8ff" points="532.44,-178.15 542.54,-181.37 536.65,-172.56 532.44,-178.15"/>
</a>
</g>
</g>
<!-- Node2&#45;&gt;Node4 -->
<g id="edge8_Node000002_Node000004" class="edge">
<title>Node2&#45;&gt;Node4</title>
<g id="a_edge8_Node000002_Node000004"><a xlink:title=" ">
<path fill="none" stroke="#63b8ff" d="M486.64,-179.69C442.16,-171.34 389.65,-158.02 376,-140 361.02,-120.23 376.13,-89.32 385.22,-74.29"/>
<polygon fill="#63b8ff" stroke="#63b8ff" points="486.11,-183.15 496.58,-181.49 487.36,-176.26 486.11,-183.15"/>
</a>
</g>
</g>
<!-- Node2&#45;&gt;Node5 -->
<g id="edge10_Node000002_Node000005" class="edge">
<title>Node2&#45;&gt;Node5</title>
<g id="a_edge10_Node000002_Node000005"><a xlink:title=" ">
<path fill="none" stroke="#63b8ff" d="M478.97,-179.52C443.03,-172.2 400.43,-160.01 366,-140 313.55,-109.52 275.7,-43.08 263.34,-19.24"/>
<polygon fill="#63b8ff" stroke="#63b8ff" points="478.43,-182.98 488.91,-181.46 479.77,-176.11 478.43,-182.98"/>
</a>
</g>
</g>
<!-- Node8 -->
<g id="Node000008" class="node">
<title>Node8</title>
<g id="a_Node000008"><a xlink:href="../../df/d34/FilterPipeline_8cpp.html" target="_top" xlink:title=" ">
<polygon fill="white" stroke="#666666" points="721.5,-134.5 570.5,-134.5 570.5,-115.5 721.5,-115.5 721.5,-134.5"/>
<text text-anchor="middle" x="646" y="-122.5" font-family="Helvetica,sans-Serif" font-size="10.00">src/filt_op/FilterPipeline.cpp</text>
</a>
</g>
</g>
<!-- Node2&#45;&gt;Node8 -->
<g id="edge9_Node000002_Node000008" class="edge">
<title>Node2&#45;&gt;Node8</title>
<g id="a_edge9_Node000002_Node000008"><a xlink:title=" ">
<path fill="none" stroke="#63b8ff" d="M575.08,-175.33C593.13,-162.78 618.5,-145.13 633.5,-134.7"/>
<polygon fill="#63b8ff" stroke="#63b8ff" points="572.62,-172.78 566.41,-181.37 576.62,-178.53 572.62,-172.78"/>
</a>
</g>
</g>
<!-- Node3&#45;&gt;Node4 -->
<g id="edge3_Node000003_Node000004" class="edge">
<title>Node3&#45;&gt;Node4</title>
<g id="a_edge3_Node000003_Node000004"><a xlink:title=" ">
<path fill="none" stroke="#63b8ff" d="M449.46,-109.35C434.69,-98.27 414.9,-83.43 402.56,-74.17"/>
<polygon fill="#63b8ff" stroke="#63b8ff" points="447.39,-112.17 457.49,-115.37 451.59,-106.57 447.39,-112.17"/>
</a>
</g>
</g>
<!-- Node3&#45;&gt;Node5 -->
<g id="edge7_Node000003_Node000005" class="edge">
<title>Node3&#45;&gt;Node5</title>
<g id="a_edge7_Node000003_Node000005"><a xlink:title=" ">
<path fill="none" stroke="#63b8ff" d="M479.05,-106.34C486.24,-91.1 492.76,-69.35 481,-55 470.88,-42.65 384.16,-28.05 322.16,-19.03"/>
<polygon fill="#63b8ff" stroke="#63b8ff" points="475.92,-104.78 474.42,-115.27 482.13,-108.01 475.92,-104.78"/>
</a>
</g>
</g>
<!-- Node7 -->
<g id="Node000007" class="node">
<title>Node7</title>
<g id="a_Node000007"><a xlink:href="../../da/d58/FilterFactory_8cpp.html" target="_top" xlink:title=" ">
<polygon fill="white" stroke="#666666" points="1221,-74 1075,-74 1075,-55 1221,-55 1221,-74"/>
<text text-anchor="middle" x="1148" y="-62" font-family="Helvetica,sans-Serif" font-size="10.00">src/filt_op/FilterFactory.cpp</text>
</a>
</g>
</g>
<!-- Node3&#45;&gt;Node7 -->
<g id="edge6_Node000003_Node000007" class="edge">
<title>Node3&#45;&gt;Node7</title>
<g id="a_edge6_Node000003_Node000007"><a xlink:title=" ">
<path fill="none" stroke="#63b8ff" d="M530.53,-113.98C540.69,-112.52 551.13,-111.12 561,-110 745.31,-89.02 963.33,-75.42 1074.62,-69.28"/>
<polygon fill="#63b8ff" stroke="#63b8ff" points="529.87,-110.54 520.49,-115.47 530.89,-117.47 529.87,-110.54"/>
</a>
</g>
</g>
<!-- Node4&#45;&gt;Node5 -->
<g id="edge4_Node000004_Node000005" class="edge">
<title>Node4&#45;&gt;Node5</title>
<g id="a_edge4_Node000004_Node000005"><a xlink:title=" ">
<path fill="none" stroke="#63b8ff" d="M360.27,-51.16C335.83,-41.35 302.26,-27.87 280.59,-19.17"/>
<polygon fill="#63b8ff" stroke="#63b8ff" points="359.21,-54.51 369.79,-54.98 361.82,-48.01 359.21,-54.51"/>
</a>
</g>
</g>
<!-- Node6 -->
<g id="Node000006" class="node">
<title>Node6</title>
<g id="a_Node000006"><a xlink:href="../../df/d0a/main_8cpp.html" target="_top" xlink:title=" ">
<polygon fill="white" stroke="#666666" points="430.5,-19 351.5,-19 351.5,0 430.5,0 430.5,-19"/>
<text text-anchor="middle" x="391" y="-7" font-family="Helvetica,sans-Serif" font-size="10.00">src/main.cpp</text>
</a>
</g>
</g>
<!-- Node4&#45;&gt;Node6 -->
<g id="edge5_Node000004_Node000006" class="edge">
<title>Node4&#45;&gt;Node6</title>
<g id="a_edge5_Node000004_Node000006"><a xlink:title=" ">
<path fill="none" stroke="#63b8ff" d="M391,-44.66C391,-35.93 391,-25.99 391,-19.09"/>
<polygon fill="#63b8ff" stroke="#63b8ff" points="387.5,-44.75 391,-54.75 394.5,-44.75 387.5,-44.75"/>
</a>
</g>
</g>
<!-- Node9&#45;&gt;Node2 -->
<g id="edge12_Node000009_Node000002" class="edge">
<title>Node9&#45;&gt;Node2</title>
<g id="a_edge12_Node000009_Node000002"><a xlink:title=" ">
<path fill="none" stroke="#63b8ff" d="M979.8,-241.42C883.54,-230.25 721.31,-211.42 627.34,-200.51"/>
<polygon fill="#63b8ff" stroke="#63b8ff" points="979.43,-244.9 989.77,-242.58 980.24,-237.95 979.43,-244.9"/>
</a>
</g>
</g>
<!-- Node9&#45;&gt;Node10 -->
<g id="edge13_Node000009_Node000010" class="edge">
<title>Node9&#45;&gt;Node10</title>
<g id="a_edge13_Node000009_Node000010"><a xlink:title=" ">
<path fill="none" stroke="#63b8ff" d="M1015.28,-239.44C978.73,-229.98 925.89,-216.3 886.33,-206.06"/>
<polygon fill="#63b8ff" stroke="#63b8ff" points="1014.58,-242.88 1025.14,-241.99 1016.33,-236.1 1014.58,-242.88"/>
</a>
</g>
</g>
<!-- Node9&#45;&gt;Node12 -->
<g id="edge16_Node000009_Node000012" class="edge">
<title>Node9&#45;&gt;Node12</title>
<g id="a_edge16_Node000009_Node000012"><a xlink:title=" ">
<path fill="none" stroke="#63b8ff" d="M1047.86,-233.05C1042.86,-224.45 1036.91,-214.21 1032.2,-206.11"/>
<polygon fill="#63b8ff" stroke="#63b8ff" points="1044.93,-234.98 1052.98,-241.87 1050.98,-231.46 1044.93,-234.98"/>
</a>
</g>
</g>
<!-- Node9&#45;&gt;Node14 -->
<g id="edge19_Node000009_Node000014" class="edge">
<title>Node9&#45;&gt;Node14</title>
<g id="a_edge19_Node000009_Node000014"><a xlink:title=" ">
<path fill="none" stroke="#63b8ff" d="M1099.08,-239.32C1140.65,-228.01 1204.02,-210.77 1241.7,-200.52"/>
<polygon fill="#63b8ff" stroke="#63b8ff" points="1097.99,-235.99 1089.26,-241.99 1099.83,-242.75 1097.99,-235.99"/>
</a>
</g>
</g>
<!-- Node9&#45;&gt;Node15 -->
<g id="edge25_Node000009_Node000015" class="edge">
<title>Node9&#45;&gt;Node15</title>
<g id="a_edge25_Node000009_Node000015"><a xlink:title=" ">
<path fill="none" stroke="#63b8ff" d="M1074.48,-234.85C1091.87,-218.83 1120.51,-193.84 1148,-176 1174.26,-158.96 1207.15,-143.69 1228.12,-134.63"/>
<polygon fill="#63b8ff" stroke="#63b8ff" points="1071.83,-232.54 1066.91,-241.92 1076.61,-237.65 1071.83,-232.54"/>
</a>
</g>
</g>
<!-- Node9&#45;&gt;Node16 -->
<g id="edge22_Node000009_Node000016" class="edge">
<title>Node9&#45;&gt;Node16</title>
<g id="a_edge22_Node000009_Node000016"><a xlink:title=" ">
<path fill="none" stroke="#63b8ff" d="M1131.12,-240.61C1193.39,-232.01 1285.18,-218.94 1365,-206 1368.26,-205.47 1371.59,-204.92 1374.96,-204.35"/>
<polygon fill="#63b8ff" stroke="#63b8ff" points="1130.44,-237.17 1121.01,-242 1131.39,-244.1 1130.44,-237.17"/>
</a>
</g>
</g>
<!-- Node10&#45;&gt;Node7 -->
<g id="edge14_Node000010_Node000007" class="edge">
<title>Node10&#45;&gt;Node7</title>
<g id="a_edge14_Node000010_Node000007"><a xlink:title=" ">
<path fill="none" stroke="#63b8ff" d="M862.96,-170.29C876.66,-161.34 892.84,-150.43 907,-140 924.05,-127.45 924.92,-119.17 944,-110 985,-90.29 1034.83,-79.21 1074.98,-73.04"/>
<polygon fill="#63b8ff" stroke="#63b8ff" points="860.84,-167.49 854.36,-175.87 864.65,-173.36 860.84,-167.49"/>
</a>
</g>
</g>
<!-- Node10&#45;&gt;Node11 -->
<g id="edge15_Node000010_Node000011" class="edge">
<title>Node10&#45;&gt;Node11</title>
<g id="a_edge15_Node000010_Node000011"><a xlink:title=" ">
<path fill="none" stroke="#63b8ff" d="M827.09,-165.83C825.33,-157.17 823.41,-147.7 821.88,-140.16"/>
<polygon fill="#63b8ff" stroke="#63b8ff" points="823.69,-166.69 829.11,-175.8 830.55,-165.3 823.69,-166.69"/>
</a>
</g>
</g>
<!-- Node12&#45;&gt;Node7 -->
<g id="edge17_Node000012_Node000007" class="edge">
<title>Node12&#45;&gt;Node7</title>
<g id="a_edge17_Node000012_Node000007"><a xlink:title=" ">
<path fill="none" stroke="#63b8ff" d="M1084.71,-171.87C1101.11,-164.35 1117.48,-154.02 1129,-140 1144.94,-120.61 1147.71,-89.52 1148.06,-74.37"/>
<polygon fill="#63b8ff" stroke="#63b8ff" points="1082.92,-168.83 1075.09,-175.97 1085.66,-175.27 1082.92,-168.83"/>
</a>
</g>
</g>
<!-- Node12&#45;&gt;Node13 -->
<g id="edge18_Node000012_Node000013" class="edge">
<title>Node12&#45;&gt;Node13</title>
<g id="a_edge18_Node000012_Node000013"><a xlink:title=" ">
<path fill="none" stroke="#63b8ff" d="M1028.89,-165.94C1031.1,-155.06 1033.57,-142.86 1035.2,-134.84"/>
<polygon fill="#63b8ff" stroke="#63b8ff" points="1025.45,-165.3 1026.89,-175.8 1032.31,-166.69 1025.45,-165.3"/>
</a>
</g>
</g>
<!-- Node14&#45;&gt;Node7 -->
<g id="edge20_Node000014_Node000007" class="edge">
<title>Node14&#45;&gt;Node7</title>
<g id="a_edge20_Node000014_Node000007"><a xlink:title=" ">
<path fill="none" stroke="#63b8ff" d="M1295.7,-175.8C1318.73,-159.61 1348.67,-132.48 1331,-110 1317.21,-92.46 1266.1,-80.97 1221.38,-74.07"/>
<polygon fill="#63b8ff" stroke="#63b8ff" points="1293.66,-172.95 1287.32,-181.43 1297.57,-178.75 1293.66,-172.95"/>
</a>
</g>
</g>
<!-- Node14&#45;&gt;Node15 -->
<g id="edge21_Node000014_Node000015" class="edge">
<title>Node14&#45;&gt;Node15</title>
<g id="a_edge21_Node000014_Node000015"><a xlink:title=" ">
<path fill="none" stroke="#63b8ff" d="M1266.18,-171.82C1261.65,-159.74 1255.9,-144.41 1252.34,-134.91"/>
<polygon fill="#63b8ff" stroke="#63b8ff" points="1262.97,-173.23 1269.76,-181.37 1269.53,-170.78 1262.97,-173.23"/>
</a>
</g>
</g>
<!-- Node16&#45;&gt;Node7 -->
<g id="edge23_Node000016_Node000007" class="edge">
<title>Node16&#45;&gt;Node7</title>
<g id="a_edge23_Node000016_Node000007"><a xlink:title=" ">
<path fill="none" stroke="#63b8ff" d="M1423.08,-168.42C1404.98,-150.12 1376.64,-124.59 1347,-110 1307.77,-90.69 1260.08,-79.66 1221.22,-73.41"/>
<polygon fill="#63b8ff" stroke="#63b8ff" points="1420.72,-171.01 1430.19,-175.77 1425.75,-166.14 1420.72,-171.01"/>
</a>
</g>
</g>
<!-- Node17 -->
<g id="Node000017" class="node">
<title>Node17</title>
<g id="a_Node000017"><a xlink:href="../../d9/de2/RGBOffsetFilter_8cpp.html" target="_top" xlink:title=" ">
<polygon fill="white" stroke="#666666" points="1574.5,-134.5 1415.5,-134.5 1415.5,-115.5 1574.5,-115.5 1574.5,-134.5"/>
<text text-anchor="middle" x="1495" y="-122.5" font-family="Helvetica,sans-Serif" font-size="10.00">src/filters/RGBOffsetFilter.cpp</text>
</a>
</g>
</g>
<!-- Node16&#45;&gt;Node17 -->
<g id="edge24_Node000016_Node000017" class="edge">
<title>Node16&#45;&gt;Node17</title>
<g id="a_edge24_Node000016_Node000017"><a xlink:title=" ">
<path fill="none" stroke="#63b8ff" d="M1460.92,-167.94C1470.15,-156.58 1480.9,-143.36 1487.81,-134.84"/>
<polygon fill="#63b8ff" stroke="#63b8ff" points="1458.13,-165.83 1454.54,-175.8 1463.56,-170.24 1458.13,-165.83"/>
</a>
</g>
</g>
<!-- Node18&#45;&gt;Node5 -->
<g id="edge32_Node000018_Node000005" class="edge">
<title>Node18&#45;&gt;Node5</title>
<g id="a_edge32_Node000018_Node000005"><a xlink:title=" ">
<path fill="none" stroke="#63b8ff" d="M126.12,-51.93C157.87,-42.03 202.85,-28.01 231.47,-19.08"/>
<polygon fill="#63b8ff" stroke="#63b8ff" points="124.82,-48.67 116.31,-54.98 126.9,-55.35 124.82,-48.67"/>
</a>
</g>
</g>
<!-- Node19 -->
<g id="Node000019" class="node">
<title>Node19</title>
<g id="a_Node000019"><a xlink:href="../../d6/d83/BMPImageHandler_8cpp.html" target="_top" xlink:title=" ">
<polygon fill="white" stroke="#666666" points="167,-19 11,-19 11,0 167,0 167,-19"/>
<text text-anchor="middle" x="89" y="-7" font-family="Helvetica,sans-Serif" font-size="10.00">src/io/BMPImageHandler.cpp</text>
</a>
</g>
</g>
<!-- Node18&#45;&gt;Node19 -->
<g id="edge31_Node000018_Node000019" class="edge">
<title>Node18&#45;&gt;Node19</title>
<g id="a_edge31_Node000018_Node000019"><a xlink:title=" ">
<path fill="none" stroke="#63b8ff" d="M89,-44.66C89,-35.93 89,-25.99 89,-19.09"/>
<polygon fill="#63b8ff" stroke="#63b8ff" points="85.5,-44.75 89,-54.75 92.5,-44.75 85.5,-44.75"/>
</a>
</g>
</g>
<!-- Node20&#45;&gt;Node4 -->
<g id="edge36_Node000020_Node000004" class="edge">
<title>Node20&#45;&gt;Node4</title>
<g id="a_edge36_Node000020_Node000004"><a xlink:title=" ">
<path fill="none" stroke="#63b8ff" d="M183.98,-113.18C233.06,-101.88 309.04,-84.38 354.02,-74.02"/>
<polygon fill="#63b8ff" stroke="#63b8ff" points="182.89,-109.84 173.93,-115.49 184.46,-116.66 182.89,-109.84"/>
</a>
</g>
</g>
<!-- Node20&#45;&gt;Node5 -->
<g id="edge37_Node000020_Node000005" class="edge">
<title>Node20&#45;&gt;Node5</title>
<g id="a_edge37_Node000020_Node000005"><a xlink:title=" ">
<path fill="none" stroke="#63b8ff" d="M153.75,-108.42C179.81,-84.17 229.22,-38.2 249.72,-19.13"/>
<polygon fill="#63b8ff" stroke="#63b8ff" points="151.11,-106.1 146.17,-115.47 155.88,-111.22 151.11,-106.1"/>
</a>
</g>
</g>
<!-- Node20&#45;&gt;Node18 -->
<g id="edge35_Node000020_Node000018" class="edge">
<title>Node20&#45;&gt;Node18</title>
<g id="a_edge35_Node000020_Node000018"><a xlink:title=" ">
<path fill="none" stroke="#63b8ff" d="M123.42,-107.45C114.54,-96.62 103.28,-82.91 96.11,-74.17"/>
<polygon fill="#63b8ff" stroke="#63b8ff" points="120.87,-109.86 129.92,-115.37 126.28,-105.42 120.87,-109.86"/>
</a>
</g>
</g>
</g>
</svg>
