<?xml version="1.0" encoding="UTF-8" standalone="no"?>
<!DOCTYPE svg PUBLIC "-//W3C//DTD SVG 1.1//EN"
 "http://www.w3.org/Graphics/SVG/1.1/DTD/svg11.dtd">
<!-- Generated by graphviz version 2.42.4 (0)
 -->
<!-- Title: include/types/Pixel.hpp Pages: 1 -->
<svg width="1757pt" height="379pt"
 viewBox="0.00 0.00 1757.00 379.00" xmlns="http://www.w3.org/2000/svg" xmlns:xlink="http://www.w3.org/1999/xlink">
<g id="graph0" class="graph" transform="scale(1 1) rotate(0) translate(4 375)">
<title>include/types/Pixel.hpp</title>
<!-- Node1 -->
<g id="Node000001" class="node">
<title>Node1</title>
<g id="a_Node000001"><a xlink:title=" ">
<polygon fill="#999999" stroke="#666666" points="1235.5,-371 1106.5,-371 1106.5,-352 1235.5,-352 1235.5,-371"/>
<text text-anchor="middle" x="1171" y="-359" font-family="Helvetica,sans-Serif" font-size="10.00">include/types/Pixel.hpp</text>
</a>
</g>
</g>
<!-- Node2 -->
<g id="Node000002" class="node">
<title>Node2</title>
<g id="a_Node000002"><a xlink:href="../../d8/dde/Image_8hpp.html" target="_top" xlink:title=" ">
<polygon fill="white" stroke="#666666" points="857.5,-316 720.5,-316 720.5,-297 857.5,-297 857.5,-316"/>
<text text-anchor="middle" x="789" y="-304" font-family="Helvetica,sans-Serif" font-size="10.00">include/types/Image.hpp</text>
</a>
</g>
</g>
<!-- Node1&#45;&gt;Node2 -->
<g id="edge1_Node000001_Node000002" class="edge">
<title>Node1&#45;&gt;Node2</title>
<g id="a_edge1_Node000001_Node000002"><a xlink:title=" ">
<path fill="none" stroke="#63b8ff" d="M1099.33,-350.56C1027.61,-340.61 918.45,-325.46 850.54,-316.04"/>
<polygon fill="#63b8ff" stroke="#63b8ff" points="1099.24,-354.08 1109.63,-351.98 1100.2,-347.14 1099.24,-354.08"/>
</a>
</g>
</g>
<!-- Node20 -->
<g id="Node000020" class="node">
<title>Node20</title>
<g id="a_Node000020"><a xlink:href="../../d6/d83/BMPImageHandler_8cpp.html" target="_top" xlink:title=" ">
<polygon fill="white" stroke="#666666" points="1749,-134.5 1593,-134.5 1593,-115.5 1749,-115.5 1749,-134.5"/>
<text text-anchor="middle" x="1671" y="-122.5" font-family="Helvetica,sans-Serif" font-size="10.00">src/io/BMPImageHandler.cpp</text>
</a>
</g>
</g>
<!-- Node1&#45;&gt;Node20 -->
<g id="edge43_Node000001_Node000020" class="edge">
<title>Node1&#45;&gt;Node20</title>
<g id="a_edge43_Node000001_Node000020"><a xlink:title=" ">
<path fill="none" stroke="#63b8ff" d="M1245.9,-358.1C1333.08,-351.95 1477.97,-331 1579,-261 1627.73,-227.24 1658.21,-158.62 1667.76,-134.57"/>
<polygon fill="#63b8ff" stroke="#63b8ff" points="1245.57,-354.62 1235.82,-358.77 1246.03,-361.6 1245.57,-354.62"/>
</a>
</g>
</g>
<!-- Node3 -->
<g id="Node000003" class="node">
<title>Node3</title>
<g id="a_Node000003"><a xlink:href="../../d1/d64/FilterPipeline_8hpp.html" target="_top" xlink:title=" ">
<polygon fill="white" stroke="#666666" points="1248.5,-200.5 1075.5,-200.5 1075.5,-181.5 1248.5,-181.5 1248.5,-200.5"/>
<text text-anchor="middle" x="1162" y="-188.5" font-family="Helvetica,sans-Serif" font-size="10.00">include/filt_op/FilterPipeline.hpp</text>
</a>
</g>
</g>
<!-- Node2&#45;&gt;Node3 -->
<g id="edge2_Node000002_Node000003" class="edge">
<title>Node2&#45;&gt;Node3</title>
<g id="a_edge2_Node000002_Node000003"><a xlink:title=" ">
<path fill="none" stroke="#63b8ff" d="M867.86,-301.68C923.51,-296.84 998.9,-285.86 1061,-261 1098.26,-246.08 1135.56,-215.58 1152.52,-200.64"/>
<polygon fill="#63b8ff" stroke="#63b8ff" points="867.39,-298.21 857.71,-302.52 867.96,-305.19 867.39,-298.21"/>
</a>
</g>
</g>
<!-- Node5 -->
<g id="Node000005" class="node">
<title>Node5</title>
<g id="a_Node000005"><a xlink:href="../../dd/d48/BatchProcessor_8hpp.html" target="_top" xlink:title=" ">
<polygon fill="white" stroke="#666666" points="1166,-74 1004,-74 1004,-55 1166,-55 1166,-74"/>
<text text-anchor="middle" x="1085" y="-62" font-family="Helvetica,sans-Serif" font-size="10.00">include/io/BatchProcessor.hpp</text>
</a>
</g>
</g>
<!-- Node2&#45;&gt;Node5 -->
<g id="edge34_Node000002_Node000005" class="edge">
<title>Node2&#45;&gt;Node5</title>
<g id="a_edge34_Node000002_Node000005"><a xlink:title=" ">
<path fill="none" stroke="#63b8ff" d="M813.79,-292.01C859.59,-266.36 959.12,-207.08 1029,-140 1050.94,-118.93 1070.86,-88.63 1079.89,-74.02"/>
<polygon fill="#63b8ff" stroke="#63b8ff" points="811.91,-289.05 804.87,-296.97 815.31,-295.17 811.91,-289.05"/>
</a>
</g>
</g>
<!-- Node6 -->
<g id="Node000006" class="node">
<title>Node6</title>
<g id="a_Node000006"><a xlink:href="../../d2/d82/BatchProcessor_8cpp.html" target="_top" xlink:title=" ">
<polygon fill="white" stroke="#666666" points="1420,-19 1280,-19 1280,0 1420,0 1420,-19"/>
<text text-anchor="middle" x="1350" y="-7" font-family="Helvetica,sans-Serif" font-size="10.00">src/io/BatchProcessor.cpp</text>
</a>
</g>
</g>
<!-- Node2&#45;&gt;Node6 -->
<g id="edge42_Node000002_Node000006" class="edge">
<title>Node2&#45;&gt;Node6</title>
<g id="a_edge42_Node000002_Node000006"><a xlink:title=" ">
<path fill="none" stroke="#63b8ff" d="M867.67,-303.25C1012.67,-298.56 1316.61,-286.01 1419,-261 1488.72,-243.97 1565,-263.77 1565,-192 1565,-192 1565,-192 1565,-124 1565,-57.21 1482.84,-29.62 1420.1,-18.29"/>
<polygon fill="#63b8ff" stroke="#63b8ff" points="867.4,-299.76 857.51,-303.57 867.62,-306.75 867.4,-299.76"/>
</a>
</g>
</g>
<!-- Node10 -->
<g id="Node000010" class="node">
<title>Node10</title>
<g id="a_Node000010"><a xlink:href="../../d0/da6/IFilter_8hpp.html" target="_top" xlink:title=" ">
<polygon fill="white" stroke="#666666" points="649,-261 513,-261 513,-242 649,-242 649,-261"/>
<text text-anchor="middle" x="581" y="-249" font-family="Helvetica,sans-Serif" font-size="10.00">include/filt_op/IFilter.hpp</text>
</a>
</g>
</g>
<!-- Node2&#45;&gt;Node10 -->
<g id="edge12_Node000002_Node000010" class="edge">
<title>Node2&#45;&gt;Node10</title>
<g id="a_edge12_Node000002_Node000010"><a xlink:title=" ">
<path fill="none" stroke="#63b8ff" d="M745.59,-294.44C706.65,-284.52 650.31,-270.16 614.68,-261.08"/>
<polygon fill="#63b8ff" stroke="#63b8ff" points="745.03,-297.91 755.58,-296.98 746.76,-291.12 745.03,-297.91"/>
</a>
</g>
</g>
<!-- Node11 -->
<g id="Node000011" class="node">
<title>Node11</title>
<g id="a_Node000011"><a xlink:href="../../da/d5d/ContrastBrightnessFilter_8hpp.html" target="_top" xlink:title=" ">
<polygon fill="white" stroke="#666666" points="234.5,-206 107.5,-206 107.5,-176 234.5,-176 234.5,-206"/>
<text text-anchor="start" x="115.5" y="-194" font-family="Helvetica,sans-Serif" font-size="10.00">include/filters/Contrast</text>
<text text-anchor="middle" x="171" y="-183" font-family="Helvetica,sans-Serif" font-size="10.00">BrightnessFilter.hpp</text>
</a>
</g>
</g>
<!-- Node2&#45;&gt;Node11 -->
<g id="edge27_Node000002_Node000011" class="edge">
<title>Node2&#45;&gt;Node11</title>
<g id="a_edge27_Node000002_Node000011"><a xlink:title=" ">
<path fill="none" stroke="#63b8ff" d="M710.2,-300.99C629.98,-295.39 502.34,-283.65 394,-261 327.56,-247.11 252.59,-221.85 208.7,-206.06"/>
<polygon fill="#63b8ff" stroke="#63b8ff" points="710.01,-304.49 720.23,-301.68 710.49,-297.51 710.01,-304.49"/>
</a>
</g>
</g>
<!-- Node12 -->
<g id="Node000012" class="node">
<title>Node12</title>
<g id="a_Node000012"><a xlink:href="../../de/dba/ContrastBrightnessFilter_8cpp.html" target="_top" xlink:title=" ">
<polygon fill="white" stroke="#666666" points="158,-140 0,-140 0,-110 158,-110 158,-140"/>
<text text-anchor="start" x="8" y="-128" font-family="Helvetica,sans-Serif" font-size="10.00">src/filters/ContrastBrightness</text>
<text text-anchor="middle" x="79" y="-117" font-family="Helvetica,sans-Serif" font-size="10.00">Filter.cpp</text>
</a>
</g>
</g>
<!-- Node2&#45;&gt;Node12 -->
<g id="edge39_Node000002_Node000012" class="edge">
<title>Node2&#45;&gt;Node12</title>
<g id="a_edge39_Node000002_Node000012"><a xlink:title=" ">
<path fill="none" stroke="#63b8ff" d="M709.89,-305.63C546.92,-304.14 181.95,-291.13 98,-206 80.66,-188.42 78.08,-158.06 78.23,-140.23"/>
<polygon fill="#63b8ff" stroke="#63b8ff" points="710.3,-309.14 720.33,-305.72 710.36,-302.14 710.3,-309.14"/>
</a>
</g>
</g>
<!-- Node13 -->
<g id="Node000013" class="node">
<title>Node13</title>
<g id="a_Node000013"><a xlink:href="../../d1/d04/ConvolutionFilter_8hpp.html" target="_top" xlink:title=" ">
<polygon fill="white" stroke="#666666" points="811,-206 667,-206 667,-176 811,-176 811,-206"/>
<text text-anchor="start" x="675" y="-194" font-family="Helvetica,sans-Serif" font-size="10.00">include/filters/Convolution</text>
<text text-anchor="middle" x="739" y="-183" font-family="Helvetica,sans-Serif" font-size="10.00">Filter.hpp</text>
</a>
</g>
</g>
<!-- Node2&#45;&gt;Node13 -->
<g id="edge28_Node000002_Node000013" class="edge">
<title>Node2&#45;&gt;Node13</title>
<g id="a_edge28_Node000002_Node000013"><a xlink:title=" ">
<path fill="none" stroke="#63b8ff" d="M781.1,-287.57C771.17,-265.03 754.33,-226.8 745.25,-206.18"/>
<polygon fill="#63b8ff" stroke="#63b8ff" points="778.01,-289.23 785.24,-296.97 784.41,-286.41 778.01,-289.23"/>
</a>
</g>
</g>
<!-- Node14 -->
<g id="Node000014" class="node">
<title>Node14</title>
<g id="a_Node000014"><a xlink:href="../../da/d05/ConvolutionFilter_8cpp.html" target="_top" xlink:title=" ">
<polygon fill="white" stroke="#666666" points="834.5,-134.5 667.5,-134.5 667.5,-115.5 834.5,-115.5 834.5,-134.5"/>
<text text-anchor="middle" x="751" y="-122.5" font-family="Helvetica,sans-Serif" font-size="10.00">src/filters/ConvolutionFilter.cpp</text>
</a>
</g>
</g>
<!-- Node2&#45;&gt;Node14 -->
<g id="edge40_Node000002_Node000014" class="edge">
<title>Node2&#45;&gt;Node14</title>
<g id="a_edge40_Node000002_Node000014"><a xlink:title=" ">
<path fill="none" stroke="#63b8ff" d="M800.35,-288.22C815.68,-262.51 839.01,-213.25 820,-176 809.98,-156.37 788.25,-142.65 771.83,-134.61"/>
<polygon fill="#63b8ff" stroke="#63b8ff" points="797.29,-286.5 794.97,-296.84 803.23,-290.21 797.29,-286.5"/>
</a>
</g>
</g>
<!-- Node15 -->
<g id="Node000015" class="node">
<title>Node15</title>
<g id="a_Node000015"><a xlink:href="../../df/daa/MedianFilter_8hpp.html" target="_top" xlink:title=" ">
<polygon fill="white" stroke="#666666" points="419.5,-200.5 252.5,-200.5 252.5,-181.5 419.5,-181.5 419.5,-200.5"/>
<text text-anchor="middle" x="336" y="-188.5" font-family="Helvetica,sans-Serif" font-size="10.00">include/filters/MedianFilter.hpp</text>
</a>
</g>
</g>
<!-- Node2&#45;&gt;Node15 -->
<g id="edge29_Node000002_Node000015" class="edge">
<title>Node2&#45;&gt;Node15</title>
<g id="a_edge29_Node000002_Node000015"><a xlink:title=" ">
<path fill="none" stroke="#63b8ff" d="M710.19,-300.16C621.06,-293.33 481.97,-280.07 433,-261 396.41,-246.75 360.7,-215.65 344.72,-200.55"/>
<polygon fill="#63b8ff" stroke="#63b8ff" points="710.03,-303.66 720.26,-300.92 710.56,-296.68 710.03,-303.66"/>
</a>
</g>
</g>
<!-- Node16 -->
<g id="Node000016" class="node">
<title>Node16</title>
<g id="a_Node000016"><a xlink:href="../../df/db2/MedianFilter_8cpp.html" target="_top" xlink:title=" ">
<polygon fill="white" stroke="#666666" points="397.5,-134.5 252.5,-134.5 252.5,-115.5 397.5,-115.5 397.5,-134.5"/>
<text text-anchor="middle" x="325" y="-122.5" font-family="Helvetica,sans-Serif" font-size="10.00">src/filters/MedianFilter.cpp</text>
</a>
</g>
</g>
<!-- Node2&#45;&gt;Node16 -->
<g id="edge41_Node000002_Node000016" class="edge">
<title>Node2&#45;&gt;Node16</title>
<g id="a_edge41_Node000002_Node000016"><a xlink:title=" ">
<path fill="none" stroke="#63b8ff" d="M709.96,-299.14C638.24,-292.3 538.59,-279.81 504,-261 459.48,-236.79 468.45,-206.53 428,-176 403.41,-157.44 370.84,-143.02 348.96,-134.54"/>
<polygon fill="#63b8ff" stroke="#63b8ff" points="710.04,-302.67 720.32,-300.11 710.69,-295.7 710.04,-302.67"/>
</a>
</g>
</g>
<!-- Node17 -->
<g id="Node000017" class="node">
<title>Node17</title>
<g id="a_Node000017"><a xlink:href="../../df/dad/RGBOffsetFilter_8hpp.html" target="_top" xlink:title=" ">
<polygon fill="white" stroke="#666666" points="649,-206 513,-206 513,-176 649,-176 649,-206"/>
<text text-anchor="start" x="521" y="-194" font-family="Helvetica,sans-Serif" font-size="10.00">include/filters/RGBOffset</text>
<text text-anchor="middle" x="581" y="-183" font-family="Helvetica,sans-Serif" font-size="10.00">Filter.hpp</text>
</a>
</g>
</g>
<!-- Node2&#45;&gt;Node17 -->
<g id="edge30_Node000002_Node000017" class="edge">
<title>Node2&#45;&gt;Node17</title>
<g id="a_edge30_Node000002_Node000017"><a xlink:title=" ">
<path fill="none" stroke="#63b8ff" d="M764.14,-291.94C724.5,-270.3 647.33,-228.2 606.99,-206.18"/>
<polygon fill="#63b8ff" stroke="#63b8ff" points="762.91,-295.25 773.37,-296.97 766.26,-289.11 762.91,-295.25"/>
</a>
</g>
</g>
<!-- Node19 -->
<g id="Node000019" class="node">
<title>Node19</title>
<g id="a_Node000019"><a xlink:href="../../d7/def/BMPImageHandler_8hpp.html" target="_top" xlink:title=" ">
<polygon fill="white" stroke="#666666" points="1537,-200.5 1359,-200.5 1359,-181.5 1537,-181.5 1537,-200.5"/>
<text text-anchor="middle" x="1448" y="-188.5" font-family="Helvetica,sans-Serif" font-size="10.00">include/io/BMPImageHandler.hpp</text>
</a>
</g>
</g>
<!-- Node2&#45;&gt;Node19 -->
<g id="edge31_Node000002_Node000019" class="edge">
<title>Node2&#45;&gt;Node19</title>
<g id="a_edge31_Node000002_Node000019"><a xlink:title=" ">
<path fill="none" stroke="#63b8ff" d="M867.92,-303.24C1021.32,-298.34 1348.7,-285.17 1394,-261 1419.5,-247.4 1436.89,-215.98 1444.17,-200.68"/>
<polygon fill="#63b8ff" stroke="#63b8ff" points="867.51,-299.75 857.63,-303.57 867.73,-306.75 867.51,-299.75"/>
</a>
</g>
</g>
<!-- Node21 -->
<g id="Node000021" class="node">
<title>Node21</title>
<g id="a_Node000021"><a xlink:href="../../d9/dd4/IImageHandler_8hpp.html" target="_top" xlink:title=" ">
<polygon fill="white" stroke="#666666" points="1384.5,-261 1225.5,-261 1225.5,-242 1384.5,-242 1384.5,-261"/>
<text text-anchor="middle" x="1305" y="-249" font-family="Helvetica,sans-Serif" font-size="10.00">include/io/IImageHandler.hpp</text>
</a>
</g>
</g>
<!-- Node2&#45;&gt;Node21 -->
<g id="edge35_Node000002_Node000021" class="edge">
<title>Node2&#45;&gt;Node21</title>
<g id="a_edge35_Node000002_Node000021"><a xlink:title=" ">
<path fill="none" stroke="#63b8ff" d="M867.54,-297.43C964.31,-287.49 1127.82,-270.7 1225.17,-260.7"/>
<polygon fill="#63b8ff" stroke="#63b8ff" points="867.11,-293.96 857.52,-298.46 867.83,-300.92 867.11,-293.96"/>
</a>
</g>
</g>
<!-- Node4 -->
<g id="Node000004" class="node">
<title>Node4</title>
<g id="a_Node000004"><a xlink:href="../../d9/d72/FilterFactory_8hpp.html" target="_top" xlink:title=" ">
<polygon fill="white" stroke="#666666" points="1019.5,-134.5 852.5,-134.5 852.5,-115.5 1019.5,-115.5 1019.5,-134.5"/>
<text text-anchor="middle" x="936" y="-122.5" font-family="Helvetica,sans-Serif" font-size="10.00">include/filt_op/FilterFactory.hpp</text>
</a>
</g>
</g>
<!-- Node3&#45;&gt;Node4 -->
<g id="edge3_Node000003_Node000004" class="edge">
<title>Node3&#45;&gt;Node4</title>
<g id="a_edge3_Node000003_Node000004"><a xlink:title=" ">
<path fill="none" stroke="#63b8ff" d="M1121.9,-178.64C1077.37,-166.03 1006.51,-145.97 966.36,-134.6"/>
<polygon fill="#63b8ff" stroke="#63b8ff" points="1120.95,-182.01 1131.52,-181.37 1122.85,-175.28 1120.95,-182.01"/>
</a>
</g>
</g>
<!-- Node3&#45;&gt;Node5 -->
<g id="edge9_Node000003_Node000005" class="edge">
<title>Node3&#45;&gt;Node5</title>
<g id="a_edge9_Node000003_Node000005"><a xlink:title=" ">
<path fill="none" stroke="#63b8ff" d="M1139.93,-175.55C1127.96,-166.64 1113.84,-154.21 1105,-140 1091.84,-118.85 1087.25,-89.11 1085.72,-74.42"/>
<polygon fill="#63b8ff" stroke="#63b8ff" points="1137.99,-178.46 1148.17,-181.39 1142.04,-172.75 1137.99,-178.46"/>
</a>
</g>
</g>
<!-- Node3&#45;&gt;Node6 -->
<g id="edge11_Node000003_Node000006" class="edge">
<title>Node3&#45;&gt;Node6</title>
<g id="a_edge11_Node000003_Node000006"><a xlink:title=" ">
<path fill="none" stroke="#63b8ff" d="M1204.15,-178.15C1226.81,-170.17 1254.1,-157.81 1274,-140 1314.02,-104.19 1338.84,-42.16 1347.01,-19.29"/>
<polygon fill="#63b8ff" stroke="#63b8ff" points="1202.8,-174.91 1194.43,-181.4 1205.03,-181.55 1202.8,-174.91"/>
</a>
</g>
</g>
<!-- Node9 -->
<g id="Node000009" class="node">
<title>Node9</title>
<g id="a_Node000009"><a xlink:href="../../df/d34/FilterPipeline_8cpp.html" target="_top" xlink:title=" ">
<polygon fill="white" stroke="#666666" points="1264.5,-134.5 1113.5,-134.5 1113.5,-115.5 1264.5,-115.5 1264.5,-134.5"/>
<text text-anchor="middle" x="1189" y="-122.5" font-family="Helvetica,sans-Serif" font-size="10.00">src/filt_op/FilterPipeline.cpp</text>
</a>
</g>
</g>
<!-- Node3&#45;&gt;Node9 -->
<g id="edge10_Node000003_Node000009" class="edge">
<title>Node3&#45;&gt;Node9</title>
<g id="a_edge10_Node000003_Node000009"><a xlink:title=" ">
<path fill="none" stroke="#63b8ff" d="M1169.67,-171.82C1174.77,-159.74 1181.23,-144.41 1185.24,-134.91"/>
<polygon fill="#63b8ff" stroke="#63b8ff" points="1166.3,-170.79 1165.64,-181.37 1172.75,-173.52 1166.3,-170.79"/>
</a>
</g>
</g>
<!-- Node4&#45;&gt;Node5 -->
<g id="edge4_Node000004_Node000005" class="edge">
<title>Node4&#45;&gt;Node5</title>
<g id="a_edge4_Node000004_Node000005"><a xlink:title=" ">
<path fill="none" stroke="#63b8ff" d="M967.25,-111.73C996.05,-100.42 1038.03,-83.94 1063.31,-74.02"/>
<polygon fill="#63b8ff" stroke="#63b8ff" points="965.7,-108.58 957.67,-115.49 968.25,-115.1 965.7,-108.58"/>
</a>
</g>
</g>
<!-- Node4&#45;&gt;Node6 -->
<g id="edge8_Node000004_Node000006" class="edge">
<title>Node4&#45;&gt;Node6</title>
<g id="a_edge8_Node000004_Node000006"><a xlink:title=" ">
<path fill="none" stroke="#63b8ff" d="M945.81,-106.4C955.88,-90.13 973.17,-66.76 995,-55 1042.78,-29.27 1190.75,-17.93 1279.86,-13.33"/>
<polygon fill="#63b8ff" stroke="#63b8ff" points="942.54,-105.04 940.49,-115.44 948.57,-108.59 942.54,-105.04"/>
</a>
</g>
</g>
<!-- Node8 -->
<g id="Node000008" class="node">
<title>Node8</title>
<g id="a_Node000008"><a xlink:href="../../da/d58/FilterFactory_8cpp.html" target="_top" xlink:title=" ">
<polygon fill="white" stroke="#666666" points="499,-74 353,-74 353,-55 499,-55 499,-74"/>
<text text-anchor="middle" x="426" y="-62" font-family="Helvetica,sans-Serif" font-size="10.00">src/filt_op/FilterFactory.cpp</text>
</a>
</g>
</g>
<!-- Node4&#45;&gt;Node8 -->
<g id="edge7_Node000004_Node000008" class="edge">
<title>Node4&#45;&gt;Node8</title>
<g id="a_edge7_Node000004_Node000008"><a xlink:title=" ">
<path fill="none" stroke="#63b8ff" d="M872.65,-113.98C863.06,-112.57 853.28,-111.2 844,-110 723.49,-94.42 582.92,-80.29 499.36,-72.3"/>
<polygon fill="#63b8ff" stroke="#63b8ff" points="872.14,-117.44 882.54,-115.45 873.17,-110.52 872.14,-117.44"/>
</a>
</g>
</g>
<!-- Node5&#45;&gt;Node6 -->
<g id="edge5_Node000005_Node000006" class="edge">
<title>Node5&#45;&gt;Node6</title>
<g id="a_edge5_Node000005_Node000006"><a xlink:title=" ">
<path fill="none" stroke="#63b8ff" d="M1137.49,-53C1187.16,-43.07 1260.83,-28.33 1307.09,-19.08"/>
<polygon fill="#63b8ff" stroke="#63b8ff" points="1136.7,-49.59 1127.58,-54.98 1138.07,-56.46 1136.7,-49.59"/>
</a>
</g>
</g>
<!-- Node7 -->
<g id="Node000007" class="node">
<title>Node7</title>
<g id="a_Node000007"><a xlink:href="../../df/d0a/main_8cpp.html" target="_top" xlink:title=" ">
<polygon fill="white" stroke="#666666" points="1124.5,-19 1045.5,-19 1045.5,0 1124.5,0 1124.5,-19"/>
<text text-anchor="middle" x="1085" y="-7" font-family="Helvetica,sans-Serif" font-size="10.00">src/main.cpp</text>
</a>
</g>
</g>
<!-- Node5&#45;&gt;Node7 -->
<g id="edge6_Node000005_Node000007" class="edge">
<title>Node5&#45;&gt;Node7</title>
<g id="a_edge6_Node000005_Node000007"><a xlink:title=" ">
<path fill="none" stroke="#63b8ff" d="M1085,-44.66C1085,-35.93 1085,-25.99 1085,-19.09"/>
<polygon fill="#63b8ff" stroke="#63b8ff" points="1081.5,-44.75 1085,-54.75 1088.5,-44.75 1081.5,-44.75"/>
</a>
</g>
</g>
<!-- Node10&#45;&gt;Node3 -->
<g id="edge13_Node000010_Node000003" class="edge">
<title>Node10&#45;&gt;Node3</title>
<g id="a_edge13_Node000010_Node000003"><a xlink:title=" ">
<path fill="none" stroke="#63b8ff" d="M659.34,-242.61C768.38,-231.63 965.1,-211.83 1077.39,-200.52"/>
<polygon fill="#63b8ff" stroke="#63b8ff" points="658.67,-239.16 649.07,-243.65 659.37,-246.13 658.67,-239.16"/>
</a>
</g>
</g>
<!-- Node10&#45;&gt;Node11 -->
<g id="edge14_Node000010_Node000011" class="edge">
<title>Node10&#45;&gt;Node11</title>
<g id="a_edge14_Node000010_Node000011"><a xlink:title=" ">
<path fill="none" stroke="#63b8ff" d="M502.55,-241.55C433.91,-233.39 331.63,-220.44 243,-206 240.23,-205.55 237.41,-205.07 234.57,-204.58"/>
<polygon fill="#63b8ff" stroke="#63b8ff" points="502.5,-245.07 512.84,-242.77 503.32,-238.12 502.5,-245.07"/>
</a>
</g>
</g>
<!-- Node10&#45;&gt;Node13 -->
<g id="edge17_Node000010_Node000013" class="edge">
<title>Node10&#45;&gt;Node13</title>
<g id="a_edge17_Node000010_Node000013"><a xlink:title=" ">
<path fill="none" stroke="#63b8ff" d="M613.52,-238.46C638.94,-229.05 674.3,-215.95 701.01,-206.06"/>
<polygon fill="#63b8ff" stroke="#63b8ff" points="612.14,-235.24 603.97,-241.99 614.57,-241.8 612.14,-235.24"/>
</a>
</g>
</g>
<!-- Node10&#45;&gt;Node15 -->
<g id="edge20_Node000010_Node000015" class="edge">
<title>Node10&#45;&gt;Node15</title>
<g id="a_edge20_Node000010_Node000015"><a xlink:title=" ">
<path fill="none" stroke="#63b8ff" d="M535.39,-239.61C488.04,-228.3 414.96,-210.85 371.67,-200.52"/>
<polygon fill="#63b8ff" stroke="#63b8ff" points="534.84,-243.08 545.37,-241.99 536.46,-236.27 534.84,-243.08"/>
</a>
</g>
</g>
<!-- Node10&#45;&gt;Node16 -->
<g id="edge26_Node000010_Node000016" class="edge">
<title>Node10&#45;&gt;Node16</title>
<g id="a_edge26_Node000010_Node000016"><a xlink:title=" ">
<path fill="none" stroke="#63b8ff" d="M556.29,-236.93C541.03,-228.37 521.15,-216.91 504,-206 484.34,-193.49 481.66,-186.78 461,-176 426.09,-157.79 383.04,-143.16 354.84,-134.54"/>
<polygon fill="#63b8ff" stroke="#63b8ff" points="554.69,-240.04 565.13,-241.85 558.1,-233.93 554.69,-240.04"/>
</a>
</g>
</g>
<!-- Node10&#45;&gt;Node17 -->
<g id="edge23_Node000010_Node000017" class="edge">
<title>Node10&#45;&gt;Node17</title>
<g id="a_edge23_Node000010_Node000017"><a xlink:title=" ">
<path fill="none" stroke="#63b8ff" d="M581,-231.65C581,-223.36 581,-213.78 581,-206.11"/>
<polygon fill="#63b8ff" stroke="#63b8ff" points="577.5,-231.87 581,-241.87 584.5,-231.87 577.5,-231.87"/>
</a>
</g>
</g>
<!-- Node11&#45;&gt;Node8 -->
<g id="edge15_Node000011_Node000008" class="edge">
<title>Node11&#45;&gt;Node8</title>
<g id="a_edge15_Node000011_Node000008"><a xlink:title=" ">
<path fill="none" stroke="#63b8ff" d="M183.35,-166.85C194.27,-148.63 211.89,-124.04 234,-110 269.38,-87.53 314.87,-76.38 352.68,-70.85"/>
<polygon fill="#63b8ff" stroke="#63b8ff" points="180.2,-165.29 178.26,-175.71 186.27,-168.78 180.2,-165.29"/>
</a>
</g>
</g>
<!-- Node11&#45;&gt;Node12 -->
<g id="edge16_Node000011_Node000012" class="edge">
<title>Node11&#45;&gt;Node12</title>
<g id="a_edge16_Node000011_Node000012"><a xlink:title=" ">
<path fill="none" stroke="#63b8ff" d="M142.29,-170.03C128.37,-160.34 111.97,-148.94 99.36,-140.16"/>
<polygon fill="#63b8ff" stroke="#63b8ff" points="140.37,-172.96 150.58,-175.8 144.37,-167.21 140.37,-172.96"/>
</a>
</g>
</g>
<!-- Node13&#45;&gt;Node8 -->
<g id="edge18_Node000013_Node000008" class="edge">
<title>Node13&#45;&gt;Node8</title>
<g id="a_edge18_Node000013_Node000008"><a xlink:title=" ">
<path fill="none" stroke="#63b8ff" d="M705.96,-170.6C691.3,-161.68 674.01,-150.72 659,-140 641.77,-127.7 641.04,-119.25 622,-110 583.71,-91.4 537.4,-80.42 499.41,-74.02"/>
<polygon fill="#63b8ff" stroke="#63b8ff" points="704.32,-173.71 714.7,-175.87 707.94,-167.71 704.32,-173.71"/>
</a>
</g>
</g>
<!-- Node13&#45;&gt;Node14 -->
<g id="edge19_Node000013_Node000014" class="edge">
<title>Node13&#45;&gt;Node14</title>
<g id="a_edge19_Node000013_Node000014"><a xlink:title=" ">
<path fill="none" stroke="#63b8ff" d="M743.51,-165.94C745.55,-155.06 747.84,-142.86 749.34,-134.84"/>
<polygon fill="#63b8ff" stroke="#63b8ff" points="740.07,-165.32 741.66,-175.8 746.95,-166.61 740.07,-165.32"/>
</a>
</g>
</g>
<!-- Node15&#45;&gt;Node8 -->
<g id="edge21_Node000015_Node000008" class="edge">
<title>Node15&#45;&gt;Node8</title>
<g id="a_edge21_Node000015_Node000008"><a xlink:title=" ">
<path fill="none" stroke="#63b8ff" d="M301.72,-177.69C266.94,-163.29 221.11,-137.86 243,-110 256.79,-92.46 307.9,-80.97 352.62,-74.07"/>
<polygon fill="#63b8ff" stroke="#63b8ff" points="300.59,-181.01 311.18,-181.45 303.18,-174.5 300.59,-181.01"/>
</a>
</g>
</g>
<!-- Node15&#45;&gt;Node16 -->
<g id="edge22_Node000015_Node000016" class="edge">
<title>Node15&#45;&gt;Node16</title>
<g id="a_edge22_Node000015_Node000016"><a xlink:title=" ">
<path fill="none" stroke="#63b8ff" d="M332.81,-171.45C330.75,-159.43 328.15,-144.32 326.53,-134.91"/>
<polygon fill="#63b8ff" stroke="#63b8ff" points="329.37,-172.11 334.52,-181.37 336.27,-170.92 329.37,-172.11"/>
</a>
</g>
</g>
<!-- Node17&#45;&gt;Node8 -->
<g id="edge24_Node000017_Node000008" class="edge">
<title>Node17&#45;&gt;Node8</title>
<g id="a_edge24_Node000017_Node000008"><a xlink:title=" ">
<path fill="none" stroke="#63b8ff" d="M503.18,-175.55C481.77,-168.13 460.27,-156.93 445,-140 428.01,-121.17 425.77,-89.25 425.75,-74.05"/>
<polygon fill="#63b8ff" stroke="#63b8ff" points="502.4,-178.97 512.99,-178.7 504.54,-172.31 502.4,-178.97"/>
</a>
</g>
</g>
<!-- Node18 -->
<g id="Node000018" class="node">
<title>Node18</title>
<g id="a_Node000018"><a xlink:href="../../d9/de2/RGBOffsetFilter_8cpp.html" target="_top" xlink:title=" ">
<polygon fill="white" stroke="#666666" points="612.5,-134.5 453.5,-134.5 453.5,-115.5 612.5,-115.5 612.5,-134.5"/>
<text text-anchor="middle" x="533" y="-122.5" font-family="Helvetica,sans-Serif" font-size="10.00">src/filters/RGBOffsetFilter.cpp</text>
</a>
</g>
</g>
<!-- Node17&#45;&gt;Node18 -->
<g id="edge25_Node000017_Node000018" class="edge">
<title>Node17&#45;&gt;Node18</title>
<g id="a_edge25_Node000017_Node000018"><a xlink:title=" ">
<path fill="none" stroke="#63b8ff" d="M564.21,-167.61C555.74,-156.32 545.96,-143.28 539.63,-134.84"/>
<polygon fill="#63b8ff" stroke="#63b8ff" points="561.55,-169.9 570.35,-175.8 567.15,-165.7 561.55,-169.9"/>
</a>
</g>
</g>
<!-- Node19&#45;&gt;Node6 -->
<g id="edge33_Node000019_Node000006" class="edge">
<title>Node19&#45;&gt;Node6</title>
<g id="a_edge33_Node000019_Node000006"><a xlink:title=" ">
<path fill="none" stroke="#63b8ff" d="M1440.65,-172.04C1429.55,-145.64 1407.23,-95.12 1383,-55 1375.04,-41.83 1364.14,-27.74 1357.08,-19.02"/>
<polygon fill="#63b8ff" stroke="#63b8ff" points="1437.51,-173.6 1444.57,-181.5 1443.97,-170.92 1437.51,-173.6"/>
</a>
</g>
</g>
<!-- Node19&#45;&gt;Node20 -->
<g id="edge32_Node000019_Node000020" class="edge">
<title>Node19&#45;&gt;Node20</title>
<g id="a_edge32_Node000019_Node000020"><a xlink:title=" ">
<path fill="none" stroke="#63b8ff" d="M1487.85,-178.56C1531.8,-165.95 1601.51,-145.94 1641.05,-134.6"/>
<polygon fill="#63b8ff" stroke="#63b8ff" points="1486.72,-175.25 1478.07,-181.37 1488.65,-181.97 1486.72,-175.25"/>
</a>
</g>
</g>
<!-- Node21&#45;&gt;Node5 -->
<g id="edge37_Node000021_Node000005" class="edge">
<title>Node21&#45;&gt;Node5</title>
<g id="a_edge37_Node000021_Node000005"><a xlink:title=" ">
<path fill="none" stroke="#63b8ff" d="M1306.67,-231.43C1308.18,-201.31 1306.36,-142.82 1274,-110 1257.25,-93.02 1201.28,-81.21 1154.56,-74.05"/>
<polygon fill="#63b8ff" stroke="#63b8ff" points="1303.15,-231.57 1305.96,-241.79 1310.13,-232.05 1303.15,-231.57"/>
</a>
</g>
</g>
<!-- Node21&#45;&gt;Node6 -->
<g id="edge38_Node000021_Node000006" class="edge">
<title>Node21&#45;&gt;Node6</title>
<g id="a_edge38_Node000021_Node000006"><a xlink:title=" ">
<path fill="none" stroke="#63b8ff" d="M1310.37,-231.97C1312.58,-224.01 1315.07,-214.59 1317,-206 1333.12,-134.48 1345.26,-46.63 1348.88,-19.14"/>
<polygon fill="#63b8ff" stroke="#63b8ff" points="1306.97,-231.11 1307.61,-241.69 1313.71,-233.02 1306.97,-231.11"/>
</a>
</g>
</g>
<!-- Node21&#45;&gt;Node19 -->
<g id="edge36_Node000021_Node000019" class="edge">
<title>Node21&#45;&gt;Node19</title>
<g id="a_edge36_Node000021_Node000019"><a xlink:title=" ">
<path fill="none" stroke="#63b8ff" d="M1335.36,-238.08C1362.98,-226.78 1403.02,-210.4 1427.18,-200.52"/>
<polygon fill="#63b8ff" stroke="#63b8ff" points="1333.72,-234.97 1325.79,-241.99 1336.37,-241.45 1333.72,-234.97"/>
</a>
</g>
</g>
</g>
</svg>
