<?xml version="1.0" encoding="UTF-8" standalone="no"?>
<!DOCTYPE svg PUBLIC "-//W3C//DTD SVG 1.1//EN"
 "http://www.w3.org/Graphics/SVG/1.1/DTD/svg11.dtd">
<!-- Generated by graphviz version 2.42.4 (0)
 -->
<!-- Title: BMPImageHandler::save Pages: 1 -->
<svg width="282pt" height="249pt"
 viewBox="0.00 0.00 282.00 249.00" xmlns="http://www.w3.org/2000/svg" xmlns:xlink="http://www.w3.org/1999/xlink">

<svg id="main" version="1.1" xmlns="http://www.w3.org/2000/svg" xmlns:xlink="http://www.w3.org/1999/xlink" xml:space="preserve" onload="init(evt)">
<style type="text/css"><![CDATA[
.node, .edge {opacity: 0.7;}
.node.selected, .edge.selected {opacity: 1;}
.edge:hover path { stroke: red; }
.edge:hover polygon { stroke: red; fill: red; }
]]></style>
<script type="application/ecmascript" xlink:href="../../svg.min.js"/>
<svg id="graph" class="graph">
<g id="graph0" class="graph" transform="scale(1 1) rotate(0) translate(4 245)">
<title>BMPImageHandler::save</title>
<!-- Node1 -->
<g id="Node000001" class="node">
<title>Node1</title>
<g id="a_Node000001"><a xlink:title=" ">
<polygon fill="#999999" stroke="#666666" points="137,-130 0,-130 0,-111 137,-111 137,-130"/>
<text text-anchor="middle" x="68.5" y="-118" font-family="Helvetica,sans-Serif" font-size="10.00">BMPImageHandler::save</text>
</a>
</g>
</g>
<!-- Node2 -->
<g id="Node000002" class="node">
<title>Node2</title>
<g id="a_Node000002"><a xlink:href="../../d8/d00/classImage.html#adee9bd20c718f3137e2e920c94a715c9" target="_top" xlink:title=" ">
<polygon fill="white" stroke="#666666" points="255,-241 192,-241 192,-222 255,-222 255,-241"/>
<text text-anchor="middle" x="223.5" y="-229" font-family="Helvetica,sans-Serif" font-size="10.00">Image::at</text>
</a>
</g>
</g>
<!-- Node1&#45;&gt;Node2 -->
<g id="edge1_Node000001_Node000002" class="edge">
<title>Node1&#45;&gt;Node2</title>
<g id="a_edge1_Node000001_Node000002"><a xlink:title=" ">
<path fill="none" stroke="#63b8ff" d="M77.96,-130.27C94.5,-148.84 133.02,-189.51 173,-213.5 175.99,-215.3 179.19,-216.95 182.47,-218.48"/>
<polygon fill="#63b8ff" stroke="#63b8ff" points="181.24,-221.76 191.82,-222.42 183.96,-215.31 181.24,-221.76"/>
</a>
</g>
</g>
<!-- Node3 -->
<g id="Node000003" class="node">
<title>Node3</title>
<g id="a_Node000003"><a xlink:href="../../d0/dd6/classPixel.html#a93b756df51ac45cc1805bf2a033609a6" target="_top" xlink:title=" ">
<polygon fill="white" stroke="#666666" points="257.5,-204 189.5,-204 189.5,-185 257.5,-185 257.5,-204"/>
<text text-anchor="middle" x="223.5" y="-192" font-family="Helvetica,sans-Serif" font-size="10.00">Pixel::getA</text>
</a>
</g>
</g>
<!-- Node1&#45;&gt;Node3 -->
<g id="edge2_Node000001_Node000003" class="edge">
<title>Node1&#45;&gt;Node3</title>
<g id="a_edge2_Node000001_Node000003"><a xlink:title=" ">
<path fill="none" stroke="#63b8ff" d="M85.61,-130.19C105.66,-142 141.13,-162.18 173,-176.5 176.65,-178.14 180.5,-179.75 184.37,-181.28"/>
<polygon fill="#63b8ff" stroke="#63b8ff" points="183.35,-184.64 193.94,-184.93 185.84,-178.1 183.35,-184.64"/>
</a>
</g>
</g>
<!-- Node4 -->
<g id="Node000004" class="node">
<title>Node4</title>
<g id="a_Node000004"><a xlink:href="../../d0/dd6/classPixel.html#a9db5f2f9ae2ccf8d0dbddd61a4523c4a" target="_top" xlink:title=" ">
<polygon fill="white" stroke="#666666" points="257.5,-167 189.5,-167 189.5,-148 257.5,-148 257.5,-167"/>
<text text-anchor="middle" x="223.5" y="-155" font-family="Helvetica,sans-Serif" font-size="10.00">Pixel::getB</text>
</a>
</g>
</g>
<!-- Node1&#45;&gt;Node4 -->
<g id="edge3_Node000001_Node000004" class="edge">
<title>Node1&#45;&gt;Node4</title>
<g id="a_edge3_Node000001_Node000004"><a xlink:title=" ">
<path fill="none" stroke="#63b8ff" d="M108.9,-130.03C130.55,-135.26 157.44,-141.77 179.62,-147.13"/>
<polygon fill="#63b8ff" stroke="#63b8ff" points="178.9,-150.56 189.44,-149.51 180.54,-143.75 178.9,-150.56"/>
</a>
</g>
</g>
<!-- Node5 -->
<g id="Node000005" class="node">
<title>Node5</title>
<g id="a_Node000005"><a xlink:href="../../d0/dd6/classPixel.html#ab9656fdb1116bf1a1a74c434e234e401" target="_top" xlink:title=" ">
<polygon fill="white" stroke="#666666" points="258,-130 189,-130 189,-111 258,-111 258,-130"/>
<text text-anchor="middle" x="223.5" y="-118" font-family="Helvetica,sans-Serif" font-size="10.00">Pixel::getG</text>
</a>
</g>
</g>
<!-- Node1&#45;&gt;Node5 -->
<g id="edge4_Node000001_Node000005" class="edge">
<title>Node1&#45;&gt;Node5</title>
<g id="a_edge4_Node000001_Node000005"><a xlink:title=" ">
<path fill="none" stroke="#63b8ff" d="M137.05,-120.5C151.2,-120.5 165.77,-120.5 178.77,-120.5"/>
<polygon fill="#63b8ff" stroke="#63b8ff" points="178.83,-124 188.83,-120.5 178.83,-117 178.83,-124"/>
</a>
</g>
</g>
<!-- Node6 -->
<g id="Node000006" class="node">
<title>Node6</title>
<g id="a_Node000006"><a xlink:href="../../d8/d00/classImage.html#a1cd7587f88b6932b5269051d1ba08ff9" target="_top" xlink:title=" ">
<polygon fill="white" stroke="#666666" points="274,-93 173,-93 173,-74 274,-74 274,-93"/>
<text text-anchor="middle" x="223.5" y="-81" font-family="Helvetica,sans-Serif" font-size="10.00">Image::getHeight</text>
</a>
</g>
</g>
<!-- Node1&#45;&gt;Node6 -->
<g id="edge5_Node000001_Node000006" class="edge">
<title>Node1&#45;&gt;Node6</title>
<g id="a_edge5_Node000001_Node000006"><a xlink:title=" ">
<path fill="none" stroke="#63b8ff" d="M108.9,-110.97C128.46,-106.24 152.28,-100.48 173.05,-95.46"/>
<polygon fill="#63b8ff" stroke="#63b8ff" points="174.07,-98.81 182.97,-93.06 172.42,-92.01 174.07,-98.81"/>
</a>
</g>
</g>
<!-- Node7 -->
<g id="Node000007" class="node">
<title>Node7</title>
<g id="a_Node000007"><a xlink:href="../../d0/dd6/classPixel.html#aec5af8c6eaaea01f91834c94b74f57c5" target="_top" xlink:title=" ">
<polygon fill="white" stroke="#666666" points="257.5,-56 189.5,-56 189.5,-37 257.5,-37 257.5,-56"/>
<text text-anchor="middle" x="223.5" y="-44" font-family="Helvetica,sans-Serif" font-size="10.00">Pixel::getR</text>
</a>
</g>
</g>
<!-- Node1&#45;&gt;Node7 -->
<g id="edge6_Node000001_Node000007" class="edge">
<title>Node1&#45;&gt;Node7</title>
<g id="a_edge6_Node000001_Node000007"><a xlink:title=" ">
<path fill="none" stroke="#63b8ff" d="M86.04,-110.9C106.21,-99.39 141.52,-79.84 173,-65.5 177.21,-63.58 181.68,-61.68 186.14,-59.87"/>
<polygon fill="#63b8ff" stroke="#63b8ff" points="187.77,-62.99 195.79,-56.07 185.21,-56.48 187.77,-62.99"/>
</a>
</g>
</g>
<!-- Node8 -->
<g id="Node000008" class="node">
<title>Node8</title>
<g id="a_Node000008"><a xlink:href="../../d8/d00/classImage.html#a36bcae4838228d574738249a87dc4464" target="_top" xlink:title=" ">
<polygon fill="white" stroke="#666666" points="272.5,-19 174.5,-19 174.5,0 272.5,0 272.5,-19"/>
<text text-anchor="middle" x="223.5" y="-7" font-family="Helvetica,sans-Serif" font-size="10.00">Image::getWidth</text>
</a>
</g>
</g>
<!-- Node1&#45;&gt;Node8 -->
<g id="edge7_Node000001_Node000008" class="edge">
<title>Node1&#45;&gt;Node8</title>
<g id="a_edge7_Node000001_Node000008"><a xlink:title=" ">
<path fill="none" stroke="#63b8ff" d="M78.02,-110.91C94.66,-92.66 133.36,-52.62 173,-28.5 176.18,-26.57 179.58,-24.77 183.06,-23.12"/>
<polygon fill="#63b8ff" stroke="#63b8ff" points="184.59,-26.27 192.36,-19.08 181.8,-19.85 184.59,-26.27"/>
</a>
</g>
</g>
</g>
</svg>
</svg>

<style type='text/css'>
<![CDATA[
[data-mouse-over-selected='false'] { opacity: 0.7; }
[data-mouse-over-selected='true']  { opacity: 1.0; }
]]>
</style>
<script type="application/ecmascript"><![CDATA[
document.addEventListener('DOMContentLoaded', (event) => {
  highlightEdges();
  highlightAdjacentNodes();
});
]]></script>
</svg>
