<?xml version="1.0" encoding="UTF-8" standalone="no"?>
<!DOCTYPE svg PUBLIC "-//W3C//DTD SVG 1.1//EN"
 "http://www.w3.org/Graphics/SVG/1.1/DTD/svg11.dtd">
<!-- Generated by graphviz version 2.42.4 (0)
 -->
<!-- Title: FilterFactory::buildFilter Pages: 1 -->
<svg width="673pt" height="137pt"
 viewBox="0.00 0.00 673.00 137.00" xmlns="http://www.w3.org/2000/svg" xmlns:xlink="http://www.w3.org/1999/xlink">
<g id="graph0" class="graph" transform="scale(1 1) rotate(0) translate(4 133)">
<title>FilterFactory::buildFilter</title>
<!-- Node1 -->
<g id="Node000001" class="node">
<title>Node1</title>
<g id="a_Node000001"><a xlink:title=" ">
<polygon fill="#999999" stroke="#666666" points="131,-86 0,-86 0,-67 131,-67 131,-86"/>
<text text-anchor="middle" x="65.5" y="-74" font-family="Helvetica,sans-Serif" font-size="10.00">FilterFactory::buildFilter</text>
</a>
</g>
</g>
<!-- Node2 -->
<g id="Node000002" class="node">
<title>Node2</title>
<g id="a_Node000002"><a xlink:href="../../db/d6b/classFilterPipeline.html#aec2ec7907fb893d14675dc85f39786ac" target="_top" xlink:title=" ">
<polygon fill="white" stroke="#666666" points="287.5,-129 183.5,-129 183.5,-110 287.5,-110 287.5,-129"/>
<text text-anchor="middle" x="235.5" y="-117" font-family="Helvetica,sans-Serif" font-size="10.00">FilterPipeline::add</text>
</a>
</g>
</g>
<!-- Node1&#45;&gt;Node2 -->
<g id="edge1_Node000001_Node000002" class="edge">
<title>Node1&#45;&gt;Node2</title>
<g id="a_edge1_Node000001_Node000002"><a xlink:title=" ">
<path fill="none" stroke="#63b8ff" d="M103.78,-86.04C128.47,-92.36 161.05,-100.7 187.51,-107.47"/>
<polygon fill="#63b8ff" stroke="#63b8ff" points="186.76,-110.89 197.32,-109.98 188.5,-104.11 186.76,-110.89"/>
</a>
</g>
</g>
<!-- Node3 -->
<g id="Node000003" class="node">
<title>Node3</title>
<g id="a_Node000003"><a xlink:href="../../da/d1c/namespacekernelGenerators.html#a8281690ec76cb85a596aefe3bd2c38df" target="_top" xlink:title=" ">
<polygon fill="white" stroke="#666666" points="304,-91.5 167,-91.5 167,-61.5 304,-61.5 304,-91.5"/>
<text text-anchor="start" x="175" y="-79.5" font-family="Helvetica,sans-Serif" font-size="10.00">kernelGenerators::create</text>
<text text-anchor="middle" x="235.5" y="-68.5" font-family="Helvetica,sans-Serif" font-size="10.00">BoxBlurKernel</text>
</a>
</g>
</g>
<!-- Node1&#45;&gt;Node3 -->
<g id="edge2_Node000001_Node000003" class="edge">
<title>Node1&#45;&gt;Node3</title>
<g id="a_edge2_Node000001_Node000003"><a xlink:title=" ">
<path fill="none" stroke="#63b8ff" d="M131.45,-76.5C139.72,-76.5 148.26,-76.5 156.7,-76.5"/>
<polygon fill="#63b8ff" stroke="#63b8ff" points="156.94,-80 166.94,-76.5 156.94,-73 156.94,-80"/>
</a>
</g>
</g>
<!-- Node4 -->
<g id="Node000004" class="node">
<title>Node4</title>
<g id="a_Node000004"><a xlink:href="../../da/d1c/namespacekernelGenerators.html#a1c0479ec9adbffcd5acf4d5aea266bbb" target="_top" xlink:title=" ">
<polygon fill="white" stroke="#666666" points="304,-43.5 167,-43.5 167,-13.5 304,-13.5 304,-43.5"/>
<text text-anchor="start" x="175" y="-31.5" font-family="Helvetica,sans-Serif" font-size="10.00">kernelGenerators::create</text>
<text text-anchor="middle" x="235.5" y="-20.5" font-family="Helvetica,sans-Serif" font-size="10.00">GaussianBlurKernel</text>
</a>
</g>
</g>
<!-- Node1&#45;&gt;Node4 -->
<g id="edge3_Node000001_Node000004" class="edge">
<title>Node1&#45;&gt;Node4</title>
<g id="a_edge3_Node000001_Node000004"><a xlink:title=" ">
<path fill="none" stroke="#63b8ff" d="M100.09,-66.9C120.63,-61.03 147.54,-53.35 171.89,-46.39"/>
<polygon fill="#63b8ff" stroke="#63b8ff" points="173.13,-49.68 181.78,-43.56 171.2,-42.94 173.13,-49.68"/>
</a>
</g>
</g>
<!-- Node5 -->
<g id="Node000005" class="node">
<title>Node5</title>
<g id="a_Node000005"><a xlink:href="../../d1/db8/classKernel.html#ad257d19cbde87a4d622d7ea5ef9d6536" target="_top" xlink:title=" ">
<polygon fill="white" stroke="#666666" points="442,-38 340,-38 340,-19 442,-19 442,-38"/>
<text text-anchor="middle" x="391" y="-26" font-family="Helvetica,sans-Serif" font-size="10.00">Kernel::normalize</text>
</a>
</g>
</g>
<!-- Node4&#45;&gt;Node5 -->
<g id="edge4_Node000004_Node000005" class="edge">
<title>Node4&#45;&gt;Node5</title>
<g id="a_edge4_Node000004_Node000005"><a xlink:title=" ">
<path fill="none" stroke="#63b8ff" d="M304.27,-28.5C312.63,-28.5 321.13,-28.5 329.38,-28.5"/>
<polygon fill="#63b8ff" stroke="#63b8ff" points="329.65,-32 339.65,-28.5 329.65,-25 329.65,-32"/>
</a>
</g>
</g>
<!-- Node6 -->
<g id="Node000006" class="node">
<title>Node6</title>
<g id="a_Node000006"><a xlink:href="../../d1/db8/classKernel.html#a5f94f2c43479665eded0abfbb163b233" target="_top" xlink:title=" ">
<polygon fill="white" stroke="#666666" points="663,-56 590,-56 590,-37 663,-37 663,-56"/>
<text text-anchor="middle" x="626.5" y="-44" font-family="Helvetica,sans-Serif" font-size="10.00">Kernel::cols</text>
</a>
</g>
</g>
<!-- Node5&#45;&gt;Node6 -->
<g id="edge5_Node000005_Node000006" class="edge">
<title>Node5&#45;&gt;Node6</title>
<g id="a_edge5_Node000005_Node000006"><a xlink:title=" ">
<path fill="none" stroke="#63b8ff" d="M408.78,-38.16C425.64,-47.28 452.69,-60.29 478,-65.5 514.19,-72.96 556.02,-66.14 585.87,-58.67"/>
<polygon fill="#63b8ff" stroke="#63b8ff" points="587.12,-61.96 595.9,-56.03 585.34,-55.19 587.12,-61.96"/>
</a>
</g>
</g>
<!-- Node7 -->
<g id="Node000007" class="node">
<title>Node7</title>
<g id="a_Node000007"><a xlink:href="../../d1/db8/classKernel.html#a5ed7513959e5398a48e0149fbf786209" target="_top" xlink:title=" ">
<polygon fill="white" stroke="#666666" points="665,-19 588,-19 588,0 665,0 665,-19"/>
<text text-anchor="middle" x="626.5" y="-7" font-family="Helvetica,sans-Serif" font-size="10.00">Kernel::rows</text>
</a>
</g>
</g>
<!-- Node5&#45;&gt;Node7 -->
<g id="edge6_Node000005_Node000007" class="edge">
<title>Node5&#45;&gt;Node7</title>
<g id="a_edge6_Node000005_Node000007"><a xlink:title=" ">
<path fill="none" stroke="#63b8ff" d="M426.86,-18.99C442.39,-15.23 460.98,-11.36 478,-9.5 511.1,-5.89 548.63,-5.94 577.55,-6.88"/>
<polygon fill="#63b8ff" stroke="#63b8ff" points="577.67,-10.38 587.79,-7.25 577.93,-3.39 577.67,-10.38"/>
</a>
</g>
</g>
<!-- Node8 -->
<g id="Node000008" class="node">
<title>Node8</title>
<g id="a_Node000008"><a xlink:href="../../d1/db8/classKernel.html#a41b59171bf5fbd2b4c493ead4fee53d6" target="_top" xlink:title=" ">
<polygon fill="white" stroke="#666666" points="552,-38 478,-38 478,-19 552,-19 552,-38"/>
<text text-anchor="middle" x="515" y="-26" font-family="Helvetica,sans-Serif" font-size="10.00">Kernel::sum</text>
</a>
</g>
</g>
<!-- Node5&#45;&gt;Node8 -->
<g id="edge7_Node000005_Node000008" class="edge">
<title>Node5&#45;&gt;Node8</title>
<g id="a_edge7_Node000005_Node000008"><a xlink:title=" ">
<path fill="none" stroke="#63b8ff" d="M442.33,-28.5C450.73,-28.5 459.4,-28.5 467.7,-28.5"/>
<polygon fill="#63b8ff" stroke="#63b8ff" points="467.95,-32 477.95,-28.5 467.95,-25 467.95,-32"/>
</a>
</g>
</g>
<!-- Node8&#45;&gt;Node6 -->
<g id="edge8_Node000008_Node000006" class="edge">
<title>Node8&#45;&gt;Node6</title>
<g id="a_edge8_Node000008_Node000006"><a xlink:title=" ">
<path fill="none" stroke="#63b8ff" d="M552.16,-34.44C560.94,-35.89 570.44,-37.45 579.61,-38.96"/>
<polygon fill="#63b8ff" stroke="#63b8ff" points="579.32,-42.46 589.75,-40.62 580.45,-35.55 579.32,-42.46"/>
</a>
</g>
</g>
<!-- Node8&#45;&gt;Node7 -->
<g id="edge9_Node000008_Node000007" class="edge">
<title>Node8&#45;&gt;Node7</title>
<g id="a_edge9_Node000008_Node000007"><a xlink:title=" ">
<path fill="none" stroke="#63b8ff" d="M552.16,-22.23C560.4,-20.8 569.27,-19.26 577.91,-17.76"/>
<polygon fill="#63b8ff" stroke="#63b8ff" points="578.62,-21.19 587.88,-16.03 577.43,-14.29 578.62,-21.19"/>
</a>
</g>
</g>
<!-- Node8&#45;&gt;Node8 -->
<g id="edge10_Node000008_Node000008" class="edge">
<title>Node8&#45;&gt;Node8</title>
<g id="a_edge10_Node000008_Node000008"><a xlink:title=" ">
<path fill="none" stroke="#63b8ff" d="M498.05,-38.08C489.8,-46.73 495.45,-56 515,-56 527.22,-56 534.01,-52.38 535.37,-47.55"/>
<polygon fill="#63b8ff" stroke="#63b8ff" points="538.64,-46.3 531.95,-38.08 532.05,-48.68 538.64,-46.3"/>
</a>
</g>
</g>
</g>
</svg>
