<?xml version="1.0" encoding="UTF-8" standalone="no"?>
<!DOCTYPE svg PUBLIC "-//W3C//DTD SVG 1.1//EN"
 "http://www.w3.org/Graphics/SVG/1.1/DTD/svg11.dtd">
<!-- Generated by graphviz version 2.42.4 (0)
 -->
<!-- Title: RGBOffsetFilter::apply Pages: 1 -->
<svg width="270pt" height="323pt"
 viewBox="0.00 0.00 270.00 323.00" xmlns="http://www.w3.org/2000/svg" xmlns:xlink="http://www.w3.org/1999/xlink">

<svg id="main" version="1.1" xmlns="http://www.w3.org/2000/svg" xmlns:xlink="http://www.w3.org/1999/xlink" xml:space="preserve" onload="init(evt)">
<style type="text/css"><![CDATA[
.node, .edge {opacity: 0.7;}
.node.selected, .edge.selected {opacity: 1;}
.edge:hover path { stroke: red; }
.edge:hover polygon { stroke: red; fill: red; }
]]></style>
<script type="application/ecmascript" xlink:href="../../svg.min.js"/>
<svg id="graph" class="graph">
<g id="graph0" class="graph" transform="scale(1 1) rotate(0) translate(4 319)">
<title>RGBOffsetFilter::apply</title>
<!-- Node1 -->
<g id="Node000001" class="node">
<title>Node1</title>
<g id="a_Node000001"><a xlink:title=" ">
<polygon fill="#999999" stroke="#666666" points="125,-167 0,-167 0,-148 125,-148 125,-167"/>
<text text-anchor="middle" x="62.5" y="-155" font-family="Helvetica,sans-Serif" font-size="10.00">RGBOffsetFilter::apply</text>
</a>
</g>
</g>
<!-- Node2 -->
<g id="Node000002" class="node">
<title>Node2</title>
<g id="a_Node000002"><a xlink:href="../../d8/d00/classImage.html#adee9bd20c718f3137e2e920c94a715c9" target="_top" xlink:title=" ">
<polygon fill="white" stroke="#666666" points="243,-315 180,-315 180,-296 243,-296 243,-315"/>
<text text-anchor="middle" x="211.5" y="-303" font-family="Helvetica,sans-Serif" font-size="10.00">Image::at</text>
</a>
</g>
</g>
<!-- Node1&#45;&gt;Node2 -->
<g id="edge1_Node000001_Node000002" class="edge">
<title>Node1&#45;&gt;Node2</title>
<g id="a_edge1_Node000001_Node000002"><a xlink:title=" ">
<path fill="none" stroke="#63b8ff" d="M68.21,-167.17C80.31,-191.02 114.77,-253.22 161,-287.5 163.97,-289.7 167.23,-291.65 170.62,-293.38"/>
<polygon fill="#63b8ff" stroke="#63b8ff" points="169.22,-296.59 179.78,-297.46 172.06,-290.19 169.22,-296.59"/>
</a>
</g>
</g>
<!-- Node3 -->
<g id="Node000003" class="node">
<title>Node3</title>
<g id="a_Node000003"><a xlink:href="../../d0/dd6/classPixel.html#a9db5f2f9ae2ccf8d0dbddd61a4523c4a" target="_top" xlink:title=" ">
<polygon fill="white" stroke="#666666" points="245.5,-278 177.5,-278 177.5,-259 245.5,-259 245.5,-278"/>
<text text-anchor="middle" x="211.5" y="-266" font-family="Helvetica,sans-Serif" font-size="10.00">Pixel::getB</text>
</a>
</g>
</g>
<!-- Node1&#45;&gt;Node3 -->
<g id="edge2_Node000001_Node000003" class="edge">
<title>Node1&#45;&gt;Node3</title>
<g id="a_edge2_Node000001_Node000003"><a xlink:title=" ">
<path fill="none" stroke="#63b8ff" d="M71.1,-167.01C86.33,-185.5 122.44,-226.58 161,-250.5 163.48,-252.04 166.1,-253.47 168.81,-254.8"/>
<polygon fill="#63b8ff" stroke="#63b8ff" points="167.61,-258.1 178.17,-258.94 170.44,-251.7 167.61,-258.1"/>
</a>
</g>
</g>
<!-- Node4 -->
<g id="Node000004" class="node">
<title>Node4</title>
<g id="a_Node000004"><a xlink:href="../../d0/dd6/classPixel.html#ab9656fdb1116bf1a1a74c434e234e401" target="_top" xlink:title=" ">
<polygon fill="white" stroke="#666666" points="246,-241 177,-241 177,-222 246,-222 246,-241"/>
<text text-anchor="middle" x="211.5" y="-229" font-family="Helvetica,sans-Serif" font-size="10.00">Pixel::getG</text>
</a>
</g>
</g>
<!-- Node1&#45;&gt;Node4 -->
<g id="edge3_Node000001_Node000004" class="edge">
<title>Node1&#45;&gt;Node4</title>
<g id="a_edge3_Node000001_Node000004"><a xlink:title=" ">
<path fill="none" stroke="#63b8ff" d="M78.27,-167.06C97.01,-178.93 130.55,-199.35 161,-213.5 164.58,-215.17 168.37,-216.78 172.18,-218.32"/>
<polygon fill="#63b8ff" stroke="#63b8ff" points="171.04,-221.63 181.63,-221.95 173.55,-215.09 171.04,-221.63"/>
</a>
</g>
</g>
<!-- Node5 -->
<g id="Node000005" class="node">
<title>Node5</title>
<g id="a_Node000005"><a xlink:href="../../d8/d00/classImage.html#a1cd7587f88b6932b5269051d1ba08ff9" target="_top" xlink:title=" ">
<polygon fill="white" stroke="#666666" points="262,-204 161,-204 161,-185 262,-185 262,-204"/>
<text text-anchor="middle" x="211.5" y="-192" font-family="Helvetica,sans-Serif" font-size="10.00">Image::getHeight</text>
</a>
</g>
</g>
<!-- Node1&#45;&gt;Node5 -->
<g id="edge4_Node000001_Node000005" class="edge">
<title>Node1&#45;&gt;Node5</title>
<g id="a_edge4_Node000001_Node000005"><a xlink:title=" ">
<path fill="none" stroke="#63b8ff" d="M101.36,-167.03C120.06,-171.74 142.82,-177.47 162.72,-182.47"/>
<polygon fill="#63b8ff" stroke="#63b8ff" points="161.97,-185.89 172.52,-184.94 163.67,-179.1 161.97,-185.89"/>
</a>
</g>
</g>
<!-- Node6 -->
<g id="Node000006" class="node">
<title>Node6</title>
<g id="a_Node000006"><a xlink:href="../../d0/dd6/classPixel.html#aec5af8c6eaaea01f91834c94b74f57c5" target="_top" xlink:title=" ">
<polygon fill="white" stroke="#666666" points="245.5,-167 177.5,-167 177.5,-148 245.5,-148 245.5,-167"/>
<text text-anchor="middle" x="211.5" y="-155" font-family="Helvetica,sans-Serif" font-size="10.00">Pixel::getR</text>
</a>
</g>
</g>
<!-- Node1&#45;&gt;Node6 -->
<g id="edge5_Node000001_Node000006" class="edge">
<title>Node1&#45;&gt;Node6</title>
<g id="a_edge5_Node000001_Node000006"><a xlink:title=" ">
<path fill="none" stroke="#63b8ff" d="M125.42,-157.5C139.41,-157.5 153.97,-157.5 167.02,-157.5"/>
<polygon fill="#63b8ff" stroke="#63b8ff" points="167.11,-161 177.11,-157.5 167.11,-154 167.11,-161"/>
</a>
</g>
</g>
<!-- Node7 -->
<g id="Node000007" class="node">
<title>Node7</title>
<g id="a_Node000007"><a xlink:href="../../d8/d00/classImage.html#a36bcae4838228d574738249a87dc4464" target="_top" xlink:title=" ">
<polygon fill="white" stroke="#666666" points="260.5,-130 162.5,-130 162.5,-111 260.5,-111 260.5,-130"/>
<text text-anchor="middle" x="211.5" y="-118" font-family="Helvetica,sans-Serif" font-size="10.00">Image::getWidth</text>
</a>
</g>
</g>
<!-- Node1&#45;&gt;Node7 -->
<g id="edge6_Node000001_Node000007" class="edge">
<title>Node1&#45;&gt;Node7</title>
<g id="a_edge6_Node000001_Node000007"><a xlink:title=" ">
<path fill="none" stroke="#63b8ff" d="M101.36,-147.97C120.06,-143.26 142.82,-137.53 162.72,-132.53"/>
<polygon fill="#63b8ff" stroke="#63b8ff" points="163.67,-135.9 172.52,-130.06 161.97,-129.11 163.67,-135.9"/>
</a>
</g>
</g>
<!-- Node8 -->
<g id="Node000008" class="node">
<title>Node8</title>
<g id="a_Node000008"><a xlink:href="../../d0/dd6/classPixel.html#a276087f14e186ad85b2509e17afafd57" target="_top" xlink:title=" ">
<polygon fill="white" stroke="#666666" points="245.5,-93 177.5,-93 177.5,-74 245.5,-74 245.5,-93"/>
<text text-anchor="middle" x="211.5" y="-81" font-family="Helvetica,sans-Serif" font-size="10.00">Pixel::setB</text>
</a>
</g>
</g>
<!-- Node1&#45;&gt;Node8 -->
<g id="edge7_Node000001_Node000008" class="edge">
<title>Node1&#45;&gt;Node8</title>
<g id="a_edge7_Node000001_Node000008"><a xlink:title=" ">
<path fill="none" stroke="#63b8ff" d="M79,-147.81C97.92,-136.21 131.11,-116.57 161,-102.5 165.14,-100.55 169.54,-98.64 173.94,-96.83"/>
<polygon fill="#63b8ff" stroke="#63b8ff" points="175.48,-99.99 183.48,-93.05 172.89,-93.48 175.48,-99.99"/>
</a>
</g>
</g>
<!-- Node9 -->
<g id="Node000009" class="node">
<title>Node9</title>
<g id="a_Node000009"><a xlink:href="../../d0/dd6/classPixel.html#a71f1091568ec495b74f9aae5706de7c2" target="_top" xlink:title=" ">
<polygon fill="white" stroke="#666666" points="245.5,-56 177.5,-56 177.5,-37 245.5,-37 245.5,-56"/>
<text text-anchor="middle" x="211.5" y="-44" font-family="Helvetica,sans-Serif" font-size="10.00">Pixel::setG</text>
</a>
</g>
</g>
<!-- Node1&#45;&gt;Node9 -->
<g id="edge8_Node000001_Node000009" class="edge">
<title>Node1&#45;&gt;Node9</title>
<g id="a_edge8_Node000001_Node000009"><a xlink:title=" ">
<path fill="none" stroke="#63b8ff" d="M71.4,-147.87C86.87,-129.56 122.98,-89.41 161,-65.5 164.1,-63.55 167.44,-61.74 170.86,-60.09"/>
<polygon fill="#63b8ff" stroke="#63b8ff" points="172.28,-63.29 180.02,-56.05 169.46,-56.88 172.28,-63.29"/>
</a>
</g>
</g>
<!-- Node10 -->
<g id="Node000010" class="node">
<title>Node10</title>
<g id="a_Node000010"><a xlink:href="../../d0/dd6/classPixel.html#abcc88ad478c604dc2f14288745c234d4" target="_top" xlink:title=" ">
<polygon fill="white" stroke="#666666" points="245.5,-19 177.5,-19 177.5,0 245.5,0 245.5,-19"/>
<text text-anchor="middle" x="211.5" y="-7" font-family="Helvetica,sans-Serif" font-size="10.00">Pixel::setR</text>
</a>
</g>
</g>
<!-- Node1&#45;&gt;Node10 -->
<g id="edge9_Node000001_Node000010" class="edge">
<title>Node1&#45;&gt;Node10</title>
<g id="a_edge9_Node000001_Node000010"><a xlink:title=" ">
<path fill="none" stroke="#63b8ff" d="M68.27,-147.96C80.5,-124.4 115.24,-62.93 161,-28.5 163.34,-26.74 165.87,-25.12 168.5,-23.63"/>
<polygon fill="#63b8ff" stroke="#63b8ff" points="170.29,-26.66 177.71,-19.1 167.2,-20.38 170.29,-26.66"/>
</a>
</g>
</g>
</g>
</svg>
</svg>

<style type='text/css'>
<![CDATA[
[data-mouse-over-selected='false'] { opacity: 0.7; }
[data-mouse-over-selected='true']  { opacity: 1.0; }
]]>
</style>
<script type="application/ecmascript"><![CDATA[
document.addEventListener('DOMContentLoaded', (event) => {
  highlightEdges();
  highlightAdjacentNodes();
});
]]></script>
</svg>
