<?xml version="1.0" encoding="UTF-8" standalone="no"?>
<!DOCTYPE svg PUBLIC "-//W3C//DTD SVG 1.1//EN"
 "http://www.w3.org/Graphics/SVG/1.1/DTD/svg11.dtd">
<!-- Generated by graphviz version 2.42.4 (0)
 -->
<!-- Title: Kernel::normalize Pages: 1 -->
<svg width="333pt" height="77pt"
 viewBox="0.00 0.00 333.00 76.92" xmlns="http://www.w3.org/2000/svg" xmlns:xlink="http://www.w3.org/1999/xlink">
<g id="graph0" class="graph" transform="scale(1 1) rotate(0) translate(4 72.92)">
<title>Kernel::normalize</title>
<!-- Node1 -->
<g id="Node000001" class="node">
<title>Node1</title>
<g id="a_Node000001"><a xlink:title=" ">
<polygon fill="#999999" stroke="#666666" points="102,-38 0,-38 0,-19 102,-19 102,-38"/>
<text text-anchor="middle" x="51" y="-26" font-family="Helvetica,sans-Serif" font-size="10.00">Kernel::normalize</text>
</a>
</g>
</g>
<!-- Node2 -->
<g id="Node000002" class="node">
<title>Node2</title>
<g id="a_Node000002"><a xlink:href="../../d1/db8/classKernel.html#a5f94f2c43479665eded0abfbb163b233" target="_top" xlink:title=" ">
<polygon fill="white" stroke="#666666" points="323,-56 250,-56 250,-37 323,-37 323,-56"/>
<text text-anchor="middle" x="286.5" y="-44" font-family="Helvetica,sans-Serif" font-size="10.00">Kernel::cols</text>
</a>
</g>
</g>
<!-- Node1&#45;&gt;Node2 -->
<g id="edge1_Node000001_Node000002" class="edge">
<title>Node1&#45;&gt;Node2</title>
<g id="a_edge1_Node000001_Node000002"><a xlink:title=" ">
<path fill="none" stroke="#63b8ff" d="M68.78,-38.16C85.64,-47.28 112.69,-60.29 138,-65.5 174.19,-72.96 216.02,-66.14 245.87,-58.67"/>
<polygon fill="#63b8ff" stroke="#63b8ff" points="247.12,-61.96 255.9,-56.03 245.34,-55.19 247.12,-61.96"/>
</a>
</g>
</g>
<!-- Node3 -->
<g id="Node000003" class="node">
<title>Node3</title>
<g id="a_Node000003"><a xlink:href="../../d1/db8/classKernel.html#a5ed7513959e5398a48e0149fbf786209" target="_top" xlink:title=" ">
<polygon fill="white" stroke="#666666" points="325,-19 248,-19 248,0 325,0 325,-19"/>
<text text-anchor="middle" x="286.5" y="-7" font-family="Helvetica,sans-Serif" font-size="10.00">Kernel::rows</text>
</a>
</g>
</g>
<!-- Node1&#45;&gt;Node3 -->
<g id="edge2_Node000001_Node000003" class="edge">
<title>Node1&#45;&gt;Node3</title>
<g id="a_edge2_Node000001_Node000003"><a xlink:title=" ">
<path fill="none" stroke="#63b8ff" d="M86.86,-18.99C102.39,-15.23 120.98,-11.36 138,-9.5 171.1,-5.89 208.63,-5.94 237.55,-6.88"/>
<polygon fill="#63b8ff" stroke="#63b8ff" points="237.67,-10.38 247.79,-7.25 237.93,-3.39 237.67,-10.38"/>
</a>
</g>
</g>
<!-- Node4 -->
<g id="Node000004" class="node">
<title>Node4</title>
<g id="a_Node000004"><a xlink:href="../../d1/db8/classKernel.html#a41b59171bf5fbd2b4c493ead4fee53d6" target="_top" xlink:title=" ">
<polygon fill="white" stroke="#666666" points="212,-38 138,-38 138,-19 212,-19 212,-38"/>
<text text-anchor="middle" x="175" y="-26" font-family="Helvetica,sans-Serif" font-size="10.00">Kernel::sum</text>
</a>
</g>
</g>
<!-- Node1&#45;&gt;Node4 -->
<g id="edge3_Node000001_Node000004" class="edge">
<title>Node1&#45;&gt;Node4</title>
<g id="a_edge3_Node000001_Node000004"><a xlink:title=" ">
<path fill="none" stroke="#63b8ff" d="M102.33,-28.5C110.73,-28.5 119.4,-28.5 127.7,-28.5"/>
<polygon fill="#63b8ff" stroke="#63b8ff" points="127.95,-32 137.95,-28.5 127.95,-25 127.95,-32"/>
</a>
</g>
</g>
<!-- Node4&#45;&gt;Node2 -->
<g id="edge4_Node000004_Node000002" class="edge">
<title>Node4&#45;&gt;Node2</title>
<g id="a_edge4_Node000004_Node000002"><a xlink:title=" ">
<path fill="none" stroke="#63b8ff" d="M212.16,-34.44C220.94,-35.89 230.44,-37.45 239.61,-38.96"/>
<polygon fill="#63b8ff" stroke="#63b8ff" points="239.32,-42.46 249.75,-40.62 240.45,-35.55 239.32,-42.46"/>
</a>
</g>
</g>
<!-- Node4&#45;&gt;Node3 -->
<g id="edge5_Node000004_Node000003" class="edge">
<title>Node4&#45;&gt;Node3</title>
<g id="a_edge5_Node000004_Node000003"><a xlink:title=" ">
<path fill="none" stroke="#63b8ff" d="M212.16,-22.23C220.4,-20.8 229.27,-19.26 237.91,-17.76"/>
<polygon fill="#63b8ff" stroke="#63b8ff" points="238.62,-21.19 247.88,-16.03 237.43,-14.29 238.62,-21.19"/>
</a>
</g>
</g>
<!-- Node4&#45;&gt;Node4 -->
<g id="edge6_Node000004_Node000004" class="edge">
<title>Node4&#45;&gt;Node4</title>
<g id="a_edge6_Node000004_Node000004"><a xlink:title=" ">
<path fill="none" stroke="#63b8ff" d="M158.05,-38.08C149.8,-46.73 155.45,-56 175,-56 187.22,-56 194.01,-52.38 195.37,-47.55"/>
<polygon fill="#63b8ff" stroke="#63b8ff" points="198.64,-46.3 191.95,-38.08 192.05,-48.68 198.64,-46.3"/>
</a>
</g>
</g>
</g>
</svg>
