<?xml version="1.0" encoding="UTF-8" standalone="no"?>
<!DOCTYPE svg PUBLIC "-//W3C//DTD SVG 1.1//EN"
 "http://www.w3.org/Graphics/SVG/1.1/DTD/svg11.dtd">
<!-- Generated by graphviz version 2.42.4 (0)
 -->
<!-- Title: Kernel::sum Pages: 1 -->
<svg width="1041pt" height="70pt"
 viewBox="0.00 0.00 1041.00 69.50" xmlns="http://www.w3.org/2000/svg" xmlns:xlink="http://www.w3.org/1999/xlink">
<g id="graph0" class="graph" transform="scale(1 1) rotate(0) translate(4 65.5)">
<title>Kernel::sum</title>
<!-- Node1 -->
<g id="Node000001" class="node">
<title>Node1</title>
<g id="a_Node000001"><a xlink:title=" ">
<polygon fill="#999999" stroke="#666666" points="1033,-42.5 959,-42.5 959,-23.5 1033,-23.5 1033,-42.5"/>
<text text-anchor="middle" x="996" y="-30.5" font-family="Helvetica,sans-Serif" font-size="10.00">Kernel::sum</text>
</a>
</g>
</g>
<!-- Node1&#45;&gt;Node1 -->
<g id="edge8_Node000001_Node000001" class="edge">
<title>Node1&#45;&gt;Node1</title>
<g id="a_edge8_Node000001_Node000001"><a xlink:title=" ">
<path fill="none" stroke="#63b8ff" d="M1020.55,-51.69C1019.21,-56.7 1011.03,-60.5 996,-60.5 972.54,-60.5 965.76,-51.23 975.65,-42.58"/>
<polygon fill="#63b8ff" stroke="#63b8ff" points="1023.72,-50.19 1016.35,-42.58 1017.36,-53.13 1023.72,-50.19"/>
</a>
</g>
</g>
<!-- Node2 -->
<g id="Node000002" class="node">
<title>Node2</title>
<g id="a_Node000002"><a xlink:href="../../d1/db8/classKernel.html#adeac60b1e371a155c0a9a60179d30edb" target="_top" xlink:title=" ">
<polygon fill="white" stroke="#666666" points="923,-61.5 805,-61.5 805,-42.5 923,-42.5 923,-61.5"/>
<text text-anchor="middle" x="864" y="-49.5" font-family="Helvetica,sans-Serif" font-size="10.00">Kernel::isNormalized</text>
</a>
</g>
</g>
<!-- Node1&#45;&gt;Node2 -->
<g id="edge1_Node000001_Node000002" class="edge">
<title>Node1&#45;&gt;Node2</title>
<g id="a_edge1_Node000001_Node000002"><a xlink:title=" ">
<path fill="none" stroke="#63b8ff" d="M948.7,-39.77C940.52,-40.96 931.91,-42.22 923.44,-43.46"/>
<polygon fill="#63b8ff" stroke="#63b8ff" points="949.4,-43.2 958.79,-38.29 948.39,-36.28 949.4,-43.2"/>
</a>
</g>
</g>
<!-- Node3 -->
<g id="Node000003" class="node">
<title>Node3</title>
<g id="a_Node000003"><a xlink:href="../../d1/db8/classKernel.html#ad257d19cbde87a4d622d7ea5ef9d6536" target="_top" xlink:title=" ">
<polygon fill="white" stroke="#666666" points="915,-24.5 813,-24.5 813,-5.5 915,-5.5 915,-24.5"/>
<text text-anchor="middle" x="864" y="-12.5" font-family="Helvetica,sans-Serif" font-size="10.00">Kernel::normalize</text>
</a>
</g>
</g>
<!-- Node1&#45;&gt;Node3 -->
<g id="edge2_Node000001_Node000003" class="edge">
<title>Node1&#45;&gt;Node3</title>
<g id="a_edge2_Node000001_Node000003"><a xlink:title=" ">
<path fill="none" stroke="#63b8ff" d="M948.64,-26.58C937.77,-25.08 926.13,-23.46 915.1,-21.94"/>
<polygon fill="#63b8ff" stroke="#63b8ff" points="948.4,-30.08 958.79,-27.99 949.36,-23.15 948.4,-30.08"/>
</a>
</g>
</g>
<!-- Node4 -->
<g id="Node000004" class="node">
<title>Node4</title>
<g id="a_Node000004"><a xlink:href="../../da/d1c/namespacekernelGenerators.html#a1c0479ec9adbffcd5acf4d5aea266bbb" target="_top" xlink:title=" ">
<polygon fill="white" stroke="#666666" points="769,-30 632,-30 632,0 769,0 769,-30"/>
<text text-anchor="start" x="640" y="-18" font-family="Helvetica,sans-Serif" font-size="10.00">kernelGenerators::create</text>
<text text-anchor="middle" x="700.5" y="-7" font-family="Helvetica,sans-Serif" font-size="10.00">GaussianBlurKernel</text>
</a>
</g>
</g>
<!-- Node3&#45;&gt;Node4 -->
<g id="edge3_Node000003_Node000004" class="edge">
<title>Node3&#45;&gt;Node4</title>
<g id="a_edge3_Node000003_Node000004"><a xlink:title=" ">
<path fill="none" stroke="#63b8ff" d="M802.54,-15C791.67,-15 780.26,-15 769.19,-15"/>
<polygon fill="#63b8ff" stroke="#63b8ff" points="802.79,-18.5 812.79,-15 802.79,-11.5 802.79,-18.5"/>
</a>
</g>
</g>
<!-- Node5 -->
<g id="Node000005" class="node">
<title>Node5</title>
<g id="a_Node000005"><a xlink:href="../../d4/df6/classFilterFactory.html#a3bcc4b6e41115f88dd815994712023c8" target="_top" xlink:title=" ">
<polygon fill="white" stroke="#666666" points="596,-24.5 465,-24.5 465,-5.5 596,-5.5 596,-24.5"/>
<text text-anchor="middle" x="530.5" y="-12.5" font-family="Helvetica,sans-Serif" font-size="10.00">FilterFactory::buildFilter</text>
</a>
</g>
</g>
<!-- Node4&#45;&gt;Node5 -->
<g id="edge4_Node000004_Node000005" class="edge">
<title>Node4&#45;&gt;Node5</title>
<g id="a_edge4_Node000004_Node000005"><a xlink:title=" ">
<path fill="none" stroke="#63b8ff" d="M621.38,-15C612.9,-15 604.35,-15 596.06,-15"/>
<polygon fill="#63b8ff" stroke="#63b8ff" points="621.65,-18.5 631.65,-15 621.65,-11.5 621.65,-18.5"/>
</a>
</g>
</g>
<!-- Node6 -->
<g id="Node000006" class="node">
<title>Node6</title>
<g id="a_Node000006"><a xlink:href="../../d7/d6a/classBatchProcessor.html#a6e71b8448e65399c6c127baa9a26083b" target="_top" xlink:title=" ">
<polygon fill="white" stroke="#666666" points="429,-24.5 248,-24.5 248,-5.5 429,-5.5 429,-24.5"/>
<text text-anchor="middle" x="338.5" y="-12.5" font-family="Helvetica,sans-Serif" font-size="10.00">BatchProcessor::handleCommand</text>
</a>
</g>
</g>
<!-- Node5&#45;&gt;Node6 -->
<g id="edge5_Node000005_Node000006" class="edge">
<title>Node5&#45;&gt;Node6</title>
<g id="a_edge5_Node000005_Node000006"><a xlink:title=" ">
<path fill="none" stroke="#63b8ff" d="M454.78,-15C446.37,-15 437.73,-15 429.16,-15"/>
<polygon fill="#63b8ff" stroke="#63b8ff" points="454.91,-18.5 464.91,-15 454.91,-11.5 454.91,-18.5"/>
</a>
</g>
</g>
<!-- Node7 -->
<g id="Node000007" class="node">
<title>Node7</title>
<g id="a_Node000007"><a xlink:href="../../d7/d6a/classBatchProcessor.html#a822b1f9c8ec15c5b6efe3af915d703f4" target="_top" xlink:title=" ">
<polygon fill="white" stroke="#666666" points="212,-24.5 77,-24.5 77,-5.5 212,-5.5 212,-24.5"/>
<text text-anchor="middle" x="144.5" y="-12.5" font-family="Helvetica,sans-Serif" font-size="10.00">BatchProcessor::process</text>
</a>
</g>
</g>
<!-- Node6&#45;&gt;Node7 -->
<g id="edge6_Node000006_Node000007" class="edge">
<title>Node6&#45;&gt;Node7</title>
<g id="a_edge6_Node000006_Node000007"><a xlink:title=" ">
<path fill="none" stroke="#63b8ff" d="M237.8,-15C229.15,-15 220.53,-15 212.24,-15"/>
<polygon fill="#63b8ff" stroke="#63b8ff" points="237.96,-18.5 247.96,-15 237.96,-11.5 237.96,-18.5"/>
</a>
</g>
</g>
<!-- Node8 -->
<g id="Node000008" class="node">
<title>Node8</title>
<g id="a_Node000008"><a xlink:href="../../df/d0a/main_8cpp.html#a0ddf1224851353fc92bfbff6f499fa97" target="_top" xlink:title=" ">
<polygon fill="white" stroke="#666666" points="41,-24.5 0,-24.5 0,-5.5 41,-5.5 41,-24.5"/>
<text text-anchor="middle" x="20.5" y="-12.5" font-family="Helvetica,sans-Serif" font-size="10.00">main</text>
</a>
</g>
</g>
<!-- Node7&#45;&gt;Node8 -->
<g id="edge7_Node000007_Node000008" class="edge">
<title>Node7&#45;&gt;Node8</title>
<g id="a_edge7_Node000007_Node000008"><a xlink:title=" ">
<path fill="none" stroke="#63b8ff" d="M66.53,-15C57.24,-15 48.47,-15 41.19,-15"/>
<polygon fill="#63b8ff" stroke="#63b8ff" points="66.79,-18.5 76.79,-15 66.79,-11.5 66.79,-18.5"/>
</a>
</g>
</g>
</g>
</svg>
