<?xml version="1.0" encoding="UTF-8" standalone="no"?>
<!DOCTYPE svg PUBLIC "-//W3C//DTD SVG 1.1//EN"
 "http://www.w3.org/Graphics/SVG/1.1/DTD/svg11.dtd">
<!-- Generated by graphviz version 2.42.4 (0)
 -->
<!-- Title: Kernel::isNormalized Pages: 1 -->
<svg width="349pt" height="64pt"
 viewBox="0.00 0.00 349.00 64.00" xmlns="http://www.w3.org/2000/svg" xmlns:xlink="http://www.w3.org/1999/xlink">
<g id="graph0" class="graph" transform="scale(1 1) rotate(0) translate(4 60)">
<title>Kernel::isNormalized</title>
<!-- Node1 -->
<g id="Node000001" class="node">
<title>Node1</title>
<g id="a_Node000001"><a xlink:title=" ">
<polygon fill="#999999" stroke="#666666" points="118,-37 0,-37 0,-18 118,-18 118,-37"/>
<text text-anchor="middle" x="59" y="-25" font-family="Helvetica,sans-Serif" font-size="10.00">Kernel::isNormalized</text>
</a>
</g>
</g>
<!-- Node2 -->
<g id="Node000002" class="node">
<title>Node2</title>
<g id="a_Node000002"><a xlink:href="../../d1/db8/classKernel.html#a41b59171bf5fbd2b4c493ead4fee53d6" target="_top" xlink:title=" ">
<polygon fill="white" stroke="#666666" points="228,-37 154,-37 154,-18 228,-18 228,-37"/>
<text text-anchor="middle" x="191" y="-25" font-family="Helvetica,sans-Serif" font-size="10.00">Kernel::sum</text>
</a>
</g>
</g>
<!-- Node1&#45;&gt;Node2 -->
<g id="edge1_Node000001_Node000002" class="edge">
<title>Node1&#45;&gt;Node2</title>
<g id="a_edge1_Node000001_Node000002"><a xlink:title=" ">
<path fill="none" stroke="#63b8ff" d="M118.16,-27.5C126.71,-27.5 135.43,-27.5 143.7,-27.5"/>
<polygon fill="#63b8ff" stroke="#63b8ff" points="143.9,-31 153.9,-27.5 143.9,-24 143.9,-31"/>
</a>
</g>
</g>
<!-- Node2&#45;&gt;Node2 -->
<g id="edge4_Node000002_Node000002" class="edge">
<title>Node2&#45;&gt;Node2</title>
<g id="a_edge4_Node000002_Node000002"><a xlink:title=" ">
<path fill="none" stroke="#63b8ff" d="M174.05,-37.08C165.8,-45.73 171.45,-55 191,-55 203.22,-55 210.01,-51.38 211.37,-46.55"/>
<polygon fill="#63b8ff" stroke="#63b8ff" points="214.64,-45.3 207.95,-37.08 208.05,-47.68 214.64,-45.3"/>
</a>
</g>
</g>
<!-- Node3 -->
<g id="Node000003" class="node">
<title>Node3</title>
<g id="a_Node000003"><a xlink:href="../../d1/db8/classKernel.html#a5f94f2c43479665eded0abfbb163b233" target="_top" xlink:title=" ">
<polygon fill="white" stroke="#666666" points="339,-56 266,-56 266,-37 339,-37 339,-56"/>
<text text-anchor="middle" x="302.5" y="-44" font-family="Helvetica,sans-Serif" font-size="10.00">Kernel::cols</text>
</a>
</g>
</g>
<!-- Node2&#45;&gt;Node3 -->
<g id="edge2_Node000002_Node000003" class="edge">
<title>Node2&#45;&gt;Node3</title>
<g id="a_edge2_Node000002_Node000003"><a xlink:title=" ">
<path fill="none" stroke="#63b8ff" d="M228.16,-33.77C236.94,-35.3 246.44,-36.95 255.61,-38.54"/>
<polygon fill="#63b8ff" stroke="#63b8ff" points="255.3,-42.04 265.75,-40.3 256.5,-35.14 255.3,-42.04"/>
</a>
</g>
</g>
<!-- Node4 -->
<g id="Node000004" class="node">
<title>Node4</title>
<g id="a_Node000004"><a xlink:href="../../d1/db8/classKernel.html#a5ed7513959e5398a48e0149fbf786209" target="_top" xlink:title=" ">
<polygon fill="white" stroke="#666666" points="341,-19 264,-19 264,0 341,0 341,-19"/>
<text text-anchor="middle" x="302.5" y="-7" font-family="Helvetica,sans-Serif" font-size="10.00">Kernel::rows</text>
</a>
</g>
</g>
<!-- Node2&#45;&gt;Node4 -->
<g id="edge3_Node000002_Node000004" class="edge">
<title>Node2&#45;&gt;Node4</title>
<g id="a_edge3_Node000002_Node000004"><a xlink:title=" ">
<path fill="none" stroke="#63b8ff" d="M228.16,-21.56C236.4,-20.2 245.27,-18.74 253.91,-17.32"/>
<polygon fill="#63b8ff" stroke="#63b8ff" points="254.58,-20.76 263.88,-15.68 253.44,-13.85 254.58,-20.76"/>
</a>
</g>
</g>
</g>
</svg>
