<?xml version="1.0" encoding="UTF-8" standalone="no"?>
<!DOCTYPE svg PUBLIC "-//W3C//DTD SVG 1.1//EN"
 "http://www.w3.org/Graphics/SVG/1.1/DTD/svg11.dtd">
<!-- Generated by graphviz version 2.42.4 (0)
 -->
<!-- Title: Kernel::cols Pages: 1 -->
<!--zoomable 293 -->

<svg id="main" version="1.1" xmlns="http://www.w3.org/2000/svg" xmlns:xlink="http://www.w3.org/1999/xlink" xml:space="preserve" onload="init(evt)">
<style type="text/css"><![CDATA[
.node, .edge {opacity: 0.7;}
.node.selected, .edge.selected {opacity: 1;}
.edge:hover path { stroke: red; }
.edge:hover polygon { stroke: red; fill: red; }
]]></style>

<defs>
  <circle id="rim" cx="0" cy="0" r="7"/>
  <circle id="rim2" cx="0" cy="0" r="3.5"/>
  <g id="zoomPlus">
    <use xlink:href="#rim" fill="#404040"><set attributeName="fill" to="#808080" begin="zoomplus.mouseover" end="zoomplus.mouseout"/></use>
    <path d="M-4,0h8M0,-4v8" fill="none" stroke="white" stroke-width="1.5" pointer-events="none"/>
  </g>
  <g id="zoomMin">
    <use xlink:href="#rim" fill="#404040"><set attributeName="fill" to="#808080" begin="zoomminus.mouseover" end="zoomminus.mouseout"/></use>
    <path d="M-4,0h8" fill="none" stroke="white" stroke-width="1.5" pointer-events="none"/>
  </g>
  <g id="arrowUp" transform="translate(30 24)">
    <use xlink:href="#rim"/>
    <path pointer-events="none" fill="none" stroke="white" stroke-width="1.5" d="M0,-3.0v7 M-2.5,-0.5L0,-3.0L2.5,-0.5"/>
  </g>
  <g id="arrowRight" transform="rotate(90) translate(36 -43)">
    <use xlink:href="#rim"/>
    <path pointer-events="none" fill="none" stroke="white" stroke-width="1.5" d="M0,-3.0v7 M-2.5,-0.5L0,-3.0L2.5,-0.5"/>
  </g>
  <g id="arrowDown" transform="rotate(180) translate(-30 -48)">
    <use xlink:href="#rim"/>
    <path pointer-events="none" fill="none" stroke="white" stroke-width="1.5" d="M0,-3.0v7 M-2.5,-0.5L0,-3.0L2.5,-0.5"/>
  </g>
  <g id="arrowLeft" transform="rotate(270) translate(-36 17)">
    <use xlink:href="#rim"/>
    <path pointer-events="none" fill="none" stroke="white" stroke-width="1.5" d="M0,-3.0v7 M-2.5,-0.5L0,-3.0L2.5,-0.5"/>
  </g>
  <g id="resetDef">
    <use xlink:href="#rim2" fill="#404040"><set attributeName="fill" to="#808080" begin="reset.mouseover" end="reset.mouseout"/></use>
  </g>
</defs>
<script type="application/ecmascript">
var viewWidth = 1172;
var viewHeight = 293;
var sectionId = 'dynsection-4';
</script>
<script type="application/ecmascript" xlink:href="../../svg.min.js"/>
<svg id="graph" class="graph">
<g id="viewport">
<title>Kernel::cols</title>
<!-- Node1 -->
<g id="Node000001" class="node">
<title>Node1</title>
<g id="a_Node000001"><a xlink:title=" ">
<polygon fill="#999999" stroke="#666666" points="1164,-168 1091,-168 1091,-149 1164,-149 1164,-168"/>
<text text-anchor="middle" x="1127.5" y="-156" font-family="Helvetica,sans-Serif" font-size="10.00">Kernel::cols</text>
</a>
</g>
</g>
<!-- Node2 -->
<g id="Node000002" class="node">
<title>Node2</title>
<g id="a_Node000002"><a xlink:href="../../de/d8c/classConvolutionFilter.html#aa5e82ddd0f363421028aa50769eee970" target="_top" xlink:title=" ">
<polygon fill="white" stroke="#666666" points="917,-266.5 811,-266.5 811,-236.5 917,-236.5 917,-266.5"/>
<text text-anchor="start" x="819" y="-254.5" font-family="Helvetica,sans-Serif" font-size="10.00">ConvolutionFilter::</text>
<text text-anchor="middle" x="864" y="-243.5" font-family="Helvetica,sans-Serif" font-size="10.00">apply</text>
</a>
</g>
</g>
<!-- Node1&#45;&gt;Node2 -->
<g id="edge1_Node000001_Node000002" class="edge">
<title>Node1&#45;&gt;Node2</title>
<g id="a_edge1_Node000001_Node000002"><a xlink:title=" ">
<path fill="none" stroke="#63b8ff" d="M1120.73,-177.67C1111.61,-204.11 1091.09,-250.72 1055,-270.5 1006.6,-297.03 940.78,-281.01 900.68,-266.57"/>
<polygon fill="#63b8ff" stroke="#63b8ff" points="1124.1,-178.61 1123.86,-168.02 1117.44,-176.45 1124.1,-178.61"/>
</a>
</g>
</g>
<!-- Node3 -->
<g id="Node000003" class="node">
<title>Node3</title>
<g id="a_Node000003"><a xlink:href="../../d1/db8/classKernel.html#a02e39cf2a7e47fe1341b04cb6cd8f39d" target="_top" xlink:title=" ">
<polygon fill="white" stroke="#666666" points="1052.5,-261 961.5,-261 961.5,-242 1052.5,-242 1052.5,-261"/>
<text text-anchor="middle" x="1007" y="-249" font-family="Helvetica,sans-Serif" font-size="10.00">Kernel::centerX</text>
</a>
</g>
</g>
<!-- Node1&#45;&gt;Node3 -->
<g id="edge2_Node000001_Node000003" class="edge">
<title>Node1&#45;&gt;Node3</title>
<g id="a_edge2_Node000001_Node000003"><a xlink:title=" ">
<path fill="none" stroke="#63b8ff" d="M1113.22,-176.47C1100.06,-193.2 1078.5,-217.85 1055,-233.5 1050.05,-236.79 1044.42,-239.61 1038.81,-241.96"/>
<polygon fill="#63b8ff" stroke="#63b8ff" points="1116.33,-178.16 1119.63,-168.1 1110.78,-173.91 1116.33,-178.16"/>
</a>
</g>
</g>
<!-- Node4 -->
<g id="Node000004" class="node">
<title>Node4</title>
<g id="a_Node000004"><a xlink:href="../../d1/db8/classKernel.html#a444312f137c540a02008bf49f8237510" target="_top" xlink:title=" ">
<polygon fill="white" stroke="#666666" points="1055,-224 959,-224 959,-205 1055,-205 1055,-224"/>
<text text-anchor="middle" x="1007" y="-212" font-family="Helvetica,sans-Serif" font-size="10.00">Kernel::getValue</text>
</a>
</g>
</g>
<!-- Node1&#45;&gt;Node4 -->
<g id="edge3_Node000001_Node000004" class="edge">
<title>Node1&#45;&gt;Node4</title>
<g id="a_edge3_Node000001_Node000004"><a xlink:title=" ">
<path fill="none" stroke="#63b8ff" d="M1100.64,-173.23C1087.22,-180.62 1070.44,-189.47 1055,-196.5 1048.48,-199.47 1041.31,-202.38 1034.58,-204.97"/>
<polygon fill="#63b8ff" stroke="#63b8ff" points="1102.72,-176.08 1109.75,-168.16 1099.31,-169.97 1102.72,-176.08"/>
</a>
</g>
</g>
<!-- Node5 -->
<g id="Node000005" class="node">
<title>Node5</title>
<g id="a_Node000005"><a xlink:href="../../d1/db8/classKernel.html#ad4d256b555e1214ae2601e206c507e38" target="_top" xlink:title=" ">
<polygon fill="white" stroke="#666666" points="1049,-187 965,-187 965,-168 1049,-168 1049,-187"/>
<text text-anchor="middle" x="1007" y="-175" font-family="Helvetica,sans-Serif" font-size="10.00">Kernel::Kernel</text>
</a>
</g>
</g>
<!-- Node1&#45;&gt;Node5 -->
<g id="edge5_Node000001_Node000005" class="edge">
<title>Node1&#45;&gt;Node5</title>
<g id="a_edge5_Node000001_Node000005"><a xlink:title=" ">
<path fill="none" stroke="#63b8ff" d="M1080.83,-165.82C1070.47,-167.48 1059.53,-169.24 1049.36,-170.87"/>
<polygon fill="#63b8ff" stroke="#63b8ff" points="1081.63,-169.24 1090.95,-164.2 1080.52,-162.33 1081.63,-169.24"/>
</a>
</g>
</g>
<!-- Node6 -->
<g id="Node000006" class="node">
<title>Node6</title>
<g id="a_Node000006"><a xlink:href="../../d1/db8/classKernel.html#ad257d19cbde87a4d622d7ea5ef9d6536" target="_top" xlink:title=" ">
<polygon fill="white" stroke="#666666" points="915,-103 813,-103 813,-84 915,-84 915,-103"/>
<text text-anchor="middle" x="864" y="-91" font-family="Helvetica,sans-Serif" font-size="10.00">Kernel::normalize</text>
</a>
</g>
</g>
<!-- Node1&#45;&gt;Node6 -->
<g id="edge6_Node000001_Node000006" class="edge">
<title>Node1&#45;&gt;Node6</title>
<g id="a_edge6_Node000001_Node000006"><a xlink:title=" ">
<path fill="none" stroke="#63b8ff" d="M1080.71,-148.84C1046.95,-141.55 999.96,-131.02 959,-120.5 938.11,-115.14 914.82,-108.45 896.64,-103.07"/>
<polygon fill="#63b8ff" stroke="#63b8ff" points="1080.23,-152.32 1090.74,-151 1081.7,-145.48 1080.23,-152.32"/>
</a>
</g>
</g>
<!-- Node12 -->
<g id="Node000012" class="node">
<title>Node12</title>
<g id="a_Node000012"><a xlink:href="../../d1/db8/classKernel.html#a368778329b2c461cdbeda5fa5676fae2" target="_top" xlink:title=" ">
<polygon fill="white" stroke="#666666" points="1046.5,-111 967.5,-111 967.5,-92 1046.5,-92 1046.5,-111"/>
<text text-anchor="middle" x="1007" y="-99" font-family="Helvetica,sans-Serif" font-size="10.00">Kernel::scale</text>
</a>
</g>
</g>
<!-- Node1&#45;&gt;Node12 -->
<g id="edge12_Node000001_Node000012" class="edge">
<title>Node1&#45;&gt;Node12</title>
<g id="a_edge12_Node000001_Node000012"><a xlink:title=" ">
<path fill="none" stroke="#63b8ff" d="M1097.61,-144.6C1075.99,-134.2 1046.98,-120.25 1027.9,-111.07"/>
<polygon fill="#63b8ff" stroke="#63b8ff" points="1096.14,-147.78 1106.67,-148.96 1099.17,-141.47 1096.14,-147.78"/>
</a>
</g>
</g>
<!-- Node13 -->
<g id="Node000013" class="node">
<title>Node13</title>
<g id="a_Node000013"><a xlink:href="../../d1/db8/classKernel.html#aff6c47fb0ecc44d0aee3d18b30fe4f7b" target="_top" xlink:title=" ">
<polygon fill="white" stroke="#666666" points="1041,-74 973,-74 973,-55 1041,-55 1041,-74"/>
<text text-anchor="middle" x="1007" y="-62" font-family="Helvetica,sans-Serif" font-size="10.00">Kernel::set</text>
</a>
</g>
</g>
<!-- Node1&#45;&gt;Node13 -->
<g id="edge13_Node000001_Node000013" class="edge">
<title>Node1&#45;&gt;Node13</title>
<g id="a_edge13_Node000001_Node000013"><a xlink:title=" ">
<path fill="none" stroke="#63b8ff" d="M1113.16,-140.63C1099.94,-123.96 1078.35,-99.36 1055,-83.5 1049.61,-79.84 1043.41,-76.71 1037.32,-74.11"/>
<polygon fill="#63b8ff" stroke="#63b8ff" points="1110.71,-143.19 1119.59,-148.96 1116.25,-138.91 1110.71,-143.19"/>
</a>
</g>
</g>
<!-- Node14 -->
<g id="Node000014" class="node">
<title>Node14</title>
<g id="a_Node000014"><a xlink:href="../../d1/db8/classKernel.html#a41b59171bf5fbd2b4c493ead4fee53d6" target="_top" xlink:title=" ">
<polygon fill="white" stroke="#666666" points="1044,-19 970,-19 970,0 1044,0 1044,-19"/>
<text text-anchor="middle" x="1007" y="-7" font-family="Helvetica,sans-Serif" font-size="10.00">Kernel::sum</text>
</a>
</g>
</g>
<!-- Node1&#45;&gt;Node14 -->
<g id="edge14_Node000001_Node000014" class="edge">
<title>Node1&#45;&gt;Node14</title>
<g id="a_edge14_Node000001_Node000014"><a xlink:title=" ">
<path fill="none" stroke="#63b8ff" d="M1116.98,-139.58C1104.65,-116.17 1081.58,-75.84 1055,-46.5 1045.38,-35.88 1032.47,-25.96 1022.62,-19.07"/>
<polygon fill="#63b8ff" stroke="#63b8ff" points="1114.02,-141.48 1121.72,-148.76 1120.24,-138.27 1114.02,-141.48"/>
</a>
</g>
</g>
<!-- Node4&#45;&gt;Node2 -->
<g id="edge4_Node000004_Node000002" class="edge">
<title>Node4&#45;&gt;Node2</title>
<g id="a_edge4_Node000004_Node000002"><a xlink:title=" ">
<path fill="none" stroke="#63b8ff" d="M960,-226.57C946.3,-230.17 931.19,-234.13 917.13,-237.82"/>
<polygon fill="#63b8ff" stroke="#63b8ff" points="960.9,-229.95 969.69,-224.03 959.13,-223.18 960.9,-229.95"/>
</a>
</g>
</g>
<!-- Node7 -->
<g id="Node000007" class="node">
<title>Node7</title>
<g id="a_Node000007"><a xlink:href="../../da/d1c/namespacekernelGenerators.html#a1c0479ec9adbffcd5acf4d5aea266bbb" target="_top" xlink:title=" ">
<polygon fill="white" stroke="#666666" points="769,-108.5 632,-108.5 632,-78.5 769,-78.5 769,-108.5"/>
<text text-anchor="start" x="640" y="-96.5" font-family="Helvetica,sans-Serif" font-size="10.00">kernelGenerators::create</text>
<text text-anchor="middle" x="700.5" y="-85.5" font-family="Helvetica,sans-Serif" font-size="10.00">GaussianBlurKernel</text>
</a>
</g>
</g>
<!-- Node6&#45;&gt;Node7 -->
<g id="edge7_Node000006_Node000007" class="edge">
<title>Node6&#45;&gt;Node7</title>
<g id="a_edge7_Node000006_Node000007"><a xlink:title=" ">
<path fill="none" stroke="#63b8ff" d="M802.54,-93.5C791.67,-93.5 780.26,-93.5 769.19,-93.5"/>
<polygon fill="#63b8ff" stroke="#63b8ff" points="802.79,-97 812.79,-93.5 802.79,-90 802.79,-97"/>
</a>
</g>
</g>
<!-- Node8 -->
<g id="Node000008" class="node">
<title>Node8</title>
<g id="a_Node000008"><a xlink:href="../../d4/df6/classFilterFactory.html#a3bcc4b6e41115f88dd815994712023c8" target="_top" xlink:title=" ">
<polygon fill="white" stroke="#666666" points="596,-103 465,-103 465,-84 596,-84 596,-103"/>
<text text-anchor="middle" x="530.5" y="-91" font-family="Helvetica,sans-Serif" font-size="10.00">FilterFactory::buildFilter</text>
</a>
</g>
</g>
<!-- Node7&#45;&gt;Node8 -->
<g id="edge8_Node000007_Node000008" class="edge">
<title>Node7&#45;&gt;Node8</title>
<g id="a_edge8_Node000007_Node000008"><a xlink:title=" ">
<path fill="none" stroke="#63b8ff" d="M621.38,-93.5C612.9,-93.5 604.35,-93.5 596.06,-93.5"/>
<polygon fill="#63b8ff" stroke="#63b8ff" points="621.65,-97 631.65,-93.5 621.65,-90 621.65,-97"/>
</a>
</g>
</g>
<!-- Node9 -->
<g id="Node000009" class="node">
<title>Node9</title>
<g id="a_Node000009"><a xlink:href="../../d7/d6a/classBatchProcessor.html#a6e71b8448e65399c6c127baa9a26083b" target="_top" xlink:title=" ">
<polygon fill="white" stroke="#666666" points="429,-103 248,-103 248,-84 429,-84 429,-103"/>
<text text-anchor="middle" x="338.5" y="-91" font-family="Helvetica,sans-Serif" font-size="10.00">BatchProcessor::handleCommand</text>
</a>
</g>
</g>
<!-- Node8&#45;&gt;Node9 -->
<g id="edge9_Node000008_Node000009" class="edge">
<title>Node8&#45;&gt;Node9</title>
<g id="a_edge9_Node000008_Node000009"><a xlink:title=" ">
<path fill="none" stroke="#63b8ff" d="M454.78,-93.5C446.37,-93.5 437.73,-93.5 429.16,-93.5"/>
<polygon fill="#63b8ff" stroke="#63b8ff" points="454.91,-97 464.91,-93.5 454.91,-90 454.91,-97"/>
</a>
</g>
</g>
<!-- Node10 -->
<g id="Node000010" class="node">
<title>Node10</title>
<g id="a_Node000010"><a xlink:href="../../d7/d6a/classBatchProcessor.html#a822b1f9c8ec15c5b6efe3af915d703f4" target="_top" xlink:title=" ">
<polygon fill="white" stroke="#666666" points="212,-103 77,-103 77,-84 212,-84 212,-103"/>
<text text-anchor="middle" x="144.5" y="-91" font-family="Helvetica,sans-Serif" font-size="10.00">BatchProcessor::process</text>
</a>
</g>
</g>
<!-- Node9&#45;&gt;Node10 -->
<g id="edge10_Node000009_Node000010" class="edge">
<title>Node9&#45;&gt;Node10</title>
<g id="a_edge10_Node000009_Node000010"><a xlink:title=" ">
<path fill="none" stroke="#63b8ff" d="M237.8,-93.5C229.15,-93.5 220.53,-93.5 212.24,-93.5"/>
<polygon fill="#63b8ff" stroke="#63b8ff" points="237.96,-97 247.96,-93.5 237.96,-90 237.96,-97"/>
</a>
</g>
</g>
<!-- Node11 -->
<g id="Node000011" class="node">
<title>Node11</title>
<g id="a_Node000011"><a xlink:href="../../df/d0a/main_8cpp.html#a0ddf1224851353fc92bfbff6f499fa97" target="_top" xlink:title=" ">
<polygon fill="white" stroke="#666666" points="41,-103 0,-103 0,-84 41,-84 41,-103"/>
<text text-anchor="middle" x="20.5" y="-91" font-family="Helvetica,sans-Serif" font-size="10.00">main</text>
</a>
</g>
</g>
<!-- Node10&#45;&gt;Node11 -->
<g id="edge11_Node000010_Node000011" class="edge">
<title>Node10&#45;&gt;Node11</title>
<g id="a_edge11_Node000010_Node000011"><a xlink:title=" ">
<path fill="none" stroke="#63b8ff" d="M66.53,-93.5C57.24,-93.5 48.47,-93.5 41.19,-93.5"/>
<polygon fill="#63b8ff" stroke="#63b8ff" points="66.79,-97 76.79,-93.5 66.79,-90 66.79,-97"/>
</a>
</g>
</g>
<!-- Node14&#45;&gt;Node6 -->
<g id="edge16_Node000014_Node000006" class="edge">
<title>Node14&#45;&gt;Node6</title>
<g id="a_edge16_Node000014_Node000006"><a xlink:title=" ">
<path fill="none" stroke="#63b8ff" d="M981.13,-24.32C952.23,-41.53 905.41,-69.42 880.99,-83.98"/>
<polygon fill="#63b8ff" stroke="#63b8ff" points="983.03,-27.26 989.83,-19.14 979.44,-21.25 983.03,-27.26"/>
</a>
</g>
</g>
<!-- Node14&#45;&gt;Node14 -->
<g id="edge17_Node000014_Node000014" class="edge">
<title>Node14&#45;&gt;Node14</title>
<g id="a_edge17_Node000014_Node000014"><a xlink:title=" ">
<path fill="none" stroke="#63b8ff" d="M1029.22,-28.55C1027.74,-33.38 1020.33,-37 1007,-37 985.67,-37 979.51,-27.73 988.5,-19.08"/>
<polygon fill="#63b8ff" stroke="#63b8ff" points="1032.41,-27.11 1025.5,-19.08 1025.9,-29.67 1032.41,-27.11"/>
</a>
</g>
</g>
<!-- Node15 -->
<g id="Node000015" class="node">
<title>Node15</title>
<g id="a_Node000015"><a xlink:href="../../d1/db8/classKernel.html#adeac60b1e371a155c0a9a60179d30edb" target="_top" xlink:title=" ">
<polygon fill="white" stroke="#666666" points="923,-19 805,-19 805,0 923,0 923,-19"/>
<text text-anchor="middle" x="864" y="-7" font-family="Helvetica,sans-Serif" font-size="10.00">Kernel::isNormalized</text>
</a>
</g>
</g>
<!-- Node14&#45;&gt;Node15 -->
<g id="edge15_Node000014_Node000015" class="edge">
<title>Node14&#45;&gt;Node15</title>
<g id="a_edge15_Node000014_Node000015"><a xlink:title=" ">
<path fill="none" stroke="#63b8ff" d="M959.35,-9.5C947.74,-9.5 935.15,-9.5 923.07,-9.5"/>
<polygon fill="#63b8ff" stroke="#63b8ff" points="959.69,-13 969.69,-9.5 959.69,-6 959.69,-13"/>
</a>
</g>
</g>
</g>
</svg>

<g id="navigator" transform="translate(0 0)" fill="#404254">
  <rect fill="#f2f5e9" fill-opacity="0.5" stroke="#606060" stroke-width=".5" x="0" y="0" width="60" height="60"/>
  <use id="zoomplus" xlink:href="#zoomPlus" x="17" y="9" onmousedown="handleZoom(evt,'in')"/>
  <use id="zoomminus" xlink:href="#zoomMin" x="42" y="9" onmousedown="handleZoom(evt,'out')"/>
  <use id="reset" xlink:href="#resetDef" x="30" y="36" onmousedown="handleReset()"/>
   <use id="arrowup" xlink:href="#arrowUp" x="0" y="0" onmousedown="handlePan(0,-1)"/>
  <use id="arrowright" xlink:href="#arrowRight" x="0" y="0" onmousedown="handlePan(1,0)"/>
  <use id="arrowdown" xlink:href="#arrowDown" x="0" y="0" onmousedown="handlePan(0,1)"/>
  <use id="arrowleft" xlink:href="#arrowLeft" x="0" y="0" onmousedown="handlePan(-1,0)"/>
</g>
<svg viewBox="0 0 15 15" width="100%" height="30px" preserveAspectRatio="xMaxYMin meet">
 <g id="arrow_out" transform="scale(0.3 0.3)">
  <a xlink:href="classKernel_a5f94f2c43479665eded0abfbb163b233_icgraph_org.svg" target="_base">
   <rect id="button" ry="5" rx="5" y="6" x="6" height="38" width="38"
        fill="#f2f5e9" fill-opacity="0.5" stroke="#606060" stroke-width="1.0"/>
   <path id="arrow"
     d="M 11.500037,31.436501 C 11.940474,20.09759 22.043105,11.32322 32.158766,21.979434 L 37.068811,17.246167 C 37.068811,17.246167 37.088388,32 37.088388,32 L 22.160133,31.978069 C 22.160133,31.978069 26.997745,27.140456 26.997745,27.140456 C 18.528582,18.264221 13.291696,25.230495 11.500037,31.436501 z"
     style="fill:#404040;"/>
  </a>
 </g>
</svg>

<style type='text/css'>
<![CDATA[
[data-mouse-over-selected='false'] { opacity: 0.7; }
[data-mouse-over-selected='true']  { opacity: 1.0; }
]]>
</style>
<script type="application/ecmascript"><![CDATA[
document.addEventListener('DOMContentLoaded', (event) => {
  highlightEdges();
  highlightAdjacentNodes();
});
]]></script>
</svg>
