<?xml version="1.0" encoding="UTF-8" standalone="no"?>
<!DOCTYPE svg PUBLIC "-//W3C//DTD SVG 1.1//EN"
 "http://www.w3.org/Graphics/SVG/1.1/DTD/svg11.dtd">
<!-- Generated by graphviz version 2.42.4 (0)
 -->
<!-- Title: MedianFilter::apply Pages: 1 -->
<svg width="281pt" height="323pt"
 viewBox="0.00 0.00 281.00 323.00" xmlns="http://www.w3.org/2000/svg" xmlns:xlink="http://www.w3.org/1999/xlink">

<svg id="main" version="1.1" xmlns="http://www.w3.org/2000/svg" xmlns:xlink="http://www.w3.org/1999/xlink" xml:space="preserve" onload="init(evt)">
<style type="text/css"><![CDATA[
.node, .edge {opacity: 0.7;}
.node.selected, .edge.selected {opacity: 1;}
.edge:hover path { stroke: red; }
.edge:hover polygon { stroke: red; fill: red; }
]]></style>
<script type="application/ecmascript" xlink:href="../../svg.min.js"/>
<svg id="graph" class="graph">
<g id="graph0" class="graph" transform="scale(1 1) rotate(0) translate(4 319)">
<title>MedianFilter::apply</title>
<!-- Node1 -->
<g id="Node000001" class="node">
<title>Node1</title>
<g id="a_Node000001"><a xlink:title=" ">
<polygon fill="#999999" stroke="#666666" points="110,-167 0,-167 0,-148 110,-148 110,-167"/>
<text text-anchor="middle" x="55" y="-155" font-family="Helvetica,sans-Serif" font-size="10.00">MedianFilter::apply</text>
</a>
</g>
</g>
<!-- Node2 -->
<g id="Node000002" class="node">
<title>Node2</title>
<g id="a_Node000002"><a xlink:href="../../d6/d25/classMedianFilter.html#a21784fc0b3811f4186f3fdc04222982b" target="_top" xlink:title=" ">
<polygon fill="white" stroke="#666666" points="273,-315 146,-315 146,-296 273,-296 273,-315"/>
<text text-anchor="middle" x="209.5" y="-303" font-family="Helvetica,sans-Serif" font-size="10.00">MedianFilter::absToRel</text>
</a>
</g>
</g>
<!-- Node1&#45;&gt;Node2 -->
<g id="edge1_Node000001_Node000002" class="edge">
<title>Node1&#45;&gt;Node2</title>
<g id="a_edge1_Node000001_Node000002"><a xlink:title=" ">
<path fill="none" stroke="#63b8ff" d="M59.85,-167.01C70.08,-191.06 100.29,-254.67 146,-287.5 148.09,-289 150.3,-290.37 152.59,-291.63"/>
<polygon fill="#63b8ff" stroke="#63b8ff" points="151.24,-294.86 161.77,-295.95 154.21,-288.53 151.24,-294.86"/>
</a>
</g>
</g>
<!-- Node3 -->
<g id="Node000003" class="node">
<title>Node3</title>
<g id="a_Node000003"><a xlink:href="../../d8/d00/classImage.html#adee9bd20c718f3137e2e920c94a715c9" target="_top" xlink:title=" ">
<polygon fill="white" stroke="#666666" points="241,-278 178,-278 178,-259 241,-259 241,-278"/>
<text text-anchor="middle" x="209.5" y="-266" font-family="Helvetica,sans-Serif" font-size="10.00">Image::at</text>
</a>
</g>
</g>
<!-- Node1&#45;&gt;Node3 -->
<g id="edge2_Node000001_Node000003" class="edge">
<title>Node1&#45;&gt;Node3</title>
<g id="a_edge2_Node000001_Node000003"><a xlink:title=" ">
<path fill="none" stroke="#63b8ff" d="M62.71,-167.27C76.22,-186.22 108.64,-228.05 146,-250.5 152.81,-254.59 160.59,-257.79 168.3,-260.28"/>
<polygon fill="#63b8ff" stroke="#63b8ff" points="167.36,-263.66 177.94,-263.07 169.31,-256.93 167.36,-263.66"/>
</a>
</g>
</g>
<!-- Node4 -->
<g id="Node000004" class="node">
<title>Node4</title>
<g id="a_Node000004"><a xlink:href="../../d8/d00/classImage.html#a1cd7587f88b6932b5269051d1ba08ff9" target="_top" xlink:title=" ">
<polygon fill="white" stroke="#666666" points="260,-241 159,-241 159,-222 260,-222 260,-241"/>
<text text-anchor="middle" x="209.5" y="-229" font-family="Helvetica,sans-Serif" font-size="10.00">Image::getHeight</text>
</a>
</g>
</g>
<!-- Node1&#45;&gt;Node4 -->
<g id="edge3_Node000001_Node000004" class="edge">
<title>Node1&#45;&gt;Node4</title>
<g id="a_edge3_Node000001_Node000004"><a xlink:title=" ">
<path fill="none" stroke="#63b8ff" d="M68.78,-167.05C85.68,-179.29 116.74,-200.49 146,-213.5 150.35,-215.43 154.96,-217.22 159.63,-218.85"/>
<polygon fill="#63b8ff" stroke="#63b8ff" points="158.64,-222.21 169.23,-221.99 160.81,-215.56 158.64,-222.21"/>
</a>
</g>
</g>
<!-- Node5 -->
<g id="Node000005" class="node">
<title>Node5</title>
<g id="a_Node000005"><a xlink:href="../../d8/d00/classImage.html#a36bcae4838228d574738249a87dc4464" target="_top" xlink:title=" ">
<polygon fill="white" stroke="#666666" points="258.5,-204 160.5,-204 160.5,-185 258.5,-185 258.5,-204"/>
<text text-anchor="middle" x="209.5" y="-192" font-family="Helvetica,sans-Serif" font-size="10.00">Image::getWidth</text>
</a>
</g>
</g>
<!-- Node1&#45;&gt;Node5 -->
<g id="edge4_Node000001_Node000005" class="edge">
<title>Node1&#45;&gt;Node5</title>
<g id="a_edge4_Node000001_Node000005"><a xlink:title=" ">
<path fill="none" stroke="#63b8ff" d="M95.27,-167.03C114.76,-171.76 138.51,-177.52 159.21,-182.54"/>
<polygon fill="#63b8ff" stroke="#63b8ff" points="158.55,-185.98 169.1,-184.94 160.2,-179.18 158.55,-185.98"/>
</a>
</g>
</g>
<!-- Node6 -->
<g id="Node000006" class="node">
<title>Node6</title>
<g id="a_Node000006"><a xlink:href="../../d0/dd6/classPixel.html#afcb358aac2178078b9f885382ac37b79" target="_top" xlink:title=" ">
<polygon fill="white" stroke="#666666" points="243.5,-167 175.5,-167 175.5,-148 243.5,-148 243.5,-167"/>
<text text-anchor="middle" x="209.5" y="-155" font-family="Helvetica,sans-Serif" font-size="10.00">Pixel::setA</text>
</a>
</g>
</g>
<!-- Node1&#45;&gt;Node6 -->
<g id="edge5_Node000001_Node000006" class="edge">
<title>Node1&#45;&gt;Node6</title>
<g id="a_edge5_Node000001_Node000006"><a xlink:title=" ">
<path fill="none" stroke="#63b8ff" d="M110.2,-157.5C128.2,-157.5 148.01,-157.5 165.09,-157.5"/>
<polygon fill="#63b8ff" stroke="#63b8ff" points="165.34,-161 175.34,-157.5 165.34,-154 165.34,-161"/>
</a>
</g>
</g>
<!-- Node7 -->
<g id="Node000007" class="node">
<title>Node7</title>
<g id="a_Node000007"><a xlink:href="../../d0/dd6/classPixel.html#a276087f14e186ad85b2509e17afafd57" target="_top" xlink:title=" ">
<polygon fill="white" stroke="#666666" points="243.5,-130 175.5,-130 175.5,-111 243.5,-111 243.5,-130"/>
<text text-anchor="middle" x="209.5" y="-118" font-family="Helvetica,sans-Serif" font-size="10.00">Pixel::setB</text>
</a>
</g>
</g>
<!-- Node1&#45;&gt;Node7 -->
<g id="edge6_Node000001_Node000007" class="edge">
<title>Node1&#45;&gt;Node7</title>
<g id="a_edge6_Node000001_Node000007"><a xlink:title=" ">
<path fill="none" stroke="#63b8ff" d="M95.27,-147.97C116.78,-142.75 143.46,-136.28 165.52,-130.93"/>
<polygon fill="#63b8ff" stroke="#63b8ff" points="166.4,-134.32 175.3,-128.56 164.75,-127.51 166.4,-134.32"/>
</a>
</g>
</g>
<!-- Node8 -->
<g id="Node000008" class="node">
<title>Node8</title>
<g id="a_Node000008"><a xlink:href="../../d0/dd6/classPixel.html#a71f1091568ec495b74f9aae5706de7c2" target="_top" xlink:title=" ">
<polygon fill="white" stroke="#666666" points="243.5,-93 175.5,-93 175.5,-74 243.5,-74 243.5,-93"/>
<text text-anchor="middle" x="209.5" y="-81" font-family="Helvetica,sans-Serif" font-size="10.00">Pixel::setG</text>
</a>
</g>
</g>
<!-- Node1&#45;&gt;Node8 -->
<g id="edge7_Node000001_Node000008" class="edge">
<title>Node1&#45;&gt;Node8</title>
<g id="a_edge7_Node000001_Node000008"><a xlink:title=" ">
<path fill="none" stroke="#63b8ff" d="M69.13,-147.99C86.16,-136.03 117.1,-115.47 146,-102.5 152.26,-99.69 159.04,-97.15 165.76,-94.91"/>
<polygon fill="#63b8ff" stroke="#63b8ff" points="167.01,-98.18 175.49,-91.83 164.9,-91.51 167.01,-98.18"/>
</a>
</g>
</g>
<!-- Node9 -->
<g id="Node000009" class="node">
<title>Node9</title>
<g id="a_Node000009"><a xlink:href="../../d8/d00/classImage.html#a6dd65d408f5cb14e7eaf5d96fe00a99e" target="_top" xlink:title=" ">
<polygon fill="white" stroke="#666666" points="255.5,-56 163.5,-56 163.5,-37 255.5,-37 255.5,-56"/>
<text text-anchor="middle" x="209.5" y="-44" font-family="Helvetica,sans-Serif" font-size="10.00">Image::setPixel</text>
</a>
</g>
</g>
<!-- Node1&#45;&gt;Node9 -->
<g id="edge8_Node000001_Node000009" class="edge">
<title>Node1&#45;&gt;Node9</title>
<g id="a_edge8_Node000001_Node000009"><a xlink:title=" ">
<path fill="none" stroke="#63b8ff" d="M62.76,-147.88C76.37,-129.23 108.95,-88 146,-65.5 149.45,-63.41 153.14,-61.53 156.95,-59.85"/>
<polygon fill="#63b8ff" stroke="#63b8ff" points="158.54,-62.98 166.56,-56.06 155.98,-56.47 158.54,-62.98"/>
</a>
</g>
</g>
<!-- Node10 -->
<g id="Node000010" class="node">
<title>Node10</title>
<g id="a_Node000010"><a xlink:href="../../d0/dd6/classPixel.html#abcc88ad478c604dc2f14288745c234d4" target="_top" xlink:title=" ">
<polygon fill="white" stroke="#666666" points="243.5,-19 175.5,-19 175.5,0 243.5,0 243.5,-19"/>
<text text-anchor="middle" x="209.5" y="-7" font-family="Helvetica,sans-Serif" font-size="10.00">Pixel::setR</text>
</a>
</g>
</g>
<!-- Node1&#45;&gt;Node10 -->
<g id="edge9_Node000001_Node000010" class="edge">
<title>Node1&#45;&gt;Node10</title>
<g id="a_edge9_Node000001_Node000010"><a xlink:title=" ">
<path fill="none" stroke="#63b8ff" d="M60.05,-147.75C70.54,-123.72 100.93,-61.25 146,-28.5 151.93,-24.19 158.85,-20.85 165.88,-18.26"/>
<polygon fill="#63b8ff" stroke="#63b8ff" points="167.01,-21.57 175.45,-15.17 164.86,-14.91 167.01,-21.57"/>
</a>
</g>
</g>
</g>
</svg>
</svg>

<style type='text/css'>
<![CDATA[
[data-mouse-over-selected='false'] { opacity: 0.7; }
[data-mouse-over-selected='true']  { opacity: 1.0; }
]]>
</style>
<script type="application/ecmascript"><![CDATA[
document.addEventListener('DOMContentLoaded', (event) => {
  highlightEdges();
  highlightAdjacentNodes();
});
]]></script>
</svg>
