<?xml version="1.0" encoding="UTF-8" standalone="no"?>
<!DOCTYPE svg PUBLIC "-//W3C//DTD SVG 1.1//EN"
 "http://www.w3.org/Graphics/SVG/1.1/DTD/svg11.dtd">
<!-- Generated by graphviz version 2.42.4 (0)
 -->
<!-- Title: src/io/BatchProcessor.cpp Pages: 1 -->
<svg width="1350pt" height="357pt"
 viewBox="0.00 0.00 1349.50 357.00" xmlns="http://www.w3.org/2000/svg" xmlns:xlink="http://www.w3.org/1999/xlink">
<g id="graph0" class="graph" transform="scale(1 1) rotate(0) translate(4 353)">
<title>src/io/BatchProcessor.cpp</title>
<!-- Node1 -->
<g id="Node000001" class="node">
<title>Node1</title>
<g id="a_Node000001"><a xlink:title=" ">
<polygon fill="#999999" stroke="#666666" points="617,-349 477,-349 477,-330 617,-330 617,-349"/>
<text text-anchor="middle" x="547" y="-337" font-family="Helvetica,sans-Serif" font-size="10.00">src/io/BatchProcessor.cpp</text>
</a>
</g>
</g>
<!-- Node2 -->
<g id="Node000002" class="node">
<title>Node2</title>
<g id="a_Node000002"><a xlink:title=" ">
<polygon fill="#e0e0e0" stroke="#999999" points="60,-294 0,-294 0,-275 60,-275 60,-294"/>
<text text-anchor="middle" x="30" y="-282" font-family="Helvetica,sans-Serif" font-size="10.00">iostream</text>
</a>
</g>
</g>
<!-- Node1&#45;&gt;Node2 -->
<g id="edge1_Node000001_Node000002" class="edge">
<title>Node1&#45;&gt;Node2</title>
<g id="a_edge1_Node000001_Node000002"><a xlink:title=" ">
<path fill="none" stroke="#63b8ff" d="M476.61,-334.64C385.19,-329.02 220.53,-316.86 70.48,-294.04"/>
<polygon fill="#63b8ff" stroke="#63b8ff" points="70.58,-290.52 60.17,-292.45 69.52,-297.44 70.58,-290.52"/>
</a>
</g>
</g>
<!-- Node3 -->
<g id="Node000003" class="node">
<title>Node3</title>
<g id="a_Node000003"><a xlink:title=" ">
<polygon fill="#e0e0e0" stroke="#999999" points="133.5,-294 78.5,-294 78.5,-275 133.5,-275 133.5,-294"/>
<text text-anchor="middle" x="106" y="-282" font-family="Helvetica,sans-Serif" font-size="10.00">fstream</text>
</a>
</g>
</g>
<!-- Node1&#45;&gt;Node3 -->
<g id="edge2_Node000001_Node000003" class="edge">
<title>Node1&#45;&gt;Node3</title>
<g id="a_edge2_Node000001_Node000003"><a xlink:title=" ">
<path fill="none" stroke="#63b8ff" d="M476.84,-332.57C396.95,-325.38 262.65,-311.96 148,-294 146.72,-293.8 145.42,-293.59 144.1,-293.36"/>
<polygon fill="#63b8ff" stroke="#63b8ff" points="144.42,-289.86 133.95,-291.52 143.16,-296.75 144.42,-289.86"/>
</a>
</g>
</g>
<!-- Node4 -->
<g id="Node000004" class="node">
<title>Node4</title>
<g id="a_Node000004"><a xlink:title=" ">
<polygon fill="#e0e0e0" stroke="#999999" points="284,-239 228,-239 228,-220 284,-220 284,-239"/>
<text text-anchor="middle" x="256" y="-227" font-family="Helvetica,sans-Serif" font-size="10.00">sstream</text>
</a>
</g>
</g>
<!-- Node1&#45;&gt;Node4 -->
<g id="edge3_Node000001_Node000004" class="edge">
<title>Node1&#45;&gt;Node4</title>
<g id="a_edge3_Node000001_Node000004"><a xlink:title=" ">
<path fill="none" stroke="#63b8ff" d="M523.68,-329.84C472.04,-310.68 347.96,-264.63 288.65,-242.62"/>
<polygon fill="#63b8ff" stroke="#63b8ff" points="289.62,-239.25 279.03,-239.05 287.19,-245.81 289.62,-239.25"/>
</a>
</g>
</g>
<!-- Node5 -->
<g id="Node000005" class="node">
<title>Node5</title>
<g id="a_Node000005"><a xlink:title=" ">
<polygon fill="#e0e0e0" stroke="#999999" points="796,-184 752,-184 752,-165 796,-165 796,-184"/>
<text text-anchor="middle" x="774" y="-172" font-family="Helvetica,sans-Serif" font-size="10.00">string</text>
</a>
</g>
</g>
<!-- Node1&#45;&gt;Node5 -->
<g id="edge4_Node000001_Node000005" class="edge">
<title>Node1&#45;&gt;Node5</title>
<g id="a_edge4_Node000001_Node000005"><a xlink:title=" ">
<path fill="none" stroke="#63b8ff" d="M572.24,-329.9C610.74,-315.8 684.84,-284.69 734,-239 747.84,-226.14 758.84,-207.47 765.77,-193.7"/>
<polygon fill="#63b8ff" stroke="#63b8ff" points="769.11,-194.84 770.26,-184.3 762.79,-191.82 769.11,-194.84"/>
</a>
</g>
</g>
<!-- Node6 -->
<g id="Node000006" class="node">
<title>Node6</title>
<g id="a_Node000006"><a xlink:title=" ">
<polygon fill="#e0e0e0" stroke="#999999" points="1026.5,-19 961.5,-19 961.5,0 1026.5,0 1026.5,-19"/>
<text text-anchor="middle" x="994" y="-7" font-family="Helvetica,sans-Serif" font-size="10.00">stdexcept</text>
</a>
</g>
</g>
<!-- Node1&#45;&gt;Node6 -->
<g id="edge5_Node000001_Node000006" class="edge">
<title>Node1&#45;&gt;Node6</title>
<g id="a_edge5_Node000001_Node000006"><a xlink:title=" ">
<path fill="none" stroke="#63b8ff" d="M617.05,-336.55C745.72,-332.37 1014.71,-320.67 1104,-294 1160.32,-277.18 1220,-289.27 1220,-230.5 1220,-230.5 1220,-230.5 1220,-118.5 1220,-38.21 1102.46,-17.56 1036.91,-12.28"/>
<polygon fill="#63b8ff" stroke="#63b8ff" points="1037.09,-8.79 1026.86,-11.56 1036.59,-15.77 1037.09,-8.79"/>
</a>
</g>
</g>
<!-- Node7 -->
<g id="Node000007" class="node">
<title>Node7</title>
<g id="a_Node000007"><a xlink:title=" ">
<polygon fill="#e0e0e0" stroke="#999999" points="527,-129 469,-129 469,-110 527,-110 527,-129"/>
<text text-anchor="middle" x="498" y="-117" font-family="Helvetica,sans-Serif" font-size="10.00">memory</text>
</a>
</g>
</g>
<!-- Node1&#45;&gt;Node7 -->
<g id="edge6_Node000001_Node000007" class="edge">
<title>Node1&#45;&gt;Node7</title>
<g id="a_edge6_Node000001_Node000007"><a xlink:title=" ">
<path fill="none" stroke="#63b8ff" d="M492.02,-329.99C407.23,-315.61 250.97,-283.62 219,-239 181.85,-187.15 246.23,-211.58 307,-184 324.19,-176.2 327.42,-171.89 345,-165 382.72,-150.22 427.35,-137.79 458.65,-129.86"/>
<polygon fill="#63b8ff" stroke="#63b8ff" points="459.86,-133.16 468.72,-127.34 458.17,-126.37 459.86,-133.16"/>
</a>
</g>
</g>
<!-- Node8 -->
<g id="Node000008" class="node">
<title>Node8</title>
<g id="a_Node000008"><a xlink:title=" ">
<polygon fill="#e0e0e0" stroke="#999999" points="1341.5,-294 1248.5,-294 1248.5,-275 1341.5,-275 1341.5,-294"/>
<text text-anchor="middle" x="1295" y="-282" font-family="Helvetica,sans-Serif" font-size="10.00">unordered_map</text>
</a>
</g>
</g>
<!-- Node1&#45;&gt;Node8 -->
<g id="edge7_Node000001_Node000008" class="edge">
<title>Node1&#45;&gt;Node8</title>
<g id="a_edge7_Node000001_Node000008"><a xlink:title=" ">
<path fill="none" stroke="#63b8ff" d="M617.36,-335.66C741.91,-330.24 1009.27,-316.9 1234,-294 1235.46,-293.85 1236.94,-293.69 1238.44,-293.53"/>
<polygon fill="#63b8ff" stroke="#63b8ff" points="1238.9,-297 1248.42,-292.35 1238.07,-290.05 1238.9,-297"/>
</a>
</g>
</g>
<!-- Node9 -->
<g id="Node000009" class="node">
<title>Node9</title>
<g id="a_Node000009"><a xlink:href="../../dd/d48/BatchProcessor_8hpp.html" target="_top" xlink:title=" ">
<polygon fill="white" stroke="#666666" points="609,-294 485,-294 485,-275 609,-275 609,-294"/>
<text text-anchor="middle" x="547" y="-282" font-family="Helvetica,sans-Serif" font-size="10.00">io/BatchProcessor.hpp</text>
</a>
</g>
</g>
<!-- Node1&#45;&gt;Node9 -->
<g id="edge8_Node000001_Node000009" class="edge">
<title>Node1&#45;&gt;Node9</title>
<g id="a_edge8_Node000001_Node000009"><a xlink:title=" ">
<path fill="none" stroke="#63b8ff" d="M547,-329.75C547,-322.8 547,-312.85 547,-304.13"/>
<polygon fill="#63b8ff" stroke="#63b8ff" points="550.5,-304.09 547,-294.09 543.5,-304.09 550.5,-304.09"/>
</a>
</g>
</g>
<!-- Node10 -->
<g id="Node000010" class="node">
<title>Node10</title>
<g id="a_Node000010"><a xlink:href="../../d9/dd4/IImageHandler_8hpp.html" target="_top" xlink:title=" ">
<polygon fill="white" stroke="#666666" points="945.5,-239 836.5,-239 836.5,-220 945.5,-220 945.5,-239"/>
<text text-anchor="middle" x="891" y="-227" font-family="Helvetica,sans-Serif" font-size="10.00">IImageHandler.hpp</text>
</a>
</g>
</g>
<!-- Node1&#45;&gt;Node10 -->
<g id="edge30_Node000001_Node000010" class="edge">
<title>Node1&#45;&gt;Node10</title>
<g id="a_edge30_Node000001_Node000010"><a xlink:title=" ">
<path fill="none" stroke="#63b8ff" d="M617.19,-331.84C665.3,-325.72 729.94,-314.38 784,-294 816.57,-281.72 850.54,-259.74 871.23,-245.13"/>
<polygon fill="#63b8ff" stroke="#63b8ff" points="873.42,-247.87 879.5,-239.19 869.34,-242.18 873.42,-247.87"/>
</a>
</g>
</g>
<!-- Node11 -->
<g id="Node000011" class="node">
<title>Node11</title>
<g id="a_Node000011"><a xlink:href="../../d8/dde/Image_8hpp.html" target="_top" xlink:title=" ">
<polygon fill="white" stroke="#666666" points="838,-74 740,-74 740,-55 838,-55 838,-74"/>
<text text-anchor="middle" x="789" y="-62" font-family="Helvetica,sans-Serif" font-size="10.00">types/Image.hpp</text>
</a>
</g>
</g>
<!-- Node1&#45;&gt;Node11 -->
<g id="edge32_Node000001_Node000011" class="edge">
<title>Node1&#45;&gt;Node11</title>
<g id="a_edge32_Node000001_Node000011"><a xlink:title=" ">
<path fill="none" stroke="#63b8ff" d="M617.16,-337.92C710.23,-335.79 879.05,-327.17 1019,-294 1094.65,-276.07 1182,-308.25 1182,-230.5 1182,-230.5 1182,-230.5 1182,-173.5 1182,-105.21 958.57,-78.5 848.65,-69.49"/>
<polygon fill="#63b8ff" stroke="#63b8ff" points="848.62,-65.98 838.38,-68.68 848.07,-72.96 848.62,-65.98"/>
</a>
</g>
</g>
<!-- Node14 -->
<g id="Node000014" class="node">
<title>Node14</title>
<g id="a_Node000014"><a xlink:href="../../d1/d64/FilterPipeline_8hpp.html" target="_top" xlink:title=" ">
<polygon fill="white" stroke="#666666" points="298,-184 164,-184 164,-165 298,-165 298,-184"/>
<text text-anchor="middle" x="231" y="-172" font-family="Helvetica,sans-Serif" font-size="10.00">filt_op/FilterPipeline.hpp</text>
</a>
</g>
</g>
<!-- Node1&#45;&gt;Node14 -->
<g id="edge31_Node000001_Node000014" class="edge">
<title>Node1&#45;&gt;Node14</title>
<g id="a_edge31_Node000001_Node000014"><a xlink:title=" ">
<path fill="none" stroke="#63b8ff" d="M476.66,-334.77C377.08,-328.75 204.9,-315.38 186,-294 164.21,-269.36 173.33,-250.35 186,-220 190.86,-208.36 200.42,-198.2 209.48,-190.55"/>
<polygon fill="#63b8ff" stroke="#63b8ff" points="211.8,-193.17 217.51,-184.25 207.48,-187.67 211.8,-193.17"/>
</a>
</g>
</g>
<!-- Node16 -->
<g id="Node000016" class="node">
<title>Node16</title>
<g id="a_Node000016"><a xlink:href="../../d9/d72/FilterFactory_8hpp.html" target="_top" xlink:title=" ">
<polygon fill="white" stroke="#666666" points="469.5,-239 340.5,-239 340.5,-220 469.5,-220 469.5,-239"/>
<text text-anchor="middle" x="405" y="-227" font-family="Helvetica,sans-Serif" font-size="10.00">filt_op/FilterFactory.hpp</text>
</a>
</g>
</g>
<!-- Node1&#45;&gt;Node16 -->
<g id="edge33_Node000001_Node000016" class="edge">
<title>Node1&#45;&gt;Node16</title>
<g id="a_edge33_Node000001_Node000016"><a xlink:title=" ">
<path fill="none" stroke="#63b8ff" d="M531.55,-329.84C516.82,-321.35 494.25,-307.73 476,-294 456.11,-279.04 435.08,-259.73 421.11,-246.35"/>
<polygon fill="#63b8ff" stroke="#63b8ff" points="423.38,-243.68 413.77,-239.24 418.51,-248.71 423.38,-243.68"/>
</a>
</g>
</g>
<!-- Node19 -->
<g id="Node000019" class="node">
<title>Node19</title>
<g id="a_Node000019"><a xlink:href="../../d7/def/BMPImageHandler_8hpp.html" target="_top" xlink:title=" ">
<polygon fill="white" stroke="#666666" points="1010,-294 870,-294 870,-275 1010,-275 1010,-294"/>
<text text-anchor="middle" x="940" y="-282" font-family="Helvetica,sans-Serif" font-size="10.00">io/BMPImageHandler.hpp</text>
</a>
</g>
</g>
<!-- Node1&#45;&gt;Node19 -->
<g id="edge34_Node000001_Node000019" class="edge">
<title>Node1&#45;&gt;Node19</title>
<g id="a_edge34_Node000001_Node000019"><a xlink:title=" ">
<path fill="none" stroke="#63b8ff" d="M610.14,-329.98C680.08,-320.55 792.7,-305.36 866.54,-295.41"/>
<polygon fill="#63b8ff" stroke="#63b8ff" points="867.25,-298.84 876.69,-294.04 866.31,-291.91 867.25,-298.84"/>
</a>
</g>
</g>
<!-- Node9&#45;&gt;Node4 -->
<g id="edge11_Node000009_Node000004" class="edge">
<title>Node9&#45;&gt;Node4</title>
<g id="a_edge11_Node000009_Node000004"><a xlink:title=" ">
<path fill="none" stroke="#63b8ff" d="M497.33,-274.97C447.03,-266.25 367.02,-252.15 298,-239 296.9,-238.79 295.79,-238.58 294.67,-238.36"/>
<polygon fill="#63b8ff" stroke="#63b8ff" points="294.94,-234.85 284.45,-236.35 293.59,-241.71 294.94,-234.85"/>
</a>
</g>
</g>
<!-- Node9&#45;&gt;Node5 -->
<g id="edge9_Node000009_Node000005" class="edge">
<title>Node9&#45;&gt;Node5</title>
<g id="a_edge9_Node000009_Node000005"><a xlink:title=" ">
<path fill="none" stroke="#63b8ff" d="M603.69,-274.95C635.81,-268.41 675.87,-257.3 708,-239 729.05,-227.01 748.43,-206.79 760.66,-192.39"/>
<polygon fill="#63b8ff" stroke="#63b8ff" points="763.66,-194.25 767.31,-184.31 758.25,-189.81 763.66,-194.25"/>
</a>
</g>
</g>
<!-- Node9&#45;&gt;Node7 -->
<g id="edge10_Node000009_Node000007" class="edge">
<title>Node9&#45;&gt;Node7</title>
<g id="a_edge10_Node000009_Node000007"><a xlink:title=" ">
<path fill="none" stroke="#63b8ff" d="M539.55,-274.95C532.57,-266.43 522.41,-252.69 517,-239 503.78,-205.52 499.75,-163.27 498.53,-139.33"/>
<polygon fill="#63b8ff" stroke="#63b8ff" points="502.02,-139.02 498.12,-129.16 495.02,-139.3 502.02,-139.02"/>
</a>
</g>
</g>
<!-- Node9&#45;&gt;Node10 -->
<g id="edge12_Node000009_Node000010" class="edge">
<title>Node9&#45;&gt;Node10</title>
<g id="a_edge12_Node000009_Node000010"><a xlink:title=" ">
<path fill="none" stroke="#63b8ff" d="M602.27,-274.98C663.38,-265.57 761.73,-250.42 826.36,-240.46"/>
<polygon fill="#63b8ff" stroke="#63b8ff" points="827.09,-243.89 836.44,-238.91 826.02,-236.97 827.09,-243.89"/>
</a>
</g>
</g>
<!-- Node9&#45;&gt;Node11 -->
<g id="edge25_Node000009_Node000011" class="edge">
<title>Node9&#45;&gt;Node11</title>
<g id="a_edge25_Node000009_Node000011"><a xlink:title=" ">
<path fill="none" stroke="#63b8ff" d="M593.8,-274.98C619.75,-268.46 651.43,-257.37 675,-239 730.13,-196.03 767.16,-118.59 781.87,-83.57"/>
<polygon fill="#63b8ff" stroke="#63b8ff" points="785.18,-84.73 785.71,-74.15 778.7,-82.09 785.18,-84.73"/>
</a>
</g>
</g>
<!-- Node9&#45;&gt;Node14 -->
<g id="edge19_Node000009_Node000014" class="edge">
<title>Node9&#45;&gt;Node14</title>
<g id="a_edge19_Node000009_Node000014"><a xlink:title=" ">
<path fill="none" stroke="#63b8ff" d="M484.75,-276.75C440.63,-270.53 380.69,-259.1 331,-239 300.42,-226.63 268.89,-204.82 249.62,-190.27"/>
<polygon fill="#63b8ff" stroke="#63b8ff" points="251.73,-187.48 241.67,-184.15 247.46,-193.02 251.73,-187.48"/>
</a>
</g>
</g>
<!-- Node9&#45;&gt;Node16 -->
<g id="edge26_Node000009_Node000016" class="edge">
<title>Node9&#45;&gt;Node16</title>
<g id="a_edge26_Node000009_Node000016"><a xlink:title=" ">
<path fill="none" stroke="#63b8ff" d="M524.19,-274.98C500.83,-266.27 464.3,-252.63 437.83,-242.75"/>
<polygon fill="#63b8ff" stroke="#63b8ff" points="438.82,-239.39 428.23,-239.17 436.37,-245.95 438.82,-239.39"/>
</a>
</g>
</g>
<!-- Node18 -->
<g id="Node000018" class="node">
<title>Node18</title>
<g id="a_Node000018"><a xlink:href="../../d2/d11/CommandType_8hpp.html" target="_top" xlink:title=" ">
<polygon fill="white" stroke="#666666" points="666,-239 526,-239 526,-220 666,-220 666,-239"/>
<text text-anchor="middle" x="596" y="-227" font-family="Helvetica,sans-Serif" font-size="10.00">types/CommandType.hpp</text>
</a>
</g>
</g>
<!-- Node9&#45;&gt;Node18 -->
<g id="edge29_Node000009_Node000018" class="edge">
<title>Node9&#45;&gt;Node18</title>
<g id="a_edge29_Node000009_Node000018"><a xlink:title=" ">
<path fill="none" stroke="#63b8ff" d="M555.09,-274.75C562.16,-267.11 572.59,-255.82 581.15,-246.56"/>
<polygon fill="#63b8ff" stroke="#63b8ff" points="583.84,-248.81 588.06,-239.09 578.7,-244.06 583.84,-248.81"/>
</a>
</g>
</g>
<!-- Node10&#45;&gt;Node5 -->
<g id="edge17_Node000010_Node000005" class="edge">
<title>Node10&#45;&gt;Node5</title>
<g id="a_edge17_Node000010_Node000005"><a xlink:title=" ">
<path fill="none" stroke="#63b8ff" d="M872.2,-219.98C853.38,-211.46 824.18,-198.23 802.5,-188.41"/>
<polygon fill="#63b8ff" stroke="#63b8ff" points="803.69,-185.11 793.14,-184.17 800.8,-191.48 803.69,-185.11"/>
</a>
</g>
</g>
<!-- Node10&#45;&gt;Node7 -->
<g id="edge18_Node000010_Node000007" class="edge">
<title>Node10&#45;&gt;Node7</title>
<g id="a_edge18_Node000010_Node000007"><a xlink:title=" ">
<path fill="none" stroke="#63b8ff" d="M882.39,-219.8C867.86,-205.7 836.93,-178.12 805,-165 714.31,-127.72 597.33,-120.96 537.33,-120.16"/>
<polygon fill="#63b8ff" stroke="#63b8ff" points="537.19,-116.66 527.16,-120.08 537.13,-123.66 537.19,-116.66"/>
</a>
</g>
</g>
<!-- Node10&#45;&gt;Node11 -->
<g id="edge13_Node000010_Node000011" class="edge">
<title>Node10&#45;&gt;Node11</title>
<g id="a_edge13_Node000010_Node000011"><a xlink:title=" ">
<path fill="none" stroke="#63b8ff" d="M885.52,-219.74C869.33,-193.87 821.53,-117.48 799.88,-82.88"/>
<polygon fill="#63b8ff" stroke="#63b8ff" points="802.78,-80.93 794.51,-74.31 796.85,-84.64 802.78,-80.93"/>
</a>
</g>
</g>
<!-- Node11&#45;&gt;Node6 -->
<g id="edge15_Node000011_Node000006" class="edge">
<title>Node11&#45;&gt;Node6</title>
<g id="a_edge15_Node000011_Node000006"><a xlink:title=" ">
<path fill="none" stroke="#63b8ff" d="M821.94,-54.98C857.16,-45.88 913.13,-31.41 951.61,-21.46"/>
<polygon fill="#63b8ff" stroke="#63b8ff" points="952.68,-24.8 961.48,-18.91 950.93,-18.02 952.68,-24.8"/>
</a>
</g>
</g>
<!-- Node12 -->
<g id="Node000012" class="node">
<title>Node12</title>
<g id="a_Node000012"><a xlink:title=" ">
<polygon fill="#e0e0e0" stroke="#999999" points="474.5,-19 427.5,-19 427.5,0 474.5,0 474.5,-19"/>
<text text-anchor="middle" x="451" y="-7" font-family="Helvetica,sans-Serif" font-size="10.00">vector</text>
</a>
</g>
</g>
<!-- Node11&#45;&gt;Node12 -->
<g id="edge14_Node000011_Node000012" class="edge">
<title>Node11&#45;&gt;Node12</title>
<g id="a_edge14_Node000011_Node000012"><a xlink:title=" ">
<path fill="none" stroke="#63b8ff" d="M739.85,-55.79C670.24,-44.88 544.75,-25.2 484.74,-15.79"/>
<polygon fill="#63b8ff" stroke="#63b8ff" points="485.09,-12.3 474.67,-14.21 484,-19.22 485.09,-12.3"/>
</a>
</g>
</g>
<!-- Node13 -->
<g id="Node000013" class="node">
<title>Node13</title>
<g id="a_Node000013"><a xlink:href="../../d4/d0a/Pixel_8hpp.html" target="_top" xlink:title=" ">
<polygon fill="white" stroke="#666666" points="819.5,-19 758.5,-19 758.5,0 819.5,0 819.5,-19"/>
<text text-anchor="middle" x="789" y="-7" font-family="Helvetica,sans-Serif" font-size="10.00">Pixel.hpp</text>
</a>
</g>
</g>
<!-- Node11&#45;&gt;Node13 -->
<g id="edge16_Node000011_Node000013" class="edge">
<title>Node11&#45;&gt;Node13</title>
<g id="a_edge16_Node000011_Node000013"><a xlink:title=" ">
<path fill="none" stroke="#63b8ff" d="M789,-54.75C789,-47.8 789,-37.85 789,-29.13"/>
<polygon fill="#63b8ff" stroke="#63b8ff" points="792.5,-29.09 789,-19.09 785.5,-29.09 792.5,-29.09"/>
</a>
</g>
</g>
<!-- Node14&#45;&gt;Node7 -->
<g id="edge21_Node000014_Node000007" class="edge">
<title>Node14&#45;&gt;Node7</title>
<g id="a_edge21_Node000014_Node000007"><a xlink:title=" ">
<path fill="none" stroke="#63b8ff" d="M273.9,-164.98C324.96,-154.85 409.49,-138.07 458.84,-128.27"/>
<polygon fill="#63b8ff" stroke="#63b8ff" points="459.69,-131.67 468.82,-126.29 458.33,-124.81 459.69,-131.67"/>
</a>
</g>
</g>
<!-- Node14&#45;&gt;Node11 -->
<g id="edge22_Node000014_Node000011" class="edge">
<title>Node14&#45;&gt;Node11</title>
<g id="a_edge22_Node000014_Node000011"><a xlink:title=" ">
<path fill="none" stroke="#63b8ff" d="M265.99,-164.94C300.47,-156.37 354.58,-142.54 401,-129 427.45,-121.29 433.13,-116.09 460,-110 552.97,-88.92 663.15,-76.5 729.48,-70.35"/>
<polygon fill="#63b8ff" stroke="#63b8ff" points="730.1,-73.81 739.74,-69.42 729.47,-66.84 730.1,-73.81"/>
</a>
</g>
</g>
<!-- Node14&#45;&gt;Node12 -->
<g id="edge20_Node000014_Node000012" class="edge">
<title>Node14&#45;&gt;Node12</title>
<g id="a_edge20_Node000014_Node000012"><a xlink:title=" ">
<path fill="none" stroke="#63b8ff" d="M236.89,-164.92C246.09,-151.94 264.91,-127.03 285,-110 329.17,-72.57 389.08,-40.45 423.53,-23.45"/>
<polygon fill="#63b8ff" stroke="#63b8ff" points="425.08,-26.59 432.54,-19.06 422.02,-20.29 425.08,-26.59"/>
</a>
</g>
</g>
<!-- Node15 -->
<g id="Node000015" class="node">
<title>Node15</title>
<g id="a_Node000015"><a xlink:href="../../d0/da6/IFilter_8hpp.html" target="_top" xlink:title=" ">
<polygon fill="white" stroke="#666666" points="392,-129 294,-129 294,-110 392,-110 392,-129"/>
<text text-anchor="middle" x="343" y="-117" font-family="Helvetica,sans-Serif" font-size="10.00">filt_op/IFilter.hpp</text>
</a>
</g>
</g>
<!-- Node14&#45;&gt;Node15 -->
<g id="edge23_Node000014_Node000015" class="edge">
<title>Node14&#45;&gt;Node15</title>
<g id="a_edge23_Node000014_Node000015"><a xlink:title=" ">
<path fill="none" stroke="#63b8ff" d="M248.99,-164.98C266.93,-156.5 294.72,-143.35 315.43,-133.54"/>
<polygon fill="#63b8ff" stroke="#63b8ff" points="317.14,-136.61 324.68,-129.17 314.14,-130.28 317.14,-136.61"/>
</a>
</g>
</g>
<!-- Node15&#45;&gt;Node11 -->
<g id="edge24_Node000015_Node000011" class="edge">
<title>Node15&#45;&gt;Node11</title>
<g id="a_edge24_Node000015_Node000011"><a xlink:title=" ">
<path fill="none" stroke="#63b8ff" d="M392.01,-112.68C474.5,-102.87 640.79,-83.11 729.72,-72.54"/>
<polygon fill="#63b8ff" stroke="#63b8ff" points="730.4,-75.99 739.91,-71.33 729.57,-69.04 730.4,-75.99"/>
</a>
</g>
</g>
<!-- Node16&#45;&gt;Node14 -->
<g id="edge27_Node000016_Node000014" class="edge">
<title>Node16&#45;&gt;Node14</title>
<g id="a_edge27_Node000016_Node000014"><a xlink:title=" ">
<path fill="none" stroke="#63b8ff" d="M377.04,-219.98C347.7,-211.05 301.4,-196.94 268.81,-187.02"/>
<polygon fill="#63b8ff" stroke="#63b8ff" points="269.76,-183.65 259.18,-184.08 267.72,-190.34 269.76,-183.65"/>
</a>
</g>
</g>
<!-- Node17 -->
<g id="Node000017" class="node">
<title>Node17</title>
<g id="a_Node000017"><a xlink:href="../../d6/d0d/FilterSpec_8hpp.html" target="_top" xlink:title=" ">
<polygon fill="white" stroke="#666666" points="470,-184 354,-184 354,-165 470,-165 470,-184"/>
<text text-anchor="middle" x="412" y="-172" font-family="Helvetica,sans-Serif" font-size="10.00">types/FilterSpec.hpp</text>
</a>
</g>
</g>
<!-- Node16&#45;&gt;Node17 -->
<g id="edge28_Node000016_Node000017" class="edge">
<title>Node16&#45;&gt;Node17</title>
<g id="a_edge28_Node000016_Node000017"><a xlink:title=" ">
<path fill="none" stroke="#63b8ff" d="M406.16,-219.75C407.07,-212.8 408.39,-202.85 409.54,-194.13"/>
<polygon fill="#63b8ff" stroke="#63b8ff" points="413.03,-194.46 410.87,-184.09 406.09,-193.54 413.03,-194.46"/>
</a>
</g>
</g>
<!-- Node19&#45;&gt;Node5 -->
<g id="edge35_Node000019_Node000005" class="edge">
<title>Node19&#45;&gt;Node5</title>
<g id="a_edge35_Node000019_Node000005"><a xlink:title=" ">
<path fill="none" stroke="#63b8ff" d="M906.51,-274.88C883.07,-267.78 851.8,-256.07 828,-239 810.25,-226.27 794.66,-206.48 784.85,-192.37"/>
<polygon fill="#63b8ff" stroke="#63b8ff" points="787.75,-190.42 779.28,-184.06 781.94,-194.32 787.75,-190.42"/>
</a>
</g>
</g>
<!-- Node19&#45;&gt;Node7 -->
<g id="edge36_Node000019_Node000007" class="edge">
<title>Node19&#45;&gt;Node7</title>
<g id="a_edge36_Node000019_Node000007"><a xlink:title=" ">
<path fill="none" stroke="#63b8ff" d="M945.83,-275C953.86,-262.13 966.13,-237.35 955,-220 923.32,-170.62 891.38,-181.24 835,-165 730.25,-134.82 601.21,-125.02 537.47,-121.91"/>
<polygon fill="#63b8ff" stroke="#63b8ff" points="537.6,-118.41 527.45,-121.45 537.28,-125.4 537.6,-118.41"/>
</a>
</g>
</g>
<!-- Node19&#45;&gt;Node10 -->
<g id="edge37_Node000019_Node000010" class="edge">
<title>Node19&#45;&gt;Node10</title>
<g id="a_edge37_Node000019_Node000010"><a xlink:title=" ">
<path fill="none" stroke="#63b8ff" d="M931.91,-274.75C924.84,-267.11 914.41,-255.82 905.85,-246.56"/>
<polygon fill="#63b8ff" stroke="#63b8ff" points="908.3,-244.06 898.94,-239.09 903.16,-248.81 908.3,-244.06"/>
</a>
</g>
</g>
<!-- Node19&#45;&gt;Node11 -->
<g id="edge38_Node000019_Node000011" class="edge">
<title>Node19&#45;&gt;Node11</title>
<g id="a_edge38_Node000019_Node000011"><a xlink:title=" ">
<path fill="none" stroke="#63b8ff" d="M1010.22,-275.63C1056.32,-268.85 1110.64,-257.23 1125,-239 1130.23,-232.37 1127.2,-228.15 1125,-220 1094.44,-106.71 936.26,-76.43 848.26,-68.38"/>
<polygon fill="#63b8ff" stroke="#63b8ff" points="848.41,-64.88 838.15,-67.53 847.82,-71.86 848.41,-64.88"/>
</a>
</g>
</g>
<!-- Node20 -->
<g id="Node000020" class="node">
<title>Node20</title>
<g id="a_Node000020"><a xlink:href="../../d6/dd6/microsoft_8hpp.html" target="_top" xlink:title=" ">
<polygon fill="white" stroke="#666666" points="1115.5,-239 1002.5,-239 1002.5,-220 1115.5,-220 1115.5,-239"/>
<text text-anchor="middle" x="1059" y="-227" font-family="Helvetica,sans-Serif" font-size="10.00">types/microsoft.hpp</text>
</a>
</g>
</g>
<!-- Node19&#45;&gt;Node20 -->
<g id="edge39_Node000019_Node000020" class="edge">
<title>Node19&#45;&gt;Node20</title>
<g id="a_edge39_Node000019_Node000020"><a xlink:title=" ">
<path fill="none" stroke="#63b8ff" d="M959.12,-274.98C978.35,-266.42 1008.23,-253.11 1030.31,-243.28"/>
<polygon fill="#63b8ff" stroke="#63b8ff" points="1031.82,-246.44 1039.53,-239.17 1028.97,-240.04 1031.82,-246.44"/>
</a>
</g>
</g>
<!-- Node21 -->
<g id="Node000021" class="node">
<title>Node21</title>
<g id="a_Node000021"><a xlink:title=" ">
<polygon fill="#e0e0e0" stroke="#999999" points="1084,-184 1034,-184 1034,-165 1084,-165 1084,-184"/>
<text text-anchor="middle" x="1059" y="-172" font-family="Helvetica,sans-Serif" font-size="10.00">cstdint</text>
</a>
</g>
</g>
<!-- Node20&#45;&gt;Node21 -->
<g id="edge40_Node000020_Node000021" class="edge">
<title>Node20&#45;&gt;Node21</title>
<g id="a_edge40_Node000020_Node000021"><a xlink:title=" ">
<path fill="none" stroke="#63b8ff" d="M1059,-219.75C1059,-212.8 1059,-202.85 1059,-194.13"/>
<polygon fill="#63b8ff" stroke="#63b8ff" points="1062.5,-194.09 1059,-184.09 1055.5,-194.09 1062.5,-194.09"/>
</a>
</g>
</g>
</g>
</svg>
