<?xml version="1.0" encoding="UTF-8" standalone="no"?>
<!DOCTYPE svg PUBLIC "-//W3C//DTD SVG 1.1//EN"
 "http://www.w3.org/Graphics/SVG/1.1/DTD/svg11.dtd">
<!-- Generated by graphviz version 2.42.4 (0)
 -->
<!-- Title: FilterSpec::clear Pages: 1 -->
<svg width="568pt" height="64pt"
 viewBox="0.00 0.00 568.00 64.00" xmlns="http://www.w3.org/2000/svg" xmlns:xlink="http://www.w3.org/1999/xlink">
<g id="graph0" class="graph" transform="scale(1 1) rotate(0) translate(4 60)">
<title>FilterSpec::clear</title>
<!-- Node1 -->
<g id="Node000001" class="node">
<title>Node1</title>
<g id="a_Node000001"><a xlink:title=" ">
<polygon fill="#999999" stroke="#666666" points="560,-37 465,-37 465,-18 560,-18 560,-37"/>
<text text-anchor="middle" x="512.5" y="-25" font-family="Helvetica,sans-Serif" font-size="10.00">FilterSpec::clear</text>
</a>
</g>
</g>
<!-- Node2 -->
<g id="Node000002" class="node">
<title>Node2</title>
<g id="a_Node000002"><a xlink:href="../../de/d11/classFilterSpec.html#a8f6dcd5ee7001ccaa32f621f58f7e3f7" target="_top" xlink:title=" ">
<polygon fill="white" stroke="#666666" points="398,-56 279,-56 279,-37 398,-37 398,-56"/>
<text text-anchor="middle" x="338.5" y="-44" font-family="Helvetica,sans-Serif" font-size="10.00">FilterSpec::FilterSpec</text>
</a>
</g>
</g>
<!-- Node1&#45;&gt;Node2 -->
<g id="edge1_Node000001_Node000002" class="edge">
<title>Node1&#45;&gt;Node2</title>
<g id="a_edge1_Node000001_Node000002"><a xlink:title=" ">
<path fill="none" stroke="#63b8ff" d="M454.79,-33.76C436.6,-35.77 416.42,-38 398.09,-40.03"/>
<polygon fill="#63b8ff" stroke="#63b8ff" points="455.4,-37.22 464.95,-32.64 454.63,-30.26 455.4,-37.22"/>
</a>
</g>
</g>
<!-- Node3 -->
<g id="Node000003" class="node">
<title>Node3</title>
<g id="a_Node000003"><a xlink:href="../../d7/d6a/classBatchProcessor.html#a6e71b8448e65399c6c127baa9a26083b" target="_top" xlink:title=" ">
<polygon fill="white" stroke="#666666" points="429,-19 248,-19 248,0 429,0 429,-19"/>
<text text-anchor="middle" x="338.5" y="-7" font-family="Helvetica,sans-Serif" font-size="10.00">BatchProcessor::handleCommand</text>
</a>
</g>
</g>
<!-- Node1&#45;&gt;Node3 -->
<g id="edge2_Node000001_Node000003" class="edge">
<title>Node1&#45;&gt;Node3</title>
<g id="a_edge2_Node000001_Node000003"><a xlink:title=" ">
<path fill="none" stroke="#63b8ff" d="M454.76,-21.56C446.52,-20.7 437.87,-19.79 429.17,-18.88"/>
<polygon fill="#63b8ff" stroke="#63b8ff" points="454.64,-25.07 464.95,-22.63 455.37,-18.11 454.64,-25.07"/>
</a>
</g>
</g>
<!-- Node4 -->
<g id="Node000004" class="node">
<title>Node4</title>
<g id="a_Node000004"><a xlink:href="../../d7/d6a/classBatchProcessor.html#a822b1f9c8ec15c5b6efe3af915d703f4" target="_top" xlink:title=" ">
<polygon fill="white" stroke="#666666" points="212,-19 77,-19 77,0 212,0 212,-19"/>
<text text-anchor="middle" x="144.5" y="-7" font-family="Helvetica,sans-Serif" font-size="10.00">BatchProcessor::process</text>
</a>
</g>
</g>
<!-- Node3&#45;&gt;Node4 -->
<g id="edge3_Node000003_Node000004" class="edge">
<title>Node3&#45;&gt;Node4</title>
<g id="a_edge3_Node000003_Node000004"><a xlink:title=" ">
<path fill="none" stroke="#63b8ff" d="M237.8,-9.5C229.15,-9.5 220.53,-9.5 212.24,-9.5"/>
<polygon fill="#63b8ff" stroke="#63b8ff" points="237.96,-13 247.96,-9.5 237.96,-6 237.96,-13"/>
</a>
</g>
</g>
<!-- Node5 -->
<g id="Node000005" class="node">
<title>Node5</title>
<g id="a_Node000005"><a xlink:href="../../df/d0a/main_8cpp.html#a0ddf1224851353fc92bfbff6f499fa97" target="_top" xlink:title=" ">
<polygon fill="white" stroke="#666666" points="41,-19 0,-19 0,0 41,0 41,-19"/>
<text text-anchor="middle" x="20.5" y="-7" font-family="Helvetica,sans-Serif" font-size="10.00">main</text>
</a>
</g>
</g>
<!-- Node4&#45;&gt;Node5 -->
<g id="edge4_Node000004_Node000005" class="edge">
<title>Node4&#45;&gt;Node5</title>
<g id="a_edge4_Node000004_Node000005"><a xlink:title=" ">
<path fill="none" stroke="#63b8ff" d="M66.53,-9.5C57.24,-9.5 48.47,-9.5 41.19,-9.5"/>
<polygon fill="#63b8ff" stroke="#63b8ff" points="66.79,-13 76.79,-9.5 66.79,-6 66.79,-13"/>
</a>
</g>
</g>
</g>
</svg>
