<?xml version="1.0" encoding="UTF-8" standalone="no"?>
<!DOCTYPE svg PUBLIC "-//W3C//DTD SVG 1.1//EN"
 "http://www.w3.org/Graphics/SVG/1.1/DTD/svg11.dtd">
<!-- Generated by graphviz version 2.42.4 (0)
 -->
<!-- Title: include Pages: 1 -->
<svg width="202pt" height="169pt"
 viewBox="0.00 0.00 202.00 169.00" xmlns="http://www.w3.org/2000/svg" xmlns:xlink="http://www.w3.org/1999/xlink">
<g id="graph0" class="graph" transform="scale(1 1) rotate(0) translate(4 165)">
<title>include</title>
<g id="clust1" class="cluster">
<title>clusterdir_d44c64559bbebec7f509842c48db8b23</title>
<g id="a_clust1"><a xlink:href="dir_d44c64559bbebec7f509842c48db8b23.html" target="_top">
<polygon fill="#edf0f7" stroke="#404040" stroke-width="2" points="8,-8 8,-153 186,-153 186,-8 8,-8"/>
</a>
</g>
</g>
<!-- dir_d44c64559bbebec7f509842c48db8b23 -->
<g id="node1" class="node">
<title>dir_d44c64559bbebec7f509842c48db8b23</title>
<text text-anchor="middle" x="152" y="-133" font-family="Helvetica,sans-Serif" font-size="10.00">include</text>
</g>
<!-- dir_29c947be06403530a0ee60243d87d320 -->
<g id="node2" class="node">
<title>dir_29c947be06403530a0ee60243d87d320</title>
<g id="a_node2"><a xlink:href="dir_29c947be06403530a0ee60243d87d320.html" target="_top" xlink:title="filt_op">
<polygon fill="#a2b4d6" stroke="#404040" points="90.5,-90 43.5,-90 43.5,-71 90.5,-71 90.5,-90"/>
<text text-anchor="middle" x="67" y="-78" font-family="Helvetica,sans-Serif" font-size="10.00">filt_op</text>
</a>
</g>
</g>
<!-- dir_0ad255a918b7fba820a1ddafed6fa637 -->
<g id="node5" class="node">
<title>dir_0ad255a918b7fba820a1ddafed6fa637</title>
<g id="a_node5"><a xlink:href="dir_0ad255a918b7fba820a1ddafed6fa637.html" target="_top" xlink:title="types">
<polygon fill="#a2b4d6" stroke="#404040" points="89,-35 45,-35 45,-16 89,-16 89,-35"/>
<text text-anchor="middle" x="67" y="-23" font-family="Helvetica,sans-Serif" font-size="10.00">types</text>
</a>
</g>
</g>
<!-- dir_29c947be06403530a0ee60243d87d320&#45;&gt;dir_0ad255a918b7fba820a1ddafed6fa637 -->
<g id="edge1" class="edge">
<title>dir_29c947be06403530a0ee60243d87d320&#45;&gt;dir_0ad255a918b7fba820a1ddafed6fa637</title>
<g id="a_edge1"><a xlink:href="dir_000000_000008.html" target="_top">
<path fill="none" stroke="#63b8ff" d="M67,-70.75C67,-63.8 67,-53.85 67,-45.13"/>
<polygon fill="#63b8ff" stroke="#63b8ff" points="70.5,-45.09 67,-35.09 63.5,-45.09 70.5,-45.09"/>
</a>
</g>
<g id="a_edge1&#45;headlabel"><a xlink:href="dir_000000_000008.html" target="_top" xlink:title="4">
<text text-anchor="middle" x="73.34" y="-46.18" font-family="Helvetica,sans-Serif" font-size="10.00" fill="#63b8ff">4</text>
</a>
</g>
</g>
<!-- dir_7f243627a819ed5e8a04ae7ddac792c8 -->
<g id="node3" class="node">
<title>dir_7f243627a819ed5e8a04ae7ddac792c8</title>
<g id="a_node3"><a xlink:href="dir_7f243627a819ed5e8a04ae7ddac792c8.html" target="_top" xlink:title="filters">
<polygon fill="#a2b4d6" stroke="#404040" points="108,-145 64,-145 64,-126 108,-126 108,-145"/>
<text text-anchor="middle" x="86" y="-133" font-family="Helvetica,sans-Serif" font-size="10.00">filters</text>
</a>
</g>
</g>
<!-- dir_7f243627a819ed5e8a04ae7ddac792c8&#45;&gt;dir_29c947be06403530a0ee60243d87d320 -->
<g id="edge3" class="edge">
<title>dir_7f243627a819ed5e8a04ae7ddac792c8&#45;&gt;dir_29c947be06403530a0ee60243d87d320</title>
<g id="a_edge3"><a xlink:href="dir_000002_000000.html" target="_top">
<path fill="none" stroke="#63b8ff" d="M82.86,-125.75C80.32,-118.65 76.64,-108.4 73.47,-99.56"/>
<polygon fill="#63b8ff" stroke="#63b8ff" points="76.75,-98.32 70.08,-90.09 70.16,-100.68 76.75,-98.32"/>
</a>
</g>
<g id="a_edge3&#45;headlabel"><a xlink:href="dir_000002_000000.html" target="_top" xlink:title="4">
<text text-anchor="middle" x="80.63" y="-98.25" font-family="Helvetica,sans-Serif" font-size="10.00" fill="#63b8ff">4</text>
</a>
</g>
</g>
<!-- dir_7f243627a819ed5e8a04ae7ddac792c8&#45;&gt;dir_0ad255a918b7fba820a1ddafed6fa637 -->
<g id="edge2" class="edge">
<title>dir_7f243627a819ed5e8a04ae7ddac792c8&#45;&gt;dir_0ad255a918b7fba820a1ddafed6fa637</title>
<g id="a_edge2"><a xlink:href="dir_000002_000008.html" target="_top">
<path fill="none" stroke="#63b8ff" d="M90.86,-125.72C97.07,-113.33 106.3,-90.08 100,-71 96.54,-60.54 89.57,-50.53 82.92,-42.66"/>
<polygon fill="#63b8ff" stroke="#63b8ff" points="85.33,-40.1 76.02,-35.04 80.14,-44.8 85.33,-40.1"/>
</a>
</g>
<g id="a_edge2&#45;headlabel"><a xlink:href="dir_000002_000008.html" target="_top" xlink:title="5">
<text text-anchor="middle" x="89.85" y="-38.36" font-family="Helvetica,sans-Serif" font-size="10.00" fill="#63b8ff">5</text>
</a>
</g>
</g>
<!-- dir_a00b633439466cbb1729245c7f66f564 -->
<g id="node4" class="node">
<title>dir_a00b633439466cbb1729245c7f66f564</title>
<g id="a_node4"><a xlink:href="dir_a00b633439466cbb1729245c7f66f564.html" target="_top" xlink:title="io">
<polygon fill="#a2b4d6" stroke="#404040" points="45.5,-145 16.5,-145 16.5,-126 45.5,-126 45.5,-145"/>
<text text-anchor="middle" x="31" y="-133" font-family="Helvetica,sans-Serif" font-size="10.00">io</text>
</a>
</g>
</g>
<!-- dir_a00b633439466cbb1729245c7f66f564&#45;&gt;dir_29c947be06403530a0ee60243d87d320 -->
<g id="edge5" class="edge">
<title>dir_a00b633439466cbb1729245c7f66f564&#45;&gt;dir_29c947be06403530a0ee60243d87d320</title>
<g id="a_edge5"><a xlink:href="dir_000005_000000.html" target="_top">
<path fill="none" stroke="#63b8ff" d="M36.94,-125.75C41.98,-118.34 49.34,-107.5 55.51,-98.41"/>
<polygon fill="#63b8ff" stroke="#63b8ff" points="58.44,-100.33 61.17,-90.09 52.65,-96.39 58.44,-100.33"/>
</a>
</g>
<g id="a_edge5&#45;headlabel"><a xlink:href="dir_000005_000000.html" target="_top" xlink:title="2">
<text text-anchor="middle" x="58.77" y="-102.4" font-family="Helvetica,sans-Serif" font-size="10.00" fill="#63b8ff">2</text>
</a>
</g>
</g>
<!-- dir_a00b633439466cbb1729245c7f66f564&#45;&gt;dir_0ad255a918b7fba820a1ddafed6fa637 -->
<g id="edge4" class="edge">
<title>dir_a00b633439466cbb1729245c7f66f564&#45;&gt;dir_0ad255a918b7fba820a1ddafed6fa637</title>
<g id="a_edge4"><a xlink:href="dir_000005_000008.html" target="_top">
<path fill="none" stroke="#63b8ff" d="M30.08,-125.98C29.05,-113.51 28.31,-89.72 35,-71 38.67,-60.73 45.46,-50.74 51.85,-42.84"/>
<polygon fill="#63b8ff" stroke="#63b8ff" points="54.58,-45.03 58.45,-35.17 49.28,-40.46 54.58,-45.03"/>
</a>
</g>
<g id="a_edge4&#45;headlabel"><a xlink:href="dir_000005_000008.html" target="_top" xlink:title="5">
<text text-anchor="middle" x="54.39" y="-47.11" font-family="Helvetica,sans-Serif" font-size="10.00" fill="#63b8ff">5</text>
</a>
</g>
</g>
</g>
</svg>
