<?xml version="1.0" encoding="UTF-8" standalone="no"?>
<!DOCTYPE svg PUBLIC "-//W3C//DTD SVG 1.1//EN"
 "http://www.w3.org/Graphics/SVG/1.1/DTD/svg11.dtd">
<!-- Generated by graphviz version 2.42.4 (0)
 -->
<!-- Title: Graphical Class Hierarchy Pages: 1 -->
<svg width="222pt" height="138pt"
 viewBox="0.00 0.00 222.00 138.00" xmlns="http://www.w3.org/2000/svg" xmlns:xlink="http://www.w3.org/1999/xlink">
<g id="graph0" class="graph" transform="scale(1 1) rotate(0) translate(4 134)">
<title>Graphical Class Hierarchy</title>
<!-- Node0 -->
<g id="Node000000" class="node">
<title>Node0</title>
<g id="a_Node000000"><a xlink:href="db/da6/classIFilter.html" target="_top" xlink:title=" ">
<polygon fill="white" stroke="#666666" points="44,-74 0,-74 0,-55 44,-55 44,-74"/>
<text text-anchor="middle" x="22" y="-62" font-family="Helvetica,sans-Serif" font-size="10.00">IFilter</text>
</a>
</g>
</g>
<!-- Node1 -->
<g id="Node000001" class="node">
<title>Node1</title>
<g id="a_Node000001"><a xlink:href="d6/d96/classContrastBrightnessFilter.html" target="_top" xlink:title=" ">
<polygon fill="white" stroke="#666666" points="214,-130 80,-130 80,-111 214,-111 214,-130"/>
<text text-anchor="middle" x="147" y="-118" font-family="Helvetica,sans-Serif" font-size="10.00">ContrastBrightnessFilter</text>
</a>
</g>
</g>
<!-- Node0&#45;&gt;Node1 -->
<g id="edge1_Node000000_Node000001" class="edge">
<title>Node0&#45;&gt;Node1</title>
<g id="a_edge1_Node000000_Node000001"><a xlink:title=" ">
<path fill="none" stroke="#63b8ff" d="M43.09,-80.21C53.6,-87.82 66.98,-96.57 80,-102.5 87.24,-105.8 95.21,-108.6 103.04,-110.94"/>
<polygon fill="#63b8ff" stroke="#63b8ff" points="45.1,-77.35 35,-74.18 40.92,-82.96 45.1,-77.35"/>
</a>
</g>
</g>
<!-- Node2 -->
<g id="Node000002" class="node">
<title>Node2</title>
<g id="a_Node000002"><a xlink:href="de/d8c/classConvolutionFilter.html" target="_top" xlink:title=" ">
<polygon fill="white" stroke="#666666" points="197,-93 97,-93 97,-74 197,-74 197,-93"/>
<text text-anchor="middle" x="147" y="-81" font-family="Helvetica,sans-Serif" font-size="10.00">ConvolutionFilter</text>
</a>
</g>
</g>
<!-- Node0&#45;&gt;Node2 -->
<g id="edge2_Node000000_Node000002" class="edge">
<title>Node0&#45;&gt;Node2</title>
<g id="a_edge2_Node000000_Node000002"><a xlink:title=" ">
<path fill="none" stroke="#63b8ff" d="M54.35,-69.34C67.25,-71.33 82.49,-73.69 96.81,-75.9"/>
<polygon fill="#63b8ff" stroke="#63b8ff" points="54.56,-65.83 44.14,-67.77 53.49,-72.75 54.56,-65.83"/>
</a>
</g>
</g>
<!-- Node3 -->
<g id="Node000003" class="node">
<title>Node3</title>
<g id="a_Node000003"><a xlink:href="d6/d25/classMedianFilter.html" target="_top" xlink:title=" ">
<polygon fill="white" stroke="#666666" points="185.5,-56 108.5,-56 108.5,-37 185.5,-37 185.5,-56"/>
<text text-anchor="middle" x="147" y="-44" font-family="Helvetica,sans-Serif" font-size="10.00">MedianFilter</text>
</a>
</g>
</g>
<!-- Node0&#45;&gt;Node3 -->
<g id="edge3_Node000000_Node000003" class="edge">
<title>Node0&#45;&gt;Node3</title>
<g id="a_edge3_Node000000_Node000003"><a xlink:title=" ">
<path fill="none" stroke="#63b8ff" d="M54.32,-59.92C70.74,-57.51 90.98,-54.55 108.26,-52.02"/>
<polygon fill="#63b8ff" stroke="#63b8ff" points="53.53,-56.49 44.14,-61.41 54.55,-63.42 53.53,-56.49"/>
</a>
</g>
</g>
<!-- Node4 -->
<g id="Node000004" class="node">
<title>Node4</title>
<g id="a_Node000004"><a xlink:href="d3/dcf/classRGBOffsetFilter.html" target="_top" xlink:title=" ">
<polygon fill="white" stroke="#666666" points="193,-19 101,-19 101,0 193,0 193,-19"/>
<text text-anchor="middle" x="147" y="-7" font-family="Helvetica,sans-Serif" font-size="10.00">RGBOffsetFilter</text>
</a>
</g>
</g>
<!-- Node0&#45;&gt;Node4 -->
<g id="edge4_Node000000_Node000004" class="edge">
<title>Node0&#45;&gt;Node4</title>
<g id="a_edge4_Node000000_Node000004"><a xlink:title=" ">
<path fill="none" stroke="#63b8ff" d="M44.38,-48.97C54.74,-41.97 67.61,-34.06 80,-28.5 88.16,-24.84 97.2,-21.69 105.91,-19.07"/>
<polygon fill="#63b8ff" stroke="#63b8ff" points="42.2,-46.21 35.99,-54.79 46.2,-51.96 42.2,-46.21"/>
</a>
</g>
</g>
</g>
</svg>
