<?xml version="1.0" encoding="UTF-8" standalone="no"?>
<!DOCTYPE svg PUBLIC "-//W3C//DTD SVG 1.1//EN"
 "http://www.w3.org/Graphics/SVG/1.1/DTD/svg11.dtd">
<!-- Generated by graphviz version 2.42.4 (0)
 -->
<!-- Title: include/types/Kernel.hpp Pages: 1 -->
<svg width="724pt" height="148pt"
 viewBox="0.00 0.00 724.00 148.00" xmlns="http://www.w3.org/2000/svg" xmlns:xlink="http://www.w3.org/1999/xlink">
<g id="graph0" class="graph" transform="scale(1 1) rotate(0) translate(4 144)">
<title>include/types/Kernel.hpp</title>
<!-- Node1 -->
<g id="Node000001" class="node">
<title>Node1</title>
<g id="a_Node000001"><a xlink:title=" ">
<polygon fill="#999999" stroke="#666666" points="452,-140 315,-140 315,-121 452,-121 452,-140"/>
<text text-anchor="middle" x="383.5" y="-128" font-family="Helvetica,sans-Serif" font-size="10.00">include/types/Kernel.hpp</text>
</a>
</g>
</g>
<!-- Node2 -->
<g id="Node000002" class="node">
<title>Node2</title>
<g id="a_Node000002"><a xlink:href="../../d6/d0b/kernelGenerators_8hpp.html" target="_top" xlink:title=" ">
<polygon fill="white" stroke="#666666" points="193,-79.5 0,-79.5 0,-60.5 193,-60.5 193,-79.5"/>
<text text-anchor="middle" x="96.5" y="-67.5" font-family="Helvetica,sans-Serif" font-size="10.00">include/filt_op/kernelGenerators.hpp</text>
</a>
</g>
</g>
<!-- Node1&#45;&gt;Node2 -->
<g id="edge1_Node000001_Node000002" class="edge">
<title>Node1&#45;&gt;Node2</title>
<g id="a_edge1_Node000001_Node000002"><a xlink:title=" ">
<path fill="none" stroke="#63b8ff" d="M331.8,-118.96C276.4,-107.67 189.53,-89.96 138.28,-79.52"/>
<polygon fill="#63b8ff" stroke="#63b8ff" points="331.27,-122.43 341.77,-120.99 332.67,-115.57 331.27,-122.43"/>
</a>
</g>
</g>
<!-- Node4 -->
<g id="Node000004" class="node">
<title>Node4</title>
<g id="a_Node000004"><a xlink:href="../../d1/d04/ConvolutionFilter_8hpp.html" target="_top" xlink:title=" ">
<polygon fill="white" stroke="#666666" points="355.5,-85 211.5,-85 211.5,-55 355.5,-55 355.5,-85"/>
<text text-anchor="start" x="219.5" y="-73" font-family="Helvetica,sans-Serif" font-size="10.00">include/filters/Convolution</text>
<text text-anchor="middle" x="283.5" y="-62" font-family="Helvetica,sans-Serif" font-size="10.00">Filter.hpp</text>
</a>
</g>
</g>
<!-- Node1&#45;&gt;Node4 -->
<g id="edge3_Node000001_Node000004" class="edge">
<title>Node1&#45;&gt;Node4</title>
<g id="a_edge3_Node000001_Node000004"><a xlink:title=" ">
<path fill="none" stroke="#63b8ff" d="M360.1,-115.81C344.33,-106.58 323.56,-94.43 307.63,-85.11"/>
<polygon fill="#63b8ff" stroke="#63b8ff" points="358.35,-118.84 368.74,-120.87 361.88,-112.8 358.35,-118.84"/>
</a>
</g>
</g>
<!-- Node5 -->
<g id="Node000005" class="node">
<title>Node5</title>
<g id="a_Node000005"><a xlink:href="../../da/d05/ConvolutionFilter_8cpp.html" target="_top" xlink:title=" ">
<polygon fill="white" stroke="#666666" points="417,-19 250,-19 250,0 417,0 417,-19"/>
<text text-anchor="middle" x="333.5" y="-7" font-family="Helvetica,sans-Serif" font-size="10.00">src/filters/ConvolutionFilter.cpp</text>
</a>
</g>
</g>
<!-- Node1&#45;&gt;Node5 -->
<g id="edge7_Node000001_Node000005" class="edge">
<title>Node1&#45;&gt;Node5</title>
<g id="a_edge7_Node000001_Node000005"><a xlink:title=" ">
<path fill="none" stroke="#63b8ff" d="M380.69,-111.02C377.9,-95.56 372.81,-73.17 364.5,-55 358.31,-41.47 347.95,-27.69 340.93,-19.12"/>
<polygon fill="#63b8ff" stroke="#63b8ff" points="377.24,-111.61 382.33,-120.9 384.15,-110.46 377.24,-111.61"/>
</a>
</g>
</g>
<!-- Node6 -->
<g id="Node000006" class="node">
<title>Node6</title>
<g id="a_Node000006"><a xlink:href="../../d9/db8/kernelGenerators_8cpp.html" target="_top" xlink:title=" ">
<polygon fill="white" stroke="#666666" points="583,-79.5 412,-79.5 412,-60.5 583,-60.5 583,-79.5"/>
<text text-anchor="middle" x="497.5" y="-67.5" font-family="Helvetica,sans-Serif" font-size="10.00">src/filt_op/kernelGenerators.cpp</text>
</a>
</g>
</g>
<!-- Node1&#45;&gt;Node6 -->
<g id="edge6_Node000001_Node000006" class="edge">
<title>Node1&#45;&gt;Node6</title>
<g id="a_edge6_Node000001_Node000006"><a xlink:title=" ">
<path fill="none" stroke="#63b8ff" d="M409.37,-116.23C431.19,-105.03 461.81,-89.32 480.61,-79.67"/>
<polygon fill="#63b8ff" stroke="#63b8ff" points="407.62,-113.19 400.32,-120.87 410.82,-119.42 407.62,-113.19"/>
</a>
</g>
</g>
<!-- Node7 -->
<g id="Node000007" class="node">
<title>Node7</title>
<g id="a_Node000007"><a xlink:href="../../d2/d00/Kernel_8cpp.html" target="_top" xlink:title=" ">
<polygon fill="white" stroke="#666666" points="716,-79.5 601,-79.5 601,-60.5 716,-60.5 716,-79.5"/>
<text text-anchor="middle" x="658.5" y="-67.5" font-family="Helvetica,sans-Serif" font-size="10.00">src/types/Kernel.cpp</text>
</a>
</g>
</g>
<!-- Node1&#45;&gt;Node7 -->
<g id="edge8_Node000001_Node000007" class="edge">
<title>Node1&#45;&gt;Node7</title>
<g id="a_edge8_Node000001_Node000007"><a xlink:title=" ">
<path fill="none" stroke="#63b8ff" d="M433.36,-118.89C486.46,-107.6 569.46,-89.94 618.46,-79.52"/>
<polygon fill="#63b8ff" stroke="#63b8ff" points="432.54,-115.49 423.49,-120.99 434,-122.34 432.54,-115.49"/>
</a>
</g>
</g>
<!-- Node3 -->
<g id="Node000003" class="node">
<title>Node3</title>
<g id="a_Node000003"><a xlink:href="../../da/d58/FilterFactory_8cpp.html" target="_top" xlink:title=" ">
<polygon fill="white" stroke="#666666" points="225.5,-19 79.5,-19 79.5,0 225.5,0 225.5,-19"/>
<text text-anchor="middle" x="152.5" y="-7" font-family="Helvetica,sans-Serif" font-size="10.00">src/filt_op/FilterFactory.cpp</text>
</a>
</g>
</g>
<!-- Node2&#45;&gt;Node3 -->
<g id="edge2_Node000002_Node000003" class="edge">
<title>Node2&#45;&gt;Node3</title>
<g id="a_edge2_Node000002_Node000003"><a xlink:title=" ">
<path fill="none" stroke="#63b8ff" d="M111.73,-53.09C122.19,-42.17 135.67,-28.08 144.2,-19.17"/>
<polygon fill="#63b8ff" stroke="#63b8ff" points="109.15,-50.72 104.76,-60.37 114.21,-55.56 109.15,-50.72"/>
</a>
</g>
</g>
<!-- Node4&#45;&gt;Node3 -->
<g id="edge4_Node000004_Node000003" class="edge">
<title>Node4&#45;&gt;Node3</title>
<g id="a_edge4_Node000004_Node000003"><a xlink:title=" ">
<path fill="none" stroke="#63b8ff" d="M242.68,-50.77C219.06,-40.22 190.42,-27.43 171.85,-19.14"/>
<polygon fill="#63b8ff" stroke="#63b8ff" points="241.56,-54.11 252.12,-54.99 244.42,-47.71 241.56,-54.11"/>
</a>
</g>
</g>
<!-- Node4&#45;&gt;Node5 -->
<g id="edge5_Node000004_Node000005" class="edge">
<title>Node4&#45;&gt;Node5</title>
<g id="a_edge5_Node000004_Node000005"><a xlink:title=" ">
<path fill="none" stroke="#63b8ff" d="M302.23,-47.09C310.49,-37.42 319.73,-26.61 326.01,-19.27"/>
<polygon fill="#63b8ff" stroke="#63b8ff" points="299.44,-44.96 295.6,-54.84 304.76,-49.51 299.44,-44.96"/>
</a>
</g>
</g>
</g>
</svg>
