<?xml version="1.0" encoding="UTF-8" standalone="no"?>
<!DOCTYPE svg PUBLIC "-//W3C//DTD SVG 1.1//EN"
 "http://www.w3.org/Graphics/SVG/1.1/DTD/svg11.dtd">
<!-- Generated by graphviz version 2.42.4 (0)
 -->
<!-- Title: Pixel::getB Pages: 1 -->
<svg width="249pt" height="113pt"
 viewBox="0.00 0.00 249.00 112.50" xmlns="http://www.w3.org/2000/svg" xmlns:xlink="http://www.w3.org/1999/xlink">
<g id="graph0" class="graph" transform="scale(1 1) rotate(0) translate(4 108.5)">
<title>Pixel::getB</title>
<!-- Node1 -->
<g id="Node000001" class="node">
<title>Node1</title>
<g id="a_Node000001"><a xlink:title=" ">
<polygon fill="#999999" stroke="#666666" points="241,-56 173,-56 173,-37 241,-37 241,-56"/>
<text text-anchor="middle" x="207" y="-44" font-family="Helvetica,sans-Serif" font-size="10.00">Pixel::getB</text>
</a>
</g>
</g>
<!-- Node2 -->
<g id="Node000002" class="node">
<title>Node2</title>
<g id="a_Node000002"><a xlink:href="../../d6/d96/classContrastBrightnessFilter.html#a7a7b7853de9bead54be40d88148d14d8" target="_top" xlink:title=" ">
<polygon fill="white" stroke="#666666" points="135.5,-104.5 1.5,-104.5 1.5,-74.5 135.5,-74.5 135.5,-104.5"/>
<text text-anchor="start" x="9.5" y="-92.5" font-family="Helvetica,sans-Serif" font-size="10.00">ContrastBrightnessFilter</text>
<text text-anchor="middle" x="68.5" y="-81.5" font-family="Helvetica,sans-Serif" font-size="10.00">::apply</text>
</a>
</g>
</g>
<!-- Node1&#45;&gt;Node2 -->
<g id="edge1_Node000001_Node000002" class="edge">
<title>Node1&#45;&gt;Node2</title>
<g id="a_edge1_Node000001_Node000002"><a xlink:title=" ">
<path fill="none" stroke="#63b8ff" d="M166.02,-59.09C150.71,-63.92 133.09,-69.47 117.14,-74.49"/>
<polygon fill="#63b8ff" stroke="#63b8ff" points="167.22,-62.39 175.71,-56.04 165.12,-55.71 167.22,-62.39"/>
</a>
</g>
</g>
<!-- Node3 -->
<g id="Node000003" class="node">
<title>Node3</title>
<g id="a_Node000003"><a xlink:href="../../d3/dcf/classRGBOffsetFilter.html#a16bd26af94e728b3d0b27def0bedc061" target="_top" xlink:title=" ">
<polygon fill="white" stroke="#666666" points="131,-56 6,-56 6,-37 131,-37 131,-56"/>
<text text-anchor="middle" x="68.5" y="-44" font-family="Helvetica,sans-Serif" font-size="10.00">RGBOffsetFilter::apply</text>
</a>
</g>
</g>
<!-- Node1&#45;&gt;Node3 -->
<g id="edge2_Node000001_Node000003" class="edge">
<title>Node1&#45;&gt;Node3</title>
<g id="a_edge2_Node000001_Node000003"><a xlink:title=" ">
<path fill="none" stroke="#63b8ff" d="M162.8,-46.5C152.71,-46.5 141.77,-46.5 131.06,-46.5"/>
<polygon fill="#63b8ff" stroke="#63b8ff" points="162.96,-50 172.96,-46.5 162.96,-43 162.96,-50"/>
</a>
</g>
</g>
<!-- Node4 -->
<g id="Node000004" class="node">
<title>Node4</title>
<g id="a_Node000004"><a xlink:href="../../dc/d2a/classBMPImageHandler.html#a9bd8edfe64dd9ac58db32c32c2521fb1" target="_top" xlink:title=" ">
<polygon fill="white" stroke="#666666" points="137,-19 0,-19 0,0 137,0 137,-19"/>
<text text-anchor="middle" x="68.5" y="-7" font-family="Helvetica,sans-Serif" font-size="10.00">BMPImageHandler::save</text>
</a>
</g>
</g>
<!-- Node1&#45;&gt;Node4 -->
<g id="edge3_Node000001_Node000004" class="edge">
<title>Node1&#45;&gt;Node4</title>
<g id="a_edge3_Node000001_Node000004"><a xlink:title=" ">
<path fill="none" stroke="#63b8ff" d="M163.14,-34.88C144.31,-29.78 122.47,-23.86 104.62,-19.02"/>
<polygon fill="#63b8ff" stroke="#63b8ff" points="162.39,-38.31 172.96,-37.54 164.22,-31.55 162.39,-38.31"/>
</a>
</g>
</g>
</g>
</svg>
