<?xml version="1.0" encoding="UTF-8" standalone="no"?>
<!DOCTYPE svg PUBLIC "-//W3C//DTD SVG 1.1//EN"
 "http://www.w3.org/Graphics/SVG/1.1/DTD/svg11.dtd">
<!-- Generated by graphviz version 2.42.4 (0)
 -->
<!-- Title: ContrastBrightnessFilter::apply Pages: 1 -->
<svg width="279pt" height="323pt"
 viewBox="0.00 0.00 279.00 323.00" xmlns="http://www.w3.org/2000/svg" xmlns:xlink="http://www.w3.org/1999/xlink">

<svg id="main" version="1.1" xmlns="http://www.w3.org/2000/svg" xmlns:xlink="http://www.w3.org/1999/xlink" xml:space="preserve" onload="init(evt)">
<style type="text/css"><![CDATA[
.node, .edge {opacity: 0.7;}
.node.selected, .edge.selected {opacity: 1;}
.edge:hover path { stroke: red; }
.edge:hover polygon { stroke: red; fill: red; }
]]></style>
<script type="application/ecmascript" xlink:href="../../svg.min.js"/>
<svg id="graph" class="graph">
<g id="graph0" class="graph" transform="scale(1 1) rotate(0) translate(4 319)">
<title>ContrastBrightnessFilter::apply</title>
<!-- Node1 -->
<g id="Node000001" class="node">
<title>Node1</title>
<g id="a_Node000001"><a xlink:title=" ">
<polygon fill="#999999" stroke="#666666" points="134,-172.5 0,-172.5 0,-142.5 134,-142.5 134,-172.5"/>
<text text-anchor="start" x="8" y="-160.5" font-family="Helvetica,sans-Serif" font-size="10.00">ContrastBrightnessFilter</text>
<text text-anchor="middle" x="67" y="-149.5" font-family="Helvetica,sans-Serif" font-size="10.00">::apply</text>
</a>
</g>
</g>
<!-- Node2 -->
<g id="Node000002" class="node">
<title>Node2</title>
<g id="a_Node000002"><a xlink:href="../../d8/d00/classImage.html#adee9bd20c718f3137e2e920c94a715c9" target="_top" xlink:title=" ">
<polygon fill="white" stroke="#666666" points="252,-315 189,-315 189,-296 252,-296 252,-315"/>
<text text-anchor="middle" x="220.5" y="-303" font-family="Helvetica,sans-Serif" font-size="10.00">Image::at</text>
</a>
</g>
</g>
<!-- Node1&#45;&gt;Node2 -->
<g id="edge1_Node000001_Node000002" class="edge">
<title>Node1&#45;&gt;Node2</title>
<g id="a_edge1_Node000001_Node000002"><a xlink:title=" ">
<path fill="none" stroke="#63b8ff" d="M76.04,-172.59C91.06,-199.4 125.87,-255.51 170,-287.5 172.99,-289.67 176.27,-291.6 179.67,-293.31"/>
<polygon fill="#63b8ff" stroke="#63b8ff" points="178.28,-296.53 188.84,-297.37 181.11,-290.12 178.28,-296.53"/>
</a>
</g>
</g>
<!-- Node3 -->
<g id="Node000003" class="node">
<title>Node3</title>
<g id="a_Node000003"><a xlink:href="../../d0/dd6/classPixel.html#a93b756df51ac45cc1805bf2a033609a6" target="_top" xlink:title=" ">
<polygon fill="white" stroke="#666666" points="254.5,-278 186.5,-278 186.5,-259 254.5,-259 254.5,-278"/>
<text text-anchor="middle" x="220.5" y="-266" font-family="Helvetica,sans-Serif" font-size="10.00">Pixel::getA</text>
</a>
</g>
</g>
<!-- Node1&#45;&gt;Node3 -->
<g id="edge2_Node000001_Node000003" class="edge">
<title>Node1&#45;&gt;Node3</title>
<g id="a_edge2_Node000001_Node000003"><a xlink:title=" ">
<path fill="none" stroke="#63b8ff" d="M81.08,-172.67C99.23,-192.9 133.91,-228.67 170,-250.5 172.61,-252.08 175.39,-253.56 178.24,-254.93"/>
<polygon fill="#63b8ff" stroke="#63b8ff" points="176.93,-258.17 187.49,-258.95 179.71,-251.75 176.93,-258.17"/>
</a>
</g>
</g>
<!-- Node4 -->
<g id="Node000004" class="node">
<title>Node4</title>
<g id="a_Node000004"><a xlink:href="../../d0/dd6/classPixel.html#a9db5f2f9ae2ccf8d0dbddd61a4523c4a" target="_top" xlink:title=" ">
<polygon fill="white" stroke="#666666" points="254.5,-241 186.5,-241 186.5,-222 254.5,-222 254.5,-241"/>
<text text-anchor="middle" x="220.5" y="-229" font-family="Helvetica,sans-Serif" font-size="10.00">Pixel::getB</text>
</a>
</g>
</g>
<!-- Node1&#45;&gt;Node4 -->
<g id="edge3_Node000001_Node000004" class="edge">
<title>Node1&#45;&gt;Node4</title>
<g id="a_edge3_Node000001_Node000004"><a xlink:title=" ">
<path fill="none" stroke="#63b8ff" d="M93.02,-172.65C113.33,-184.6 142.95,-201.24 170,-213.5 173.64,-215.15 177.49,-216.76 181.36,-218.3"/>
<polygon fill="#63b8ff" stroke="#63b8ff" points="180.34,-221.66 190.93,-221.96 182.83,-215.12 180.34,-221.66"/>
</a>
</g>
</g>
<!-- Node5 -->
<g id="Node000005" class="node">
<title>Node5</title>
<g id="a_Node000005"><a xlink:href="../../d0/dd6/classPixel.html#ab9656fdb1116bf1a1a74c434e234e401" target="_top" xlink:title=" ">
<polygon fill="white" stroke="#666666" points="255,-204 186,-204 186,-185 255,-185 255,-204"/>
<text text-anchor="middle" x="220.5" y="-192" font-family="Helvetica,sans-Serif" font-size="10.00">Pixel::getG</text>
</a>
</g>
</g>
<!-- Node1&#45;&gt;Node5 -->
<g id="edge4_Node000001_Node000005" class="edge">
<title>Node1&#45;&gt;Node5</title>
<g id="a_edge4_Node000001_Node000005"><a xlink:title=" ">
<path fill="none" stroke="#63b8ff" d="M129.62,-172.55C145.05,-176.32 161.28,-180.28 175.65,-183.79"/>
<polygon fill="#63b8ff" stroke="#63b8ff" points="175.19,-187.28 185.74,-186.25 176.85,-180.48 175.19,-187.28"/>
</a>
</g>
</g>
<!-- Node6 -->
<g id="Node000006" class="node">
<title>Node6</title>
<g id="a_Node000006"><a xlink:href="../../d8/d00/classImage.html#a1cd7587f88b6932b5269051d1ba08ff9" target="_top" xlink:title=" ">
<polygon fill="white" stroke="#666666" points="271,-167 170,-167 170,-148 271,-148 271,-167"/>
<text text-anchor="middle" x="220.5" y="-155" font-family="Helvetica,sans-Serif" font-size="10.00">Image::getHeight</text>
</a>
</g>
</g>
<!-- Node1&#45;&gt;Node6 -->
<g id="edge5_Node000001_Node000006" class="edge">
<title>Node1&#45;&gt;Node6</title>
<g id="a_edge5_Node000001_Node000006"><a xlink:title=" ">
<path fill="none" stroke="#63b8ff" d="M134.01,-157.5C142.51,-157.5 151.18,-157.5 159.58,-157.5"/>
<polygon fill="#63b8ff" stroke="#63b8ff" points="159.66,-161 169.66,-157.5 159.66,-154 159.66,-161"/>
</a>
</g>
</g>
<!-- Node7 -->
<g id="Node000007" class="node">
<title>Node7</title>
<g id="a_Node000007"><a xlink:href="../../d0/dd6/classPixel.html#aec5af8c6eaaea01f91834c94b74f57c5" target="_top" xlink:title=" ">
<polygon fill="white" stroke="#666666" points="254.5,-130 186.5,-130 186.5,-111 254.5,-111 254.5,-130"/>
<text text-anchor="middle" x="220.5" y="-118" font-family="Helvetica,sans-Serif" font-size="10.00">Pixel::getR</text>
</a>
</g>
</g>
<!-- Node1&#45;&gt;Node7 -->
<g id="edge6_Node000001_Node000007" class="edge">
<title>Node1&#45;&gt;Node7</title>
<g id="a_edge6_Node000001_Node000007"><a xlink:title=" ">
<path fill="none" stroke="#63b8ff" d="M129.62,-142.45C145.33,-138.61 161.88,-134.57 176.43,-131.02"/>
<polygon fill="#63b8ff" stroke="#63b8ff" points="177.27,-134.42 186.16,-128.64 175.61,-127.62 177.27,-134.42"/>
</a>
</g>
</g>
<!-- Node8 -->
<g id="Node000008" class="node">
<title>Node8</title>
<g id="a_Node000008"><a xlink:href="../../d8/d00/classImage.html#a36bcae4838228d574738249a87dc4464" target="_top" xlink:title=" ">
<polygon fill="white" stroke="#666666" points="269.5,-93 171.5,-93 171.5,-74 269.5,-74 269.5,-93"/>
<text text-anchor="middle" x="220.5" y="-81" font-family="Helvetica,sans-Serif" font-size="10.00">Image::getWidth</text>
</a>
</g>
</g>
<!-- Node1&#45;&gt;Node8 -->
<g id="edge7_Node000001_Node000008" class="edge">
<title>Node1&#45;&gt;Node8</title>
<g id="a_edge7_Node000001_Node000008"><a xlink:title=" ">
<path fill="none" stroke="#63b8ff" d="M93.95,-142.31C114.29,-130.7 143.49,-114.67 170,-102.5 174.21,-100.57 178.67,-98.66 183.13,-96.85"/>
<polygon fill="#63b8ff" stroke="#63b8ff" points="184.76,-99.96 192.78,-93.04 182.19,-93.45 184.76,-99.96"/>
</a>
</g>
</g>
<!-- Node9 -->
<g id="Node000009" class="node">
<title>Node9</title>
<g id="a_Node000009"><a xlink:href="../../d8/d00/classImage.html#a6dd65d408f5cb14e7eaf5d96fe00a99e" target="_top" xlink:title=" ">
<polygon fill="white" stroke="#666666" points="266.5,-56 174.5,-56 174.5,-37 266.5,-37 266.5,-56"/>
<text text-anchor="middle" x="220.5" y="-44" font-family="Helvetica,sans-Serif" font-size="10.00">Image::setPixel</text>
</a>
</g>
</g>
<!-- Node1&#45;&gt;Node9 -->
<g id="edge8_Node000001_Node000009" class="edge">
<title>Node1&#45;&gt;Node9</title>
<g id="a_edge8_Node000001_Node000009"><a xlink:title=" ">
<path fill="none" stroke="#63b8ff" d="M81.49,-142.25C99.82,-122.3 134.43,-87.32 170,-65.5 173.17,-63.56 176.57,-61.75 180.05,-60.1"/>
<polygon fill="#63b8ff" stroke="#63b8ff" points="181.57,-63.25 189.34,-56.05 178.78,-56.83 181.57,-63.25"/>
</a>
</g>
</g>
<!-- Node10 -->
<g id="Node000010" class="node">
<title>Node10</title>
<g id="a_Node000010"><a xlink:href="../../d0/dd6/classPixel.html#ab26cffacb6c1446176d787359032b4a8" target="_top" xlink:title=" ">
<polygon fill="white" stroke="#666666" points="265,-19 176,-19 176,0 265,0 265,-19"/>
<text text-anchor="middle" x="220.5" y="-7" font-family="Helvetica,sans-Serif" font-size="10.00">Pixel::setRGBA</text>
</a>
</g>
</g>
<!-- Node1&#45;&gt;Node10 -->
<g id="edge9_Node000001_Node000010" class="edge">
<title>Node1&#45;&gt;Node10</title>
<g id="a_edge9_Node000001_Node000010"><a xlink:title=" ">
<path fill="none" stroke="#63b8ff" d="M76.37,-142.19C91.65,-115.55 126.53,-60.47 170,-28.5 172.48,-26.68 175.15,-25.01 177.93,-23.48"/>
<polygon fill="#63b8ff" stroke="#63b8ff" points="179.56,-26.58 187.04,-19.08 176.51,-20.28 179.56,-26.58"/>
</a>
</g>
</g>
</g>
</svg>
</svg>

<style type='text/css'>
<![CDATA[
[data-mouse-over-selected='false'] { opacity: 0.7; }
[data-mouse-over-selected='true']  { opacity: 1.0; }
]]>
</style>
<script type="application/ecmascript"><![CDATA[
document.addEventListener('DOMContentLoaded', (event) => {
  highlightEdges();
  highlightAdjacentNodes();
});
]]></script>
</svg>
