<?xml version="1.0" encoding="UTF-8" standalone="no"?>
<!DOCTYPE svg PUBLIC "-//W3C//DTD SVG 1.1//EN"
 "http://www.w3.org/Graphics/SVG/1.1/DTD/svg11.dtd">
<!-- Generated by graphviz version 2.42.4 (0)
 -->
<!-- Title: BatchProcessor::process Pages: 1 -->
<svg width="1061pt" height="144pt"
 viewBox="0.00 0.00 1061.00 144.00" xmlns="http://www.w3.org/2000/svg" xmlns:xlink="http://www.w3.org/1999/xlink">
<g id="graph0" class="graph" transform="scale(1 1) rotate(0) translate(4 140)">
<title>BatchProcessor::process</title>
<!-- Node1 -->
<g id="Node000001" class="node">
<title>Node1</title>
<g id="a_Node000001"><a xlink:title=" ">
<polygon fill="#999999" stroke="#666666" points="135,-74 0,-74 0,-55 135,-55 135,-74"/>
<text text-anchor="middle" x="67.5" y="-62" font-family="Helvetica,sans-Serif" font-size="10.00">BatchProcessor::process</text>
</a>
</g>
</g>
<!-- Node2 -->
<g id="Node000002" class="node">
<title>Node2</title>
<g id="a_Node000002"><a xlink:href="../../d7/d6a/classBatchProcessor.html#a6e71b8448e65399c6c127baa9a26083b" target="_top" xlink:title=" ">
<polygon fill="white" stroke="#666666" points="352,-74 171,-74 171,-55 352,-55 352,-74"/>
<text text-anchor="middle" x="261.5" y="-62" font-family="Helvetica,sans-Serif" font-size="10.00">BatchProcessor::handleCommand</text>
</a>
</g>
</g>
<!-- Node1&#45;&gt;Node2 -->
<g id="edge1_Node000001_Node000002" class="edge">
<title>Node1&#45;&gt;Node2</title>
<g id="a_edge1_Node000001_Node000002"><a xlink:title=" ">
<path fill="none" stroke="#63b8ff" d="M135.11,-64.5C143.37,-64.5 151.94,-64.5 160.55,-64.5"/>
<polygon fill="#63b8ff" stroke="#63b8ff" points="160.67,-68 170.67,-64.5 160.67,-61 160.67,-68"/>
</a>
</g>
</g>
<!-- Node3 -->
<g id="Node000003" class="node">
<title>Node3</title>
<g id="a_Node000003"><a xlink:href="../../db/d6b/classFilterPipeline.html#a32c1937b8688cfbff2906fdfb3d2a61c" target="_top" xlink:title=" ">
<polygon fill="white" stroke="#666666" points="510,-130 397,-130 397,-111 510,-111 510,-130"/>
<text text-anchor="middle" x="453.5" y="-118" font-family="Helvetica,sans-Serif" font-size="10.00">FilterPipeline::apply</text>
</a>
</g>
</g>
<!-- Node2&#45;&gt;Node3 -->
<g id="edge2_Node000002_Node000003" class="edge">
<title>Node2&#45;&gt;Node3</title>
<g id="a_edge2_Node000002_Node000003"><a xlink:title=" ">
<path fill="none" stroke="#63b8ff" d="M293.39,-74.06C318.76,-81.86 355.65,-93.09 388,-102.5 394.45,-104.38 401.27,-106.32 407.98,-108.21"/>
<polygon fill="#63b8ff" stroke="#63b8ff" points="407.07,-111.59 417.65,-110.92 408.96,-104.85 407.07,-111.59"/>
</a>
</g>
</g>
<!-- Node4 -->
<g id="Node000004" class="node">
<title>Node4</title>
<g id="a_Node000004"><a xlink:href="../../d4/df6/classFilterFactory.html#a3bcc4b6e41115f88dd815994712023c8" target="_top" xlink:title=" ">
<polygon fill="white" stroke="#666666" points="519,-93 388,-93 388,-74 519,-74 519,-93"/>
<text text-anchor="middle" x="453.5" y="-81" font-family="Helvetica,sans-Serif" font-size="10.00">FilterFactory::buildFilter</text>
</a>
</g>
</g>
<!-- Node2&#45;&gt;Node4 -->
<g id="edge3_Node000002_Node000004" class="edge">
<title>Node2&#45;&gt;Node4</title>
<g id="a_edge3_Node000002_Node000004"><a xlink:title=" ">
<path fill="none" stroke="#63b8ff" d="M352.21,-73.47C360.75,-74.33 369.35,-75.18 377.72,-76.02"/>
<polygon fill="#63b8ff" stroke="#63b8ff" points="377.52,-79.52 387.81,-77.03 378.21,-72.55 377.52,-79.52"/>
</a>
</g>
</g>
<!-- Node12 -->
<g id="Node000012" class="node">
<title>Node12</title>
<g id="a_Node000012"><a xlink:href="../../db/d6b/classFilterPipeline.html#a1149615f0b2239f4f6ec8dcb6f706653" target="_top" xlink:title=" ">
<polygon fill="white" stroke="#666666" points="508.5,-56 398.5,-56 398.5,-37 508.5,-37 508.5,-56"/>
<text text-anchor="middle" x="453.5" y="-44" font-family="Helvetica,sans-Serif" font-size="10.00">FilterPipeline::clear</text>
</a>
</g>
</g>
<!-- Node2&#45;&gt;Node12 -->
<g id="edge14_Node000002_Node000012" class="edge">
<title>Node2&#45;&gt;Node12</title>
<g id="a_edge14_Node000002_Node000012"><a xlink:title=" ">
<path fill="none" stroke="#63b8ff" d="M352.21,-56C364.4,-54.85 376.71,-53.68 388.32,-52.58"/>
<polygon fill="#63b8ff" stroke="#63b8ff" points="388.7,-56.06 398.33,-51.63 388.04,-49.09 388.7,-56.06"/>
</a>
</g>
</g>
<!-- Node13 -->
<g id="Node000013" class="node">
<title>Node13</title>
<g id="a_Node000013"><a xlink:href="../../de/d11/classFilterSpec.html#a2327d1bf6d4ab11c13f9560e28530a87" target="_top" xlink:title=" ">
<polygon fill="white" stroke="#666666" points="501,-19 406,-19 406,0 501,0 501,-19"/>
<text text-anchor="middle" x="453.5" y="-7" font-family="Helvetica,sans-Serif" font-size="10.00">FilterSpec::clear</text>
</a>
</g>
</g>
<!-- Node2&#45;&gt;Node13 -->
<g id="edge15_Node000002_Node000013" class="edge">
<title>Node2&#45;&gt;Node13</title>
<g id="a_edge15_Node000002_Node000013"><a xlink:title=" ">
<path fill="none" stroke="#63b8ff" d="M294.44,-54.94C319.79,-47.39 356.12,-36.65 388,-27.5 394.53,-25.63 401.44,-23.67 408.22,-21.77"/>
<polygon fill="#63b8ff" stroke="#63b8ff" points="409.31,-25.1 418,-19.03 407.42,-18.35 409.31,-25.1"/>
</a>
</g>
</g>
<!-- Node5 -->
<g id="Node000005" class="node">
<title>Node5</title>
<g id="a_Node000005"><a xlink:href="../../db/d6b/classFilterPipeline.html#aec2ec7907fb893d14675dc85f39786ac" target="_top" xlink:title=" ">
<polygon fill="white" stroke="#666666" points="675.5,-136 571.5,-136 571.5,-117 675.5,-117 675.5,-136"/>
<text text-anchor="middle" x="623.5" y="-124" font-family="Helvetica,sans-Serif" font-size="10.00">FilterPipeline::add</text>
</a>
</g>
</g>
<!-- Node4&#45;&gt;Node5 -->
<g id="edge4_Node000004_Node000005" class="edge">
<title>Node4&#45;&gt;Node5</title>
<g id="a_edge4_Node000004_Node000005"><a xlink:title=" ">
<path fill="none" stroke="#63b8ff" d="M491.78,-93.04C516.47,-99.36 549.05,-107.7 575.51,-114.47"/>
<polygon fill="#63b8ff" stroke="#63b8ff" points="574.76,-117.89 585.32,-116.98 576.5,-111.11 574.76,-117.89"/>
</a>
</g>
</g>
<!-- Node6 -->
<g id="Node000006" class="node">
<title>Node6</title>
<g id="a_Node000006"><a xlink:href="../../da/d1c/namespacekernelGenerators.html#a8281690ec76cb85a596aefe3bd2c38df" target="_top" xlink:title=" ">
<polygon fill="white" stroke="#666666" points="692,-98.5 555,-98.5 555,-68.5 692,-68.5 692,-98.5"/>
<text text-anchor="start" x="563" y="-86.5" font-family="Helvetica,sans-Serif" font-size="10.00">kernelGenerators::create</text>
<text text-anchor="middle" x="623.5" y="-75.5" font-family="Helvetica,sans-Serif" font-size="10.00">BoxBlurKernel</text>
</a>
</g>
</g>
<!-- Node4&#45;&gt;Node6 -->
<g id="edge5_Node000004_Node000006" class="edge">
<title>Node4&#45;&gt;Node6</title>
<g id="a_edge5_Node000004_Node000006"><a xlink:title=" ">
<path fill="none" stroke="#63b8ff" d="M519.45,-83.5C527.72,-83.5 536.26,-83.5 544.7,-83.5"/>
<polygon fill="#63b8ff" stroke="#63b8ff" points="544.94,-87 554.94,-83.5 544.94,-80 544.94,-87"/>
</a>
</g>
</g>
<!-- Node7 -->
<g id="Node000007" class="node">
<title>Node7</title>
<g id="a_Node000007"><a xlink:href="../../da/d1c/namespacekernelGenerators.html#a1c0479ec9adbffcd5acf4d5aea266bbb" target="_top" xlink:title=" ">
<polygon fill="white" stroke="#666666" points="692,-50.5 555,-50.5 555,-20.5 692,-20.5 692,-50.5"/>
<text text-anchor="start" x="563" y="-38.5" font-family="Helvetica,sans-Serif" font-size="10.00">kernelGenerators::create</text>
<text text-anchor="middle" x="623.5" y="-27.5" font-family="Helvetica,sans-Serif" font-size="10.00">GaussianBlurKernel</text>
</a>
</g>
</g>
<!-- Node4&#45;&gt;Node7 -->
<g id="edge6_Node000004_Node000007" class="edge">
<title>Node4&#45;&gt;Node7</title>
<g id="a_edge6_Node000004_Node000007"><a xlink:title=" ">
<path fill="none" stroke="#63b8ff" d="M489,-73.94C498.71,-71.23 509.27,-68.27 519,-65.5 532.61,-61.63 547.21,-57.43 561.04,-53.43"/>
<polygon fill="#63b8ff" stroke="#63b8ff" points="562.31,-56.7 570.94,-50.56 560.36,-49.98 562.31,-56.7"/>
</a>
</g>
</g>
<!-- Node8 -->
<g id="Node000008" class="node">
<title>Node8</title>
<g id="a_Node000008"><a xlink:href="../../d1/db8/classKernel.html#ad257d19cbde87a4d622d7ea5ef9d6536" target="_top" xlink:title=" ">
<polygon fill="white" stroke="#666666" points="830,-45 728,-45 728,-26 830,-26 830,-45"/>
<text text-anchor="middle" x="779" y="-33" font-family="Helvetica,sans-Serif" font-size="10.00">Kernel::normalize</text>
</a>
</g>
</g>
<!-- Node7&#45;&gt;Node8 -->
<g id="edge7_Node000007_Node000008" class="edge">
<title>Node7&#45;&gt;Node8</title>
<g id="a_edge7_Node000007_Node000008"><a xlink:title=" ">
<path fill="none" stroke="#63b8ff" d="M692.27,-35.5C700.63,-35.5 709.13,-35.5 717.38,-35.5"/>
<polygon fill="#63b8ff" stroke="#63b8ff" points="717.65,-39 727.65,-35.5 717.65,-32 717.65,-39"/>
</a>
</g>
</g>
<!-- Node9 -->
<g id="Node000009" class="node">
<title>Node9</title>
<g id="a_Node000009"><a xlink:href="../../d1/db8/classKernel.html#a5f94f2c43479665eded0abfbb163b233" target="_top" xlink:title=" ">
<polygon fill="white" stroke="#666666" points="1051,-63 978,-63 978,-44 1051,-44 1051,-63"/>
<text text-anchor="middle" x="1014.5" y="-51" font-family="Helvetica,sans-Serif" font-size="10.00">Kernel::cols</text>
</a>
</g>
</g>
<!-- Node8&#45;&gt;Node9 -->
<g id="edge8_Node000008_Node000009" class="edge">
<title>Node8&#45;&gt;Node9</title>
<g id="a_edge8_Node000008_Node000009"><a xlink:title=" ">
<path fill="none" stroke="#63b8ff" d="M796.78,-45.16C813.64,-54.28 840.69,-67.29 866,-72.5 902.19,-79.96 944.02,-73.14 973.87,-65.67"/>
<polygon fill="#63b8ff" stroke="#63b8ff" points="975.12,-68.96 983.9,-63.03 973.34,-62.19 975.12,-68.96"/>
</a>
</g>
</g>
<!-- Node10 -->
<g id="Node000010" class="node">
<title>Node10</title>
<g id="a_Node000010"><a xlink:href="../../d1/db8/classKernel.html#a5ed7513959e5398a48e0149fbf786209" target="_top" xlink:title=" ">
<polygon fill="white" stroke="#666666" points="1053,-26 976,-26 976,-7 1053,-7 1053,-26"/>
<text text-anchor="middle" x="1014.5" y="-14" font-family="Helvetica,sans-Serif" font-size="10.00">Kernel::rows</text>
</a>
</g>
</g>
<!-- Node8&#45;&gt;Node10 -->
<g id="edge9_Node000008_Node000010" class="edge">
<title>Node8&#45;&gt;Node10</title>
<g id="a_edge9_Node000008_Node000010"><a xlink:title=" ">
<path fill="none" stroke="#63b8ff" d="M814.86,-25.99C830.39,-22.23 848.98,-18.36 866,-16.5 899.1,-12.89 936.63,-12.94 965.55,-13.88"/>
<polygon fill="#63b8ff" stroke="#63b8ff" points="965.67,-17.38 975.79,-14.25 965.93,-10.39 965.67,-17.38"/>
</a>
</g>
</g>
<!-- Node11 -->
<g id="Node000011" class="node">
<title>Node11</title>
<g id="a_Node000011"><a xlink:href="../../d1/db8/classKernel.html#a41b59171bf5fbd2b4c493ead4fee53d6" target="_top" xlink:title=" ">
<polygon fill="white" stroke="#666666" points="940,-45 866,-45 866,-26 940,-26 940,-45"/>
<text text-anchor="middle" x="903" y="-33" font-family="Helvetica,sans-Serif" font-size="10.00">Kernel::sum</text>
</a>
</g>
</g>
<!-- Node8&#45;&gt;Node11 -->
<g id="edge10_Node000008_Node000011" class="edge">
<title>Node8&#45;&gt;Node11</title>
<g id="a_edge10_Node000008_Node000011"><a xlink:title=" ">
<path fill="none" stroke="#63b8ff" d="M830.33,-35.5C838.73,-35.5 847.4,-35.5 855.7,-35.5"/>
<polygon fill="#63b8ff" stroke="#63b8ff" points="855.95,-39 865.95,-35.5 855.95,-32 855.95,-39"/>
</a>
</g>
</g>
<!-- Node11&#45;&gt;Node9 -->
<g id="edge11_Node000011_Node000009" class="edge">
<title>Node11&#45;&gt;Node9</title>
<g id="a_edge11_Node000011_Node000009"><a xlink:title=" ">
<path fill="none" stroke="#63b8ff" d="M940.16,-41.44C948.94,-42.89 958.44,-44.45 967.61,-45.96"/>
<polygon fill="#63b8ff" stroke="#63b8ff" points="967.32,-49.46 977.75,-47.62 968.45,-42.55 967.32,-49.46"/>
</a>
</g>
</g>
<!-- Node11&#45;&gt;Node10 -->
<g id="edge12_Node000011_Node000010" class="edge">
<title>Node11&#45;&gt;Node10</title>
<g id="a_edge12_Node000011_Node000010"><a xlink:title=" ">
<path fill="none" stroke="#63b8ff" d="M940.16,-29.23C948.4,-27.8 957.27,-26.26 965.91,-24.76"/>
<polygon fill="#63b8ff" stroke="#63b8ff" points="966.62,-28.19 975.88,-23.03 965.43,-21.29 966.62,-28.19"/>
</a>
</g>
</g>
<!-- Node11&#45;&gt;Node11 -->
<g id="edge13_Node000011_Node000011" class="edge">
<title>Node11&#45;&gt;Node11</title>
<g id="a_edge13_Node000011_Node000011"><a xlink:title=" ">
<path fill="none" stroke="#63b8ff" d="M886.05,-45.08C877.8,-53.73 883.45,-63 903,-63 915.22,-63 922.01,-59.38 923.37,-54.55"/>
<polygon fill="#63b8ff" stroke="#63b8ff" points="926.64,-53.3 919.95,-45.08 920.05,-55.68 926.64,-53.3"/>
</a>
</g>
</g>
</g>
</svg>
