<?xml version="1.0" encoding="UTF-8" standalone="no"?>
<!DOCTYPE svg PUBLIC "-//W3C//DTD SVG 1.1//EN"
 "http://www.w3.org/Graphics/SVG/1.1/DTD/svg11.dtd">
<!-- Generated by graphviz version 2.42.4 (0)
 -->
<!-- Title: BatchProcessor::handleCommand Pages: 1 -->
<!--zoomable 144 -->

<svg id="main" version="1.1" xmlns="http://www.w3.org/2000/svg" xmlns:xlink="http://www.w3.org/1999/xlink" xml:space="preserve" onload="init(evt)">
<style type="text/css"><![CDATA[
.node, .edge {opacity: 0.7;}
.node.selected, .edge.selected {opacity: 1;}
.edge:hover path { stroke: red; }
.edge:hover polygon { stroke: red; fill: red; }
]]></style>

<defs>
  <circle id="rim" cx="0" cy="0" r="7"/>
  <circle id="rim2" cx="0" cy="0" r="3.5"/>
  <g id="zoomPlus">
    <use xlink:href="#rim" fill="#404040"><set attributeName="fill" to="#808080" begin="zoomplus.mouseover" end="zoomplus.mouseout"/></use>
    <path d="M-4,0h8M0,-4v8" fill="none" stroke="white" stroke-width="1.5" pointer-events="none"/>
  </g>
  <g id="zoomMin">
    <use xlink:href="#rim" fill="#404040"><set attributeName="fill" to="#808080" begin="zoomminus.mouseover" end="zoomminus.mouseout"/></use>
    <path d="M-4,0h8" fill="none" stroke="white" stroke-width="1.5" pointer-events="none"/>
  </g>
  <g id="arrowUp" transform="translate(30 24)">
    <use xlink:href="#rim"/>
    <path pointer-events="none" fill="none" stroke="white" stroke-width="1.5" d="M0,-3.0v7 M-2.5,-0.5L0,-3.0L2.5,-0.5"/>
  </g>
  <g id="arrowRight" transform="rotate(90) translate(36 -43)">
    <use xlink:href="#rim"/>
    <path pointer-events="none" fill="none" stroke="white" stroke-width="1.5" d="M0,-3.0v7 M-2.5,-0.5L0,-3.0L2.5,-0.5"/>
  </g>
  <g id="arrowDown" transform="rotate(180) translate(-30 -48)">
    <use xlink:href="#rim"/>
    <path pointer-events="none" fill="none" stroke="white" stroke-width="1.5" d="M0,-3.0v7 M-2.5,-0.5L0,-3.0L2.5,-0.5"/>
  </g>
  <g id="arrowLeft" transform="rotate(270) translate(-36 17)">
    <use xlink:href="#rim"/>
    <path pointer-events="none" fill="none" stroke="white" stroke-width="1.5" d="M0,-3.0v7 M-2.5,-0.5L0,-3.0L2.5,-0.5"/>
  </g>
  <g id="resetDef">
    <use xlink:href="#rim2" fill="#404040"><set attributeName="fill" to="#808080" begin="reset.mouseover" end="reset.mouseout"/></use>
  </g>
</defs>
<script type="application/ecmascript">
var viewWidth = 890;
var viewHeight = 144;
var sectionId = 'dynsection-0';
</script>
<script type="application/ecmascript" xlink:href="../../svg.min.js"/>
<svg id="graph" class="graph">
<g id="viewport">
<title>BatchProcessor::handleCommand</title>
<!-- Node1 -->
<g id="Node000001" class="node">
<title>Node1</title>
<g id="a_Node000001"><a xlink:title=" ">
<polygon fill="#999999" stroke="#666666" points="181,-74 0,-74 0,-55 181,-55 181,-74"/>
<text text-anchor="middle" x="90.5" y="-62" font-family="Helvetica,sans-Serif" font-size="10.00">BatchProcessor::handleCommand</text>
</a>
</g>
</g>
<!-- Node2 -->
<g id="Node000002" class="node">
<title>Node2</title>
<g id="a_Node000002"><a xlink:href="../../db/d6b/classFilterPipeline.html#a32c1937b8688cfbff2906fdfb3d2a61c" target="_top" xlink:title=" ">
<polygon fill="white" stroke="#666666" points="339,-130 226,-130 226,-111 339,-111 339,-130"/>
<text text-anchor="middle" x="282.5" y="-118" font-family="Helvetica,sans-Serif" font-size="10.00">FilterPipeline::apply</text>
</a>
</g>
</g>
<!-- Node1&#45;&gt;Node2 -->
<g id="edge1_Node000001_Node000002" class="edge">
<title>Node1&#45;&gt;Node2</title>
<g id="a_edge1_Node000001_Node000002"><a xlink:title=" ">
<path fill="none" stroke="#63b8ff" d="M122.39,-74.06C147.76,-81.86 184.65,-93.09 217,-102.5 223.45,-104.38 230.27,-106.32 236.98,-108.21"/>
<polygon fill="#63b8ff" stroke="#63b8ff" points="236.07,-111.59 246.65,-110.92 237.96,-104.85 236.07,-111.59"/>
</a>
</g>
</g>
<!-- Node3 -->
<g id="Node000003" class="node">
<title>Node3</title>
<g id="a_Node000003"><a xlink:href="../../d4/df6/classFilterFactory.html#a3bcc4b6e41115f88dd815994712023c8" target="_top" xlink:title=" ">
<polygon fill="white" stroke="#666666" points="348,-93 217,-93 217,-74 348,-74 348,-93"/>
<text text-anchor="middle" x="282.5" y="-81" font-family="Helvetica,sans-Serif" font-size="10.00">FilterFactory::buildFilter</text>
</a>
</g>
</g>
<!-- Node1&#45;&gt;Node3 -->
<g id="edge2_Node000001_Node000003" class="edge">
<title>Node1&#45;&gt;Node3</title>
<g id="a_edge2_Node000001_Node000003"><a xlink:title=" ">
<path fill="none" stroke="#63b8ff" d="M181.21,-73.47C189.75,-74.33 198.35,-75.18 206.72,-76.02"/>
<polygon fill="#63b8ff" stroke="#63b8ff" points="206.52,-79.52 216.81,-77.03 207.21,-72.55 206.52,-79.52"/>
</a>
</g>
</g>
<!-- Node11 -->
<g id="Node000011" class="node">
<title>Node11</title>
<g id="a_Node000011"><a xlink:href="../../db/d6b/classFilterPipeline.html#a1149615f0b2239f4f6ec8dcb6f706653" target="_top" xlink:title=" ">
<polygon fill="white" stroke="#666666" points="337.5,-56 227.5,-56 227.5,-37 337.5,-37 337.5,-56"/>
<text text-anchor="middle" x="282.5" y="-44" font-family="Helvetica,sans-Serif" font-size="10.00">FilterPipeline::clear</text>
</a>
</g>
</g>
<!-- Node1&#45;&gt;Node11 -->
<g id="edge13_Node000001_Node000011" class="edge">
<title>Node1&#45;&gt;Node11</title>
<g id="a_edge13_Node000001_Node000011"><a xlink:title=" ">
<path fill="none" stroke="#63b8ff" d="M181.21,-56C193.4,-54.85 205.71,-53.68 217.32,-52.58"/>
<polygon fill="#63b8ff" stroke="#63b8ff" points="217.7,-56.06 227.33,-51.63 217.04,-49.09 217.7,-56.06"/>
</a>
</g>
</g>
<!-- Node12 -->
<g id="Node000012" class="node">
<title>Node12</title>
<g id="a_Node000012"><a xlink:href="../../de/d11/classFilterSpec.html#a2327d1bf6d4ab11c13f9560e28530a87" target="_top" xlink:title=" ">
<polygon fill="white" stroke="#666666" points="330,-19 235,-19 235,0 330,0 330,-19"/>
<text text-anchor="middle" x="282.5" y="-7" font-family="Helvetica,sans-Serif" font-size="10.00">FilterSpec::clear</text>
</a>
</g>
</g>
<!-- Node1&#45;&gt;Node12 -->
<g id="edge14_Node000001_Node000012" class="edge">
<title>Node1&#45;&gt;Node12</title>
<g id="a_edge14_Node000001_Node000012"><a xlink:title=" ">
<path fill="none" stroke="#63b8ff" d="M123.44,-54.94C148.79,-47.39 185.12,-36.65 217,-27.5 223.53,-25.63 230.44,-23.67 237.22,-21.77"/>
<polygon fill="#63b8ff" stroke="#63b8ff" points="238.31,-25.1 247,-19.03 236.42,-18.35 238.31,-25.1"/>
</a>
</g>
</g>
<!-- Node4 -->
<g id="Node000004" class="node">
<title>Node4</title>
<g id="a_Node000004"><a xlink:href="../../db/d6b/classFilterPipeline.html#aec2ec7907fb893d14675dc85f39786ac" target="_top" xlink:title=" ">
<polygon fill="white" stroke="#666666" points="504.5,-136 400.5,-136 400.5,-117 504.5,-117 504.5,-136"/>
<text text-anchor="middle" x="452.5" y="-124" font-family="Helvetica,sans-Serif" font-size="10.00">FilterPipeline::add</text>
</a>
</g>
</g>
<!-- Node3&#45;&gt;Node4 -->
<g id="edge3_Node000003_Node000004" class="edge">
<title>Node3&#45;&gt;Node4</title>
<g id="a_edge3_Node000003_Node000004"><a xlink:title=" ">
<path fill="none" stroke="#63b8ff" d="M320.78,-93.04C345.47,-99.36 378.05,-107.7 404.51,-114.47"/>
<polygon fill="#63b8ff" stroke="#63b8ff" points="403.76,-117.89 414.32,-116.98 405.5,-111.11 403.76,-117.89"/>
</a>
</g>
</g>
<!-- Node5 -->
<g id="Node000005" class="node">
<title>Node5</title>
<g id="a_Node000005"><a xlink:href="../../da/d1c/namespacekernelGenerators.html#a8281690ec76cb85a596aefe3bd2c38df" target="_top" xlink:title=" ">
<polygon fill="white" stroke="#666666" points="521,-98.5 384,-98.5 384,-68.5 521,-68.5 521,-98.5"/>
<text text-anchor="start" x="392" y="-86.5" font-family="Helvetica,sans-Serif" font-size="10.00">kernelGenerators::create</text>
<text text-anchor="middle" x="452.5" y="-75.5" font-family="Helvetica,sans-Serif" font-size="10.00">BoxBlurKernel</text>
</a>
</g>
</g>
<!-- Node3&#45;&gt;Node5 -->
<g id="edge4_Node000003_Node000005" class="edge">
<title>Node3&#45;&gt;Node5</title>
<g id="a_edge4_Node000003_Node000005"><a xlink:title=" ">
<path fill="none" stroke="#63b8ff" d="M348.45,-83.5C356.72,-83.5 365.26,-83.5 373.7,-83.5"/>
<polygon fill="#63b8ff" stroke="#63b8ff" points="373.94,-87 383.94,-83.5 373.94,-80 373.94,-87"/>
</a>
</g>
</g>
<!-- Node6 -->
<g id="Node000006" class="node">
<title>Node6</title>
<g id="a_Node000006"><a xlink:href="../../da/d1c/namespacekernelGenerators.html#a1c0479ec9adbffcd5acf4d5aea266bbb" target="_top" xlink:title=" ">
<polygon fill="white" stroke="#666666" points="521,-50.5 384,-50.5 384,-20.5 521,-20.5 521,-50.5"/>
<text text-anchor="start" x="392" y="-38.5" font-family="Helvetica,sans-Serif" font-size="10.00">kernelGenerators::create</text>
<text text-anchor="middle" x="452.5" y="-27.5" font-family="Helvetica,sans-Serif" font-size="10.00">GaussianBlurKernel</text>
</a>
</g>
</g>
<!-- Node3&#45;&gt;Node6 -->
<g id="edge5_Node000003_Node000006" class="edge">
<title>Node3&#45;&gt;Node6</title>
<g id="a_edge5_Node000003_Node000006"><a xlink:title=" ">
<path fill="none" stroke="#63b8ff" d="M318,-73.94C327.71,-71.23 338.27,-68.27 348,-65.5 361.61,-61.63 376.21,-57.43 390.04,-53.43"/>
<polygon fill="#63b8ff" stroke="#63b8ff" points="391.31,-56.7 399.94,-50.56 389.36,-49.98 391.31,-56.7"/>
</a>
</g>
</g>
<!-- Node7 -->
<g id="Node000007" class="node">
<title>Node7</title>
<g id="a_Node000007"><a xlink:href="../../d1/db8/classKernel.html#ad257d19cbde87a4d622d7ea5ef9d6536" target="_top" xlink:title=" ">
<polygon fill="white" stroke="#666666" points="659,-45 557,-45 557,-26 659,-26 659,-45"/>
<text text-anchor="middle" x="608" y="-33" font-family="Helvetica,sans-Serif" font-size="10.00">Kernel::normalize</text>
</a>
</g>
</g>
<!-- Node6&#45;&gt;Node7 -->
<g id="edge6_Node000006_Node000007" class="edge">
<title>Node6&#45;&gt;Node7</title>
<g id="a_edge6_Node000006_Node000007"><a xlink:title=" ">
<path fill="none" stroke="#63b8ff" d="M521.27,-35.5C529.63,-35.5 538.13,-35.5 546.38,-35.5"/>
<polygon fill="#63b8ff" stroke="#63b8ff" points="546.65,-39 556.65,-35.5 546.65,-32 546.65,-39"/>
</a>
</g>
</g>
<!-- Node8 -->
<g id="Node000008" class="node">
<title>Node8</title>
<g id="a_Node000008"><a xlink:href="../../d1/db8/classKernel.html#a5f94f2c43479665eded0abfbb163b233" target="_top" xlink:title=" ">
<polygon fill="white" stroke="#666666" points="880,-63 807,-63 807,-44 880,-44 880,-63"/>
<text text-anchor="middle" x="843.5" y="-51" font-family="Helvetica,sans-Serif" font-size="10.00">Kernel::cols</text>
</a>
</g>
</g>
<!-- Node7&#45;&gt;Node8 -->
<g id="edge7_Node000007_Node000008" class="edge">
<title>Node7&#45;&gt;Node8</title>
<g id="a_edge7_Node000007_Node000008"><a xlink:title=" ">
<path fill="none" stroke="#63b8ff" d="M625.78,-45.16C642.64,-54.28 669.69,-67.29 695,-72.5 731.19,-79.96 773.02,-73.14 802.87,-65.67"/>
<polygon fill="#63b8ff" stroke="#63b8ff" points="804.12,-68.96 812.9,-63.03 802.34,-62.19 804.12,-68.96"/>
</a>
</g>
</g>
<!-- Node9 -->
<g id="Node000009" class="node">
<title>Node9</title>
<g id="a_Node000009"><a xlink:href="../../d1/db8/classKernel.html#a5ed7513959e5398a48e0149fbf786209" target="_top" xlink:title=" ">
<polygon fill="white" stroke="#666666" points="882,-26 805,-26 805,-7 882,-7 882,-26"/>
<text text-anchor="middle" x="843.5" y="-14" font-family="Helvetica,sans-Serif" font-size="10.00">Kernel::rows</text>
</a>
</g>
</g>
<!-- Node7&#45;&gt;Node9 -->
<g id="edge8_Node000007_Node000009" class="edge">
<title>Node7&#45;&gt;Node9</title>
<g id="a_edge8_Node000007_Node000009"><a xlink:title=" ">
<path fill="none" stroke="#63b8ff" d="M643.86,-25.99C659.39,-22.23 677.98,-18.36 695,-16.5 728.1,-12.89 765.63,-12.94 794.55,-13.88"/>
<polygon fill="#63b8ff" stroke="#63b8ff" points="794.67,-17.38 804.79,-14.25 794.93,-10.39 794.67,-17.38"/>
</a>
</g>
</g>
<!-- Node10 -->
<g id="Node000010" class="node">
<title>Node10</title>
<g id="a_Node000010"><a xlink:href="../../d1/db8/classKernel.html#a41b59171bf5fbd2b4c493ead4fee53d6" target="_top" xlink:title=" ">
<polygon fill="white" stroke="#666666" points="769,-45 695,-45 695,-26 769,-26 769,-45"/>
<text text-anchor="middle" x="732" y="-33" font-family="Helvetica,sans-Serif" font-size="10.00">Kernel::sum</text>
</a>
</g>
</g>
<!-- Node7&#45;&gt;Node10 -->
<g id="edge9_Node000007_Node000010" class="edge">
<title>Node7&#45;&gt;Node10</title>
<g id="a_edge9_Node000007_Node000010"><a xlink:title=" ">
<path fill="none" stroke="#63b8ff" d="M659.33,-35.5C667.73,-35.5 676.4,-35.5 684.7,-35.5"/>
<polygon fill="#63b8ff" stroke="#63b8ff" points="684.95,-39 694.95,-35.5 684.95,-32 684.95,-39"/>
</a>
</g>
</g>
<!-- Node10&#45;&gt;Node8 -->
<g id="edge10_Node000010_Node000008" class="edge">
<title>Node10&#45;&gt;Node8</title>
<g id="a_edge10_Node000010_Node000008"><a xlink:title=" ">
<path fill="none" stroke="#63b8ff" d="M769.16,-41.44C777.94,-42.89 787.44,-44.45 796.61,-45.96"/>
<polygon fill="#63b8ff" stroke="#63b8ff" points="796.32,-49.46 806.75,-47.62 797.45,-42.55 796.32,-49.46"/>
</a>
</g>
</g>
<!-- Node10&#45;&gt;Node9 -->
<g id="edge11_Node000010_Node000009" class="edge">
<title>Node10&#45;&gt;Node9</title>
<g id="a_edge11_Node000010_Node000009"><a xlink:title=" ">
<path fill="none" stroke="#63b8ff" d="M769.16,-29.23C777.4,-27.8 786.27,-26.26 794.91,-24.76"/>
<polygon fill="#63b8ff" stroke="#63b8ff" points="795.62,-28.19 804.88,-23.03 794.43,-21.29 795.62,-28.19"/>
</a>
</g>
</g>
<!-- Node10&#45;&gt;Node10 -->
<g id="edge12_Node000010_Node000010" class="edge">
<title>Node10&#45;&gt;Node10</title>
<g id="a_edge12_Node000010_Node000010"><a xlink:title=" ">
<path fill="none" stroke="#63b8ff" d="M715.05,-45.08C706.8,-53.73 712.45,-63 732,-63 744.22,-63 751.01,-59.38 752.37,-54.55"/>
<polygon fill="#63b8ff" stroke="#63b8ff" points="755.64,-53.3 748.95,-45.08 749.05,-55.68 755.64,-53.3"/>
</a>
</g>
</g>
</g>
</svg>

<g id="navigator" transform="translate(0 0)" fill="#404254">
  <rect fill="#f2f5e9" fill-opacity="0.5" stroke="#606060" stroke-width=".5" x="0" y="0" width="60" height="60"/>
  <use id="zoomplus" xlink:href="#zoomPlus" x="17" y="9" onmousedown="handleZoom(evt,'in')"/>
  <use id="zoomminus" xlink:href="#zoomMin" x="42" y="9" onmousedown="handleZoom(evt,'out')"/>
  <use id="reset" xlink:href="#resetDef" x="30" y="36" onmousedown="handleReset()"/>
   <use id="arrowup" xlink:href="#arrowUp" x="0" y="0" onmousedown="handlePan(0,-1)"/>
  <use id="arrowright" xlink:href="#arrowRight" x="0" y="0" onmousedown="handlePan(1,0)"/>
  <use id="arrowdown" xlink:href="#arrowDown" x="0" y="0" onmousedown="handlePan(0,1)"/>
  <use id="arrowleft" xlink:href="#arrowLeft" x="0" y="0" onmousedown="handlePan(-1,0)"/>
</g>
<svg viewBox="0 0 15 15" width="100%" height="30px" preserveAspectRatio="xMaxYMin meet">
 <g id="arrow_out" transform="scale(0.3 0.3)">
  <a xlink:href="classBatchProcessor_a6e71b8448e65399c6c127baa9a26083b_cgraph_org.svg" target="_base">
   <rect id="button" ry="5" rx="5" y="6" x="6" height="38" width="38"
        fill="#f2f5e9" fill-opacity="0.5" stroke="#606060" stroke-width="1.0"/>
   <path id="arrow"
     d="M 11.500037,31.436501 C 11.940474,20.09759 22.043105,11.32322 32.158766,21.979434 L 37.068811,17.246167 C 37.068811,17.246167 37.088388,32 37.088388,32 L 22.160133,31.978069 C 22.160133,31.978069 26.997745,27.140456 26.997745,27.140456 C 18.528582,18.264221 13.291696,25.230495 11.500037,31.436501 z"
     style="fill:#404040;"/>
  </a>
 </g>
</svg>

<style type='text/css'>
<![CDATA[
[data-mouse-over-selected='false'] { opacity: 0.7; }
[data-mouse-over-selected='true']  { opacity: 1.0; }
]]>
</style>
<script type="application/ecmascript"><![CDATA[
document.addEventListener('DOMContentLoaded', (event) => {
  highlightEdges();
  highlightAdjacentNodes();
});
]]></script>
</svg>
