<?xml version="1.0" encoding="UTF-8" standalone="no"?>
<!DOCTYPE svg PUBLIC "-//W3C//DTD SVG 1.1//EN"
 "http://www.w3.org/Graphics/SVG/1.1/DTD/svg11.dtd">
<!-- Generated by graphviz version 2.42.4 (0)
 -->
<!-- Title: src/filt_op/FilterFactory.cpp Pages: 1 -->
<!--zoomable 313 -->

<svg id="main" version="1.1" xmlns="http://www.w3.org/2000/svg" xmlns:xlink="http://www.w3.org/1999/xlink" xml:space="preserve" onload="init(evt)">
<style type="text/css"><![CDATA[
.node, .edge {opacity: 0.7;}
.node.selected, .edge.selected {opacity: 1;}
.edge:hover path { stroke: red; }
.edge:hover polygon { stroke: red; fill: red; }
]]></style>

<defs>
  <circle id="rim" cx="0" cy="0" r="7"/>
  <circle id="rim2" cx="0" cy="0" r="3.5"/>
  <g id="zoomPlus">
    <use xlink:href="#rim" fill="#404040"><set attributeName="fill" to="#808080" begin="zoomplus.mouseover" end="zoomplus.mouseout"/></use>
    <path d="M-4,0h8M0,-4v8" fill="none" stroke="white" stroke-width="1.5" pointer-events="none"/>
  </g>
  <g id="zoomMin">
    <use xlink:href="#rim" fill="#404040"><set attributeName="fill" to="#808080" begin="zoomminus.mouseover" end="zoomminus.mouseout"/></use>
    <path d="M-4,0h8" fill="none" stroke="white" stroke-width="1.5" pointer-events="none"/>
  </g>
  <g id="arrowUp" transform="translate(30 24)">
    <use xlink:href="#rim"/>
    <path pointer-events="none" fill="none" stroke="white" stroke-width="1.5" d="M0,-3.0v7 M-2.5,-0.5L0,-3.0L2.5,-0.5"/>
  </g>
  <g id="arrowRight" transform="rotate(90) translate(36 -43)">
    <use xlink:href="#rim"/>
    <path pointer-events="none" fill="none" stroke="white" stroke-width="1.5" d="M0,-3.0v7 M-2.5,-0.5L0,-3.0L2.5,-0.5"/>
  </g>
  <g id="arrowDown" transform="rotate(180) translate(-30 -48)">
    <use xlink:href="#rim"/>
    <path pointer-events="none" fill="none" stroke="white" stroke-width="1.5" d="M0,-3.0v7 M-2.5,-0.5L0,-3.0L2.5,-0.5"/>
  </g>
  <g id="arrowLeft" transform="rotate(270) translate(-36 17)">
    <use xlink:href="#rim"/>
    <path pointer-events="none" fill="none" stroke="white" stroke-width="1.5" d="M0,-3.0v7 M-2.5,-0.5L0,-3.0L2.5,-0.5"/>
  </g>
  <g id="resetDef">
    <use xlink:href="#rim2" fill="#404040"><set attributeName="fill" to="#808080" begin="reset.mouseover" end="reset.mouseout"/></use>
  </g>
</defs>
<script type="application/ecmascript">
var viewWidth = 935;
var viewHeight = 313;
var sectionId = 'dynsection-0';
</script>
<script type="application/ecmascript" xlink:href="../../svg.min.js"/>
<svg id="graph" class="graph">
<g id="viewport">
<title>src/filt_op/FilterFactory.cpp</title>
<!-- Node1 -->
<g id="Node000001" class="node">
<title>Node1</title>
<g id="a_Node000001"><a xlink:title=" ">
<polygon fill="#999999" stroke="#666666" points="516,-305 370,-305 370,-286 516,-286 516,-305"/>
<text text-anchor="middle" x="443" y="-293" font-family="Helvetica,sans-Serif" font-size="10.00">src/filt_op/FilterFactory.cpp</text>
</a>
</g>
</g>
<!-- Node2 -->
<g id="Node000002" class="node">
<title>Node2</title>
<g id="a_Node000002"><a xlink:title=" ">
<polygon fill="#e0e0e0" stroke="#999999" points="58,-129 0,-129 0,-110 58,-110 58,-129"/>
<text text-anchor="middle" x="29" y="-117" font-family="Helvetica,sans-Serif" font-size="10.00">memory</text>
</a>
</g>
</g>
<!-- Node1&#45;&gt;Node2 -->
<g id="edge1_Node000001_Node000002" class="edge">
<title>Node1&#45;&gt;Node2</title>
<g id="a_edge1_Node000001_Node000002"><a xlink:title=" ">
<path fill="none" stroke="#63b8ff" d="M369.81,-289.74C280.31,-283.18 134.48,-269.86 84,-250 45.2,-234.73 26.96,-232.13 8,-195 -1.41,-176.57 8.1,-153.34 17.18,-137.77"/>
<polygon fill="#63b8ff" stroke="#63b8ff" points="20.23,-139.5 22.6,-129.17 14.3,-135.76 20.23,-139.5"/>
</a>
</g>
</g>
<!-- Node3 -->
<g id="Node000003" class="node">
<title>Node3</title>
<g id="a_Node000003"><a xlink:title=" ">
<polygon fill="#e0e0e0" stroke="#999999" points="626,-250 566,-250 566,-231 626,-231 626,-250"/>
<text text-anchor="middle" x="596" y="-238" font-family="Helvetica,sans-Serif" font-size="10.00">iostream</text>
</a>
</g>
</g>
<!-- Node1&#45;&gt;Node3 -->
<g id="edge2_Node000001_Node000003" class="edge">
<title>Node1&#45;&gt;Node3</title>
<g id="a_edge2_Node000001_Node000003"><a xlink:title=" ">
<path fill="none" stroke="#63b8ff" d="M467.58,-285.98C493.05,-277.16 533.04,-263.31 561.63,-253.41"/>
<polygon fill="#63b8ff" stroke="#63b8ff" points="562.92,-256.66 571.23,-250.08 560.63,-250.05 562.92,-256.66"/>
</a>
</g>
</g>
<!-- Node4 -->
<g id="Node000004" class="node">
<title>Node4</title>
<g id="a_Node000004"><a xlink:href="../../d6/d0b/kernelGenerators_8hpp.html" target="_top" xlink:title=" ">
<polygon fill="white" stroke="#666666" points="395.5,-250 240.5,-250 240.5,-231 395.5,-231 395.5,-250"/>
<text text-anchor="middle" x="318" y="-238" font-family="Helvetica,sans-Serif" font-size="10.00">filt_op/kernelGenerators.hpp</text>
</a>
</g>
</g>
<!-- Node1&#45;&gt;Node4 -->
<g id="edge3_Node000001_Node000004" class="edge">
<title>Node1&#45;&gt;Node4</title>
<g id="a_edge3_Node000001_Node000004"><a xlink:title=" ">
<path fill="none" stroke="#63b8ff" d="M422.92,-285.98C402.63,-277.38 371.04,-263.99 347.83,-254.15"/>
<polygon fill="#63b8ff" stroke="#63b8ff" points="349.02,-250.85 338.45,-250.17 346.29,-257.3 349.02,-250.85"/>
</a>
</g>
</g>
<!-- Node7 -->
<g id="Node000007" class="node">
<title>Node7</title>
<g id="a_Node000007"><a xlink:href="../../d9/d72/FilterFactory_8hpp.html" target="_top" xlink:title=" ">
<polygon fill="white" stroke="#666666" points="222.5,-250 93.5,-250 93.5,-231 222.5,-231 222.5,-250"/>
<text text-anchor="middle" x="158" y="-238" font-family="Helvetica,sans-Serif" font-size="10.00">filt_op/FilterFactory.hpp</text>
</a>
</g>
</g>
<!-- Node1&#45;&gt;Node7 -->
<g id="edge6_Node000001_Node000007" class="edge">
<title>Node1&#45;&gt;Node7</title>
<g id="a_edge6_Node000001_Node000007"><a xlink:title=" ">
<path fill="none" stroke="#63b8ff" d="M397.21,-285.98C347.39,-276.72 267.72,-261.9 214.16,-251.94"/>
<polygon fill="#63b8ff" stroke="#63b8ff" points="214.62,-248.47 204.15,-250.08 213.34,-255.35 214.62,-248.47"/>
</a>
</g>
</g>
<!-- Node14 -->
<g id="Node000014" class="node">
<title>Node14</title>
<g id="a_Node000014"><a xlink:href="../../da/d5d/ContrastBrightnessFilter_8hpp.html" target="_top" xlink:title=" ">
<polygon fill="white" stroke="#666666" points="927,-195 787,-195 787,-165 927,-165 927,-195"/>
<text text-anchor="start" x="795" y="-183" font-family="Helvetica,sans-Serif" font-size="10.00">filters/ContrastBrightness</text>
<text text-anchor="middle" x="857" y="-172" font-family="Helvetica,sans-Serif" font-size="10.00">Filter.hpp</text>
</a>
</g>
</g>
<!-- Node1&#45;&gt;Node14 -->
<g id="edge17_Node000001_Node000014" class="edge">
<title>Node1&#45;&gt;Node14</title>
<g id="a_edge17_Node000001_Node000014"><a xlink:title=" ">
<path fill="none" stroke="#63b8ff" d="M458.34,-285.98C474.45,-277.03 500.51,-262.54 523,-250 538.12,-241.57 540.65,-236.7 557,-231 647.94,-199.29 677.96,-210.86 776.7,-195.16"/>
<polygon fill="#63b8ff" stroke="#63b8ff" points="777.5,-198.57 786.8,-193.49 776.36,-191.66 777.5,-198.57"/>
</a>
</g>
</g>
<!-- Node15 -->
<g id="Node000015" class="node">
<title>Node15</title>
<g id="a_Node000015"><a xlink:href="../../d1/d04/ConvolutionFilter_8hpp.html" target="_top" xlink:title=" ">
<polygon fill="white" stroke="#666666" points="460.5,-189.5 309.5,-189.5 309.5,-170.5 460.5,-170.5 460.5,-189.5"/>
<text text-anchor="middle" x="385" y="-177.5" font-family="Helvetica,sans-Serif" font-size="10.00">filters/ConvolutionFilter.hpp</text>
</a>
</g>
</g>
<!-- Node1&#45;&gt;Node15 -->
<g id="edge20_Node000001_Node000015" class="edge">
<title>Node1&#45;&gt;Node15</title>
<g id="a_edge20_Node000001_Node000015"><a xlink:title=" ">
<path fill="none" stroke="#63b8ff" d="M438.64,-285.97C429.19,-267.48 406.67,-223.4 394.02,-198.64"/>
<polygon fill="#63b8ff" stroke="#63b8ff" points="397.08,-196.94 389.41,-189.63 390.84,-200.13 397.08,-196.94"/>
</a>
</g>
</g>
<!-- Node16 -->
<g id="Node000016" class="node">
<title>Node16</title>
<g id="a_Node000016"><a xlink:href="../../df/daa/MedianFilter_8hpp.html" target="_top" xlink:title=" ">
<polygon fill="white" stroke="#666666" points="607,-189.5 479,-189.5 479,-170.5 607,-170.5 607,-189.5"/>
<text text-anchor="middle" x="543" y="-177.5" font-family="Helvetica,sans-Serif" font-size="10.00">filters/MedianFilter.hpp</text>
</a>
</g>
</g>
<!-- Node1&#45;&gt;Node16 -->
<g id="edge24_Node000001_Node000016" class="edge">
<title>Node1&#45;&gt;Node16</title>
<g id="a_edge24_Node000001_Node000016"><a xlink:title=" ">
<path fill="none" stroke="#63b8ff" d="M447.93,-285.78C455.33,-273.06 470.14,-248.97 486,-231 497.24,-218.26 511.64,-205.65 523.15,-196.29"/>
<polygon fill="#63b8ff" stroke="#63b8ff" points="525.65,-198.77 531.3,-189.81 521.29,-193.29 525.65,-198.77"/>
</a>
</g>
</g>
<!-- Node17 -->
<g id="Node000017" class="node">
<title>Node17</title>
<g id="a_Node000017"><a xlink:href="../../df/dad/RGBOffsetFilter_8hpp.html" target="_top" xlink:title=" ">
<polygon fill="white" stroke="#666666" points="768.5,-189.5 625.5,-189.5 625.5,-170.5 768.5,-170.5 768.5,-189.5"/>
<text text-anchor="middle" x="697" y="-177.5" font-family="Helvetica,sans-Serif" font-size="10.00">filters/RGBOffsetFilter.hpp</text>
</a>
</g>
</g>
<!-- Node1&#45;&gt;Node17 -->
<g id="edge27_Node000001_Node000017" class="edge">
<title>Node1&#45;&gt;Node17</title>
<g id="a_edge27_Node000001_Node000017"><a xlink:title=" ">
<path fill="none" stroke="#63b8ff" d="M451.67,-285.81C465.69,-272.23 494.73,-245.98 524,-231 560.47,-212.33 604.95,-199.67 639.67,-191.76"/>
<polygon fill="#63b8ff" stroke="#63b8ff" points="640.64,-195.13 649.65,-189.56 639.13,-188.3 640.64,-195.13"/>
</a>
</g>
</g>
<!-- Node5 -->
<g id="Node000005" class="node">
<title>Node5</title>
<g id="a_Node000005"><a xlink:href="../../d8/d46/Kernel_8hpp.html" target="_top" xlink:title=" ">
<polygon fill="white" stroke="#666666" points="354,-129 256,-129 256,-110 354,-110 354,-129"/>
<text text-anchor="middle" x="305" y="-117" font-family="Helvetica,sans-Serif" font-size="10.00">types/Kernel.hpp</text>
</a>
</g>
</g>
<!-- Node4&#45;&gt;Node5 -->
<g id="edge4_Node000004_Node000005" class="edge">
<title>Node4&#45;&gt;Node5</title>
<g id="a_edge4_Node000004_Node000005"><a xlink:title=" ">
<path fill="none" stroke="#63b8ff" d="M313.63,-230.91C309.44,-222.14 303.4,-208.01 301,-195 297.55,-176.32 299.37,-154.6 301.55,-139.45"/>
<polygon fill="#63b8ff" stroke="#63b8ff" points="305.05,-139.74 303.2,-129.3 298.14,-138.61 305.05,-139.74"/>
</a>
</g>
</g>
<!-- Node6 -->
<g id="Node000006" class="node">
<title>Node6</title>
<g id="a_Node000006"><a xlink:title=" ">
<polygon fill="#e0e0e0" stroke="#999999" points="328.5,-19 281.5,-19 281.5,0 328.5,0 328.5,-19"/>
<text text-anchor="middle" x="305" y="-7" font-family="Helvetica,sans-Serif" font-size="10.00">vector</text>
</a>
</g>
</g>
<!-- Node5&#45;&gt;Node6 -->
<g id="edge5_Node000005_Node000006" class="edge">
<title>Node5&#45;&gt;Node6</title>
<g id="a_edge5_Node000005_Node000006"><a xlink:title=" ">
<path fill="none" stroke="#63b8ff" d="M305,-109.66C305,-92.17 305,-52.8 305,-29.27"/>
<polygon fill="#63b8ff" stroke="#63b8ff" points="308.5,-29.16 305,-19.16 301.5,-29.16 308.5,-29.16"/>
</a>
</g>
</g>
<!-- Node8 -->
<g id="Node000008" class="node">
<title>Node8</title>
<g id="a_Node000008"><a xlink:href="../../d1/d64/FilterPipeline_8hpp.html" target="_top" xlink:title=" ">
<polygon fill="white" stroke="#666666" points="118.5,-189.5 17.5,-189.5 17.5,-170.5 118.5,-170.5 118.5,-189.5"/>
<text text-anchor="middle" x="68" y="-177.5" font-family="Helvetica,sans-Serif" font-size="10.00">FilterPipeline.hpp</text>
</a>
</g>
</g>
<!-- Node7&#45;&gt;Node8 -->
<g id="edge7_Node000007_Node000008" class="edge">
<title>Node7&#45;&gt;Node8</title>
<g id="a_edge7_Node000007_Node000008"><a xlink:title=" ">
<path fill="none" stroke="#63b8ff" d="M144.72,-230.87C130.36,-221.54 107.24,-206.51 90.13,-195.38"/>
<polygon fill="#63b8ff" stroke="#63b8ff" points="91.63,-192.18 81.33,-189.67 87.81,-198.05 91.63,-192.18"/>
</a>
</g>
</g>
<!-- Node13 -->
<g id="Node000013" class="node">
<title>Node13</title>
<g id="a_Node000013"><a xlink:href="../../d6/d0d/FilterSpec_8hpp.html" target="_top" xlink:title=" ">
<polygon fill="white" stroke="#666666" points="253,-189.5 137,-189.5 137,-170.5 253,-170.5 253,-189.5"/>
<text text-anchor="middle" x="195" y="-177.5" font-family="Helvetica,sans-Serif" font-size="10.00">types/FilterSpec.hpp</text>
</a>
</g>
</g>
<!-- Node7&#45;&gt;Node13 -->
<g id="edge16_Node000007_Node000013" class="edge">
<title>Node7&#45;&gt;Node13</title>
<g id="a_edge16_Node000007_Node000013"><a xlink:title=" ">
<path fill="none" stroke="#63b8ff" d="M163.46,-230.87C168.87,-222.31 177.31,-208.97 184.1,-198.24"/>
<polygon fill="#63b8ff" stroke="#63b8ff" points="187.13,-199.99 189.52,-189.67 181.21,-196.25 187.13,-199.99"/>
</a>
</g>
</g>
<!-- Node8&#45;&gt;Node2 -->
<g id="edge9_Node000008_Node000002" class="edge">
<title>Node8&#45;&gt;Node2</title>
<g id="a_edge9_Node000008_Node000002"><a xlink:title=" ">
<path fill="none" stroke="#63b8ff" d="M62.25,-170.37C56.54,-161.81 47.65,-148.47 40.49,-137.74"/>
<polygon fill="#63b8ff" stroke="#63b8ff" points="43.24,-135.55 34.78,-129.17 37.41,-139.43 43.24,-135.55"/>
</a>
</g>
</g>
<!-- Node8&#45;&gt;Node6 -->
<g id="edge8_Node000008_Node000006" class="edge">
<title>Node8&#45;&gt;Node6</title>
<g id="a_edge8_Node000008_Node000006"><a xlink:title=" ">
<path fill="none" stroke="#63b8ff" d="M80.08,-170.41C118.27,-143.26 236.72,-59.04 284.61,-25"/>
<polygon fill="#63b8ff" stroke="#63b8ff" points="286.82,-27.72 292.95,-19.07 282.77,-22.01 286.82,-27.72"/>
</a>
</g>
</g>
<!-- Node9 -->
<g id="Node000009" class="node">
<title>Node9</title>
<g id="a_Node000009"><a xlink:href="../../d8/dde/Image_8hpp.html" target="_top" xlink:title=" ">
<polygon fill="white" stroke="#666666" points="515,-74 417,-74 417,-55 515,-55 515,-74"/>
<text text-anchor="middle" x="466" y="-62" font-family="Helvetica,sans-Serif" font-size="10.00">types/Image.hpp</text>
</a>
</g>
</g>
<!-- Node8&#45;&gt;Node9 -->
<g id="edge10_Node000008_Node000009" class="edge">
<title>Node8&#45;&gt;Node9</title>
<g id="a_edge10_Node000008_Node000009"><a xlink:title=" ">
<path fill="none" stroke="#63b8ff" d="M86.97,-170.47C119.26,-156.23 187.22,-127.46 247,-110 300.21,-94.46 362.24,-82.4 406.67,-74.78"/>
<polygon fill="#63b8ff" stroke="#63b8ff" points="407.44,-78.2 416.72,-73.09 406.28,-71.3 407.44,-78.2"/>
</a>
</g>
</g>
<!-- Node12 -->
<g id="Node000012" class="node">
<title>Node12</title>
<g id="a_Node000012"><a xlink:href="../../d0/da6/IFilter_8hpp.html" target="_top" xlink:title=" ">
<polygon fill="white" stroke="#666666" points="592,-129 494,-129 494,-110 592,-110 592,-129"/>
<text text-anchor="middle" x="543" y="-117" font-family="Helvetica,sans-Serif" font-size="10.00">filt_op/IFilter.hpp</text>
</a>
</g>
</g>
<!-- Node8&#45;&gt;Node12 -->
<g id="edge14_Node000008_Node000012" class="edge">
<title>Node8&#45;&gt;Node12</title>
<g id="a_edge14_Node000008_Node000012"><a xlink:title=" ">
<path fill="none" stroke="#63b8ff" d="M101.18,-170.49C109.86,-168.48 119.25,-166.48 128,-165 253.89,-143.65 403.1,-130.61 483.88,-124.55"/>
<polygon fill="#63b8ff" stroke="#63b8ff" points="484.15,-128.04 493.86,-123.81 483.63,-121.06 484.15,-128.04"/>
</a>
</g>
</g>
<!-- Node9&#45;&gt;Node6 -->
<g id="edge11_Node000009_Node000006" class="edge">
<title>Node9&#45;&gt;Node6</title>
<g id="a_edge11_Node000009_Node000006"><a xlink:title=" ">
<path fill="none" stroke="#63b8ff" d="M440.13,-54.98C412.5,-45.89 368.61,-31.44 338.39,-21.49"/>
<polygon fill="#63b8ff" stroke="#63b8ff" points="339.3,-18.11 328.7,-18.3 337.11,-24.75 339.3,-18.11"/>
</a>
</g>
</g>
<!-- Node10 -->
<g id="Node000010" class="node">
<title>Node10</title>
<g id="a_Node000010"><a xlink:title=" ">
<polygon fill="#e0e0e0" stroke="#999999" points="538.5,-19 473.5,-19 473.5,0 538.5,0 538.5,-19"/>
<text text-anchor="middle" x="506" y="-7" font-family="Helvetica,sans-Serif" font-size="10.00">stdexcept</text>
</a>
</g>
</g>
<!-- Node9&#45;&gt;Node10 -->
<g id="edge12_Node000009_Node000010" class="edge">
<title>Node9&#45;&gt;Node10</title>
<g id="a_edge12_Node000009_Node000010"><a xlink:title=" ">
<path fill="none" stroke="#63b8ff" d="M472.61,-54.75C478.26,-47.26 486.54,-36.28 493.45,-27.13"/>
<polygon fill="#63b8ff" stroke="#63b8ff" points="496.29,-29.18 499.52,-19.09 490.7,-24.96 496.29,-29.18"/>
</a>
</g>
</g>
<!-- Node11 -->
<g id="Node000011" class="node">
<title>Node11</title>
<g id="a_Node000011"><a xlink:href="../../d4/d0a/Pixel_8hpp.html" target="_top" xlink:title=" ">
<polygon fill="white" stroke="#666666" points="455.5,-19 394.5,-19 394.5,0 455.5,0 455.5,-19"/>
<text text-anchor="middle" x="425" y="-7" font-family="Helvetica,sans-Serif" font-size="10.00">Pixel.hpp</text>
</a>
</g>
</g>
<!-- Node9&#45;&gt;Node11 -->
<g id="edge13_Node000009_Node000011" class="edge">
<title>Node9&#45;&gt;Node11</title>
<g id="a_edge13_Node000009_Node000011"><a xlink:title=" ">
<path fill="none" stroke="#63b8ff" d="M459.23,-54.75C453.44,-47.26 444.94,-36.28 437.86,-27.13"/>
<polygon fill="#63b8ff" stroke="#63b8ff" points="440.53,-24.86 431.64,-19.09 434.99,-29.14 440.53,-24.86"/>
</a>
</g>
</g>
<!-- Node12&#45;&gt;Node9 -->
<g id="edge15_Node000012_Node000009" class="edge">
<title>Node12&#45;&gt;Node9</title>
<g id="a_edge15_Node000012_Node000009"><a xlink:title=" ">
<path fill="none" stroke="#63b8ff" d="M530.63,-109.98C518.91,-101.92 501.08,-89.65 487.11,-80.03"/>
<polygon fill="#63b8ff" stroke="#63b8ff" points="488.82,-76.96 478.6,-74.17 484.85,-82.72 488.82,-76.96"/>
</a>
</g>
</g>
<!-- Node14&#45;&gt;Node9 -->
<g id="edge19_Node000014_Node000009" class="edge">
<title>Node14&#45;&gt;Node9</title>
<g id="a_edge19_Node000014_Node000009"><a xlink:title=" ">
<path fill="none" stroke="#63b8ff" d="M812.32,-164.99C766.63,-150.75 693.54,-128.27 630,-110 588.89,-98.18 541.73,-85.47 508.57,-76.68"/>
<polygon fill="#63b8ff" stroke="#63b8ff" points="509.32,-73.25 498.75,-74.08 507.52,-80.02 509.32,-73.25"/>
</a>
</g>
</g>
<!-- Node14&#45;&gt;Node12 -->
<g id="edge18_Node000014_Node000012" class="edge">
<title>Node14&#45;&gt;Node12</title>
<g id="a_edge18_Node000014_Node000012"><a xlink:title=" ">
<path fill="none" stroke="#63b8ff" d="M786.92,-165.94C730.33,-155.4 651.72,-140.76 599.2,-130.97"/>
<polygon fill="#63b8ff" stroke="#63b8ff" points="599.53,-127.47 589.06,-129.08 598.25,-134.35 599.53,-127.47"/>
</a>
</g>
</g>
<!-- Node15&#45;&gt;Node5 -->
<g id="edge23_Node000015_Node000005" class="edge">
<title>Node15&#45;&gt;Node5</title>
<g id="a_edge23_Node000015_Node000005"><a xlink:title=" ">
<path fill="none" stroke="#63b8ff" d="M373.2,-170.37C360.55,-161.12 340.26,-146.28 325.09,-135.19"/>
<polygon fill="#63b8ff" stroke="#63b8ff" points="326.99,-132.24 316.85,-129.17 322.86,-137.9 326.99,-132.24"/>
</a>
</g>
</g>
<!-- Node15&#45;&gt;Node9 -->
<g id="edge22_Node000015_Node000009" class="edge">
<title>Node15&#45;&gt;Node9</title>
<g id="a_edge22_Node000015_Node000009"><a xlink:title=" ">
<path fill="none" stroke="#63b8ff" d="M391.09,-170.47C404.4,-151.82 436.3,-107.11 453.88,-82.49"/>
<polygon fill="#63b8ff" stroke="#63b8ff" points="456.88,-84.3 459.84,-74.13 451.18,-80.24 456.88,-84.3"/>
</a>
</g>
</g>
<!-- Node15&#45;&gt;Node12 -->
<g id="edge21_Node000015_Node000012" class="edge">
<title>Node15&#45;&gt;Node12</title>
<g id="a_edge21_Node000015_Node000012"><a xlink:title=" ">
<path fill="none" stroke="#63b8ff" d="M407.97,-170.49C434.89,-160.53 479.67,-143.95 510.23,-132.63"/>
<polygon fill="#63b8ff" stroke="#63b8ff" points="511.84,-135.77 520,-129.02 509.4,-129.21 511.84,-135.77"/>
</a>
</g>
</g>
<!-- Node16&#45;&gt;Node9 -->
<g id="edge26_Node000016_Node000009" class="edge">
<title>Node16&#45;&gt;Node9</title>
<g id="a_edge26_Node000016_Node000009"><a xlink:title=" ">
<path fill="none" stroke="#63b8ff" d="M529.03,-170.38C515.84,-161.54 496.42,-146.63 485,-129 476.2,-115.42 471.33,-97.6 468.74,-84.29"/>
<polygon fill="#63b8ff" stroke="#63b8ff" points="472.18,-83.64 467.05,-74.37 465.27,-84.82 472.18,-83.64"/>
</a>
</g>
</g>
<!-- Node16&#45;&gt;Node12 -->
<g id="edge25_Node000016_Node000012" class="edge">
<title>Node16&#45;&gt;Node12</title>
<g id="a_edge25_Node000016_Node000012"><a xlink:title=" ">
<path fill="none" stroke="#63b8ff" d="M543,-170.37C543,-162.25 543,-149.81 543,-139.39"/>
<polygon fill="#63b8ff" stroke="#63b8ff" points="546.5,-139.17 543,-129.17 539.5,-139.17 546.5,-139.17"/>
</a>
</g>
</g>
<!-- Node17&#45;&gt;Node9 -->
<g id="edge29_Node000017_Node000009" class="edge">
<title>Node17&#45;&gt;Node9</title>
<g id="a_edge29_Node000017_Node000009"><a xlink:title=" ">
<path fill="none" stroke="#63b8ff" d="M687.29,-170.46C670.66,-156.2 635.21,-127.41 601,-110 572.53,-95.51 538.33,-84.29 511.47,-76.75"/>
<polygon fill="#63b8ff" stroke="#63b8ff" points="512.14,-73.3 501.57,-74.04 510.29,-80.05 512.14,-73.3"/>
</a>
</g>
</g>
<!-- Node17&#45;&gt;Node12 -->
<g id="edge28_Node000017_Node000012" class="edge">
<title>Node17&#45;&gt;Node12</title>
<g id="a_edge28_Node000017_Node000012"><a xlink:title=" ">
<path fill="none" stroke="#63b8ff" d="M674.61,-170.49C648.38,-160.53 604.72,-143.95 574.94,-132.63"/>
<polygon fill="#63b8ff" stroke="#63b8ff" points="576.01,-129.3 565.42,-129.02 573.53,-135.84 576.01,-129.3"/>
</a>
</g>
</g>
</g>
</svg>

<g id="navigator" transform="translate(0 0)" fill="#404254">
  <rect fill="#f2f5e9" fill-opacity="0.5" stroke="#606060" stroke-width=".5" x="0" y="0" width="60" height="60"/>
  <use id="zoomplus" xlink:href="#zoomPlus" x="17" y="9" onmousedown="handleZoom(evt,'in')"/>
  <use id="zoomminus" xlink:href="#zoomMin" x="42" y="9" onmousedown="handleZoom(evt,'out')"/>
  <use id="reset" xlink:href="#resetDef" x="30" y="36" onmousedown="handleReset()"/>
   <use id="arrowup" xlink:href="#arrowUp" x="0" y="0" onmousedown="handlePan(0,-1)"/>
  <use id="arrowright" xlink:href="#arrowRight" x="0" y="0" onmousedown="handlePan(1,0)"/>
  <use id="arrowdown" xlink:href="#arrowDown" x="0" y="0" onmousedown="handlePan(0,1)"/>
  <use id="arrowleft" xlink:href="#arrowLeft" x="0" y="0" onmousedown="handlePan(-1,0)"/>
</g>
<svg viewBox="0 0 15 15" width="100%" height="30px" preserveAspectRatio="xMaxYMin meet">
 <g id="arrow_out" transform="scale(0.3 0.3)">
  <a xlink:href="FilterFactory_8cpp__incl_org.svg" target="_base">
   <rect id="button" ry="5" rx="5" y="6" x="6" height="38" width="38"
        fill="#f2f5e9" fill-opacity="0.5" stroke="#606060" stroke-width="1.0"/>
   <path id="arrow"
     d="M 11.500037,31.436501 C 11.940474,20.09759 22.043105,11.32322 32.158766,21.979434 L 37.068811,17.246167 C 37.068811,17.246167 37.088388,32 37.088388,32 L 22.160133,31.978069 C 22.160133,31.978069 26.997745,27.140456 26.997745,27.140456 C 18.528582,18.264221 13.291696,25.230495 11.500037,31.436501 z"
     style="fill:#404040;"/>
  </a>
 </g>
</svg>

<style type='text/css'>
<![CDATA[
[data-mouse-over-selected='false'] { opacity: 0.7; }
[data-mouse-over-selected='true']  { opacity: 1.0; }
]]>
</style>
<script type="application/ecmascript"><![CDATA[
document.addEventListener('DOMContentLoaded', (event) => {
  highlightEdges();
  highlightAdjacentNodes();
});
]]></script>
</svg>
