<?xml version="1.0" encoding="UTF-8" standalone="no"?>
<!DOCTYPE svg PUBLIC "-//W3C//DTD SVG 1.1//EN"
 "http://www.w3.org/Graphics/SVG/1.1/DTD/svg11.dtd">
<!-- Generated by graphviz version 2.42.4 (0)
 -->
<!-- Title: main Pages: 1 -->
<!--zoomable 144 -->

<svg id="main" version="1.1" xmlns="http://www.w3.org/2000/svg" xmlns:xlink="http://www.w3.org/1999/xlink" xml:space="preserve" onload="init(evt)">
<style type="text/css"><![CDATA[
.node, .edge {opacity: 0.7;}
.node.selected, .edge.selected {opacity: 1;}
.edge:hover path { stroke: red; }
.edge:hover polygon { stroke: red; fill: red; }
]]></style>

<defs>
  <circle id="rim" cx="0" cy="0" r="7"/>
  <circle id="rim2" cx="0" cy="0" r="3.5"/>
  <g id="zoomPlus">
    <use xlink:href="#rim" fill="#404040"><set attributeName="fill" to="#808080" begin="zoomplus.mouseover" end="zoomplus.mouseout"/></use>
    <path d="M-4,0h8M0,-4v8" fill="none" stroke="white" stroke-width="1.5" pointer-events="none"/>
  </g>
  <g id="zoomMin">
    <use xlink:href="#rim" fill="#404040"><set attributeName="fill" to="#808080" begin="zoomminus.mouseover" end="zoomminus.mouseout"/></use>
    <path d="M-4,0h8" fill="none" stroke="white" stroke-width="1.5" pointer-events="none"/>
  </g>
  <g id="arrowUp" transform="translate(30 24)">
    <use xlink:href="#rim"/>
    <path pointer-events="none" fill="none" stroke="white" stroke-width="1.5" d="M0,-3.0v7 M-2.5,-0.5L0,-3.0L2.5,-0.5"/>
  </g>
  <g id="arrowRight" transform="rotate(90) translate(36 -43)">
    <use xlink:href="#rim"/>
    <path pointer-events="none" fill="none" stroke="white" stroke-width="1.5" d="M0,-3.0v7 M-2.5,-0.5L0,-3.0L2.5,-0.5"/>
  </g>
  <g id="arrowDown" transform="rotate(180) translate(-30 -48)">
    <use xlink:href="#rim"/>
    <path pointer-events="none" fill="none" stroke="white" stroke-width="1.5" d="M0,-3.0v7 M-2.5,-0.5L0,-3.0L2.5,-0.5"/>
  </g>
  <g id="arrowLeft" transform="rotate(270) translate(-36 17)">
    <use xlink:href="#rim"/>
    <path pointer-events="none" fill="none" stroke="white" stroke-width="1.5" d="M0,-3.0v7 M-2.5,-0.5L0,-3.0L2.5,-0.5"/>
  </g>
  <g id="resetDef">
    <use xlink:href="#rim2" fill="#404040"><set attributeName="fill" to="#808080" begin="reset.mouseover" end="reset.mouseout"/></use>
  </g>
</defs>
<script type="application/ecmascript">
var viewWidth = 1138;
var viewHeight = 144;
var sectionId = 'dynsection-1';
</script>
<script type="application/ecmascript" xlink:href="../../svg.min.js"/>
<svg id="graph" class="graph">
<g id="viewport">
<title>main</title>
<!-- Node1 -->
<g id="Node000001" class="node">
<title>Node1</title>
<g id="a_Node000001"><a xlink:title=" ">
<polygon fill="#999999" stroke="#666666" points="41,-74 0,-74 0,-55 41,-55 41,-74"/>
<text text-anchor="middle" x="20.5" y="-62" font-family="Helvetica,sans-Serif" font-size="10.00">main</text>
</a>
</g>
</g>
<!-- Node2 -->
<g id="Node000002" class="node">
<title>Node2</title>
<g id="a_Node000002"><a xlink:href="../../d7/d6a/classBatchProcessor.html#a822b1f9c8ec15c5b6efe3af915d703f4" target="_top" xlink:title=" ">
<polygon fill="white" stroke="#666666" points="212,-74 77,-74 77,-55 212,-55 212,-74"/>
<text text-anchor="middle" x="144.5" y="-62" font-family="Helvetica,sans-Serif" font-size="10.00">BatchProcessor::process</text>
</a>
</g>
</g>
<!-- Node1&#45;&gt;Node2 -->
<g id="edge1_Node000001_Node000002" class="edge">
<title>Node1&#45;&gt;Node2</title>
<g id="a_edge1_Node000001_Node000002"><a xlink:title=" ">
<path fill="none" stroke="#63b8ff" d="M41.1,-64.5C48.5,-64.5 57.44,-64.5 66.91,-64.5"/>
<polygon fill="#63b8ff" stroke="#63b8ff" points="66.94,-68 76.94,-64.5 66.94,-61 66.94,-68"/>
</a>
</g>
</g>
<!-- Node3 -->
<g id="Node000003" class="node">
<title>Node3</title>
<g id="a_Node000003"><a xlink:href="../../d7/d6a/classBatchProcessor.html#a6e71b8448e65399c6c127baa9a26083b" target="_top" xlink:title=" ">
<polygon fill="white" stroke="#666666" points="429,-74 248,-74 248,-55 429,-55 429,-74"/>
<text text-anchor="middle" x="338.5" y="-62" font-family="Helvetica,sans-Serif" font-size="10.00">BatchProcessor::handleCommand</text>
</a>
</g>
</g>
<!-- Node2&#45;&gt;Node3 -->
<g id="edge2_Node000002_Node000003" class="edge">
<title>Node2&#45;&gt;Node3</title>
<g id="a_edge2_Node000002_Node000003"><a xlink:title=" ">
<path fill="none" stroke="#63b8ff" d="M212.11,-64.5C220.37,-64.5 228.94,-64.5 237.55,-64.5"/>
<polygon fill="#63b8ff" stroke="#63b8ff" points="237.67,-68 247.67,-64.5 237.67,-61 237.67,-68"/>
</a>
</g>
</g>
<!-- Node4 -->
<g id="Node000004" class="node">
<title>Node4</title>
<g id="a_Node000004"><a xlink:href="../../db/d6b/classFilterPipeline.html#a32c1937b8688cfbff2906fdfb3d2a61c" target="_top" xlink:title=" ">
<polygon fill="white" stroke="#666666" points="587,-130 474,-130 474,-111 587,-111 587,-130"/>
<text text-anchor="middle" x="530.5" y="-118" font-family="Helvetica,sans-Serif" font-size="10.00">FilterPipeline::apply</text>
</a>
</g>
</g>
<!-- Node3&#45;&gt;Node4 -->
<g id="edge3_Node000003_Node000004" class="edge">
<title>Node3&#45;&gt;Node4</title>
<g id="a_edge3_Node000003_Node000004"><a xlink:title=" ">
<path fill="none" stroke="#63b8ff" d="M370.39,-74.06C395.76,-81.86 432.65,-93.09 465,-102.5 471.45,-104.38 478.27,-106.32 484.98,-108.21"/>
<polygon fill="#63b8ff" stroke="#63b8ff" points="484.07,-111.59 494.65,-110.92 485.96,-104.85 484.07,-111.59"/>
</a>
</g>
</g>
<!-- Node5 -->
<g id="Node000005" class="node">
<title>Node5</title>
<g id="a_Node000005"><a xlink:href="../../d4/df6/classFilterFactory.html#a3bcc4b6e41115f88dd815994712023c8" target="_top" xlink:title=" ">
<polygon fill="white" stroke="#666666" points="596,-93 465,-93 465,-74 596,-74 596,-93"/>
<text text-anchor="middle" x="530.5" y="-81" font-family="Helvetica,sans-Serif" font-size="10.00">FilterFactory::buildFilter</text>
</a>
</g>
</g>
<!-- Node3&#45;&gt;Node5 -->
<g id="edge4_Node000003_Node000005" class="edge">
<title>Node3&#45;&gt;Node5</title>
<g id="a_edge4_Node000003_Node000005"><a xlink:title=" ">
<path fill="none" stroke="#63b8ff" d="M429.21,-73.47C437.75,-74.33 446.35,-75.18 454.72,-76.02"/>
<polygon fill="#63b8ff" stroke="#63b8ff" points="454.52,-79.52 464.81,-77.03 455.21,-72.55 454.52,-79.52"/>
</a>
</g>
</g>
<!-- Node13 -->
<g id="Node000013" class="node">
<title>Node13</title>
<g id="a_Node000013"><a xlink:href="../../db/d6b/classFilterPipeline.html#a1149615f0b2239f4f6ec8dcb6f706653" target="_top" xlink:title=" ">
<polygon fill="white" stroke="#666666" points="585.5,-56 475.5,-56 475.5,-37 585.5,-37 585.5,-56"/>
<text text-anchor="middle" x="530.5" y="-44" font-family="Helvetica,sans-Serif" font-size="10.00">FilterPipeline::clear</text>
</a>
</g>
</g>
<!-- Node3&#45;&gt;Node13 -->
<g id="edge15_Node000003_Node000013" class="edge">
<title>Node3&#45;&gt;Node13</title>
<g id="a_edge15_Node000003_Node000013"><a xlink:title=" ">
<path fill="none" stroke="#63b8ff" d="M429.21,-56C441.4,-54.85 453.71,-53.68 465.32,-52.58"/>
<polygon fill="#63b8ff" stroke="#63b8ff" points="465.7,-56.06 475.33,-51.63 465.04,-49.09 465.7,-56.06"/>
</a>
</g>
</g>
<!-- Node14 -->
<g id="Node000014" class="node">
<title>Node14</title>
<g id="a_Node000014"><a xlink:href="../../de/d11/classFilterSpec.html#a2327d1bf6d4ab11c13f9560e28530a87" target="_top" xlink:title=" ">
<polygon fill="white" stroke="#666666" points="578,-19 483,-19 483,0 578,0 578,-19"/>
<text text-anchor="middle" x="530.5" y="-7" font-family="Helvetica,sans-Serif" font-size="10.00">FilterSpec::clear</text>
</a>
</g>
</g>
<!-- Node3&#45;&gt;Node14 -->
<g id="edge16_Node000003_Node000014" class="edge">
<title>Node3&#45;&gt;Node14</title>
<g id="a_edge16_Node000003_Node000014"><a xlink:title=" ">
<path fill="none" stroke="#63b8ff" d="M371.44,-54.94C396.79,-47.39 433.12,-36.65 465,-27.5 471.53,-25.63 478.44,-23.67 485.22,-21.77"/>
<polygon fill="#63b8ff" stroke="#63b8ff" points="486.31,-25.1 495,-19.03 484.42,-18.35 486.31,-25.1"/>
</a>
</g>
</g>
<!-- Node6 -->
<g id="Node000006" class="node">
<title>Node6</title>
<g id="a_Node000006"><a xlink:href="../../db/d6b/classFilterPipeline.html#aec2ec7907fb893d14675dc85f39786ac" target="_top" xlink:title=" ">
<polygon fill="white" stroke="#666666" points="752.5,-136 648.5,-136 648.5,-117 752.5,-117 752.5,-136"/>
<text text-anchor="middle" x="700.5" y="-124" font-family="Helvetica,sans-Serif" font-size="10.00">FilterPipeline::add</text>
</a>
</g>
</g>
<!-- Node5&#45;&gt;Node6 -->
<g id="edge5_Node000005_Node000006" class="edge">
<title>Node5&#45;&gt;Node6</title>
<g id="a_edge5_Node000005_Node000006"><a xlink:title=" ">
<path fill="none" stroke="#63b8ff" d="M568.78,-93.04C593.47,-99.36 626.05,-107.7 652.51,-114.47"/>
<polygon fill="#63b8ff" stroke="#63b8ff" points="651.76,-117.89 662.32,-116.98 653.5,-111.11 651.76,-117.89"/>
</a>
</g>
</g>
<!-- Node7 -->
<g id="Node000007" class="node">
<title>Node7</title>
<g id="a_Node000007"><a xlink:href="../../da/d1c/namespacekernelGenerators.html#a8281690ec76cb85a596aefe3bd2c38df" target="_top" xlink:title=" ">
<polygon fill="white" stroke="#666666" points="769,-98.5 632,-98.5 632,-68.5 769,-68.5 769,-98.5"/>
<text text-anchor="start" x="640" y="-86.5" font-family="Helvetica,sans-Serif" font-size="10.00">kernelGenerators::create</text>
<text text-anchor="middle" x="700.5" y="-75.5" font-family="Helvetica,sans-Serif" font-size="10.00">BoxBlurKernel</text>
</a>
</g>
</g>
<!-- Node5&#45;&gt;Node7 -->
<g id="edge6_Node000005_Node000007" class="edge">
<title>Node5&#45;&gt;Node7</title>
<g id="a_edge6_Node000005_Node000007"><a xlink:title=" ">
<path fill="none" stroke="#63b8ff" d="M596.45,-83.5C604.72,-83.5 613.26,-83.5 621.7,-83.5"/>
<polygon fill="#63b8ff" stroke="#63b8ff" points="621.94,-87 631.94,-83.5 621.94,-80 621.94,-87"/>
</a>
</g>
</g>
<!-- Node8 -->
<g id="Node000008" class="node">
<title>Node8</title>
<g id="a_Node000008"><a xlink:href="../../da/d1c/namespacekernelGenerators.html#a1c0479ec9adbffcd5acf4d5aea266bbb" target="_top" xlink:title=" ">
<polygon fill="white" stroke="#666666" points="769,-50.5 632,-50.5 632,-20.5 769,-20.5 769,-50.5"/>
<text text-anchor="start" x="640" y="-38.5" font-family="Helvetica,sans-Serif" font-size="10.00">kernelGenerators::create</text>
<text text-anchor="middle" x="700.5" y="-27.5" font-family="Helvetica,sans-Serif" font-size="10.00">GaussianBlurKernel</text>
</a>
</g>
</g>
<!-- Node5&#45;&gt;Node8 -->
<g id="edge7_Node000005_Node000008" class="edge">
<title>Node5&#45;&gt;Node8</title>
<g id="a_edge7_Node000005_Node000008"><a xlink:title=" ">
<path fill="none" stroke="#63b8ff" d="M566,-73.94C575.71,-71.23 586.27,-68.27 596,-65.5 609.61,-61.63 624.21,-57.43 638.04,-53.43"/>
<polygon fill="#63b8ff" stroke="#63b8ff" points="639.31,-56.7 647.94,-50.56 637.36,-49.98 639.31,-56.7"/>
</a>
</g>
</g>
<!-- Node9 -->
<g id="Node000009" class="node">
<title>Node9</title>
<g id="a_Node000009"><a xlink:href="../../d1/db8/classKernel.html#ad257d19cbde87a4d622d7ea5ef9d6536" target="_top" xlink:title=" ">
<polygon fill="white" stroke="#666666" points="907,-45 805,-45 805,-26 907,-26 907,-45"/>
<text text-anchor="middle" x="856" y="-33" font-family="Helvetica,sans-Serif" font-size="10.00">Kernel::normalize</text>
</a>
</g>
</g>
<!-- Node8&#45;&gt;Node9 -->
<g id="edge8_Node000008_Node000009" class="edge">
<title>Node8&#45;&gt;Node9</title>
<g id="a_edge8_Node000008_Node000009"><a xlink:title=" ">
<path fill="none" stroke="#63b8ff" d="M769.27,-35.5C777.63,-35.5 786.13,-35.5 794.38,-35.5"/>
<polygon fill="#63b8ff" stroke="#63b8ff" points="794.65,-39 804.65,-35.5 794.65,-32 794.65,-39"/>
</a>
</g>
</g>
<!-- Node10 -->
<g id="Node000010" class="node">
<title>Node10</title>
<g id="a_Node000010"><a xlink:href="../../d1/db8/classKernel.html#a5f94f2c43479665eded0abfbb163b233" target="_top" xlink:title=" ">
<polygon fill="white" stroke="#666666" points="1128,-63 1055,-63 1055,-44 1128,-44 1128,-63"/>
<text text-anchor="middle" x="1091.5" y="-51" font-family="Helvetica,sans-Serif" font-size="10.00">Kernel::cols</text>
</a>
</g>
</g>
<!-- Node9&#45;&gt;Node10 -->
<g id="edge9_Node000009_Node000010" class="edge">
<title>Node9&#45;&gt;Node10</title>
<g id="a_edge9_Node000009_Node000010"><a xlink:title=" ">
<path fill="none" stroke="#63b8ff" d="M873.78,-45.16C890.64,-54.28 917.69,-67.29 943,-72.5 979.19,-79.96 1021.02,-73.14 1050.87,-65.67"/>
<polygon fill="#63b8ff" stroke="#63b8ff" points="1052.12,-68.96 1060.9,-63.03 1050.34,-62.19 1052.12,-68.96"/>
</a>
</g>
</g>
<!-- Node11 -->
<g id="Node000011" class="node">
<title>Node11</title>
<g id="a_Node000011"><a xlink:href="../../d1/db8/classKernel.html#a5ed7513959e5398a48e0149fbf786209" target="_top" xlink:title=" ">
<polygon fill="white" stroke="#666666" points="1130,-26 1053,-26 1053,-7 1130,-7 1130,-26"/>
<text text-anchor="middle" x="1091.5" y="-14" font-family="Helvetica,sans-Serif" font-size="10.00">Kernel::rows</text>
</a>
</g>
</g>
<!-- Node9&#45;&gt;Node11 -->
<g id="edge10_Node000009_Node000011" class="edge">
<title>Node9&#45;&gt;Node11</title>
<g id="a_edge10_Node000009_Node000011"><a xlink:title=" ">
<path fill="none" stroke="#63b8ff" d="M891.86,-25.99C907.39,-22.23 925.98,-18.36 943,-16.5 976.1,-12.89 1013.63,-12.94 1042.55,-13.88"/>
<polygon fill="#63b8ff" stroke="#63b8ff" points="1042.67,-17.38 1052.79,-14.25 1042.93,-10.39 1042.67,-17.38"/>
</a>
</g>
</g>
<!-- Node12 -->
<g id="Node000012" class="node">
<title>Node12</title>
<g id="a_Node000012"><a xlink:href="../../d1/db8/classKernel.html#a41b59171bf5fbd2b4c493ead4fee53d6" target="_top" xlink:title=" ">
<polygon fill="white" stroke="#666666" points="1017,-45 943,-45 943,-26 1017,-26 1017,-45"/>
<text text-anchor="middle" x="980" y="-33" font-family="Helvetica,sans-Serif" font-size="10.00">Kernel::sum</text>
</a>
</g>
</g>
<!-- Node9&#45;&gt;Node12 -->
<g id="edge11_Node000009_Node000012" class="edge">
<title>Node9&#45;&gt;Node12</title>
<g id="a_edge11_Node000009_Node000012"><a xlink:title=" ">
<path fill="none" stroke="#63b8ff" d="M907.33,-35.5C915.73,-35.5 924.4,-35.5 932.7,-35.5"/>
<polygon fill="#63b8ff" stroke="#63b8ff" points="932.95,-39 942.95,-35.5 932.95,-32 932.95,-39"/>
</a>
</g>
</g>
<!-- Node12&#45;&gt;Node10 -->
<g id="edge12_Node000012_Node000010" class="edge">
<title>Node12&#45;&gt;Node10</title>
<g id="a_edge12_Node000012_Node000010"><a xlink:title=" ">
<path fill="none" stroke="#63b8ff" d="M1017.16,-41.44C1025.94,-42.89 1035.44,-44.45 1044.61,-45.96"/>
<polygon fill="#63b8ff" stroke="#63b8ff" points="1044.32,-49.46 1054.75,-47.62 1045.45,-42.55 1044.32,-49.46"/>
</a>
</g>
</g>
<!-- Node12&#45;&gt;Node11 -->
<g id="edge13_Node000012_Node000011" class="edge">
<title>Node12&#45;&gt;Node11</title>
<g id="a_edge13_Node000012_Node000011"><a xlink:title=" ">
<path fill="none" stroke="#63b8ff" d="M1017.16,-29.23C1025.4,-27.8 1034.27,-26.26 1042.91,-24.76"/>
<polygon fill="#63b8ff" stroke="#63b8ff" points="1043.62,-28.19 1052.88,-23.03 1042.43,-21.29 1043.62,-28.19"/>
</a>
</g>
</g>
<!-- Node12&#45;&gt;Node12 -->
<g id="edge14_Node000012_Node000012" class="edge">
<title>Node12&#45;&gt;Node12</title>
<g id="a_edge14_Node000012_Node000012"><a xlink:title=" ">
<path fill="none" stroke="#63b8ff" d="M963.05,-45.08C954.8,-53.73 960.45,-63 980,-63 992.22,-63 999.01,-59.38 1000.37,-54.55"/>
<polygon fill="#63b8ff" stroke="#63b8ff" points="1003.64,-53.3 996.95,-45.08 997.05,-55.68 1003.64,-53.3"/>
</a>
</g>
</g>
</g>
</svg>

<g id="navigator" transform="translate(0 0)" fill="#404254">
  <rect fill="#f2f5e9" fill-opacity="0.5" stroke="#606060" stroke-width=".5" x="0" y="0" width="60" height="60"/>
  <use id="zoomplus" xlink:href="#zoomPlus" x="17" y="9" onmousedown="handleZoom(evt,'in')"/>
  <use id="zoomminus" xlink:href="#zoomMin" x="42" y="9" onmousedown="handleZoom(evt,'out')"/>
  <use id="reset" xlink:href="#resetDef" x="30" y="36" onmousedown="handleReset()"/>
   <use id="arrowup" xlink:href="#arrowUp" x="0" y="0" onmousedown="handlePan(0,-1)"/>
  <use id="arrowright" xlink:href="#arrowRight" x="0" y="0" onmousedown="handlePan(1,0)"/>
  <use id="arrowdown" xlink:href="#arrowDown" x="0" y="0" onmousedown="handlePan(0,1)"/>
  <use id="arrowleft" xlink:href="#arrowLeft" x="0" y="0" onmousedown="handlePan(-1,0)"/>
</g>
<svg viewBox="0 0 15 15" width="100%" height="30px" preserveAspectRatio="xMaxYMin meet">
 <g id="arrow_out" transform="scale(0.3 0.3)">
  <a xlink:href="main_8cpp_a0ddf1224851353fc92bfbff6f499fa97_cgraph_org.svg" target="_base">
   <rect id="button" ry="5" rx="5" y="6" x="6" height="38" width="38"
        fill="#f2f5e9" fill-opacity="0.5" stroke="#606060" stroke-width="1.0"/>
   <path id="arrow"
     d="M 11.500037,31.436501 C 11.940474,20.09759 22.043105,11.32322 32.158766,21.979434 L 37.068811,17.246167 C 37.068811,17.246167 37.088388,32 37.088388,32 L 22.160133,31.978069 C 22.160133,31.978069 26.997745,27.140456 26.997745,27.140456 C 18.528582,18.264221 13.291696,25.230495 11.500037,31.436501 z"
     style="fill:#404040;"/>
  </a>
 </g>
</svg>

<style type='text/css'>
<![CDATA[
[data-mouse-over-selected='false'] { opacity: 0.7; }
[data-mouse-over-selected='true']  { opacity: 1.0; }
]]>
</style>
<script type="application/ecmascript"><![CDATA[
document.addEventListener('DOMContentLoaded', (event) => {
  highlightEdges();
  highlightAdjacentNodes();
});
]]></script>
</svg>
