<?xml version="1.0" encoding="UTF-8" standalone="no"?>
<!DOCTYPE svg PUBLIC "-//W3C//DTD SVG 1.1//EN"
 "http://www.w3.org/Graphics/SVG/1.1/DTD/svg11.dtd">
<!-- Generated by graphviz version 2.42.4 (0)
 -->
<!-- Title: IFilter Pages: 1 -->
<svg width="466pt" height="82pt"
 viewBox="0.00 0.00 466.00 82.00" xmlns="http://www.w3.org/2000/svg" xmlns:xlink="http://www.w3.org/1999/xlink">
<g id="graph0" class="graph" transform="scale(1 1) rotate(0) translate(4 78)">
<title>IFilter</title>
<!-- Node1 -->
<g id="Node000001" class="node">
<title>Node1</title>
<g id="a_Node000001"><a xlink:title=" ">
<polygon fill="#999999" stroke="#666666" points="277,-74 233,-74 233,-55 277,-55 277,-74"/>
<text text-anchor="middle" x="255" y="-62" font-family="Helvetica,sans-Serif" font-size="10.00">IFilter</text>
</a>
</g>
</g>
<!-- Node2 -->
<g id="Node000002" class="node">
<title>Node2</title>
<g id="a_Node000002"><a xlink:href="../../d6/d96/classContrastBrightnessFilter.html" target="_top" xlink:title=" ">
<polygon fill="white" stroke="#666666" points="134,-19 0,-19 0,0 134,0 134,-19"/>
<text text-anchor="middle" x="67" y="-7" font-family="Helvetica,sans-Serif" font-size="10.00">ContrastBrightnessFilter</text>
</a>
</g>
</g>
<!-- Node1&#45;&gt;Node2 -->
<g id="edge1_Node000001_Node000002" class="edge">
<title>Node1&#45;&gt;Node2</title>
<g id="a_edge1_Node000001_Node000002"><a xlink:title=" ">
<path fill="none" stroke="#63b8ff" d="M222.93,-54.46C187.78,-44.55 131.8,-28.77 97.35,-19.05"/>
<polygon fill="#63b8ff" stroke="#63b8ff" points="222.12,-57.87 232.7,-57.21 224.02,-51.13 222.12,-57.87"/>
</a>
</g>
</g>
<!-- Node3 -->
<g id="Node000003" class="node">
<title>Node3</title>
<g id="a_Node000003"><a xlink:href="../../de/d8c/classConvolutionFilter.html" target="_top" xlink:title=" ">
<polygon fill="white" stroke="#666666" points="252,-19 152,-19 152,0 252,0 252,-19"/>
<text text-anchor="middle" x="202" y="-7" font-family="Helvetica,sans-Serif" font-size="10.00">ConvolutionFilter</text>
</a>
</g>
</g>
<!-- Node1&#45;&gt;Node3 -->
<g id="edge2_Node000001_Node000003" class="edge">
<title>Node1&#45;&gt;Node3</title>
<g id="a_edge2_Node000001_Node000003"><a xlink:title=" ">
<path fill="none" stroke="#63b8ff" d="M239.02,-47.52C229.68,-38.18 218.25,-26.75 210.59,-19.09"/>
<polygon fill="#63b8ff" stroke="#63b8ff" points="236.7,-50.15 246.25,-54.75 241.65,-45.2 236.7,-50.15"/>
</a>
</g>
</g>
<!-- Node4 -->
<g id="Node000004" class="node">
<title>Node4</title>
<g id="a_Node000004"><a xlink:href="../../d6/d25/classMedianFilter.html" target="_top" xlink:title=" ">
<polygon fill="white" stroke="#666666" points="347.5,-19 270.5,-19 270.5,0 347.5,0 347.5,-19"/>
<text text-anchor="middle" x="309" y="-7" font-family="Helvetica,sans-Serif" font-size="10.00">MedianFilter</text>
</a>
</g>
</g>
<!-- Node1&#45;&gt;Node4 -->
<g id="edge3_Node000001_Node000004" class="edge">
<title>Node1&#45;&gt;Node4</title>
<g id="a_edge3_Node000001_Node000004"><a xlink:title=" ">
<path fill="none" stroke="#63b8ff" d="M271.28,-47.52C280.8,-38.18 292.44,-26.75 300.25,-19.09"/>
<polygon fill="#63b8ff" stroke="#63b8ff" points="268.6,-45.25 263.92,-54.75 273.51,-50.24 268.6,-45.25"/>
</a>
</g>
</g>
<!-- Node5 -->
<g id="Node000005" class="node">
<title>Node5</title>
<g id="a_Node000005"><a xlink:href="../../d3/dcf/classRGBOffsetFilter.html" target="_top" xlink:title=" ">
<polygon fill="white" stroke="#666666" points="458,-19 366,-19 366,0 458,0 458,-19"/>
<text text-anchor="middle" x="412" y="-7" font-family="Helvetica,sans-Serif" font-size="10.00">RGBOffsetFilter</text>
</a>
</g>
</g>
<!-- Node1&#45;&gt;Node5 -->
<g id="edge4_Node000001_Node000005" class="edge">
<title>Node1&#45;&gt;Node5</title>
<g id="a_edge4_Node000001_Node000005"><a xlink:title=" ">
<path fill="none" stroke="#63b8ff" d="M286.95,-52.72C316.36,-42.79 359.43,-28.25 386.57,-19.08"/>
<polygon fill="#63b8ff" stroke="#63b8ff" points="285.52,-49.5 277.16,-56.02 287.76,-56.14 285.52,-49.5"/>
</a>
</g>
</g>
</g>
</svg>
