<?xml version="1.0" encoding="UTF-8" standalone="no"?>
<!DOCTYPE svg PUBLIC "-//W3C//DTD SVG 1.1//EN"
 "http://www.w3.org/Graphics/SVG/1.1/DTD/svg11.dtd">
<!-- Generated by graphviz version 2.42.4 (0)
 -->
<!-- Title: src/filters/ConvolutionFilter.cpp Pages: 1 -->
<svg width="336pt" height="247pt"
 viewBox="0.00 0.00 335.50 247.00" xmlns="http://www.w3.org/2000/svg" xmlns:xlink="http://www.w3.org/1999/xlink">
<g id="graph0" class="graph" transform="scale(1 1) rotate(0) translate(4 243)">
<title>src/filters/ConvolutionFilter.cpp</title>
<!-- Node1 -->
<g id="Node000001" class="node">
<title>Node1</title>
<g id="a_Node000001"><a xlink:title=" ">
<polygon fill="#999999" stroke="#666666" points="267,-239 100,-239 100,-220 267,-220 267,-239"/>
<text text-anchor="middle" x="183.5" y="-227" font-family="Helvetica,sans-Serif" font-size="10.00">src/filters/ConvolutionFilter.cpp</text>
</a>
</g>
</g>
<!-- Node2 -->
<g id="Node000002" class="node">
<title>Node2</title>
<g id="a_Node000002"><a xlink:href="../../d1/d04/ConvolutionFilter_8hpp.html" target="_top" xlink:title=" ">
<polygon fill="white" stroke="#666666" points="207,-184 56,-184 56,-165 207,-165 207,-184"/>
<text text-anchor="middle" x="131.5" y="-172" font-family="Helvetica,sans-Serif" font-size="10.00">filters/ConvolutionFilter.hpp</text>
</a>
</g>
</g>
<!-- Node1&#45;&gt;Node2 -->
<g id="edge1_Node000001_Node000002" class="edge">
<title>Node1&#45;&gt;Node2</title>
<g id="a_edge1_Node000001_Node000002"><a xlink:title=" ">
<path fill="none" stroke="#63b8ff" d="M174.91,-219.75C167.34,-212.03 156.12,-200.6 146.99,-191.28"/>
<polygon fill="#63b8ff" stroke="#63b8ff" points="149.43,-188.78 139.93,-184.09 144.43,-193.68 149.43,-188.78"/>
</a>
</g>
</g>
<!-- Node4 -->
<g id="Node000004" class="node">
<title>Node4</title>
<g id="a_Node000004"><a xlink:href="../../d8/dde/Image_8hpp.html" target="_top" xlink:title=" ">
<polygon fill="white" stroke="#666666" points="141.5,-74 43.5,-74 43.5,-55 141.5,-55 141.5,-74"/>
<text text-anchor="middle" x="92.5" y="-62" font-family="Helvetica,sans-Serif" font-size="10.00">types/Image.hpp</text>
</a>
</g>
</g>
<!-- Node1&#45;&gt;Node4 -->
<g id="edge10_Node000001_Node000004" class="edge">
<title>Node1&#45;&gt;Node4</title>
<g id="a_edge10_Node000001_Node000004"><a xlink:title=" ">
<path fill="none" stroke="#63b8ff" d="M103.16,-219.92C81.29,-213.48 59.95,-202.51 46.5,-184 23.06,-151.74 55.63,-105.98 76.82,-81.85"/>
<polygon fill="#63b8ff" stroke="#63b8ff" points="79.57,-84.03 83.73,-74.28 74.4,-79.31 79.57,-84.03"/>
</a>
</g>
</g>
<!-- Node8 -->
<g id="Node000008" class="node">
<title>Node8</title>
<g id="a_Node000008"><a xlink:href="../../d8/d46/Kernel_8hpp.html" target="_top" xlink:title=" ">
<polygon fill="white" stroke="#666666" points="296.5,-129 198.5,-129 198.5,-110 296.5,-110 296.5,-129"/>
<text text-anchor="middle" x="247.5" y="-117" font-family="Helvetica,sans-Serif" font-size="10.00">types/Kernel.hpp</text>
</a>
</g>
</g>
<!-- Node1&#45;&gt;Node8 -->
<g id="edge11_Node000001_Node000008" class="edge">
<title>Node1&#45;&gt;Node8</title>
<g id="a_edge11_Node000001_Node000008"><a xlink:title=" ">
<path fill="none" stroke="#63b8ff" d="M190.29,-219.91C197.08,-211.15 207.61,-197.02 215.5,-184 224.49,-169.17 233.25,-151.5 239.32,-138.57"/>
<polygon fill="#63b8ff" stroke="#63b8ff" points="242.56,-139.91 243.57,-129.36 236.2,-136.97 242.56,-139.91"/>
</a>
</g>
</g>
<!-- Node9 -->
<g id="Node000009" class="node">
<title>Node9</title>
<g id="a_Node000009"><a xlink:title=" ">
<polygon fill="#e0e0e0" stroke="#999999" points="327.5,-184 263.5,-184 263.5,-165 327.5,-165 327.5,-184"/>
<text text-anchor="middle" x="295.5" y="-172" font-family="Helvetica,sans-Serif" font-size="10.00">algorithm</text>
</a>
</g>
</g>
<!-- Node1&#45;&gt;Node9 -->
<g id="edge12_Node000001_Node000009" class="edge">
<title>Node1&#45;&gt;Node9</title>
<g id="a_edge12_Node000001_Node000009"><a xlink:title=" ">
<path fill="none" stroke="#63b8ff" d="M201.49,-219.98C219.43,-211.5 247.22,-198.35 267.93,-188.54"/>
<polygon fill="#63b8ff" stroke="#63b8ff" points="269.64,-191.61 277.18,-184.17 266.64,-185.28 269.64,-191.61"/>
</a>
</g>
</g>
<!-- Node3 -->
<g id="Node000003" class="node">
<title>Node3</title>
<g id="a_Node000003"><a xlink:href="../../d0/da6/IFilter_8hpp.html" target="_top" xlink:title=" ">
<polygon fill="white" stroke="#666666" points="180.5,-129 82.5,-129 82.5,-110 180.5,-110 180.5,-129"/>
<text text-anchor="middle" x="131.5" y="-117" font-family="Helvetica,sans-Serif" font-size="10.00">filt_op/IFilter.hpp</text>
</a>
</g>
</g>
<!-- Node2&#45;&gt;Node3 -->
<g id="edge2_Node000002_Node000003" class="edge">
<title>Node2&#45;&gt;Node3</title>
<g id="a_edge2_Node000002_Node000003"><a xlink:title=" ">
<path fill="none" stroke="#63b8ff" d="M131.5,-164.75C131.5,-157.8 131.5,-147.85 131.5,-139.13"/>
<polygon fill="#63b8ff" stroke="#63b8ff" points="135,-139.09 131.5,-129.09 128,-139.09 135,-139.09"/>
</a>
</g>
</g>
<!-- Node2&#45;&gt;Node4 -->
<g id="edge7_Node000002_Node000004" class="edge">
<title>Node2&#45;&gt;Node4</title>
<g id="a_edge7_Node000002_Node000004"><a xlink:title=" ">
<path fill="none" stroke="#63b8ff" d="M112.83,-164.97C99.17,-157.59 81.64,-145.5 73.5,-129 66.13,-114.05 73.18,-95.69 80.69,-82.56"/>
<polygon fill="#63b8ff" stroke="#63b8ff" points="83.69,-84.38 86.05,-74.05 77.76,-80.66 83.69,-84.38"/>
</a>
</g>
</g>
<!-- Node2&#45;&gt;Node8 -->
<g id="edge8_Node000002_Node000008" class="edge">
<title>Node2&#45;&gt;Node8</title>
<g id="a_edge8_Node000002_Node000008"><a xlink:title=" ">
<path fill="none" stroke="#63b8ff" d="M150.14,-164.98C168.8,-156.46 197.75,-143.23 219.24,-133.41"/>
<polygon fill="#63b8ff" stroke="#63b8ff" points="220.88,-136.51 228.52,-129.17 217.97,-130.14 220.88,-136.51"/>
</a>
</g>
</g>
<!-- Node3&#45;&gt;Node4 -->
<g id="edge3_Node000003_Node000004" class="edge">
<title>Node3&#45;&gt;Node4</title>
<g id="a_edge3_Node000003_Node000004"><a xlink:title=" ">
<path fill="none" stroke="#63b8ff" d="M125.06,-109.75C119.61,-102.34 111.64,-91.5 104.94,-82.41"/>
<polygon fill="#63b8ff" stroke="#63b8ff" points="107.57,-80.07 98.82,-74.09 101.93,-84.22 107.57,-80.07"/>
</a>
</g>
</g>
<!-- Node5 -->
<g id="Node000005" class="node">
<title>Node5</title>
<g id="a_Node000005"><a xlink:title=" ">
<polygon fill="#e0e0e0" stroke="#999999" points="211,-19 164,-19 164,0 211,0 211,-19"/>
<text text-anchor="middle" x="187.5" y="-7" font-family="Helvetica,sans-Serif" font-size="10.00">vector</text>
</a>
</g>
</g>
<!-- Node4&#45;&gt;Node5 -->
<g id="edge4_Node000004_Node000005" class="edge">
<title>Node4&#45;&gt;Node5</title>
<g id="a_edge4_Node000004_Node000005"><a xlink:title=" ">
<path fill="none" stroke="#63b8ff" d="M107.76,-54.98C122.63,-46.69 145.48,-33.94 162.92,-24.22"/>
<polygon fill="#63b8ff" stroke="#63b8ff" points="164.93,-27.1 171.96,-19.17 161.52,-20.99 164.93,-27.1"/>
</a>
</g>
</g>
<!-- Node6 -->
<g id="Node000006" class="node">
<title>Node6</title>
<g id="a_Node000006"><a xlink:title=" ">
<polygon fill="#e0e0e0" stroke="#999999" points="65,-19 0,-19 0,0 65,0 65,-19"/>
<text text-anchor="middle" x="32.5" y="-7" font-family="Helvetica,sans-Serif" font-size="10.00">stdexcept</text>
</a>
</g>
</g>
<!-- Node4&#45;&gt;Node6 -->
<g id="edge5_Node000004_Node000006" class="edge">
<title>Node4&#45;&gt;Node6</title>
<g id="a_edge5_Node000004_Node000006"><a xlink:title=" ">
<path fill="none" stroke="#63b8ff" d="M82.86,-54.98C73.99,-47.15 60.63,-35.34 49.89,-25.86"/>
<polygon fill="#63b8ff" stroke="#63b8ff" points="52.13,-23.17 42.32,-19.17 47.49,-28.41 52.13,-23.17"/>
</a>
</g>
</g>
<!-- Node7 -->
<g id="Node000007" class="node">
<title>Node7</title>
<g id="a_Node000007"><a xlink:href="../../d4/d0a/Pixel_8hpp.html" target="_top" xlink:title=" ">
<polygon fill="white" stroke="#666666" points="144,-19 83,-19 83,0 144,0 144,-19"/>
<text text-anchor="middle" x="113.5" y="-7" font-family="Helvetica,sans-Serif" font-size="10.00">Pixel.hpp</text>
</a>
</g>
</g>
<!-- Node4&#45;&gt;Node7 -->
<g id="edge6_Node000004_Node000007" class="edge">
<title>Node4&#45;&gt;Node7</title>
<g id="a_edge6_Node000004_Node000007"><a xlink:title=" ">
<path fill="none" stroke="#63b8ff" d="M95.97,-54.75C98.78,-47.65 102.84,-37.4 106.35,-28.56"/>
<polygon fill="#63b8ff" stroke="#63b8ff" points="109.67,-29.68 110.1,-19.09 103.16,-27.1 109.67,-29.68"/>
</a>
</g>
</g>
<!-- Node8&#45;&gt;Node5 -->
<g id="edge9_Node000008_Node000005" class="edge">
<title>Node8&#45;&gt;Node5</title>
<g id="a_edge9_Node000008_Node000005"><a xlink:title=" ">
<path fill="none" stroke="#63b8ff" d="M242.59,-109.66C232.7,-91.85 210.2,-51.37 197.23,-28.01"/>
<polygon fill="#63b8ff" stroke="#63b8ff" points="200.23,-26.2 192.31,-19.16 194.11,-29.6 200.23,-26.2"/>
</a>
</g>
</g>
</g>
</svg>
