<?xml version="1.0" encoding="UTF-8" standalone="no"?>
<!DOCTYPE svg PUBLIC "-//W3C//DTD SVG 1.1//EN"
 "http://www.w3.org/Graphics/SVG/1.1/DTD/svg11.dtd">
<!-- Generated by graphviz version 2.42.4 (0)
 -->
<!-- Title: ConvolutionFilter::apply Pages: 1 -->
<svg width="364pt" height="290pt"
 viewBox="0.00 0.00 364.00 290.00" xmlns="http://www.w3.org/2000/svg" xmlns:xlink="http://www.w3.org/1999/xlink">

<svg id="main" version="1.1" xmlns="http://www.w3.org/2000/svg" xmlns:xlink="http://www.w3.org/1999/xlink" xml:space="preserve" onload="init(evt)">
<style type="text/css"><![CDATA[
.node, .edge {opacity: 0.7;}
.node.selected, .edge.selected {opacity: 1;}
.edge:hover path { stroke: red; }
.edge:hover polygon { stroke: red; fill: red; }
]]></style>
<script type="application/ecmascript" xlink:href="../../svg.min.js"/>
<svg id="graph" class="graph">
<g id="graph0" class="graph" transform="scale(1 1) rotate(0) translate(4 286)">
<title>ConvolutionFilter::apply</title>
<!-- Node1 -->
<g id="Node000001" class="node">
<title>Node1</title>
<g id="a_Node000001"><a xlink:title=" ">
<polygon fill="#999999" stroke="#666666" points="106,-155.5 0,-155.5 0,-125.5 106,-125.5 106,-155.5"/>
<text text-anchor="start" x="8" y="-143.5" font-family="Helvetica,sans-Serif" font-size="10.00">ConvolutionFilter::</text>
<text text-anchor="middle" x="53" y="-132.5" font-family="Helvetica,sans-Serif" font-size="10.00">apply</text>
</a>
</g>
</g>
<!-- Node2 -->
<g id="Node000002" class="node">
<title>Node2</title>
<g id="a_Node000002"><a xlink:href="../../d1/db8/classKernel.html#a7d1198708367e5f9752281e4a46f067d" target="_top" xlink:title=" ">
<polygon fill="white" stroke="#666666" points="241,-282 144,-282 144,-263 241,-263 241,-282"/>
<text text-anchor="middle" x="192.5" y="-270" font-family="Helvetica,sans-Serif" font-size="10.00">Kernel::absToRel</text>
</a>
</g>
</g>
<!-- Node1&#45;&gt;Node2 -->
<g id="edge1_Node000001_Node000002" class="edge">
<title>Node1&#45;&gt;Node2</title>
<g id="a_edge1_Node000001_Node000002"><a xlink:title=" ">
<path fill="none" stroke="#63b8ff" d="M61.93,-155.64C75.33,-179.83 104.65,-227.21 142,-254.5 143.86,-255.86 145.83,-257.12 147.88,-258.3"/>
<polygon fill="#63b8ff" stroke="#63b8ff" points="146.68,-261.61 157.19,-262.92 149.79,-255.34 146.68,-261.61"/>
</a>
</g>
</g>
<!-- Node3 -->
<g id="Node000003" class="node">
<title>Node3</title>
<g id="a_Node000003"><a xlink:href="../../d8/d00/classImage.html#adee9bd20c718f3137e2e920c94a715c9" target="_top" xlink:title=" ">
<polygon fill="white" stroke="#666666" points="224,-245 161,-245 161,-226 224,-226 224,-245"/>
<text text-anchor="middle" x="192.5" y="-233" font-family="Helvetica,sans-Serif" font-size="10.00">Image::at</text>
</a>
</g>
</g>
<!-- Node1&#45;&gt;Node3 -->
<g id="edge2_Node000001_Node000003" class="edge">
<title>Node1&#45;&gt;Node3</title>
<g id="a_edge2_Node000001_Node000003"><a xlink:title=" ">
<path fill="none" stroke="#63b8ff" d="M70.33,-155.58C87.38,-170.86 115.31,-194.57 142,-211.5 147.5,-214.99 153.59,-218.33 159.56,-221.34"/>
<polygon fill="#63b8ff" stroke="#63b8ff" points="158.22,-224.58 168.74,-225.79 161.27,-218.28 158.22,-224.58"/>
</a>
</g>
</g>
<!-- Node4 -->
<g id="Node000004" class="node">
<title>Node4</title>
<g id="a_Node000004"><a xlink:href="../../d1/db8/classKernel.html#a5f94f2c43479665eded0abfbb163b233" target="_top" xlink:title=" ">
<polygon fill="white" stroke="#666666" points="354,-150 281,-150 281,-131 354,-131 354,-150"/>
<text text-anchor="middle" x="317.5" y="-138" font-family="Helvetica,sans-Serif" font-size="10.00">Kernel::cols</text>
</a>
</g>
</g>
<!-- Node1&#45;&gt;Node4 -->
<g id="edge3_Node000001_Node000004" class="edge">
<title>Node1&#45;&gt;Node4</title>
<g id="a_edge3_Node000001_Node000004"><a xlink:title=" ">
<path fill="none" stroke="#63b8ff" d="M81.18,-155.68C98.11,-164.24 120.65,-174.09 142,-178.5 185.96,-187.59 199.38,-189.11 243,-178.5 261.43,-174.02 280.41,-164.05 294.46,-155.44"/>
<polygon fill="#63b8ff" stroke="#63b8ff" points="296.37,-158.38 302.93,-150.06 292.61,-152.47 296.37,-158.38"/>
</a>
</g>
</g>
<!-- Node5 -->
<g id="Node000005" class="node">
<title>Node5</title>
<g id="a_Node000005"><a xlink:href="../../d8/d00/classImage.html#a1cd7587f88b6932b5269051d1ba08ff9" target="_top" xlink:title=" ">
<polygon fill="white" stroke="#666666" points="243,-169 142,-169 142,-150 243,-150 243,-169"/>
<text text-anchor="middle" x="192.5" y="-157" font-family="Helvetica,sans-Serif" font-size="10.00">Image::getHeight</text>
</a>
</g>
</g>
<!-- Node1&#45;&gt;Node5 -->
<g id="edge4_Node000001_Node000005" class="edge">
<title>Node1&#45;&gt;Node5</title>
<g id="a_edge4_Node000001_Node000005"><a xlink:title=" ">
<path fill="none" stroke="#63b8ff" d="M106.38,-147.74C114.78,-148.9 123.52,-150.11 132.07,-151.29"/>
<polygon fill="#63b8ff" stroke="#63b8ff" points="131.6,-154.76 141.99,-152.66 132.56,-147.82 131.6,-154.76"/>
</a>
</g>
</g>
<!-- Node6 -->
<g id="Node000006" class="node">
<title>Node6</title>
<g id="a_Node000006"><a xlink:href="../../d1/db8/classKernel.html#a444312f137c540a02008bf49f8237510" target="_top" xlink:title=" ">
<polygon fill="white" stroke="#666666" points="240.5,-132 144.5,-132 144.5,-113 240.5,-113 240.5,-132"/>
<text text-anchor="middle" x="192.5" y="-120" font-family="Helvetica,sans-Serif" font-size="10.00">Kernel::getValue</text>
</a>
</g>
</g>
<!-- Node1&#45;&gt;Node6 -->
<g id="edge5_Node000001_Node000006" class="edge">
<title>Node1&#45;&gt;Node6</title>
<g id="a_edge5_Node000001_Node000006"><a xlink:title=" ">
<path fill="none" stroke="#63b8ff" d="M106.38,-133.64C115.42,-132.46 124.86,-131.22 134.03,-130.02"/>
<polygon fill="#63b8ff" stroke="#63b8ff" points="134.77,-133.46 144.23,-128.69 133.86,-126.52 134.77,-133.46"/>
</a>
</g>
</g>
<!-- Node7 -->
<g id="Node000007" class="node">
<title>Node7</title>
<g id="a_Node000007"><a xlink:href="../../d1/db8/classKernel.html#a5ed7513959e5398a48e0149fbf786209" target="_top" xlink:title=" ">
<polygon fill="white" stroke="#666666" points="356,-113 279,-113 279,-94 356,-94 356,-113"/>
<text text-anchor="middle" x="317.5" y="-101" font-family="Helvetica,sans-Serif" font-size="10.00">Kernel::rows</text>
</a>
</g>
</g>
<!-- Node1&#45;&gt;Node7 -->
<g id="edge9_Node000001_Node000007" class="edge">
<title>Node1&#45;&gt;Node7</title>
<g id="a_edge9_Node000001_Node000007"><a xlink:title=" ">
<path fill="none" stroke="#63b8ff" d="M82.01,-125.34C98.86,-117.09 121.04,-107.73 142,-103.5 184.3,-94.97 233.55,-95.93 268.92,-98.46"/>
<polygon fill="#63b8ff" stroke="#63b8ff" points="268.73,-101.96 278.97,-99.25 269.28,-94.98 268.73,-101.96"/>
</a>
</g>
</g>
<!-- Node8 -->
<g id="Node000008" class="node">
<title>Node8</title>
<g id="a_Node000008"><a xlink:href="../../d8/d00/classImage.html#a36bcae4838228d574738249a87dc4464" target="_top" xlink:title=" ">
<polygon fill="white" stroke="#666666" points="241.5,-56 143.5,-56 143.5,-37 241.5,-37 241.5,-56"/>
<text text-anchor="middle" x="192.5" y="-44" font-family="Helvetica,sans-Serif" font-size="10.00">Image::getWidth</text>
</a>
</g>
</g>
<!-- Node1&#45;&gt;Node8 -->
<g id="edge8_Node000001_Node000008" class="edge">
<title>Node1&#45;&gt;Node8</title>
<g id="a_edge8_Node000001_Node000008"><a xlink:title=" ">
<path fill="none" stroke="#63b8ff" d="M70.69,-125.37C87.8,-110.32 115.56,-87.14 142,-70.5 147.62,-66.96 153.84,-63.57 159.93,-60.52"/>
<polygon fill="#63b8ff" stroke="#63b8ff" points="161.77,-63.51 169.26,-56.01 158.73,-57.21 161.77,-63.51"/>
</a>
</g>
</g>
<!-- Node9 -->
<g id="Node000009" class="node">
<title>Node9</title>
<g id="a_Node000009"><a xlink:href="../../d8/d00/classImage.html#a6dd65d408f5cb14e7eaf5d96fe00a99e" target="_top" xlink:title=" ">
<polygon fill="white" stroke="#666666" points="238.5,-19 146.5,-19 146.5,0 238.5,0 238.5,-19"/>
<text text-anchor="middle" x="192.5" y="-7" font-family="Helvetica,sans-Serif" font-size="10.00">Image::setPixel</text>
</a>
</g>
</g>
<!-- Node1&#45;&gt;Node9 -->
<g id="edge10_Node000001_Node000009" class="edge">
<title>Node1&#45;&gt;Node9</title>
<g id="a_edge10_Node000001_Node000009"><a xlink:title=" ">
<path fill="none" stroke="#63b8ff" d="M61.97,-125.49C75.41,-101.52 104.8,-54.56 142,-27.5 143.86,-26.15 145.84,-24.88 147.89,-23.71"/>
<polygon fill="#63b8ff" stroke="#63b8ff" points="149.79,-26.67 157.2,-19.1 146.69,-20.39 149.79,-26.67"/>
</a>
</g>
</g>
<!-- Node6&#45;&gt;Node4 -->
<g id="edge6_Node000006_Node000004" class="edge">
<title>Node6&#45;&gt;Node4</title>
<g id="a_edge6_Node000006_Node000004"><a xlink:title=" ">
<path fill="none" stroke="#63b8ff" d="M240.7,-129.41C250.56,-130.85 260.93,-132.37 270.73,-133.8"/>
<polygon fill="#63b8ff" stroke="#63b8ff" points="270.29,-137.28 280.7,-135.26 271.31,-130.35 270.29,-137.28"/>
</a>
</g>
</g>
<!-- Node6&#45;&gt;Node7 -->
<g id="edge7_Node000006_Node000007" class="edge">
<title>Node6&#45;&gt;Node7</title>
<g id="a_edge7_Node000006_Node000007"><a xlink:title=" ">
<path fill="none" stroke="#63b8ff" d="M240.7,-115.21C249.86,-113.79 259.46,-112.31 268.64,-110.89"/>
<polygon fill="#63b8ff" stroke="#63b8ff" points="269.42,-114.31 278.77,-109.33 268.35,-107.4 269.42,-114.31"/>
</a>
</g>
</g>
</g>
</svg>
</svg>

<style type='text/css'>
<![CDATA[
[data-mouse-over-selected='false'] { opacity: 0.7; }
[data-mouse-over-selected='true']  { opacity: 1.0; }
]]>
</style>
<script type="application/ecmascript"><![CDATA[
document.addEventListener('DOMContentLoaded', (event) => {
  highlightEdges();
  highlightAdjacentNodes();
});
]]></script>
</svg>
